<svg xmlns="http://www.w3.org/2000/svg" version="1.1" xmlns:xlink="http://www.w3.org/1999/xlink" xmlns:svgjs="http://svgjs.com/svgjs" width="1440" height="300" preserveAspectRatio="none" viewBox="0 0 1440 300"><g mask="url(&quot;#SvgjsMask1810&quot;)" fill="none"><rect width="1440" height="300" x="0" y="0" fill="url(#SvgjsLinearGradient1811)"></rect><path d="M1440 0L793.75 0L1440 84.88z" fill="rgba(255, 255, 255, .1)"></path><path d="M793.75 0L1440 84.88L1440 183.62L481.29 0z" fill="rgba(255, 255, 255, .075)"></path><path d="M481.28999999999996 0L1440 183.62L1440 197.49L244.49999999999997 0z" fill="rgba(255, 255, 255, .05)"></path><path d="M244.5 0L1440 197.49L1440 257.82L211.82 0z" fill="rgba(255, 255, 255, .025)"></path><path d="M0 300L204.21 300L0 234.20999999999998z" fill="rgba(0, 0, 0, .1)"></path><path d="M0 234.20999999999998L204.21 300L888.2900000000001 300L0 161.78999999999996z" fill="rgba(0, 0, 0, .075)"></path><path d="M0 161.79L888.2900000000001 300L1077.5600000000002 300L0 90.27z" fill="rgba(0, 0, 0, .05)"></path><path d="M0 90.26999999999998L1077.5600000000002 300L1273.89 300L0 31.219999999999985z" fill="rgba(0, 0, 0, .025)"></path></g><defs><mask id="SvgjsMask1810"><rect width="1440" height="300" fill="#ffffff"></rect></mask><linearGradient x1="80.21%" y1="195%" x2="19.79%" y2="-95%" gradientUnits="userSpaceOnUse" id="SvgjsLinearGradient1811"><stop stop-color="rgba(14, 42, 71, 1)" offset="0"></stop><stop stop-color="rgba(0, 191, 255, 1)" offset="0.24"></stop></linearGradient></defs></svg>