<svg xmlns="http://www.w3.org/2000/svg" viewBox="0 0 500 500"><g id="freepik--Floor--inject-8"><path id="freepik--floor--inject-8" d="M83.92,250.12c-91.72,53-91.72,138.82,0,191.77s240.44,53,332.16,0,91.72-138.81,0-191.77S175.64,197.17,83.92,250.12Z" style="fill:#fafafa"></path></g><g id="freepik--Board--inject-8"><g id="freepik--board--inject-8"><g id="freepik--board--inject-8"><path d="M361.36,40.59l-.78.45v96.15c0,2.54,1.54,5.5,3.45,6.6L470.08,205a2.27,2.27,0,0,0,2.16.23c.17-.08.76-.43.89-.51a3.07,3.07,0,0,0,1.19-2.79V105.81Z" style="fill:#e0e0e0"></path><path d="M470.08,205,364,143.79c-1.91-1.1-3.45-4.06-3.45-6.6V41l113,65.22V202.4C473.53,204.94,472,206.11,470.08,205Z" style="fill:#fafafa"></path><path d="M361.58,42.78l111,64.06V202.4c0,.93-.28,2-1.08,2a1.76,1.76,0,0,1-.87-.28l-106-61.22a7.29,7.29,0,0,1-2.95-5.73V42.78m-1-1.74v96.15c0,2.54,1.54,5.5,3.45,6.6L470.08,205a2.78,2.78,0,0,0,1.37.41c1.23,0,2.08-1.13,2.08-3V106.26L360.58,41Z" style="fill:#e0e0e0"></path></g><g id="freepik--sticky-notes--inject-8"><g id="freepik--notes-shadows--inject-8" style="opacity:0.15"><polygon points="464.82 150.12 457.1 145.66 457.1 133.77 464.82 138.23 464.82 150.12"></polygon><polygon points="465.66 166.77 457.94 162.31 457.94 150.43 465.66 154.88 465.66 166.77"></polygon></g><g id="freepik--Notes--inject-8"><g id="freepik--Note--inject-8"><polygon points="456.72 162 464.7 166.55 465.42 156.9 457.39 152.26 456.72 162" style="fill:#f0f0f0"></polygon><polygon points="457.39 152.26 465.42 156.9 465.42 155.41 457.39 150.78 457.39 152.26" style="fill:#e0e0e0"></polygon><polygon points="457.39 152.26 465.42 156.9 465.42 155.41 457.39 150.78 457.39 152.26" style="fill:#e6e6e6;opacity:0.1"></polygon></g><g id="freepik--note--inject-8"><path d="M456.05,145.26l5.34,3c.59.33,1-.63,1-1.21.59.38,1.81.62,1.87-.14l.5-6.74-8-4.64Z" style="fill:#fff"></path><polygon points="456.72 135.52 464.75 140.16 464.75 138.67 456.72 134.03 456.72 135.52" style="fill:#f0f0f0"></polygon><polygon points="464 147.3 461.8 148.27 462.49 146.48 464 147.3" style="fill:#f0f0f0"></polygon></g></g></g><g id="freepik--Chart--inject-8"><polygon points="452.32 155.29 370.06 107.74 370.06 52.42 452.32 99.97 452.32 155.29" style="opacity:0.15"></polygon><path d="M450.33,154.67l.22-.13a1.43,1.43,0,0,0,.65-1.12v-52a1.43,1.43,0,0,0-.65-1.12L370,53.67a1.42,1.42,0,0,0-1.3,0l-.22.13a1.43,1.43,0,0,0-.65,1.12v52a1.43,1.43,0,0,0,.65,1.12L449,154.67A1.48,1.48,0,0,0,450.33,154.67Z" style="fill:#f0f0f0"></path><path d="M451.19,101.39v52a1.42,1.42,0,0,1-.64,1.12l-.22.13a1.48,1.48,0,0,1-1.15.06c.29.09.5-.08.5-.44v-52a1.28,1.28,0,0,0-.19-.63l1.52-.88A1.41,1.41,0,0,1,451.19,101.39Z" style="fill:#e0e0e0"></path><path d="M368.52,54.55,449,101.14a1.43,1.43,0,0,1,.65,1.12v52c0,.42-.29.58-.65.38l-80.51-46.6a1.43,1.43,0,0,1-.65-1.12v-52C367.87,54.51,368.16,54.34,368.52,54.55Z" style="fill:#fff"></path><path d="M442.92,144.58h0a2,2,0,0,1-1-1.52.67.67,0,0,1,.1-.37l-6-11.8c-.15.23-.49.26-.86,0a2,2,0,0,1-1-1.52.52.52,0,0,1,.2-.46l-6.15-8.2a.69.69,0,0,1-.77,0,2,2,0,0,1-1-1.52.78.78,0,0,1,0-.22l-5.82-13.21c-.1.36-.47.45-.93.19a2,2,0,0,1-1-1.52A.62.62,0,0,1,419,104l-6-6.44c-.15.22-.48.25-.86,0a2.1,2.1,0,0,1-.68-.68l-6.31,2.72a1.63,1.63,0,0,1,.27.84c0,.54-.43.72-1,.42a2,2,0,0,1-1-1.53,1.36,1.36,0,0,1,0-.21l-5.81-4.83c-.1.37-.48.46-.93.2a2,2,0,0,1-1-1.52.49.49,0,0,1,.36-.54h0l-6.48-11.9a.85.85,0,0,1-.6-.13,2,2,0,0,1-1-1.52h0l-5.75-3.32c0,.53-.43.71-1,.41a2,2,0,0,1-1-1.52.5.5,0,0,1,.36-.55l-6.46-11.85a.81.81,0,0,1-.62-.13v46.24l69.1,39.89Z" style="fill:#f0f0f0"></path><path d="M380.57,73.9a.74.74,0,0,0-.27.61,2.23,2.23,0,0,0,1.08,1.71,1.23,1.23,0,0,0,.55.18.72.72,0,0,0,.36-.06.65.65,0,0,0,.34-.35l5.36,3.1a2.28,2.28,0,0,0,1.06,1.56,1.27,1.27,0,0,0,.55.18h0l6.31,11.59a.74.74,0,0,0-.27.61,2.23,2.23,0,0,0,1.08,1.71,1.23,1.23,0,0,0,.55.18.85.85,0,0,0,.36,0,.78.78,0,0,0,.2-.14l5.5,4.56s0,.07,0,.11a2.2,2.2,0,0,0,1.08,1.7,1.35,1.35,0,0,0,.54.19.76.76,0,0,0,.37-.06.69.69,0,0,0,.4-.69,1.75,1.75,0,0,0-.21-.77l5.93-2.55a2.23,2.23,0,0,0,.64.59,1.27,1.27,0,0,0,.55.18.76.76,0,0,0,.37-.06l0,0,5.71,6.18a.75.75,0,0,0-.06.31,2.2,2.2,0,0,0,1.08,1.7,1.4,1.4,0,0,0,.54.19.74.74,0,0,0,.37-.06l.08,0L426.38,119a.9.9,0,0,0,0,.18,2.22,2.22,0,0,0,1.07,1.71,1.27,1.27,0,0,0,.55.18.65.65,0,0,0,.24,0l5.94,7.91a.81.81,0,0,0-.13.46,2.2,2.2,0,0,0,1.08,1.7,1.39,1.39,0,0,0,.55.19.91.91,0,0,0,.33-.05l5.79,11.46a.89.89,0,0,0-.07.34,2.22,2.22,0,0,0,1.07,1.71,1.27,1.27,0,0,0,.55.18.9.9,0,0,0,.37,0,.69.69,0,0,0,.4-.69,2.23,2.23,0,0,0-1.08-1.71,1,1,0,0,0-.91-.13h0l-5.76-11.41a.86.86,0,0,0,.09-.41,2.2,2.2,0,0,0-1.08-1.71,1.09,1.09,0,0,0-.83-.15l-5.92-7.88a.78.78,0,0,0,.16-.49,2.23,2.23,0,0,0-1.08-1.71,1,1,0,0,0-.92-.13l-.12.08L421,105.82a1.26,1.26,0,0,0,0-.28,2.2,2.2,0,0,0-1.08-1.71,1,1,0,0,0-.91-.12l-.07,0-5.69-6.15a.8.8,0,0,0,.08-.36,2.2,2.2,0,0,0-1.08-1.7,1,1,0,0,0-.92-.13.71.71,0,0,0-.4.69,1.79,1.79,0,0,0,.2.75l-5.93,2.55a2.14,2.14,0,0,0-.63-.57,1,1,0,0,0-.91-.12.66.66,0,0,0-.23.17L398,94.34c0-.06,0-.11,0-.16A2.22,2.22,0,0,0,397,92.47a1.21,1.21,0,0,0-.62-.18l-6.3-11.57a.7.7,0,0,0,.32-.64,2.23,2.23,0,0,0-1.08-1.7,1,1,0,0,0-.91-.13.62.62,0,0,0-.35.39l-5.35-3.09a2.19,2.19,0,0,0-1.06-1.6,1.21,1.21,0,0,0-.62-.18L374.81,62.4l-.53,0Zm61.61,69.17c0-.18.06-.31.16-.35a.27.27,0,0,1,.13,0,.73.73,0,0,1,.31.11,1.77,1.77,0,0,1,.85,1.33c0,.18-.06.31-.17.35a.52.52,0,0,1-.44-.09A1.75,1.75,0,0,1,442.18,143.07Zm-7.68-13.65c0-.18.06-.31.17-.35a.52.52,0,0,1,.44.09,1.75,1.75,0,0,1,.84,1.33.48.48,0,0,1,0,.22h0a.15.15,0,0,0-.07.09.05.05,0,0,1,0,0,.51.51,0,0,1-.45-.09A1.78,1.78,0,0,1,434.5,129.42Zm-7.67-10.23c0-.18.06-.31.16-.35a.49.49,0,0,1,.44.09,1.75,1.75,0,0,1,.84,1.33.43.43,0,0,1-.09.3h0l0,0a.53.53,0,0,1-.43-.09A1.75,1.75,0,0,1,426.83,119.19Zm-7.68-14.76c0-.18.06-.31.17-.35a.52.52,0,0,1,.44.09,1.78,1.78,0,0,1,.84,1.33s0,.07,0,.1a.17.17,0,0,0,0,.15s-.06.09-.1.1a.51.51,0,0,1-.45-.09A1.78,1.78,0,0,1,419.15,104.43Zm-7.67-8.3a.37.37,0,0,1,.16-.35.28.28,0,0,1,.13,0,.7.7,0,0,1,.31.1,1.79,1.79,0,0,1,.84,1.34.46.46,0,0,1,0,.21h0a.17.17,0,0,0-.07.1l0,0a.56.56,0,0,1-.44-.09A1.79,1.79,0,0,1,411.48,96.13Zm-7.68,3.3c0-.18.06-.31.16-.35a.3.3,0,0,1,.14,0,1.06,1.06,0,0,1,.31.11,1.83,1.83,0,0,1,.53.51.16.16,0,0,0,0,.09.15.15,0,0,0,.06,0,1.47,1.47,0,0,1,.22.68.36.36,0,0,1-.17.36.54.54,0,0,1-.44-.1A1.78,1.78,0,0,1,403.8,99.43Zm-7.68-6.36c0-.18.06-.31.17-.35a.49.49,0,0,1,.44.09,1.75,1.75,0,0,1,.84,1.33.41.41,0,0,1,0,.11.16.16,0,0,0,0,.13.29.29,0,0,1-.11.11.52.52,0,0,1-.44-.09A1.77,1.77,0,0,1,396.12,93.07ZM388.45,79a.38.38,0,0,1,.16-.36.52.52,0,0,1,.44.1,1.77,1.77,0,0,1,.85,1.33c0,.18-.06.31-.17.35a.56.56,0,0,1-.44-.09A1.75,1.75,0,0,1,388.45,79Zm-7.68-4.44a.36.36,0,0,1,.17-.35.56.56,0,0,1,.44.09,1.82,1.82,0,0,1,.83,1.26.18.18,0,0,0,0,.16.31.31,0,0,1-.15.27.55.55,0,0,1-.44-.09A1.8,1.8,0,0,1,380.77,74.54Z" style="fill:#e0e0e0"></path><path d="M374.13,64.55a.22.22,0,0,0,.25-.2v-2l2,1a.26.26,0,0,0,.34-.09.22.22,0,0,0-.13-.3l-2.4-1.13a.25.25,0,0,0-.24,0,.18.18,0,0,0-.12.18v2.3A.25.25,0,0,0,374.13,64.55Z" style="fill:#e0e0e0"></path></g><g id="freepik--chart--inject-8"><polygon points="452.32 188.72 403.9 160.72 403.9 131.91 452.32 159.91 452.32 188.72" style="opacity:0.15"></polygon><path d="M450.33,188.09l.22-.13a1.4,1.4,0,0,0,.65-1.12V161.33a1.42,1.42,0,0,0-.65-1.12l-46.67-27a1.42,1.42,0,0,0-1.3,0l-.22.13a1.4,1.4,0,0,0-.65,1.12v25.51a1.42,1.42,0,0,0,.65,1.12l46.67,27A1.42,1.42,0,0,0,450.33,188.09Z" style="fill:#f0f0f0"></path><path d="M451.19,161.33v25.51a1.43,1.43,0,0,1-.64,1.13l-.22.13a1.48,1.48,0,0,1-1.15.06c.29.08.5-.08.5-.44V162.2a1.28,1.28,0,0,0-.19-.63l1.52-.88A1.38,1.38,0,0,1,451.19,161.33Z" style="fill:#e0e0e0"></path><path d="M402.36,134l46.67,27a1.43,1.43,0,0,1,.65,1.12v25.52c0,.41-.29.58-.65.37l-46.67-27a1.42,1.42,0,0,1-.65-1.12V134.42C401.71,134,402,133.84,402.36,134Z" style="fill:#fff"></path></g><g id="freepik--Sheet--inject-8"><polygon points="469.79 199.51 453.94 190.37 453.94 163.73 469.79 172.87 469.79 199.51" style="opacity:0.15"></polygon><path d="M468.63,199.76l-15.05-8.68a.88.88,0,0,1-.39-.69V164.67c0-.25.17-.36.39-.23l15.05,8.69a.86.86,0,0,1,.4.69v25.71C469,199.79,468.85,199.89,468.63,199.76Z" style="fill:#fff"></path><path d="M467.11,177l-12-6.93a.86.86,0,0,1-.45-.62c0-.21.2-.25.45-.11l12,6.93a.87.87,0,0,1,.44.62C467.55,177.11,467.35,177.16,467.11,177Z" style="fill:#e0e0e0"></path><path d="M467.11,178.91l-12-6.92a.89.89,0,0,1-.45-.63c0-.2.2-.25.45-.1l12,6.92a.91.91,0,0,1,.44.63C467.55,179,467.35,179.06,467.11,178.91Z" style="fill:#e0e0e0"></path><path d="M467.11,182.85l-12-6.92a.88.88,0,0,1-.45-.63c0-.2.2-.25.45-.1l12,6.92a.91.91,0,0,1,.44.63C467.55,183,467.35,183,467.11,182.85Z" style="fill:#e0e0e0"></path><path d="M467.11,184.75l-12-6.93a.86.86,0,0,1-.45-.62c0-.2.2-.25.45-.11l12,6.93a.87.87,0,0,1,.44.63C467.55,184.85,467.35,184.89,467.11,184.75Z" style="fill:#e0e0e0"></path><path d="M467.11,190.59l-12-6.93a.86.86,0,0,1-.45-.62c0-.2.2-.25.45-.11l12,6.93a.87.87,0,0,1,.44.62C467.55,190.68,467.35,190.73,467.11,190.59Z" style="fill:#e0e0e0"></path><path d="M467.11,188.69l-12-6.92a.89.89,0,0,1-.45-.63c0-.2.2-.25.45-.1l12,6.92a.89.89,0,0,1,.44.63C467.55,188.79,467.35,188.84,467.11,188.69Z" style="fill:#e0e0e0"></path><g id="freepik--Pushpin--inject-8"><path d="M460.23,171.22l0,0,.06,0s.06,0,.1,0l.3-.17.42-.26.49-.29c.05,0,0-.2-.1-.17l-.5.27-.43.24-.3.18s-.08,0-.07.07a.09.09,0,0,0,0,.07Z" style="fill:#e0e0e0"></path><path d="M459.92,171.43c.24.41.62.63,1,.41h0a.44.44,0,0,0,.17-.39,1.34,1.34,0,0,0-.61-1.05.45.45,0,0,0-.41,0h0l0,0A.75.75,0,0,0,459.92,171.43Z" style="fill:#e0e0e0"></path><g style="opacity:0.15"><path d="M459.92,171.43c.24.41.62.63,1,.41h0a.44.44,0,0,0,.17-.39,1.34,1.34,0,0,0-.61-1.05.45.45,0,0,0-.41,0h0l0,0A.75.75,0,0,0,459.92,171.43Z"></path></g><path d="M459.43,172.23l-.45-.77a4.5,4.5,0,0,0,.95-.65l0,0v0h0a.24.24,0,0,1,.29,0,.86.86,0,0,1,.4.68.28.28,0,0,1-.11.26h0l-.08,0A4.75,4.75,0,0,0,459.43,172.23Z" style="fill:#e0e0e0"></path><path d="M458.59,171.61a.48.48,0,0,1,.48-.47.51.51,0,0,1,.17,0h0l.08,0a1.07,1.07,0,0,1,.48.84.49.49,0,0,1-.48.51.48.48,0,0,1-.48-.47s0,0,0-.05A.48.48,0,0,1,458.59,171.61Z" style="fill:#e0e0e0"></path><g style="opacity:0.15"><path d="M458.59,171.61a.48.48,0,0,1,.48-.47.51.51,0,0,1,.17,0h0l.08,0a1.07,1.07,0,0,1,.48.84.49.49,0,0,1-.48.51.48.48,0,0,1-.48-.47s0,0,0-.05A.48.48,0,0,1,458.59,171.61Z"></path></g><path d="M459.07,171.37c-.27-.15-.48,0-.48.28a1,1,0,0,0,.48.83c.26.16.48,0,.48-.28A1.08,1.08,0,0,0,459.07,171.37Z" style="fill:#e0e0e0"></path></g></g><g id="freepik--sheet--inject-8"><polygon points="399.92 157.65 384.08 148.5 384.08 121.87 399.92 131.01 399.92 157.65" style="opacity:0.15"></polygon><path d="M398.77,157.9l-15-8.68a.89.89,0,0,1-.4-.69V122.81c0-.26.18-.36.4-.23l15,8.69a.86.86,0,0,1,.4.69v25.71C399.17,157.93,399,158,398.77,157.9Z" style="fill:#fff"></path><path d="M397.24,135.16l-12-6.93a.87.87,0,0,1-.44-.62c0-.21.2-.25.44-.11l12,6.93a.86.86,0,0,1,.45.62C397.69,135.25,397.49,135.3,397.24,135.16Z" style="fill:#e0e0e0"></path><path d="M397.24,137.05l-12-6.92a.91.91,0,0,1-.44-.63c0-.2.2-.25.44-.1l12,6.92a.88.88,0,0,1,.45.63C397.69,137.15,397.49,137.2,397.24,137.05Z" style="fill:#e0e0e0"></path><path d="M397.24,141l-12-6.92a.89.89,0,0,1-.44-.63c0-.2.2-.25.44-.1l12,6.92a.89.89,0,0,1,.45.63C397.69,141.09,397.49,141.14,397.24,141Z" style="fill:#e0e0e0"></path><path d="M397.24,142.89l-12-6.93a.87.87,0,0,1-.44-.62c0-.2.2-.25.44-.11l12,6.93a.86.86,0,0,1,.45.62C397.69,143,397.49,143,397.24,142.89Z" style="fill:#e0e0e0"></path><path d="M397.24,148.73l-12-6.93a.87.87,0,0,1-.44-.62c0-.2.2-.25.44-.11l12,6.93a.86.86,0,0,1,.45.62C397.69,148.82,397.49,148.87,397.24,148.73Z" style="fill:#e0e0e0"></path><path d="M397.24,146.83l-12-6.93a.87.87,0,0,1-.44-.62c0-.2.2-.25.44-.11l12,6.93a.88.88,0,0,1,.45.63C397.69,146.93,397.49,147,397.24,146.83Z" style="fill:#e0e0e0"></path><g id="freepik--pushpin--inject-8"><path d="M390.37,129.36l0,0,.05,0c.05,0,.07,0,.1,0l.31-.17.42-.26.48-.29c.05,0,0-.2-.09-.17l-.5.27-.43.24-.31.18s-.07,0-.07.07,0,.05,0,.07Z" style="fill:#e0e0e0"></path><path d="M390.06,129.57c.23.41.61.63,1,.41h0a.44.44,0,0,0,.17-.39,1.36,1.36,0,0,0-.61-1,.45.45,0,0,0-.41-.05h0l0,0A.74.74,0,0,0,390.06,129.57Z" style="fill:#e0e0e0"></path><g style="opacity:0.15"><path d="M390.06,129.57c.23.41.61.63,1,.41h0a.44.44,0,0,0,.17-.39,1.36,1.36,0,0,0-.61-1,.45.45,0,0,0-.41-.05h0l0,0A.74.74,0,0,0,390.06,129.57Z"></path></g><path d="M389.57,130.37l-.45-.77a4.5,4.5,0,0,0,.95-.65l0,0v0h0a.25.25,0,0,1,.3,0,.86.86,0,0,1,.4.68.28.28,0,0,1-.12.26h0l-.07,0A4.51,4.51,0,0,0,389.57,130.37Z" style="fill:#e0e0e0"></path><path d="M388.73,129.75a.47.47,0,0,1,.64-.44h0l.08,0a1.1,1.1,0,0,1,.48.84.5.5,0,0,1,0,.12.47.47,0,0,1-.94-.08.09.09,0,0,1,0,0A.46.46,0,0,1,388.73,129.75Z" style="fill:#e0e0e0"></path><g style="opacity:0.15"><path d="M388.73,129.75a.47.47,0,0,1,.64-.44h0l.08,0a1.1,1.1,0,0,1,.48.84.5.5,0,0,1,0,.12.47.47,0,0,1-.94-.08.09.09,0,0,1,0,0A.46.46,0,0,1,388.73,129.75Z"></path></g><path d="M389.2,129.51c-.26-.15-.48,0-.48.28a1.06,1.06,0,0,0,.48.83c.27.16.49,0,.49-.28A1.06,1.06,0,0,0,389.2,129.51Z" style="fill:#e0e0e0"></path></g></g><g id="freepik--sheet--inject-8"><polygon points="382.44 147.72 366.59 138.57 366.59 111.94 382.44 121.08 382.44 147.72" style="opacity:0.15"></polygon><path d="M381.28,148l-15-8.68a.89.89,0,0,1-.4-.69V112.88c0-.25.18-.36.4-.23l15,8.69a.86.86,0,0,1,.4.69v25.71C381.68,148,381.5,148.1,381.28,148Z" style="fill:#fff"></path><path d="M379.76,125.23l-12-6.93a.86.86,0,0,1-.45-.62c0-.21.2-.25.45-.11l12,6.93a.87.87,0,0,1,.44.62C380.2,125.32,380,125.37,379.76,125.23Z" style="fill:#e0e0e0"></path><path d="M379.76,127.12l-12-6.92a.89.89,0,0,1-.45-.63c0-.2.2-.25.45-.1l12,6.92a.91.91,0,0,1,.44.63C380.2,127.22,380,127.27,379.76,127.12Z" style="fill:#e0e0e0"></path><path d="M379.76,131.06l-12-6.92a.88.88,0,0,1-.45-.63c0-.2.2-.25.45-.1l12,6.92a.91.91,0,0,1,.44.63C380.2,131.16,380,131.21,379.76,131.06Z" style="fill:#e0e0e0"></path><path d="M379.76,133l-12-6.93a.86.86,0,0,1-.45-.62c0-.2.2-.25.45-.11l12,6.93a.87.87,0,0,1,.44.63C380.2,133.06,380,133.1,379.76,133Z" style="fill:#e0e0e0"></path><path d="M379.76,138.8l-12-6.93a.86.86,0,0,1-.45-.62c0-.2.2-.25.45-.11l12,6.93a.87.87,0,0,1,.44.62C380.2,138.89,380,138.94,379.76,138.8Z" style="fill:#e0e0e0"></path><path d="M379.76,136.9l-12-6.92a.89.89,0,0,1-.45-.63c0-.2.2-.25.45-.1l12,6.92a.89.89,0,0,1,.44.63C380.2,137,380,137.05,379.76,136.9Z" style="fill:#e0e0e0"></path><g id="freepik--pushpin--inject-8"><path d="M372.88,119.43l0,0,.06,0s.06,0,.1,0l.3-.17.42-.26.49-.29s0-.2-.1-.17l-.5.27-.43.24-.3.18s-.08,0-.08.07,0,0,0,.07Z" style="fill:#e0e0e0"></path><path d="M372.57,119.64c.23.41.61.63,1,.41h0a.44.44,0,0,0,.17-.39,1.36,1.36,0,0,0-.61-1,.45.45,0,0,0-.41,0h0l0,0A.75.75,0,0,0,372.57,119.64Z" style="fill:#e0e0e0"></path><g style="opacity:0.15"><path d="M372.57,119.64c.23.41.61.63,1,.41h0a.44.44,0,0,0,.17-.39,1.36,1.36,0,0,0-.61-1,.45.45,0,0,0-.41,0h0l0,0A.75.75,0,0,0,372.57,119.64Z"></path></g><path d="M372.08,120.44l-.45-.77a4.5,4.5,0,0,0,.95-.65l0,0h0a.26.26,0,0,1,.3,0,.86.86,0,0,1,.4.68.28.28,0,0,1-.12.26h0l-.07,0A4.75,4.75,0,0,0,372.08,120.44Z" style="fill:#e0e0e0"></path><path d="M371.24,119.82a.47.47,0,0,1,.48-.47.41.41,0,0,1,.16,0h0l.08,0a1.1,1.1,0,0,1,.48.84.5.5,0,0,1,0,.12.46.46,0,0,1-.46.39.48.48,0,0,1-.48-.47s0,0,0,0A.46.46,0,0,1,371.24,119.82Z" style="fill:#e0e0e0"></path><g style="opacity:0.15"><path d="M371.24,119.82a.47.47,0,0,1,.48-.47.41.41,0,0,1,.16,0h0l.08,0a1.1,1.1,0,0,1,.48.84.5.5,0,0,1,0,.12.46.46,0,0,1-.46.39.48.48,0,0,1-.48-.47s0,0,0,0A.46.46,0,0,1,371.24,119.82Z"></path></g><path d="M371.72,119.58c-.27-.15-.49,0-.49.28a1,1,0,0,0,.49.83c.26.16.48,0,.48-.28A1.08,1.08,0,0,0,371.72,119.58Z" style="fill:#e0e0e0"></path></g></g><g id="freepik--sheet--inject-8"><polygon points="469.79 136.69 453.94 127.54 453.94 100.91 469.79 110.05 469.79 136.69" style="opacity:0.15"></polygon><path d="M468.63,136.94l-15.05-8.68a.88.88,0,0,1-.39-.69V101.85c0-.26.17-.36.39-.23l15.05,8.69a.86.86,0,0,1,.4.69v25.71C469,137,468.85,137.07,468.63,136.94Z" style="fill:#fff"></path><path d="M467.11,114.2l-12-6.93a.86.86,0,0,1-.45-.62c0-.21.2-.25.45-.11l12,6.93a.87.87,0,0,1,.44.62C467.55,114.29,467.35,114.34,467.11,114.2Z" style="fill:#e0e0e0"></path><path d="M467.11,116.09l-12-6.92a.89.89,0,0,1-.45-.63c0-.2.2-.25.45-.1l12,6.92a.89.89,0,0,1,.44.63C467.55,116.19,467.35,116.24,467.11,116.09Z" style="fill:#e0e0e0"></path><path d="M467.11,120l-12-6.92a.89.89,0,0,1-.45-.63c0-.2.2-.25.45-.1l12,6.92a.91.91,0,0,1,.44.63C467.55,120.13,467.35,120.18,467.11,120Z" style="fill:#e0e0e0"></path><path d="M467.11,121.93l-12-6.93a.86.86,0,0,1-.45-.62c0-.2.2-.25.45-.11l12,6.93a.87.87,0,0,1,.44.62C467.55,122,467.35,122.07,467.11,121.93Z" style="fill:#e0e0e0"></path><path d="M467.11,127.77l-12-6.93a.86.86,0,0,1-.45-.62c0-.2.2-.25.45-.11l12,6.93a.87.87,0,0,1,.44.62C467.55,127.86,467.35,127.91,467.11,127.77Z" style="fill:#e0e0e0"></path><path d="M467.11,125.87l-12-6.93a.86.86,0,0,1-.45-.62c0-.2.2-.25.45-.11l12,6.93a.87.87,0,0,1,.44.63C467.55,126,467.35,126,467.11,125.87Z" style="fill:#e0e0e0"></path><g id="freepik--pushpin--inject-8"><path d="M460.23,108.4l0,0,.06,0s.06,0,.1,0l.3-.17.42-.26.49-.29c.05,0,0-.2-.1-.17l-.5.27-.43.24-.3.18s-.08,0-.07.07a.09.09,0,0,0,0,.07Z" style="fill:#e0e0e0"></path><path d="M459.92,108.61c.24.41.62.63,1,.41h0a.44.44,0,0,0,.17-.39,1.34,1.34,0,0,0-.61-1,.49.49,0,0,0-.41-.06s0,0,0,0l0,0A.75.75,0,0,0,459.92,108.61Z" style="fill:#e0e0e0"></path><g style="opacity:0.15"><path d="M459.92,108.61c.24.41.62.63,1,.41h0a.44.44,0,0,0,.17-.39,1.34,1.34,0,0,0-.61-1,.49.49,0,0,0-.41-.06s0,0,0,0l0,0A.75.75,0,0,0,459.92,108.61Z"></path></g><path d="M459.43,109.41l-.45-.77a4.5,4.5,0,0,0,.95-.65l0,0v0h0a.24.24,0,0,1,.29,0,.86.86,0,0,1,.4.68.28.28,0,0,1-.11.26h0l-.08,0A4.75,4.75,0,0,0,459.43,109.41Z" style="fill:#e0e0e0"></path><path d="M458.59,108.79a.48.48,0,0,1,.48-.47.51.51,0,0,1,.17,0h0l.08,0a1.07,1.07,0,0,1,.48.84.49.49,0,0,1-.48.51.48.48,0,0,1-.48-.47s0,0,0,0A.48.48,0,0,1,458.59,108.79Z" style="fill:#e0e0e0"></path><g style="opacity:0.15"><path d="M458.59,108.79a.48.48,0,0,1,.48-.47.51.51,0,0,1,.17,0h0l.08,0a1.07,1.07,0,0,1,.48.84.49.49,0,0,1-.48.51.48.48,0,0,1-.48-.47s0,0,0,0A.48.48,0,0,1,458.59,108.79Z"></path></g><path d="M459.07,108.55c-.27-.15-.48,0-.48.28a1.05,1.05,0,0,0,.48.83c.26.16.48,0,.48-.28A1.08,1.08,0,0,0,459.07,108.55Z" style="fill:#e0e0e0"></path></g></g><g id="freepik--Tube--inject-8"><path d="M474.09,109.6l2.64-4.59L361.13,38.27h0a1.28,1.28,0,0,0-1.36.1,4.14,4.14,0,0,0-1.87,3.24,1.35,1.35,0,0,0,.51,1.18h0l0,0h0Z" style="fill:#f0f0f0"></path><path d="M473.53,108.38a4.15,4.15,0,0,1,1.87-3.24c1-.59,1.87-.11,1.87,1.08a4.15,4.15,0,0,1-1.87,3.24C474.37,110.06,473.53,109.57,473.53,108.38Z" style="fill:#e0e0e0"></path></g><polygon points="448.41 162.52 402.78 136.18 402.82 160.08 448.51 186.46 448.41 162.52" style="fill:#fff"></polygon><path d="M448.51,186.47l-45.7-26.39v-5.3a4,4,0,0,1,.64.77,6.51,6.51,0,0,1,.41,1.66,1.93,1.93,0,0,0,.29.73,3.32,3.32,0,0,1,.23.86,1.33,1.33,0,0,0,1.05,1.07,4.49,4.49,0,0,1,1.53,1,4.72,4.72,0,0,0,.68.48c.29.14.46-.07.69-.16a1.39,1.39,0,0,1,1.58.32c.49.48,1,.45,1.48,1s.78,1,1.2,1.4,1,.49,1.49.86a4.64,4.64,0,0,0,1.14.78c.83.29,1.5,1.28,2.29,1.8,1.34.87.95-1.58,1.55-2.41.34-.47.21-1.28.36-2a1.92,1.92,0,0,1,.3-.66c.11-.19.17-.52.29-.68s.29-.19.4-.09.15.67.33.91.26,0,.38.14a1.85,1.85,0,0,1,.39.71,6.72,6.72,0,0,0,.95,1.37c.31.43.41,1,.76,1.37s.54.46.77.3.44-2.66.62-3,.28-1.13.57-1.45.25.22.44.13.09-.23.2-.26.23.12.34.29.34.69.53,1c.32.47.33,0,.56,0s.35.58.45.87a9,9,0,0,1,.44,1.3,7.53,7.53,0,0,0,.34,1.65c.09.11.1-.06.15,0a.86.86,0,0,1,.17.47,3,3,0,0,0,.39,1.14c.28.37.4,0,.64.05s.4.32.6.32.2-.14.34-.08.15.16.23.2.21-.05.41.25a3.66,3.66,0,0,0,.37.54.61.61,0,0,0,.52.15c.19,0,.26-.22.38-.38s.24,0,.41-.06.26-.16.44.23a4.85,4.85,0,0,1,.24,1.25c.08.47.16.95.25,1.42a5.74,5.74,0,0,0,.77,2.31,1.15,1.15,0,0,0,.66.52c.22,0,.46-.11.69.06s.14.19.24.29c.29.28.57.19.85.5a3.42,3.42,0,0,0,.7.64,6.06,6.06,0,0,1,.94,1.09,2.07,2.07,0,0,0,1.16.78,2.31,2.31,0,0,0,1.13.06c.24-.08.43.12.71.32s.35,0,.55.06.43.29.64.35.29-.1.45-.09a.86.86,0,0,0,.48,0c.5-.24.69-.88.85-1.67a3.54,3.54,0,0,1,.63-1.83c.37-.36,1-.28,1.13-1a41.1,41.1,0,0,0,.55-5.07c.16-2.89.42-5.28.62-5s0,5.4.74,6.89Z" style="fill:#f0f0f0"></path></g></g><g id="freepik--character-4--inject-8"><g id="freepik--Character--inject-8"><g id="freepik--Bottom--inject-8"><g id="freepik--bottom--inject-8"><polygon points="411.19 400.74 407.9 399.06 411.19 398.18 411.19 400.74" style="fill:#263238"></polygon><path d="M378.16,406.43s39.45-17.24,39.9-14.57a4,4,0,0,1,0,1.59l.11-.14-.8,4.95a11.57,11.57,0,0,1-6.14,2.48v-2.55A20.38,20.38,0,0,0,407.7,400c-2.53,1.64-4.19,4.54-6.9,7.9-2,2.45-5.46,3.56-10.61,4.22-5.53.71-10.39-.43-11.74-1.94C377.38,409,378,406.78,378.16,406.43Z" style="fill:#263238"></path><path d="M379.25,405.53c.39-.39,1.81-1.92,3.72-3.58a73.1,73.1,0,0,1,5.73-4.77,23,23,0,0,0,2.84-2.29q1.05-1.09,2-2.28a43.27,43.27,0,0,0,4.85-8,18.7,18.7,0,0,0,1.71-4.21,26.64,26.64,0,0,0,.53-4.7c.15-7.12,0-8.25.06-13.67l16.56.79c-.59,3-1.47,7.08-1.81,10.49-.51,5.18-.66,6.33,1.27,11.53.57,1.53,1.44,3,1.49,4.64.09,2.66-2,4.92-4.35,6.19-1.94,1-4.16,1.48-6,2.6a19.6,19.6,0,0,0-5,4.75c-1.34,1.68-2.43,3.67-4.29,4.84a17.21,17.21,0,0,1-6.42,2.13,34.05,34.05,0,0,1-8.59.31C379.48,409.91,376.47,408.38,379.25,405.53Z" style="fill:#ffbda7"></path><path d="M394.67,397.63a7.29,7.29,0,0,0-6.07-.64c-2.92,2.26-5.35,4.27-7.06,5.67-2.07,1.71-3.89,3.27-3.84,5.26.07,3.12,12.1,4.23,18.87,1.36a8.36,8.36,0,0,0,4.81-4.11S400.45,400.79,394.67,397.63Zm23-10.88c-1-2-1.37-3.05-1.37-3.05-2.36,1.25-6.51,7.07-4.73,13a8.93,8.93,0,0,0,6-3.95A5.65,5.65,0,0,0,417.71,386.75Z" style="fill:#37474f"></path><path d="M446.75,392.19c-1.15,1.76.15,8.52-.21,13.3-.32,4.34-1.64,11.9-.39,16.22,1.48,5.13,4.57,11.1,10.66,6.46,3.77-2.88,6-6.66,6.61-12.91.45-4.34-1.16-10.4-2.54-15.76-1.61-6.28-2.21-9.62-2.21-9.62Z" style="fill:#263238"></path><path d="M459.71,360.37c.21,10.15-1.12,17.25-1.32,23.75a45.43,45.43,0,0,0,.74,8.79c.76,4.16,2.09,10,2.64,12.65.77,3.78,1.37,6.16,0,10.34a5.73,5.73,0,0,1-.44.94c-1.89,3.43-6.55,6-8,5.51a2.55,2.55,0,0,1-2.61.85c-.16,0-.32-.08-.49-.13l-.49-.21a5.05,5.05,0,0,1-2.38-3.24,7.93,7.93,0,0,1-.22-.93c-1-5.24-.11-8.6,0-10.65.17-2.35.09-5.36,0-9.17s-.79-15.78-2-21.52c-.9-4-2-9-3.2-14.4Z" style="fill:#ffbda7"></path><path d="M462.57,410.47c-3.6-1.68-14.13-2.12-15.92,3-.14,4.82-.24,8.1,2.72,12.36,3.93,5.67,9.34-.14,11.45-3.85S463,413.08,462.57,410.47Z" style="fill:#37474f"></path><path d="M448.75,227.58c4.94,9.3,8.6,16.9,8.73,44.37s-.05,35.16,0,38.47,1.91,9.26,3.38,25.59-1.31,48.78-1.31,48.78-.87,2.39-7.11,2.86c-5.76.44-8.11-2-8.11-2s-7.75-44.47-9.8-54.32-8-42.25-8-42.25l-4.12,26.15s1.64,9-.31,23.31-5.79,41.28-5.79,41.28a16.15,16.15,0,0,1-8.76,2.52,15,15,0,0,1-7.72-2.14S396,324,396.25,307.8s.66-56.64,6.09-80.57Z" style="fill:#455a64"></path><path d="M405.12,250.55c2.35,6.73,11.18,11.54,15.08,12.53l4.24,25.64-2,26.53,4.12-26.15-4.71-31.24S411.05,256.93,405.12,250.55Zm37.12-2.76c.61,2.64,1.15,5.3,1.73,8s1.15,5.31,1.76,8a52.36,52.36,0,0,0-.43-8.21c-.31-2.72-.79-5.42-1.37-8.1a70,70,0,0,0-2.24-7.92,38.4,38.4,0,0,0-3.41-7.5c.78,2.64,1.47,5.25,2.13,7.88S441.67,245.14,442.24,247.79Zm4.68-5c.86,1.6,1.68,3.21,2.5,4.83l2.43,4.95a22.09,22.09,0,0,0-1.18-5.46,35.94,35.94,0,0,0-2.22-5.13,38.86,38.86,0,0,0-2.95-4.72,28.72,28.72,0,0,0-3.65-4.21c.78,1.69,1.65,3.31,2.51,4.92S446.09,241.18,446.92,242.79Zm-5.09,74c-1.44-8.42-2.44-16.93-3.42-25.44s-1.9-17.05-3-25.56c.4,8.57.9,17.14,1.63,25.69s1.64,17.1,3.06,25.6,3.08,16.87,4.73,25.3,3.36,16.82,5.21,25.2q-1.77-12.75-3.88-25.44C444.81,333.66,443.33,325.18,441.83,316.77Zm-38.62-29.08,1.7-22.34q-1.87,11.06-3,22.22c-.77,7.45-1.51,14.87-1.64,22.42.15,7.53.62,15,1.13,22.43s1.15,14.9,1.93,22.34q-.17-11.22-.58-22.41l-.41-11.2c-.14-3.72-.32-7.46-.34-11.16s.26-7.41.48-11.13S403,291.42,403.21,287.69Z" style="fill:#37474f"></path></g></g><g id="freepik--Top--inject-8"><path d="M415.2,177.49c-9.6,1.3-13.21,6.39-17.72,14.42-3.86,6.89-8.3,14.7-8.3,14.7-1.37-1.11-12.58-10.32-15.25-13.87-2.82-3.75-1.81-5.52-1.82-8.12s-.92-4.59-.4-8.64c.25-1.93-1.84-1.52-2.67-.39-1.69,2.28-1.49,6.41-2.59,6.22a9.89,9.89,0,0,1-3-3.23c-2.05-3.15-2.47-6-4.15-9.38-.65-1.28-1.52-2.7-3.15-2.65a4.29,4.29,0,0,0-.5.07.61.61,0,0,0-.44.5,6.47,6.47,0,0,0,0,1.32c0,.31.19,1.22.19,1.22s-1.47.24-1.69.86a4.84,4.84,0,0,0,.06,3c-.61.43-1.56,1.53-.59,3.85-.55.23-1.73,1.81-.76,5a40,40,0,0,0,3.73,8.27c2.4,3.84,4.7,5.26,7.94,9.27s9.25,12.84,14.64,19c6.27,7.14,8.79,9,14.87,5.66,3.14-1.74,20-24.83,20-24.83Z" style="fill:#ffbda7"></path><path d="M364.78,183.32c-1.6,2.1-1.5,6.32,1.67,9.49C362.74,191.19,361.38,185.6,364.78,183.32Z" style="fill:#f0997a"></path><path d="M414.66,177.18c-7.79,1.6-10.67,4.09-13.29,7.74s-12.51,21.44-12.51,21.44l-11.54-10s.28,3.26-3,7-5.32,3-5.32,3,7.51,11.48,12.49,16.38,8.2,4.59,12.44,1.77,20.24-24.58,20.24-24.58Z" style="fill:#263238"></path><path d="M401.39,234.18c.56-4.46,1-7.84,1.12-9.72,0-4.62-.09-11.82-.09-11.82-8.22-7.54-4.37-15.25-1.31-19.91,5.11-7.75,9.83-11.62,14.09-15.24A100,100,0,0,1,430,175.66a41.32,41.32,0,0,1,11.08,1.07c3.14.58,10.91,2.51,10.91,2.51,2.3,1.27,4.31,3.83,4.23,10.92-.06,6.16-.74,8.94-2.8,14.49-2.89,7.8-3.31,11.47-4.3,15.41-1.28,5.12-.43,8.89,1.85,13.68,1.11,2.31.11,4.7-6.47,7.88-4.41,2.14-20.83,5.13-34.45.95C404.68,240.93,401.09,236.66,401.39,234.18Z" style="fill:#fafafa"></path><path d="M447.87,154.48c-3.1,6.63-6.6,9.05-9.49,15.06-7.33-.31-16.36-11.94-24.81-16.88-4.94-2.88-8.15-6.5-6.75-12.43,2.31-9.73,10.35-14.86,24.16-11.82,5.59,1.23,11.78,5.75,12.86,12.07C450.66,142.9,449.94,150.05,447.87,154.48Z" style="fill:#263238"></path><path d="M414.21,138.94c-1.47.67-3.83,4.11-4.43,17.52-.47,10.86,3.29,14.76,5.39,15.72a18,18,0,0,0,7.21,1.07l0,3.93c-3,2.39-4.47,8.64-2.28,13.65,9.39-2.43,15.8-7.51,18.38-12.22V166s2.63,2.14,6.14-.5c2.9-2.19,3.47-6.65,1.5-9a4.92,4.92,0,0,0-7.83.92s-4.27,2.84-3.88-4c.43-7.71-2.58-15.5-7.87-13.93C417,142.35,417.22,137.51,414.21,138.94Z" style="fill:#ffbda7"></path><path d="M422.38,173.25c3.52-.2,10.59-2.06,12.37-5.88,0,0-.41,3.33-2.7,5-3.5,2.53-9.68,3.15-9.68,3.15Z" style="fill:#f0997a"></path><polygon points="421.23 150.75 419.96 160.66 415.59 158.63 421.23 150.75" style="fill:#f0997a"></polygon><path d="M425.41,162.23,420.08,164a2.75,2.75,0,0,0,3.51,1.87A2.94,2.94,0,0,0,425.41,162.23Z" style="fill:#b16668"></path><path d="M423.59,165.88a2.37,2.37,0,0,1-.34.08,2.55,2.55,0,0,1,2.27-2.74A2.88,2.88,0,0,1,423.59,165.88Z" style="fill:#f28f8f"></path><path d="M413.18,152.52c-.33.77.21,1.07,1,1.38s1.42.53,1.75-.24a1.47,1.47,0,1,0-2.71-1.14Z" style="fill:#263238"></path><path d="M415.84,152a3.85,3.85,0,0,0-1.08-.47,3.08,3.08,0,0,0-1.13-.14,3.76,3.76,0,0,0-1.18.26s-.06.1,0,.1a8.12,8.12,0,0,1,1,0,4.93,4.93,0,0,1,1.26.24,5.53,5.53,0,0,1,1.41.63c.14.09.42.26.45.29s.08-.08.06-.12A2.6,2.6,0,0,0,415.84,152Z" style="fill:#263238"></path><path d="M415.85,147.75l-3.39,1.16a1.87,1.87,0,0,1,1.15-2.33A1.74,1.74,0,0,1,415.85,147.75Z" style="fill:#263238"></path><path d="M427.87,153.25c.23.82-.34,1-1.13,1.25s-1.47.34-1.7-.48a1.47,1.47,0,1,1,2.83-.77Z" style="fill:#263238"></path><path d="M425.31,152.41a4.05,4.05,0,0,1,1.13-.32,3.12,3.12,0,0,1,1.14,0,3.74,3.74,0,0,1,1.13.42s.05.1,0,.09c-.31-.05-.58-.12-1-.17a5,5,0,0,0-1.28.07,5.31,5.31,0,0,0-1.48.44l-.48.23s-.07-.09-.05-.13A2.72,2.72,0,0,1,425.31,152.41Z" style="fill:#263238"></path><path d="M425.66,147.88l3.2,1.61A1.88,1.88,0,0,0,428,147,1.75,1.75,0,0,0,425.66,147.88Z" style="fill:#263238"></path><path d="M438.46,175.51s-8.57,16.71-11.62,24.84-2.22,14.86-2.31,30c-.07,11.62,0,29.16,0,29.16s25.31.34,32.72-9c-1.4-5.88-6.34-17.61-7.54-21.38s-1-9,1.91-17.28,4.89-14.66,5.21-21-2.29-10.42-3.81-11.61Z" style="fill:#37474f"></path><path d="M422.37,175.33v1.85s-15.74,14.63-16.75,29.49-1.91,48.42-1.91,48.42a22.42,22.42,0,0,1-5.61-4.69c.66-6.75,2.94-33.42,2.31-36.48s-7.93-10-1.27-19.93a80.34,80.34,0,0,1,15.52-16.81Z" style="fill:#37474f"></path><path d="M428.71,219.87l-2.63,4.64L429,220c1-1.48,1.92-3,2.88-4.5l.71-1.12.36-.57.26-.42.09-.21a3.74,3.74,0,0,0,.12-1.46,12,12,0,0,0-.18-1.36,46.08,46.08,0,0,0-1.19-4.8,26.91,26.91,0,0,0,3.55-.95,9.5,9.5,0,0,0,3.67-2.07,3.1,3.1,0,0,0,.63-1A2.52,2.52,0,0,0,440,201l0-.52.13-2,.27-4c.32-5.39.63-10.78.81-16.18-.6,5.37-1.08,10.76-1.55,16.15l-.31,4-.16,2,0,.5a1.72,1.72,0,0,1-.08.38,2.14,2.14,0,0,1-.46.69,9.32,9.32,0,0,1-3.35,1.85,26.83,26.83,0,0,1-3.83,1.06L431,205l.14.43a45,45,0,0,1,1.34,5.1c.08.43.16.86.2,1.28a3.26,3.26,0,0,1,0,1.18l0,.11-.09.14-1.17,2C430.49,216.79,429.58,218.32,428.71,219.87ZM400,207.73c0,.44.11.84.18,1.26.14.82.31,1.63.48,2.44.7,3.24,1.54,6.44,2.45,9.62-.65-3.24-1.3-6.48-1.89-9.73q-.22-1.22-.39-2.43c-.05-.4-.1-.81-.12-1.2a2.3,2.3,0,0,1,.13-1.08,16,16,0,0,1,2.57-4.05l.16-.19-.1-.23a23.54,23.54,0,0,1-1.23-3.54,12.76,12.76,0,0,1-.33-1.81A4.85,4.85,0,0,1,402,195a4.23,4.23,0,0,1,.88-1.49c.38-.49.78-1,1.2-1.46.82-1,1.67-1.91,2.53-2.85,1.71-1.89,3.43-3.76,5.19-5.6s3.5-3.7,5.38-5.42c-1,.76-2,1.62-2.92,2.47s-1.89,1.72-2.8,2.61c-1.83,1.78-3.64,3.58-5.4,5.43-.87.94-1.74,1.87-2.58,2.84-.42.48-.84,1-1.24,1.48a5.07,5.07,0,0,0-1.05,1.77,5.51,5.51,0,0,0-.12,2.05,12.32,12.32,0,0,0,.37,1.94,24.26,24.26,0,0,0,1.23,3.44,15.62,15.62,0,0,0-2.51,4.12,3.56,3.56,0,0,0-.16.68A5,5,0,0,0,400,207.73Z" style="fill:#263238"></path><path d="M452.3,179.09c7.56,1.33,10.56,5.94,13.89,15.76,4.54,13.41,8.53,26.63,9.38,33.34l-17.83-4.87-9.54-19.2S444.62,188.69,452.3,179.09Z" style="fill:#263238"></path><polygon points="416.14 254.59 454.73 248.66 460.6 199.19 422.01 205.13 416.14 254.59" style="fill:#48A2C3"></polygon><polygon points="416.14 254.59 454.73 248.66 460.6 199.19 422.01 205.13 416.14 254.59" style="opacity:0.2"></polygon><polygon points="417.57 252.43 454.54 246.73 460.01 200.6 423.04 206.29 417.57 252.43" style="fill:#fafafa"></polygon><path d="M422.32,238.45,426,207.3l34.59-8.12-5.87,49.49-36.57,8.59a.92.92,0,0,1-1.17-1.08l1.87-15.78a1.76,1.76,0,0,1,1.27-1.44Z" style="fill:#48A2C3"></path><path d="M475.32,228.19c0,5.08-.75,5.92-6.31,8.77s-19.61,7.24-30.73,8.31c-7.25.7-11,.36-13.79-.75a11.64,11.64,0,0,1-7.26-12.75c-1.21-3.5.63-4,2.14-4.35l-.28,2.29s3.25,2.21,6.25,2.25.21-3.46-.32-5.58-.43-3.34,1.3-4.34c1,0,1.3,1.34,4.32,4.35,2.3,2.28,4.09,6.45,7.64,6,2.79-.37,19.34-8,19.34-8l.75-6.34Z" style="fill:#ffbda7"></path><path d="M475.57,228.19c.22,3.17-.34,4.82-1.8,6.19s-7.47,4.19-11.17,5.48-13.38,3.91-15.23,4.25c1.92-3,1.45-8.93-.18-11.59s-3.79-2-3.79-2l14.24-6.41,1-8.67Z" style="fill:#263238"></path></g></g></g><g id="freepik--character-2-and-3--inject-8"><g id="freepik--Characters--inject-8"><g id="freepik--character--inject-8"><g id="freepik--bottom--inject-8"><g id="freepik--bottom--inject-8"><polygon points="207.92 363.14 211.05 361.45 207.87 360.68 207.92 363.14" style="fill:#263238"></polygon><path d="M239.81,367.89s-38.31-15.72-38.69-13.15a3.89,3.89,0,0,0,.08,1.54l-.11-.13.87,4.74a11.18,11.18,0,0,0,6,2.25c0-.23,0-1.65,0-2.46a19.22,19.22,0,0,1,3.39,1.65c2.47,1.52,4.13,4.27,6.81,7.45,2,2.31,5.33,3.3,10.29,3.82,5.34.56,10-.63,11.25-2.12C240.62,370.3,240,368.22,239.81,367.89Z" style="fill:#263238"></path><path d="M238.74,367.05c-.38-.37-1.78-1.81-3.66-3.37a71.45,71.45,0,0,0-5.61-4.46,21.88,21.88,0,0,1-2.78-2.14c-.68-.69-1.34-1.4-1.95-2.15a39.81,39.81,0,0,1-4.39-6.72,10.74,10.74,0,0,1-1.35-5.8,134.5,134.5,0,0,1,1-16.9l-18.16.3c.63,2.86,1,7.76,1.4,11,.6,5,.77,6.07-1,11.12-.51,1.49-1.31,2.92-1.33,4.5,0,2.55,2.05,4.68,4.33,5.85,1.88,1,4,1.33,5.85,2.37a18.63,18.63,0,0,1,4.87,4.46c1.33,1.58,2.41,3.47,4.24,4.56a16.57,16.57,0,0,0,6.21,1.9,32.94,32.94,0,0,0,8.27.12C238.62,371.27,241.48,369.73,238.74,367.05Z" style="fill:#ffa8a7"></path><path d="M236.47,364.34c-1.67-1.31-4.05-3.2-6.91-5.31a7.07,7.07,0,0,0-5.82.75c-5.49,3.17-6.29,7.4-6.29,7.4a8.07,8.07,0,0,0,4.72,3.85c6.57,2.61,18.11,1.28,18.12-1.72C240.29,367.4,238.51,365.94,236.47,364.34ZM202.6,346.86s-.34,1-1.26,3a5.44,5.44,0,0,0,.27,5.77,8.63,8.63,0,0,0,5.82,3.67C209,353.52,204.89,348,202.6,346.86Z" style="fill:#37474f"></path><path d="M173.34,353.66c1.06,1.72-.32,8.18-.08,12.79.23,4.18,1.34,11.48.06,15.61-1.53,4.9-4.62,10.58-10.38,6-3.57-2.84-5.62-6.52-6.1-12.54-.34-4.19,1.33-10,2.76-15.11,1.68-6,2.32-9.21,2.32-9.21Z" style="fill:#263238"></path><path d="M161.52,322.8c-.41,9.76.72,16.61.79,22.86a44.53,44.53,0,0,1-.89,8.44c-.82,4-2.21,9.53-2.8,12.12-.82,3.61-1.44,5.88-.19,9.93a5.38,5.38,0,0,0,.41.92c1.74,3.34,6.17,5.86,7.59,5.45a2.46,2.46,0,0,0,2.5.88l.47-.12a2.72,2.72,0,0,0,.47-.19,4.81,4.81,0,0,0,2.36-3.07,7,7,0,0,0,.23-.88c1-5,.28-8.28.19-10.25-.11-2.26,0-5.15.22-8.82s1.07-15.16,2.34-20.65c.95-3.84,2.12-8.65,3.36-13.78Z" style="fill:#ffa8a7"></path><path d="M157.76,370.92c3.49-1.54,13.62-1.76,15.24,3.17,0,4.65.07,7.79-2.86,11.84-3.9,5.37-9-.33-10.94-3.94S157.28,373.42,157.76,370.92Z" style="fill:#37474f"></path><path d="M174.73,195.32c-4.94,8.85-8.92,16.31-10.2,39.68-1.46,26.38-1.24,36.43-1.37,39.61s-2.17,9-3.92,24.7.1,53.69.1,53.69,1.23,2.56,7.23,3.14c5.53.54,8.77-1.4,8.77-1.4s8.79-49.91,11-59.34,8.5-40.47,8.5-40.47l3.43,25.23s-1.75,8.65-.16,22.42,4.53,40.11,4.53,40.11a19.37,19.37,0,0,0,8.18,3,13.91,13.91,0,0,0,8.95-1.93s5.36-54.58,5.47-70.17-1.09-54.51-5.83-77.63Z" style="fill:#455a64"></path><path d="M200,225l-5.16,30,3.43,25.23-1.35-25.55L201.47,230c3.77-.88,12.36-5.32,14.76-11.75C210.39,224.31,200,225,200,225Zm-17.45-17.66c.68-2.51,1.4-5,2.21-7.53a36.4,36.4,0,0,0-3.44,7.14A68.82,68.82,0,0,0,179,214.5a78.66,78.66,0,0,0-1.49,7.76,52,52,0,0,0-.58,7.89c.65-2.56,1.26-5.1,1.86-7.65s1.19-5.08,1.82-7.61S181.84,209.84,182.51,207.32Zm-3.76-1.91c.86-1.54,1.72-3.07,2.51-4.69a27.65,27.65,0,0,0-3.59,4,37.17,37.17,0,0,0-2.94,4.48,34.66,34.66,0,0,0-2.23,4.88,21,21,0,0,0-1.25,5.23l2.43-4.7c.83-1.54,1.64-3.08,2.5-4.6S177.9,206.94,178.75,205.41Zm-3.87,100.11q-2.28,12.17-4.24,24.39,2.91-12,5.52-24.13c1.75-8.07,3.41-16.12,5.06-24.24s2.6-16.34,3.46-24.55,1.52-16.44,2.08-24.67c-1.19,8.17-2.28,16.35-3.37,24.52s-2.24,16.32-3.81,24.39S176.38,297.41,174.88,305.52Zm43-40.71c.14,3.57.32,7.17.24,10.71s-.35,7.15-.55,10.73L216.9,297q-.63,10.75-1,21.54,1.35-10.71,2.31-21.44c.64-7.17,1.24-14.31,1.54-21.54,0-7.27-.54-14.42-1.13-21.6s-1.42-14.31-2.48-21.43l1.19,21.52C217.49,257.64,217.69,261.22,217.83,264.81Z" style="fill:#37474f"></path></g></g><g id="freepik--top--inject-8"><path d="M239.9,166.42s.27,2.33-3.24,6.9c-3.25,4.23-1.8,10,1.87,10.77s7.88-2,13.08-4.59c5.4-2.66,14.93-8.1,19.7-11,2.92-1.79,6.24-1.86,9.44-2.71a21.25,21.25,0,0,0,8.55-4.9,13.18,13.18,0,0,0,2.49-2.83,6,6,0,0,0,1-3.17,2.08,2.08,0,0,1,.76-1.95,3.5,3.5,0,0,0,.92-2.42,21.05,21.05,0,0,1-.22-3.25c.11-.79-.16-2.07-1.27-1.92a1.93,1.93,0,0,0-.69.3c-2.26,1.37-4.32,3-6.56,4.45a11.1,11.1,0,0,1-3.4,1.79c-1.65.25.06-1.83.42-2.4a9.34,9.34,0,0,0,1-1.72,6.33,6.33,0,0,0,.28-3.26.82.82,0,0,0-.13-.37.71.71,0,0,0-.82-.2,2,2,0,0,0-.71.54c-1,1-2,2.11-3.1,3.06s-2.52,1.93-3.71,3c-1.72,1.52-3.15,3.34-4.85,4.87s-3.84,2.31-6.06,3.27C258.34,161.35,246.41,164.45,239.9,166.42Z" style="fill:#ffa8a7"></path><path d="M205.51,145.26c5.22.69,9.85,2.22,17,7.76,10.8,8.41,17.34,13,17.34,13l16.1-4.55c-.7,5.84,1,11,5.13,13.45a128.25,128.25,0,0,1-14.6,7.76c-8.68,4.1-10.6,3.43-16.74-.56-6.35-4.14-23.5-14.36-23.5-14.36Z" style="fill:#48A2C3"></path><path d="M205.51,145.26c5.22.69,9.85,2.22,17,7.76,10.8,8.41,17.34,13,17.34,13l16.1-4.55c-.7,5.84,1,11,5.13,13.45a128.25,128.25,0,0,1-14.6,7.76c-8.68,4.1-10.6,3.43-16.74-.56-6.35-4.14-23.5-14.36-23.5-14.36Z" style="opacity:0.15"></path><path d="M239.82,166.07c-5.21,2.05-7.14,5-7.14,5s.15-3.94,5.15-6.39Z" style="opacity:0.1"></path><path d="M177.68,108.83c-3.46,3.53-3.82,9.16-2.47,13.84a27.15,27.15,0,0,0,3.15,6.19,57.58,57.58,0,0,0,7,9.33,7.75,7.75,0,0,0,3.7,2.44,33.88,33.88,0,0,0,7.56,1.21c1,0,2.1.34,2.82-.45a8,8,0,0,0,1.22-2.83,36.5,36.5,0,0,1,4.66-9.22c1.66-2.38,3.87-5.69,6.49-7,1.08-.53,2.3-1.23,2.49-2.42a3,3,0,0,0,1.87,3.17,1.88,1.88,0,0,1-.25-2.45c.45-.79,1.17-1.4,1.59-2.19a3.54,3.54,0,0,0-.09-3.44,2,2,0,0,1,.8,2.77,3.31,3.31,0,0,0,1.69-2.85c0-2.76-2.85-3.63-4.07-5.73a18.66,18.66,0,0,1-1-3.17,21.87,21.87,0,0,0-1-2.44,13.37,13.37,0,0,0-3.3-4.17c-5.25-4.43-12.88-4.15-19.11-2.29a17.86,17.86,0,0,0-8.14,4.71,9.82,9.82,0,0,0-2.88,4.84A10.3,10.3,0,0,0,177.68,108.83Z" style="fill:#263238"></path><path id="freepik--Chest--inject-8" d="M169.13,207.06c-1.8-2.23.86-2,1.89-16.5.27-3.74-2.86-13.82-2.86-13.82s3.21-6.31,1-24.35l15.11-7.54,16.95-.75,6.85,2.52c2.27,2,6.43,5.25,9.73,10.12,4.75,7,5.47,14.68.34,20.27-.08,1.11.64,18.07,2,22.21,1.29,3.85,1,6.51-1,8.22C211.46,216.17,187.59,218.68,169.13,207.06Z" style="fill:#fafafa"></path><g id="freepik--Head--inject-8"><g id="freepik--head--inject-8"><g id="freepik--head--inject-8"><path d="M182.25,133.3a5.37,5.37,0,0,1-4.82-1.83c-2.53-2.79-2.77-5.63-1.59-7.52,1-1.56,3.36-2.55,5-1.5s1.85,2,2.53,3.31,2.42.27,1.83-4.83c3.49-1.64,2.92-7.48,4.8-9.86,3-3.73,7.8-2.77,9.38-1.89a6.32,6.32,0,0,1,6.61-.43c2.35,1.25,3.91,3.89,4.74,13,.85,9.24-.75,15.4-2.88,17.37-1.47,1.34-4.2,2.26-7.45,2.07l0,3.49s9.4,9.79-2.58,8.91a18.82,18.82,0,0,1-13.57-7.69l-.08-14S184,133,182.25,133.3Z" style="fill:#ffa8a7"></path><path d="M201.91,131.65a2.67,2.67,0,0,1-5.24-1Z" style="fill:#b16668"></path><path d="M196.65,131.48a2.65,2.65,0,0,0,2.12,2.27,2.48,2.48,0,0,0,.94,0A2.71,2.71,0,0,0,196.65,131.48Z" style="fill:#f28f8f"></path><path d="M197.42,122.52a1.55,1.55,0,0,1-1.92,1.06,1.59,1.59,0,1,1,1.92-1.06Z" style="fill:#263238"></path><path d="M208.83,116.6l-3.21-1.72a1.74,1.74,0,0,1,2.41-.79A1.91,1.91,0,0,1,208.83,116.6Z" style="fill:#263238"></path><path d="M206.25,122.11a1.53,1.53,0,0,0,2,1,1.58,1.58,0,1,0-2-1Z" style="fill:#263238"></path><path d="M195.35,115.26l-3.43,1.86a1.89,1.89,0,0,1,.71-2.63A2.05,2.05,0,0,1,195.35,115.26Z" style="fill:#263238"></path><path d="M212.81,117.45l-.68,0a20.49,20.49,0,0,0-6.79.52c-2.12.73-2.84,1.48-4,1.54s-2.14-.62-4.5-1.16a23.55,23.55,0,0,0-7.28.11l-.72.12a1.08,1.08,0,0,0-.73,1.2,2.68,2.68,0,0,0,.78,1.33,1.58,1.58,0,0,1,.28.54,23.84,23.84,0,0,0,1.14,3.72,4.87,4.87,0,0,0,1,1.31,3.59,3.59,0,0,0,.5.37l.28.17a4.43,4.43,0,0,0,.85.34l.14,0,.22,0,.23,0a5.28,5.28,0,0,0,.72.08h.7c3-.13,4.14-1.56,4.78-3s.32-3.46,1.7-3.52h.13l.13,0c1,.18,1,2,1.75,3.33A5.58,5.58,0,0,0,204.5,126l.24.22.13.1.14.09a.57.57,0,0,0,.13.08l.13.08.11.06.07,0a4.73,4.73,0,0,0,1.22.41l.11,0a6.16,6.16,0,0,0,1.46.08,4.08,4.08,0,0,0,4-2.8,22.84,22.84,0,0,0,.6-3.8,1.15,1.15,0,0,1,.22-.5,2.43,2.43,0,0,0,.54-1.42A1.18,1.18,0,0,0,212.81,117.45Zm-14,6a4,4,0,0,1-.9,2h0a4.18,4.18,0,0,1-3.18,1.27,3.78,3.78,0,0,1-3.22-1.3l-.11-.14-.1-.14-.09-.13-.07-.11a.93.93,0,0,1-.05-.1l0-.08-.07-.14h0c-.07-.14-.13-.28-.19-.41h0l-.09-.25c0-.14-.1-.28-.13-.4l0-.07,0-.08c-.29-1-.7-2.92-.21-3.39s1.8-1,4-.87h.24c.34,0,.68.07,1,.13l.4.07c.36.08.7.17,1,.27l.31.11.34.14.07,0,.12.06a1.93,1.93,0,0,1,.7.49C199.08,121,199,122.29,198.85,123.4Zm12.93-1a4.14,4.14,0,0,1-1.89,3.28,3.89,3.89,0,0,1-1.63.43,3.79,3.79,0,0,1-3.42-1.34v0l-.06-.09-.08-.1,0,0-.1-.16a1.62,1.62,0,0,1-.1-.18l-.05-.09s0,0,0,0l0-.07s0,0,0-.06a6.1,6.1,0,0,1-.27-.73,4.71,4.71,0,0,1-.13-3c.38-.63,2-1.37,3.54-1.63.36-.06.7-.1,1-.12h.91l.28,0a4,4,0,0,1,.51.06l.13,0h0l.08,0,.13,0,.15,0,.25.08,0,0a1.86,1.86,0,0,1,.57.31C212.07,119.43,211.93,121.4,211.78,122.4Z" style="fill:#37474f"></path><path d="M206,127l-5.07,2.19-.79-6.09c.18-1,.35-1.82,1.18-1.9Z" style="fill:#f28f8f"></path><path d="M188.7,118.7l-7.82,3.75a7.42,7.42,0,0,1,1.21,1l6.81-3.1Z" style="fill:#37474f"></path></g></g><path d="M200.44,141.15c-4.68-.17-11-1.84-12.65-4.86.94,3.26,4.24,5,6.87,5.69a27.92,27.92,0,0,0,5.75,1Z" style="fill:#f28f8f"></path></g><path d="M201.25,144.1,208.1,146c6.35,5,13.84,13.72,14.12,20.5A35.56,35.56,0,0,1,221,177.86s-.72,14,.7,21.33,4.75,25,4.75,25a21.4,21.4,0,0,1-9.05,5.13c-1.45-9.36-4.82-44.68-4.42-52.88S213.69,154.71,201.25,144.1Z" style="fill:#48A2C3"></path><path d="M201.25,144.1,208.1,146c6.35,5,13.84,13.72,14.12,20.5A35.56,35.56,0,0,1,221,177.86s-.72,14,.7,21.33,4.75,25,4.75,25a21.4,21.4,0,0,1-9.05,5.13c-1.45-9.36-4.82-44.68-4.42-52.88S213.69,154.71,201.25,144.1Z" style="opacity:0.30000000000000004"></path><path d="M214.38,180.86c.58-2.17,1.21-4.33,1.85-6.47s1.25-4.31,1.84-6.46a27.09,27.09,0,0,0,.68-3.24c.19-1-.53-1.9-1.23-2.72a30.11,30.11,0,0,0-5.07-4.27l-.17-.12,0-.2a10.62,10.62,0,0,0,.06-3.56,9.24,9.24,0,0,0-1.16-3.38,10.64,10.64,0,0,0-2.47-2.63,17,17,0,0,0-3.13-1.93,15.29,15.29,0,0,1,3.27,1.73,9.89,9.89,0,0,1,2.67,2.61,9.72,9.72,0,0,1,1.36,3.51,10.73,10.73,0,0,1,0,3.79l-.13-.32a28.47,28.47,0,0,1,5.23,4.33,7.37,7.37,0,0,1,1,1.42,2.68,2.68,0,0,1,.19.42,1.74,1.74,0,0,1,.13.46,3.23,3.23,0,0,1,0,.93,24.21,24.21,0,0,1-.74,3.32c-.59,2.17-1.33,4.3-2,6.42S215.12,178.74,214.38,180.86Z" style="opacity:0.2"></path><path d="M184.3,144.85s2,4.2,5.59,12.82,7,16.47,6.77,24.38-4.15,49-4.15,49-14.39,0-20.61-2l1-16.11-3.82,15.22a18.32,18.32,0,0,1-5.49-3c1.28-17.39,7.16-25,6.06-35.18-1-9.38-7.12-17.78-1.48-39.51Z" style="fill:#48A2C3"></path><path d="M184.3,144.85s2,4.2,5.59,12.82,7,16.47,6.77,24.38-4.15,49-4.15,49-14.39,0-20.61-2l1-16.11-3.82,15.22a18.32,18.32,0,0,1-5.49-3c1.28-17.39,7.16-25,6.06-35.18-1-9.38-7.12-17.78-1.48-39.51Z" style="opacity:0.30000000000000004"></path><path d="M195.11,184.38a18.39,18.39,0,0,0-3-5.54c-1.24-1.71-2.6-3.32-4-4.91-.68-.8-1.39-1.59-2.1-2.38L185,170.37c-.18-.21-.36-.39-.54-.62a1.56,1.56,0,0,1-.14-.19,2.88,2.88,0,0,1-.13-.31,2.44,2.44,0,0,1,0-.53,9.6,9.6,0,0,1,1.18-3.13,32.15,32.15,0,0,1,1.69-2.75l0,.53L183.83,160l-1.58-1.69-.39-.42-.2-.21a1,1,0,0,1-.34-1.07c0-.2.05-.4.08-.6a35.15,35.15,0,0,1,1.2-4.51c.49-1.47,1-2.94,1.55-4.38-.4,1.5-.82,3-1.18,4.48a42.48,42.48,0,0,0-1,4.5,2.87,2.87,0,0,0,0,1c-.05-.08,0,0,.11.1l.2.2.42.41,1.63,1.66,3.26,3.33.23.23-.19.29c-.57.87-1.11,1.78-1.6,2.7a9.13,9.13,0,0,0-1.11,2.77,2,2,0,0,0,0,.26.14.14,0,0,1,0,.06s.07.09.1.13a6.37,6.37,0,0,0,.49.59l1.05,1.2c.7.8,1.39,1.6,2.07,2.42a61.35,61.35,0,0,1,3.81,5.13,24.77,24.77,0,0,1,1.59,2.79A10.88,10.88,0,0,1,195.11,184.38Z" style="opacity:0.2"></path></g></g><g id="freepik--characters--inject-8"><g id="freepik--Chartacter--inject-8"><g id="freepik--bottom--inject-8"><path d="M300.37,347,302,332.61l-17.31,1.09s.26,7.78.5,12.19c.15,2.61-3.55,7.45-3.55,7.45s8.13,4.13,12.48,2.69,6.67-6.59,6.61-7.72S300.37,347,300.37,347Z" style="fill:#b16668"></path><path d="M262,369.38c-.26,0-.68,2.66.67,3.82,1.56,1.34,6.18,3.57,12.32,2.92s9.51-2.42,12-4.35,6-4.66,8.76-5.2c2.59-.5,5.41-1.58,6.25-2.33s.77-4.16.77-4.16Z" style="fill:#263238"></path><path d="M300.49,346.94a1,1,0,0,1,.92.81c.17.94.33,3.67.72,5.22a26.63,26.63,0,0,1,.47,8.28c-.37,1.74-4.59,2.88-7.29,3.82a34.13,34.13,0,0,0-8.79,5.13c-2.92,2.23-9,4.5-13,4.4-4.74-.11-10-1.68-11.23-3.81-1.47-2.63-2.52-5.68,4.54-8.69,1.34-.56,6.05-3.14,7.66-4.07,4.34-2.53,7.4-4.86,9.46-9.43a2.52,2.52,0,0,1,1-1.39,2.32,2.32,0,0,1,1.36-.1c1.17.18,5.82.88,6.88,1.39s2.27,1,2.23,2.13a3.72,3.72,0,0,1-.29,1.17c-.08.24-.16.55.06.7s.47,0,.66-.17a17.86,17.86,0,0,0,1.92-2.15,6.67,6.67,0,0,1,1.13-1.06,12.93,12.93,0,0,0,1.21-.73C300.56,348,300.46,347.48,300.49,346.94Z" style="fill:#455a64"></path><path d="M286.52,370.2a46,46,0,0,1,3.87-2.68h0s-8.33,4.68-11.63,2.43c-2.12-1.45-1.08-3.14-1-3.69s-7.47-4.54-9.55-4.82h0c-.59.3-1.08.54-1.39.67-7.06,3-6,6.06-4.54,8.69,1.19,2.13,5,3.84,11.14,3.95C277.41,374.81,283.6,372.43,286.52,370.2Z" style="fill:#37474f"></path><path d="M278.35,364.67c-4.39,1.6-2.54,2.41-1.32,2.6s8.63-3.8,13.16-7.13c4.73-3.47,7.74-7.3,9.49-8.57.66-.48,1.36-1.06,2-1.61-.1-.93-.18-1.77-.26-2.21a1,1,0,0,0-.92-.81c0,.54.07,1.05-.37,1.45a12.93,12.93,0,0,1-1.21.73,6.67,6.67,0,0,0-1.13,1.06,17.86,17.86,0,0,1-1.92,2.15C292,356.91,282.74,363.07,278.35,364.67Z" style="fill:#37474f"></path><path d="M277.35,366.66a.46.46,0,0,0,.27-.09.4.4,0,0,0,.07-.58c-1.21-1.47-7-5-10.21-4.73a.42.42,0,0,0-.39.45.42.42,0,0,0,.47.38c3-.26,8.5,3.25,9.45,4.41A.46.46,0,0,0,277.35,366.66Z" style="fill:#263238"></path><path d="M281.19,364.48a.46.46,0,0,0,.27-.09.4.4,0,0,0,.07-.58c-1.21-1.47-7-5-10.21-4.73a.41.41,0,1,0,.08.82c3-.25,8.5,3.25,9.46,4.42A.46.46,0,0,0,281.19,364.48Z" style="fill:#263238"></path><path d="M285,362.41a.38.38,0,0,0,.27-.09.4.4,0,0,0,.07-.58c-1.21-1.47-7-5-10.2-4.73a.41.41,0,0,0-.39.45.42.42,0,0,0,.47.38c3-.26,8.49,3.25,9.45,4.41A.39.39,0,0,0,285,362.41Z" style="fill:#263238"></path><path d="M288.6,360a.46.46,0,0,0,.27-.09.4.4,0,0,0,.07-.58c-1.21-1.47-7-5-10.21-4.73a.42.42,0,0,0-.39.45.44.44,0,0,0,.47.38c3-.26,8.5,3.25,9.45,4.41A.46.46,0,0,0,288.6,360Z" style="fill:#263238"></path><path d="M292.09,357.66a.39.39,0,0,0,.27-.08.41.41,0,0,0,.08-.58c-1.66-2.09-7.73-5.07-10.94-4.78a.41.41,0,0,0-.39.45.42.42,0,0,0,.47.37c2.89-.25,8.7,2.61,10.17,4.46A.43.43,0,0,0,292.09,357.66Z" style="fill:#263238"></path><path d="M329.52,354l-3.14-13.54,16.13-1.89.28,13s1.54,4.7.51,6.36-11.77,3.16-12.73,2S329.52,354,329.52,354Z" style="fill:#b16668"></path><path d="M330.16,383.29c.38,4.17,1.17,6.88,2.88,9.18s4.81,2.77,7.92,1.74,7.07-3.36,7.87-7.06a20.93,20.93,0,0,0-.26-10Z" style="fill:#263238"></path><path d="M342.79,351.58c1.29,0,.84,5.66,1.73,11.22,1,6,3,8.28,3.86,13.16,1,5.59.7,8.15-1.39,11.79s-9.73,7.77-13.67,3.24c-3.22-3.69-3.46-8.11-3.33-13.8a130.11,130.11,0,0,0-.1-14.42c-.36-4.22-1.48-8-.37-8.57.1.61.21,1.39.32,2s.27,2.75,1,2.7a7.14,7.14,0,0,0,0-1.6,1.9,1.9,0,0,1,.32-1.4,6.06,6.06,0,0,1,2.1-1c1.26-.35,3.52-.78,4.8-1,.64-.12,1.29-.21,1.93-.27a5.61,5.61,0,0,1,1.64.06,1,1,0,0,1,.72.5,1.94,1.94,0,0,1,.08.64,4.46,4.46,0,0,0,.19,1.15c.05.16.19.35.37.29s.2-.22.2-.36c0-.68-.12-1.17-.18-2,0-.37-.1-.86-.12-1.23S342.82,351.94,342.79,351.58Z" style="fill:#455a64"></path><path d="M348,374.38c.15.8,1.06,6.14-.54,7.27s-2.8-2.92-2.8-2.92-4.15-.74-10.08,2.23c.34.85-.51,3.84-2.17,3.39s-2.46-6.59-2.47-6.67c-.11,5.45.22,9.72,3.34,13.31,3.94,4.53,11.58.4,13.67-3.24s2.35-6.2,1.39-11.79C348.28,375.4,348.17,374.88,348,374.38Z" style="fill:#37474f"></path><path d="M344.24,379.14c.08,2,2.29,1.13,2.3-1.77s-1.9-9.59-2-14.57c-.23-6.83-.44-11.25-1.73-11.22a1.48,1.48,0,0,0,0,.21l.25,2.85c0,.41.09.78.1,1.22.15,4.17,0,12.27.52,16.05A60,60,0,0,1,344.24,379.14Z" style="fill:#37474f"></path><path d="M335.32,380.84a58.79,58.79,0,0,1-1.42-7.06c-.55-3.75-2.56-11.26-3.55-15.3a9,9,0,0,1-.51-2.29c-.1-.56-.2-1.27-.3-1.87l0-.12c-.79.43-.59,3.67-.21,5.35s.86,3.49,1.33,5.9c1.24,4.77,1.21,11.87,2,14.61S335.79,382.81,335.32,380.84Z" style="fill:#37474f"></path><path d="M334.5,381.14a.64.64,0,0,0,.18-.06,17.13,17.13,0,0,1,9.91-1.92.53.53,0,0,0,.57-.37.39.39,0,0,0-.35-.5,18.08,18.08,0,0,0-10.6,2.06.42.42,0,0,0,.29.79Z" style="fill:#263238"></path><path d="M333.31,376.8a.58.58,0,0,0,.16-.05,21.31,21.31,0,0,1,11.09-2.15.53.53,0,0,0,.57-.38.41.41,0,0,0-.38-.49A22.11,22.11,0,0,0,333,376a.46.46,0,0,0-.21.61A.45.45,0,0,0,333.31,376.8Z" style="fill:#263238"></path><path d="M344.14,370.41a.49.49,0,0,0,.39-.33.39.39,0,0,0-.31-.52c-5.83-1.21-11.47,2-11.71,2.17a.43.43,0,0,0-.19.6.49.49,0,0,0,.65.12c.06,0,5.54-3.17,11-2A.38.38,0,0,0,344.14,370.41Z" style="fill:#263238"></path><path d="M343.7,366.47a.53.53,0,0,0,.39-.33.39.39,0,0,0-.3-.53,16.73,16.73,0,0,0-12,2.16.43.43,0,0,0-.14.61.49.49,0,0,0,.66.09,15.86,15.86,0,0,1,11.13-2A.5.5,0,0,0,343.7,366.47Z" style="fill:#263238"></path><path d="M343.19,362a.51.51,0,0,0,.39-.32.4.4,0,0,0-.29-.53c-6-1.44-11.79,2.13-12,2.29a.42.42,0,0,0-.16.61.48.48,0,0,0,.65.1c.06,0,5.64-3.49,11.22-2.15A.54.54,0,0,0,343.19,362Z" style="fill:#263238"></path><path d="M340.09,210.63c5.6,35.37,2.22,80.4,2.22,80.4a131.22,131.22,0,0,1,1.64,21c-.14,13.26-.3,32-.3,32s-8.73,6.81-17.49,2.14c0,0-6.15-24.63-8.75-43.91-2.08-15.41-5.84-38.32-5.84-38.32l-6.09,24.42s.65,9.5.49,16.17c-.18,7.75-4.4,37.46-4.4,37.46s-9.79,5.61-17.25-.2c0,0-2.88-43.23-3.25-52.54-.71-18.27-.26-56.41,1.75-79.54Z" style="fill:#37474f"></path><path d="M311.57,264l-4-26.92s-8.62-1.15-13.09-5.24c0,0,2.93,5.46,11.08,7.47l4,24.78-4,24.33Z" style="fill:#263238"></path><path d="M343.92,345.42c-1.82,2.43-11.56,5.19-17.81,2.75L325,343c4.72,1.72,15-.07,18.93-3.2Z" style="fill:#263238"></path><path d="M301.62,342.84c-2.12,2.16-11.47,3.15-17.41-.14l-.33-5.25c4.5,2.36,14.09,2.55,18.44,0Z" style="fill:#263238"></path></g><g id="freepik--top--inject-8"><path d="M290.43,144.53c-6.63,2.69-8.52,8.7-10.5,24.67s-2.47,20.21-2.47,20.21-12.89,9.67-25.08,13.13l2.72,12.64s11.56-2.83,17.82-4.84c10.32-3.32,15.48-5.59,18.68-9s7.25-36.68,7.25-36.68Z" style="fill:#b16668"></path><path d="M290.49,143.71c-4.7,1.89-7.88,5.64-9,12.73s-4.57,32.83-4.57,32.83c-6.47,4.52-18.17,10.52-18.17,10.52a27.13,27.13,0,0,1,2.32,8.43c.41,4.52-.21,6.39-.21,6.39s14.73-3.82,22.45-7.33,9.52-5.54,10.45-7.49,4.21-22.3,4.91-26.35,1.09-9.39,1.09-9.39Z" style="fill:#48A2C3"></path><path d="M290.49,143.71c-4.7,1.89-7.88,5.64-9,12.73s-4.57,32.83-4.57,32.83c-6.47,4.52-18.17,10.52-18.17,10.52a27.13,27.13,0,0,1,2.32,8.43c.41,4.52-.21,6.39-.21,6.39s14.73-3.82,22.45-7.33,9.52-5.54,10.45-7.49,4.21-22.3,4.91-26.35,1.09-9.39,1.09-9.39Z" style="opacity:0.2"></path><path d="M253.49,202.63c-.37-.06,3.41-.74-1.11-.09s-5.84-.21-8.75-.27a.81.81,0,0,0-.61.15,8,8,0,0,0-.56.86,10.88,10.88,0,0,1-.85.95c-.37.39-5.09,6.27-5,6.31l2.22,1.16s7.18,7.92,11.71,5c1-.66,2.25-.32,3.31-.79A6.1,6.1,0,0,0,256.3,214c.8-1.23.53-2.84.22-4.28l-.82-3.94c-.26-1.23-.4-2.58-1.78-3Z" style="fill:#b16668"></path><path id="freepik--chest--inject-8" d="M320.9,140.56c3.44.65,7.6,1.49,7.6,1.49,8.74,3.72,10.15,4.28,12,5a136.62,136.62,0,0,1-1.26,30.31c-.53,3.52-3,10.25-2.93,17.62a114,114,0,0,0,2.24,20.14s-8.29,9-32.57,7.52c-19.06-1.13-22.37-8.18-22.37-8.18s.69-25.33,1-39.38c.35-18.44,3.65-28.19,7.71-31.47L304.44,141Z" style="fill:#f5f5f5"></path><g id="freepik--head--inject-8"><path d="M327.78,105.82a6.91,6.91,0,0,0-3.71-3.35c-.79-3.91-5.9-8.48-15.55-8.74a9.69,9.69,0,0,1-3.34-.43c-1.16-.44-2.17-1.2-3.3-1.71a8.54,8.54,0,0,0-3.45-.76,6.17,6.17,0,0,0-2.81.58,4,4,0,0,0-2,2,6.25,6.25,0,0,0-.29,2.69,3.79,3.79,0,0,0-2.39.21,4.38,4.38,0,0,0-2.41,1.77,3.52,3.52,0,0,0-.24,2.79,5.93,5.93,0,0,0,1.54,2.39,3,3,0,0,0-1.7,3.62,3.8,3.8,0,0,0,3.29,2.54c-.19,0,.11,1.09.15,1.18a2.12,2.12,0,0,0,1,.92,22,22,0,0,0,3.17,1l4.48,1.4,11.11,3.47,9.31,2.91-.13,4.88v7a4.53,4.53,0,0,0,2.56-2.16,38.61,38.61,0,0,0,3.6-9.86C329,111,328.73,107.55,327.78,105.82Z" style="fill:#263238"></path><path d="M327,127.09c-3.58,1.86-5.32-1-5.32-1l-.15,14.45c-3.74,5.29-10.57,3.66-15.87,10.27l-1.65,0a14.44,14.44,0,0,1-.44-10.78l-.07-3.29a22.8,22.8,0,0,1-3.15-.22c-3.23-.42-6-2.58-7-6.88-1.27-5.19-1.5-16.49,0-21.64.5-1.66,1-3.57,2.54-4.38,3.81-2,15.57-2.88,18.71,1.74-.36,2.85.55,6,3.18,6.84.2,4.5.89,6.65,2.68,7.35,1.45.57,2.09-1.67,3-2.73a4,4,0,0,1,6.33,1.28A6.59,6.59,0,0,1,327,127.09Z" style="fill:#b16668"></path><path d="M303.51,136.74c4.21-.14,7.94-.76,10.4-1.88s4.57-4.53,5.2-7.89c.08,2.68-1,7.48-4.69,9.56s-8.11,2.3-10.86,2.44Z" style="fill:#9a4a4d"></path><path d="M308,110.24l3.26,2.08a2,2,0,0,0-.62-2.73A1.88,1.88,0,0,0,308,110.24Z" style="fill:#263238"></path><path d="M295.58,111.86l3.58-1.54a1.87,1.87,0,0,0-2.5-1.06A2,2,0,0,0,295.58,111.86Z" style="fill:#263238"></path><path d="M310.49,115.84a1.58,1.58,0,1,1-1.56-1.59A1.57,1.57,0,0,1,310.49,115.84Z" style="fill:#263238"></path><path d="M298.72,115.7a1.58,1.58,0,1,1-1.56-1.59A1.43,1.43,0,0,1,298.72,115.7Z" style="fill:#263238"></path><path d="M304.43,112.51l-1,10.06-5.34-1.81A23.45,23.45,0,0,1,304.43,112.51Z" style="fill:#9a4a4d"></path><path d="M308.8,123.58l-5.31,1.92a2.78,2.78,0,0,0,3.57,1.8A3,3,0,0,0,308.8,123.58Z" style="fill:#9a4a4d"></path><path d="M308.26,124.56a3.94,3.94,0,0,1,.68-.08,2.9,2.9,0,0,1-1.88,2.81,2.58,2.58,0,0,1-.9.15A2.6,2.6,0,0,1,308.26,124.56Z" style="fill:#f28f8f"></path></g><g id="freepik--Tie--inject-8"><path d="M302.06,153s-2.71-4.57-2.8-6.43l2.89-3.28,1.26,7.61Z" style="fill:#263238"></path><polygon points="305.9 150.85 310.9 147.09 315.35 149.78 307.61 154.21 305.9 150.85" style="fill:#263238"></polygon><path d="M309,197.45c.58-10-3-37.07-3-40.61l-2.65-.07c-1.5,4.35-4.55,32.55-4.29,39.4.12,3.29,3.9,9,5.05,9.1S308.85,199.57,309,197.45Z" style="fill:#37474f"></path><path d="M303.13,157.4c.05-.2.12-.46.18-.62h0l2.65.07h0c0,.29,0,.67.05,1.1A4.82,4.82,0,0,1,303.13,157.4Z" style="fill:#263238"></path><path d="M305.9,150.85a11.09,11.09,0,0,0-2.49,0,5.92,5.92,0,0,0-1.35,2.1,10.15,10.15,0,0,0,1.23,3.85A3.14,3.14,0,0,0,306,157a7.25,7.25,0,0,0,1.61-2.83A5,5,0,0,0,305.9,150.85Z" style="fill:#37474f"></path><path d="M305.47,150.8l.43,0a15.93,15.93,0,0,1,3.06-2.71c.72-.36,3.67,4.79,4.22,6.14s.45,1.33,2.3.15a35.63,35.63,0,0,0,8.41-7.78c2.94-3.72,3.18-6.09,3.18-6.09a41.86,41.86,0,0,1-2.92-3.95c-1.13-2.14-1.32-3-2.53-2.82l0,2c-.24,1.84-2.14,2.45-4.76,4.63s-6.84,4.21-7.85,5.14A36.92,36.92,0,0,0,305.47,150.8Z" style="fill:#e0e0e0"></path><path d="M296.85,150.8c.28.76,2.79-5.08,4-4.93.57.06,2,3.24,3,4.95H304a21.18,21.18,0,0,1-.76-5.45,39.81,39.81,0,0,1,.32-5.33l-.07-3.29c-.39,0-.76,0-1.08,0-.31.3-4.85,5.26-5.27,7.5A20.06,20.06,0,0,0,296.85,150.8Z" style="fill:#e0e0e0"></path></g><path d="M334.79,232.2c5.92-2.14,7.77-4,7.77-4l-3.89-32.43A175.08,175.08,0,0,1,341.4,173c2.1-10,.8-26.23.8-26.23l-15.82-7c.39,2.16-1.22,5.36-2.09,7.19a81.31,81.31,0,0,0-5,12.18q-1.92,6.43-3.23,13a183.23,183.23,0,0,0-3.24,26.72c-.44,8.45-.4,16.93,0,25.38.13,3,.45,6.28,2.66,8.29a8.48,8.48,0,0,0,5.36,1.86A33.54,33.54,0,0,0,334.79,232.2Z" style="fill:#48A2C3"></path><path d="M281.47,224.83l5.3,2.84a5.65,5.65,0,0,0,5.7-.06c1.8-1.12,2-4.67,2.1-6.79.42-8.17.25-12.58.44-19.58.44-16.57,1.7-33.13,2.59-49.66a49.23,49.23,0,0,1,1.8-11.3l-8.91,3.43s-6.8,8.39-7.09,26.07l.35,21.24Z" style="fill:#48A2C3"></path><path d="M359.84,188c1.09,7.24,1.3,8.47.91,13.33-.28,3.63-.65,4.25-1.9,10.86s-4.51,18.69-4.43,20.45a30,30,0,0,1,.06,5,21.06,21.06,0,0,1-1.3,5.82c-.48,1.3-.78,2.7-1.34,4a15.23,15.23,0,0,1-1.77,2.39c-.65.88-.86,2-1.67,2.78-1.4,1.38-2.89,1.6-4.23,2.25-.58.87-1.53,2.71-2.18,3.52-1.64,2.09-2.08-1.27-2-2.42a17.14,17.14,0,0,1,.62-3.62,82.79,82.79,0,0,0,1.93-9c.08-.54.69-2.78-.2-2.76a1.07,1.07,0,0,0-.72.44c-.6.7-1,1.56-1.52,2.32a13.71,13.71,0,0,1-1.41,1.64,4.65,4.65,0,0,1-1.42,1.16c-.57.25-2.68.45-2.78-.54a.93.93,0,0,1,.1-.46c.42-1,.93-2,1.35-3a29.37,29.37,0,0,0,1.18-3.12,25.3,25.3,0,0,1,3.62-8.85c3.49-5,3.78-34.08,3.78-34.08l-5.11-20a41.64,41.64,0,0,1-3-16.81c.2-6.95,6-10.85,6-10.85,7.43,2.84,9.19,3.82,11.23,10.58S359.11,183.11,359.84,188Z" style="fill:#b16668"></path><path d="M360.86,193.15c-.24-1.73-1.46-10.73-4.34-23.88-2.74-12.5-3.52-14.51-6.13-17.36-2.05-2.24-4.77-3.61-8.19-5.15,0,0-5.34,3.6-6.6,14.15-.94,7.83,2.82,17.63,2.82,17.63l5.47,18.32-.48,20.42c3.51-1.29,11.39,1.15,13.28,4.59,0,0,2.51-9.11,3.78-15.55A39.72,39.72,0,0,0,360.86,193.15Z" style="fill:#48A2C3"></path><path d="M360.86,193.15c-.24-1.73-1.46-10.73-4.34-23.88-2.74-12.5-3.52-14.51-6.13-17.36-2.05-2.24-4.77-3.61-8.19-5.15,0,0-5.34,3.6-6.6,14.15-.94,7.83,2.82,17.63,2.82,17.63l5.47,18.32-.48,20.42c3.51-1.29,11.39,1.15,13.28,4.59,0,0,2.51-9.11,3.78-15.55A39.72,39.72,0,0,0,360.86,193.15Z" style="opacity:0.2"></path><path d="M343.46,215.13l-.43,5.65s2.38-.37,7.59,1c4.12,1.09,5.46,2.75,5.46,2.75l1.4-5.63S353.17,214.43,343.46,215.13Z" style="fill:#48A2C3"></path><path d="M343.46,215.13l-.43,5.65s2.38-.37,7.59,1c4.12,1.09,5.46,2.75,5.46,2.75l1.4-5.63S353.17,214.43,343.46,215.13Z" style="opacity:0.30000000000000004"></path><path d="M262,197.9l-5.66,2.72a14.3,14.3,0,0,1,3.08,6.64,33.6,33.6,0,0,1,.88,7.59l5.91-1.47a30,30,0,0,0-1.08-8.54C263.85,200,262,197.9,262,197.9Z" style="fill:#48A2C3"></path><path d="M262,197.9l-5.66,2.72a14.3,14.3,0,0,1,3.08,6.64,33.6,33.6,0,0,1,.88,7.59l5.91-1.47a30,30,0,0,0-1.08-8.54C263.85,200,262,197.9,262,197.9Z" style="opacity:0.30000000000000004"></path></g></g></g><path d="M253.27,215.29a23,23,0,0,1-10.07-6.22,1.89,1.89,0,0,1-.64-1.54,2,2,0,0,1,.58-.9l1.86-2a12.61,12.61,0,0,0,2.07-2.66,3.1,3.1,0,0,0,.4-2c-.16-.69-.39-1-1.1-1.07a3.45,3.45,0,0,0-1.53.92c-2,1.64-3.53,1.86-6.25,3.49s-6.2,2.93-8.38,2.79h0c-6.62-1.24-36.25-10.74-36.25-10.74s-14-25.53-16.57-30.76-4.58-10-9-12.92c-6.38,2.17-12.17,11.93-7.93,21.54s16.53,29.45,18.79,33.3,4.26,5.82,9.91,7.1c5.34,1.22,29.89,3.63,36.71,4.57l-.09.22c4.51.56,5.63,1.17,6.35,1.49,3.09,1.36,7.62.84,11.34.37a8.25,8.25,0,0,0,2.26-.51c.68-.29,1.28-.74,2-1a33.25,33.25,0,0,1,3.59-.79,6.16,6.16,0,0,0,3.07-1.76c.11-.13.76-.8.77-1A2.6,2.6,0,0,1,253.27,215.29Z" style="fill:#ffbda7"></path><path d="M168.16,150.59c-5.73,2.45-12.44,10.77-9.17,20.19s17.31,32.09,19.71,36.08,3.93,5.86,7.58,6.88,21.48,2.8,21.48,2.8a28.35,28.35,0,0,0,2.8-9.45c.76-5.83-1.1-7.3-1.1-7.3l-15-4.82s-16.55-31.65-18.84-35.81S171.08,151.79,168.16,150.59Z" style="fill:#48A2C3"></path><path d="M168.16,150.59c-5.73,2.45-12.44,10.77-9.17,20.19s17.31,32.09,19.71,36.08,3.93,5.86,7.58,6.88,21.48,2.8,21.48,2.8a28.35,28.35,0,0,0,2.8-9.45c.76-5.83-1.1-7.3-1.1-7.3l-15-4.82s-16.55-31.65-18.84-35.81S171.08,151.79,168.16,150.59Z" style="opacity:0.15"></path><path d="M244.73,220a4.06,4.06,0,0,1-2.44-.27c-1-.84-2.09-1.16-2.85-2.25a8,8,0,0,0-.89-1.19,5.43,5.43,0,0,0-2.07-1.16c-.71-.26-1.35-.65-2.09-.89-.36-.12-.94-.13-1.11.3a5,5,0,0,0-1.12-1c-.46-.28-1.56-.64-1.87,0a1.66,1.66,0,0,0-.1.59c-.05,1.2-.11,2.41-.16,3.62a3,3,0,0,0,.05.9,2.63,2.63,0,0,0,1.43,1.52,4.35,4.35,0,0,0,1.18.45c.51.1,1,.06,1.54.16,1.05.21,1.94,1,3,1.08.66,0,1.31-.23,2-.25a15,15,0,0,1,1.63.16C241.59,221.83,244.09,220.38,244.73,220Z" style="fill:#b16668"></path><path d="M235.63,205.19c-.49.22-1,.43-1.47.68a42,42,0,0,0-3.5,2.43,7.22,7.22,0,0,1-2.49,1.14c-.61.13-2,.29-2.22-.55a1.06,1.06,0,0,1,.18-.78c.51-.94,1.06-1.87,1.65-2.77a8.15,8.15,0,0,1,1.94-2.38,18.47,18.47,0,0,1,3.21-1.75,7.77,7.77,0,0,1,1.49-.53,8,8,0,0,1,2.88.1c1.42.22,3.43.44,4.85.67-.27.21-1,.71-1.14.82l-1.79,1C238.05,204,236.86,204.63,235.63,205.19Z" style="fill:#b16668"></path></g></g><g id="freepik--character-1--inject-8"><g id="freepik--chartacter--inject-8"><g id="freepik--bottom--inject-8"><path d="M60.54,414.7c-.32,4.42-1,7.35-2.65,9.92s-4.55,3.19-7.58,2.55A11.41,11.41,0,0,1,42,420.23c-1.07-2.92-.6-6.44.14-10.54Z" style="fill:#263238"></path><path d="M48.35,382.27c-1.24.08-1.69,6-2.48,12-.86,6.36-2.86,9.9-3.56,14.19-1,5.95-.59,8.64,1.46,12.28s10.11,7.51,13.83,2.39c3-4.18,3.23-8.86,3-14.83a151.84,151.84,0,0,1-.06-15.19c.31-4.47.68-8.8-.39-9.31-.09.65-.19,1.49-.28,2.13s-.23,2.92-.93,2.93a10.6,10.6,0,0,1,0-1.69,2,2,0,0,0-.32-1.44,2.28,2.28,0,0,0-1.36-.64,34.7,34.7,0,0,0-3.67-.62c-.61-.06-1.23-.1-1.85-.1a10.14,10.14,0,0,0-2.27,0,1.06,1.06,0,0,0-.68.59,2,2,0,0,0-.08.69,4.6,4.6,0,0,1-.17,1.22c-.05.18-.17.39-.35.34s-.2-.21-.19-.36c0-.72.1-1.24.15-2.08,0-.39.09-.92.1-1.31S48.32,382.65,48.35,382.27Z" style="fill:#37474f"></path><path d="M46.82,410a.43.43,0,0,0,.38.47.43.43,0,1,0,.1-.85A.43.43,0,0,0,46.82,410Z" style="opacity:0.15"></path><path d="M47.3,405.85a.43.43,0,0,0,.38.48.45.45,0,0,0,.48-.38.44.44,0,0,0-.38-.48A.42.42,0,0,0,47.3,405.85Z" style="opacity:0.15"></path><path d="M47.74,402a.44.44,0,0,0,.38.48.42.42,0,0,0,.48-.38.43.43,0,0,0-.38-.48A.44.44,0,0,0,47.74,402Z" style="opacity:0.15"></path><path d="M48.18,398.13a.44.44,0,0,0,.38.48.42.42,0,0,0,.48-.38.43.43,0,0,0-.38-.48A.43.43,0,0,0,48.18,398.13Z" style="opacity:0.15"></path><path d="M57,399a.44.44,0,0,0,.38.48.42.42,0,0,0,.48-.38.43.43,0,0,0-.38-.48A.43.43,0,0,0,57,399Z" style="opacity:0.15"></path><path d="M56.55,402.84a.43.43,0,0,0,.38.48.44.44,0,0,0,.48-.38.42.42,0,0,0-.38-.48A.43.43,0,0,0,56.55,402.84Z" style="opacity:0.15"></path><path d="M56.1,406.72a.44.44,0,0,0,.38.48.42.42,0,0,0,.48-.38.43.43,0,0,0-.38-.48A.45.45,0,0,0,56.1,406.72Z" style="opacity:0.15"></path><path d="M55.63,410.84a.42.42,0,0,0,.38.48.43.43,0,0,0,.48-.38.43.43,0,0,0-.38-.48A.44.44,0,0,0,55.63,410.84Z" style="opacity:0.15"></path><polygon points="51.97 412.74 55.7 384.01 54.1 383.95 51.97 412.74" style="opacity:0.15"></polygon><path d="M47.23,410.23h.07a15.71,15.71,0,0,1,8.67.83.21.21,0,0,0,.29-.1.21.21,0,0,0-.1-.29,15.85,15.85,0,0,0-8.95-.87.22.22,0,0,0-.17.26A.21.21,0,0,0,47.23,410.23Z" style="fill:#263238"></path><path d="M47.7,406.12l.12,0c2.19-1,6.45-.25,8.62.84a.21.21,0,0,0,.29-.09.23.23,0,0,0-.09-.3c-2.26-1.14-6.69-1.91-9-.85a.21.21,0,0,0-.11.29A.23.23,0,0,0,47.7,406.12Z" style="fill:#263238"></path><path d="M48.15,402.23a.2.2,0,0,0,.11,0c2.2-1,6.46-.25,8.62.85a.23.23,0,0,0,.3-.1.22.22,0,0,0-.1-.29c-2.25-1.15-6.68-1.91-9-.86a.22.22,0,0,0-.11.29A.23.23,0,0,0,48.15,402.23Z" style="fill:#263238"></path><path d="M48.59,398.4a.2.2,0,0,0,.11,0c2.2-1,6.46-.25,8.62.85a.23.23,0,0,0,.3-.1.22.22,0,0,0-.1-.3c-2.26-1.14-6.68-1.91-9-.85a.22.22,0,0,0-.11.29A.26.26,0,0,0,48.59,398.4Z" style="fill:#263238"></path><polygon points="87.86 397 93.13 395.2 91.54 391.62 88.24 394.5 87.86 397"></polygon><path d="M82.77,387.44s-.31,3.38-.39,4.45,4.37,4.52,5.48,5.11l.38-2.5a19.4,19.4,0,0,1,2.48,4.13c.83,1.55,1.86,4.46,4.21,6.5,3.49,3,9,4.68,14.7,5.06s9-.91,10.63-2.1,2.21-2.61,1.85-4.06S82.77,387.44,82.77,387.44Z" style="fill:#263238"></path><path d="M98.34,376.34l.13-2c1,0,1.09,2.85,2.54,5.4a50.77,50.77,0,0,0,7.69,10.48c5.6,5.43,10.65,8.89,13.15,11.34,3.34,3.27-2.86,8.11-12.13,7.31-4.6-.4-12.71-3-14.93-5.76s-3.49-7.08-5.27-9.12-5.68-4.15-6.75-6.58c-.59-1.34-.16-4.41.3-7,.42-2.39.6-6.06,1.94-5.72l.06,1.23c.52,1.07,1.75,2.84,5.45,3.59C92.36,379.89,97.89,380.22,98.34,376.34Z" style="fill:#37474f"></path><path d="M93.5,379.7c1.77-.09,3.7-.62,4.49-2.2l0-.05a4.5,4.5,0,0,0,1.08,3.82c1.6,2,11.66,16,11.66,16s-9.41-11.6-11.22-13.78c-2.67-3.23-3.53-3.63-6.06-3.79Z" style="opacity:0.15"></path><path d="M95.7,383.41a.57.57,0,1,1-1.12-.16.57.57,0,1,1,1.12.16Z" style="opacity:0.15"></path><path d="M98.35,386.52a.57.57,0,1,1-.48-.64A.57.57,0,0,1,98.35,386.52Z" style="opacity:0.15"></path><path d="M101,389.63a.57.57,0,1,1-.48-.64A.56.56,0,0,1,101,389.63Z" style="opacity:0.15"></path><path d="M103.64,392.74a.58.58,0,0,1-.64.49.59.59,0,0,1-.49-.65.58.58,0,0,1,.65-.48A.57.57,0,0,1,103.64,392.74Z" style="opacity:0.15"></path><path d="M106.28,395.86a.57.57,0,1,1-1.12-.16.57.57,0,1,1,1.12.16Z" style="opacity:0.15"></path><path d="M95.11,383.55a.21.21,0,0,1-.14-.07.23.23,0,0,1,0-.32,9.33,9.33,0,0,1,6.5-2.34h0a.22.22,0,0,1,.21.24.23.23,0,0,1-.25.21,9.07,9.07,0,0,0-6.15,2.22A.2.2,0,0,1,95.11,383.55Z" style="fill:#263238"></path><path d="M97.76,386.66a.29.29,0,0,1-.14-.08.22.22,0,0,1,0-.32,9.33,9.33,0,0,1,6.5-2.34h0a.21.21,0,0,1,.2.25.22.22,0,0,1-.24.2,9.08,9.08,0,0,0-6.15,2.23A.3.3,0,0,1,97.76,386.66Z" style="fill:#263238"></path><path d="M100.41,389.78a.26.26,0,0,1-.15-.07.24.24,0,0,1,0-.33,9.3,9.3,0,0,1,6.49-2.34h0a.23.23,0,0,1,0,.46,9,9,0,0,0-6.14,2.22A.26.26,0,0,1,100.41,389.78Z" style="fill:#263238"></path><path d="M103.05,392.89a.27.27,0,0,1-.14-.07.22.22,0,0,1,0-.32,9.37,9.37,0,0,1,6.5-2.35h0a.23.23,0,0,1,0,.46c-3.36-.3-6.12,2.2-6.15,2.22A.21.21,0,0,1,103.05,392.89Z" style="fill:#263238"></path><path d="M105.7,396a.17.17,0,0,1-.14-.07.22.22,0,0,1,0-.32,9.32,9.32,0,0,1,6.49-2.34h0a.22.22,0,0,1,.2.24.23.23,0,0,1-.25.21,9,9,0,0,0-6.14,2.22A.21.21,0,0,1,105.7,396Z" style="fill:#263238"></path><path d="M49.36,248.47c-2.51,35.7-3.6,75.47-3.6,75.47a193.74,193.74,0,0,0-1.16,21.67c-.12,13,.7,44.77.7,44.77s8.25,5.85,17.16,1.44c0,0,6.6-35.15,9.57-54,2.38-15.06,5.6-34.42,5.6-34.42l2.72,18a116.53,116.53,0,0,0-1,21c.51,7.58,3.25,36.4,3.25,36.4s10.72,8.77,19.1.36c0,0,4-48.21,4.52-57.33,1.06-17.89.43-50.26,0-73Z" style="fill:#455a64"></path><path d="M77.63,303.4l4.63-30.95s8.7-1,13.28-4.89c0,0-3.06,5.29-11.29,7.11l-4.36,28.07.46,18.68Z" style="fill:#263238"></path></g><g id="freepik--top--inject-8"><path d="M100.43,178.24c6.32,2,10.74,5,13.63,13.47,3,8.74,8.71,24.3,10.7,30.72-1.24,3.48-10.21,6.68-13.82,5s-12.52-27-12.52-27Z" style="fill:#e0e0e0"></path><path id="freepik--chest--inject-8" d="M70.05,174.12c-3.49.6-7.72,1.37-7.72,1.37-8.92,3.61-10.36,4.15-12.24,4.89a74.13,74.13,0,0,0-1.94,30,210.17,210.17,0,0,1,1.4,22.23c0,9.85-.78,21.94-.78,21.94s10.74,7,35.35,6c19.32-.8,22.3-7.83,22.3-7.83S107,224,107,209.81c0-18.69-4-28.64-8-32.05l-12.28-2.89Z" style="fill:#f0f0f0"></path><g id="freepik--head--inject-8"><g id="freepik--head--inject-8"><path d="M62.88,137.25a6.19,6.19,0,0,1,4.73-4.17c1-4.13,7-9,15.37-7.92s12.41,3.6,15,8.66.4,8.58.4,8.58L74,140.84a22.12,22.12,0,0,1-.3,3.47c-.58,3.7-4.17,8-4.17,8l0,5.2L69.26,165a4.78,4.78,0,0,1-2.64-2.39c-.81-1.78-1.62-4.52-2.79-10.87S61.75,140.1,62.88,137.25Z" style="fill:#263238"></path><path d="M63,159.17c2.65,1.93,5.27-.75,5.27-.75L68,172.94s0,3.81,4.6,6.68c6.46,4.08,9.27,6.22,11.9,10.32,2.55-6.47,6.38-10.87,2.4-16.13l.06-3.42a33.05,33.05,0,0,0,3.6-.18c3.44-.33,5.74-2.91,7-6.54,2-5.84,2.28-16.22-.18-26.93-4.31-3.69-15.46-3.87-23.78.74,0,6.81-2.07,9.71-2.2,12.18a6.59,6.59,0,0,1-1.59,1.82c-1.31,1-2.16-1.85-3.14-3s-4.33-2.84-6.24.66S60.71,157.51,63,159.17Z" style="fill:#c8856a"></path><path d="M82.39,143.66l-3.62,2a2.17,2.17,0,0,1,.86-2.86A2,2,0,0,1,82.39,143.66Z" style="fill:#263238"></path><path d="M96.4,144.57l-3.9-1.39a2,2,0,0,1,2.58-1.29A2.16,2.16,0,0,1,96.4,144.57Z" style="fill:#263238"></path><path d="M80.38,147.76a1.67,1.67,0,1,0,1.71-1.63A1.67,1.67,0,0,0,80.38,147.76Z" style="fill:#263238"></path><path d="M92.19,147.62A1.68,1.68,0,1,0,93.91,146,1.52,1.52,0,0,0,92.19,147.62Z" style="fill:#263238"></path><polygon points="86.62 143.92 87.36 154.64 93.1 152.91 86.62 143.92" style="fill:#af6152"></polygon><path d="M98.27,147.51h0l.07,0Z" style="fill:#9a4a4d"></path><polygon points="98.25 147.52 98.25 147.51 98.26 147.51 98.25 147.52" style="fill:#9a4a4d"></polygon><path d="M71.33,148.77c.28,7.3,2.79,7.83,5.38,8.28,3.43.59,5.14-1.25,11.29-1.2,3.72,0,4.88,1.15,7,2,1.57.65,3.19.58,3.45-.93a50.89,50.89,0,0,0,.52-9.45,68.92,68.92,0,0,1,0,13.26c-.54,3.43-1.48,6.63-3.39,8.22-2.65,2.21-8.19,2.5-15,.92S71.13,166,70.33,163.6c-2.62-7.89-1.53-11.61-2.42-13.1S71.33,148.77,71.33,148.77Z" style="fill:#263238"></path><path d="M87.14,158c-3.51-.1-4.66.53-4.85,2.93-.27,3.43-.11,4.59,1.2,4.78,1.55.23,2.69.33,2.75-.64a3.87,3.87,0,0,0-.21-2.21c-.54-.66-.35-.75,1.19-.71s1.52.32,1.06.79S88,164.5,88,165.18s.16,1,2.38.83c1.93-.17,1.61-1.72,1.6-4.67C91.94,159.35,91.11,158.15,87.14,158Z" style="fill:#c8856a"></path><path d="M84.85,158.89l4.66.69a2.32,2.32,0,0,1-2.62,2.06A2.47,2.47,0,0,1,84.85,158.89Z" style="fill:#9a4a4d"></path><path d="M85.45,159.61a2.73,2.73,0,0,0-.57,0,2.44,2.44,0,0,0,2,2,2.15,2.15,0,0,0,.76,0A2.15,2.15,0,0,0,85.45,159.61Z" style="fill:#f28f8f"></path></g></g><g id="freepik--tie--inject-8"><path d="M88.35,188.64s2.86-4.75,3-6.7l-3-3.43L87,186.44Z" style="fill:#48A2C3"></path><g style="opacity:0.15"><path d="M88.35,188.64s2.86-4.75,3-6.7l-3-3.43L87,186.44Z"></path></g><polygon points="84.35 186.41 79.16 182.44 74.5 185.22 82.55 189.91 84.35 186.41" style="fill:#48A2C3"></polygon><g style="opacity:0.15"><polygon points="84.35 186.41 79.16 182.44 74.5 185.22 82.55 189.91 84.35 186.41"></polygon></g><path d="M82,238.06c-.79-11.16,2.49-41.44,2.41-45.4l2.76-.12c1.65,4.83,5.34,36.27,5.19,43.91-.07,3.69-3.91,10.07-5.11,10.26S82.14,240.44,82,238.06Z" style="fill:#48A2C3"></path><path d="M87.36,193.24c-.06-.22-.14-.51-.21-.69h0l-2.76.12h0c0,.34,0,.75,0,1.24A4.79,4.79,0,0,0,87.36,193.24Z" style="opacity:0.15"></path><path d="M84.35,186.41a11.53,11.53,0,0,1,2.61,0,6.16,6.16,0,0,1,1.39,2.2,9.39,9.39,0,0,1-1.2,3.9,3.28,3.28,0,0,1-2.76.12,5.74,5.74,0,0,1-1.84-2.75A5.23,5.23,0,0,1,84.35,186.41Z" style="fill:#48A2C3"></path><path d="M84.81,186.36l-.46,0a16.21,16.21,0,0,0-3.17-2.85c-.75-.39-3.86,5-4.45,6.37s-.48,1.39-2.39.15a37.22,37.22,0,0,1-8.73-8.19c-3-3.9-3.28-6.37-3.28-6.37a42.53,42.53,0,0,0,3.08-4.11c1.2-2.22,1.42-3.3,2.68-3.12v1.6c.24,1.92,2.21,3.25,4.94,5.54s7.1,4.44,8.15,5.42A38.58,38.58,0,0,1,84.81,186.36Z" style="fill:#fafafa"></path><path d="M93.8,186.42c-.29.79-2.87-5.32-4.1-5.18-.59.06-2.1,3.38-3.18,5.15h-.2a22.64,22.64,0,0,0,.84-5.68,43.16,43.16,0,0,0-.3-5.57l.07-4.26c.41,0,.73.26,2,1.72s4.19,4.61,4.62,6.95A20.23,20.23,0,0,1,93.8,186.42Z" style="fill:#fafafa"></path></g><g id="freepik--Arms--inject-8"><path d="M78.73,235.28c-.34-.45-1.39.49-3.63,1-2.85.64-4,.54-7,1.33a15,15,0,0,1-4.21.78l11,2.26A12,12,0,0,0,78,238.74,2.59,2.59,0,0,0,78.73,235.28Z" style="fill:#b16668"></path><path d="M127.13,205.28c.78-.33,1.33,0,1.22.7l-5.15,36.84-51.73,22,5.28-36.9a2.82,2.82,0,0,1,1.59-1.9l29.55-12.54,2.1-3.74a1.29,1.29,0,0,1,.64-.55l12.25-5.21a1.27,1.27,0,0,1,1.69.52l.61,1.65Z" style="fill:#48A2C3"></path><path d="M127.13,205.28c.78-.33,1.33,0,1.22.7l-5.15,36.84-51.73,22,5.28-36.9a2.82,2.82,0,0,1,1.59-1.9l29.55-12.54,2.1-3.74a1.29,1.29,0,0,1,.64-.55l12.25-5.21a1.27,1.27,0,0,1,1.69.52l.61,1.65Z" style="opacity:0.15"></path><polygon points="123.2 241.07 73.22 262.28 78.44 227.45 130.04 205.55 123.2 241.07" style="fill:#f0f0f0"></polygon><path d="M71.47,264.78l8.65-34.89A3.26,3.26,0,0,1,81.85,228l48.78-20.7c.78-.33,1.27,0,1.09.69l-8.52,34.83Z" style="fill:#48A2C3"></path><path d="M128.73,220.2c2.23,2.7,2.25,4.83,1.43,8.38s-3.13,7.78-4.43,8.93-3.73,2.77-6.46,2.22-2.81-4-4-5.5c-2-2.34.67-4.06,3.22-4.41,6-.83,8.86-3.85,8.86-3.85Z" style="fill:#b16668"></path><path d="M82.73,240.7a41.91,41.91,0,0,1-7.8-.07l-11-2.26C59,238.94,45,229.11,45,229.11s3.26-9.39,7.84-22.68c3.74-9.7,2.61-19-2.58-25.38-7.85,3.09-10.67,4.06-13.63,13.22-2.33,7.23-6.85,27-8.77,34.57-1.11,4.32-1.54,8.14,3.17,10.83a134.88,134.88,0,0,0,24.29,9.68c5,1.41,7.72,2.79,13,3.57a45.2,45.2,0,0,0,8.53.63,12.19,12.19,0,0,0,3-.32,18.57,18.57,0,0,0,4.24-2.7,3,3,0,0,0,1-1c.3-.61.17-1.38.56-1.94s.93-.68,1.3-1.11c.65-.76.58-1.95,1.09-2.8s1.34-1.59.87-2.52C88.12,239.65,86.25,240.41,82.73,240.7Z" style="fill:#b16668"></path><path d="M50.72,180.13c-4.22,1.44-9.84,4.2-11.31,6.36s-4.88,8.33-8.1,19.06c-2.85,9.52-5.14,17.38-6,23.51-.89,6.43.49,8.53,4.82,11.25s25,9.48,25,9.48-.13-8,5.37-12.95l-13.77-8s4.67-13.89,6.64-18.74S59.45,188.87,50.72,180.13Z" style="fill:#e0e0e0"></path></g></g></g></g></svg>
