<svg xmlns="http://www.w3.org/2000/svg" viewBox="0 0 750 500"><g id="freepik--background-simple--inject-23"><path d="M460.42,39S377.78,9.62,296.66,56.4s-122,139.66-157.2,214.05-14.92,150.06,47,184.57,104-16.36,190.91-18.84,110.23,9.94,182.32-39.13,85.11-165,28.25-250.73S460.42,39,460.42,39Z" style="fill:#48A2C3"></path><path d="M460.42,39S377.78,9.62,296.66,56.4s-122,139.66-157.2,214.05-14.92,150.06,47,184.57,104-16.36,190.91-18.84,110.23,9.94,182.32-39.13,85.11-165,28.25-250.73S460.42,39,460.42,39Z" style="fill:#fff;opacity:0.7000000000000001"></path></g><g id="freepik--Device--inject-23"><path d="M512.74,71.26H441.85l-3,5.47a18.39,18.39,0,0,1-32.16,0l-2.95-5.47H332.9A13.52,13.52,0,0,0,319.21,84.6V449.66A13.52,13.52,0,0,0,332.9,463H512.74a13.53,13.53,0,0,0,13.7-13.34V84.6A13.53,13.53,0,0,0,512.74,71.26Z" style="fill:#fff"></path><rect x="497.89" y="76.51" width="14.29" height="7.84" style="fill:none;stroke:#263238;stroke-linecap:round;stroke-linejoin:round;stroke-width:0.9107233255922075px"></rect><rect x="497.89" y="76.51" width="11.15" height="7.84" style="fill:#263238;stroke:#263238;stroke-linecap:round;stroke-linejoin:round;stroke-width:0.8042472707551498px"></rect><rect x="512.15" y="78.7" width="2.01" height="3.45" style="fill:#263238;stroke:#263238;stroke-linecap:round;stroke-linejoin:round;stroke-width:0.8042472707551498px"></rect><rect x="331.01" y="78.94" width="2.62" height="4.49" style="fill:#263238;stroke:#263238;stroke-linecap:round;stroke-linejoin:round;stroke-width:0.9795144838410508px"></rect><rect x="335.13" y="77.36" width="2.62" height="6.07" style="fill:#263238;stroke:#263238;stroke-linecap:round;stroke-linejoin:round;stroke-width:0.9795144838410508px"></rect><rect x="339.25" y="75.5" width="2.62" height="7.93" style="fill:#263238;stroke:#263238;stroke-linecap:round;stroke-linejoin:round;stroke-width:0.9795144838410508px"></rect><line x1="325.55" y1="87.03" x2="520.06" y2="87.03" style="fill:none;stroke:#263238;stroke-linecap:round;stroke-linejoin:round;stroke-width:1.1091948959003437px"></line><path d="M536.53,196.73a1.45,1.45,0,0,0,1.45-1.45V156.36a1.45,1.45,0,0,0-1.45-1.45h-3.78V80.56a18.68,18.68,0,0,0-18.69-18.68H331.58a18.68,18.68,0,0,0-18.69,18.68V464.22a18.68,18.68,0,0,0,18.69,18.68H514.06a18.68,18.68,0,0,0,18.69-18.68v-234h3.78a1.45,1.45,0,0,0,1.45-1.45V211.42a1.45,1.45,0,0,0-1.45-1.45h-3.78V196.73ZM526.44,449.66A13.53,13.53,0,0,1,512.74,463H332.9a13.52,13.52,0,0,1-13.69-13.34V84.6A13.52,13.52,0,0,1,332.9,71.26h70.89l2.95,5.47a18.39,18.39,0,0,0,32.16,0l3-5.47h70.89a13.53,13.53,0,0,1,13.7,13.34Z" style="fill:#263238;stroke:#263238;stroke-linecap:round;stroke-linejoin:round;stroke-width:1.1091948959003437px"></path><path d="M427.7,73.35a4.88,4.88,0,1,0-4.88,4.88A4.87,4.87,0,0,0,427.7,73.35Z" style="fill:#fff;stroke:#263238;stroke-linecap:round;stroke-linejoin:round;stroke-width:1.1091948959003437px"></path></g><g id="freepik--text-balloons--inject-23"><path d="M448.46,98.09h-110a8.39,8.39,0,0,0-8.39,8.39v45.07L339.94,141H448.46a8.39,8.39,0,0,0,8.39-8.39V106.48A8.39,8.39,0,0,0,448.46,98.09Z" style="fill:#a3a3a3"></path><circle cx="352.48" cy="116.54" r="11.79" transform="translate(-14.15 58.16) rotate(-9.25)" style="fill:#fff"></circle><path d="M358.43,116.8s1.24-1.65,1.52,0-2.12,3.72-2.12,3.72Z" style="fill:#fff;stroke:#263238;stroke-linecap:round;stroke-linejoin:round;stroke-width:1.1091948959003437px"></path><path d="M346.57,116.8s-1.23-1.65-1.51,0,2.11,3.72,2.11,3.72Z" style="fill:#fff;stroke:#263238;stroke-linecap:round;stroke-linejoin:round;stroke-width:1.1091948959003437px"></path><path d="M352.92,108.67s-4.67-.36-5.75,2.75-.35,8.14,0,9.1,3.36,5.62,4.19,6,2.88.24,3.23-.24,3.36-4.91,3.59-6.46a55.55,55.55,0,0,0-.13-6.86,4.28,4.28,0,0,0-2.63-3.72A7.65,7.65,0,0,0,352.92,108.67Z" style="fill:#fff;stroke:#263238;stroke-linecap:round;stroke-linejoin:round;stroke-width:1.1091948959003437px"></path><path d="M358.05,112.94a4.28,4.28,0,0,0-2.63-3.72,7.65,7.65,0,0,0-2.5-.55s-4.67-.36-5.75,2.75a15.17,15.17,0,0,0-.53,5.46c.24.28,1,1.11.9.06-.14-1.24-.28-5,.69-5.78s1.1-1.51,2.47-.41,1.24,2.06,2.62,1.38,1.65-2.2,2.88-1.65.83,3.16.83,4.4,0,3.57.83,2.47a3.18,3.18,0,0,0,.36-.74C358.18,115.35,358.11,114,358.05,112.94Z" style="fill:#263238;stroke:#263238;stroke-linecap:round;stroke-linejoin:round;stroke-width:1.1091948959003437px"></path><path d="M350.93,125.75s1.48-3,2.42-1.88a6.11,6.11,0,0,1,1.24,2.39A2.78,2.78,0,0,1,350.93,125.75Z" style="fill:#263238;stroke:#263238;stroke-linecap:round;stroke-linejoin:round;stroke-width:1.1091948959003437px"></path><path d="M351.6,108.44a3.34,3.34,0,0,0-1.07-1.35l-.67-.4s1.61-.67,2.14-.13a10.2,10.2,0,0,1,.94,1.07s.27-1.88.94-1.21a13.22,13.22,0,0,0,1.21,1.08s-1.88.53-1.88,1.88" style="fill:#263238;stroke:#263238;stroke-linecap:round;stroke-linejoin:round;stroke-width:1.1091948959003437px"></path><line x1="371.23" y1="108.11" x2="395.67" y2="108.11" style="fill:none;stroke:#fff;stroke-linecap:round;stroke-linejoin:round;stroke-width:2.2183897918006874px"></line><line x1="371.23" y1="116.62" x2="446.04" y2="116.62" style="fill:none;stroke:#fff;stroke-linecap:round;stroke-linejoin:round;stroke-width:1.1091948959003437px"></line><line x1="371.23" y1="123.66" x2="446.04" y2="123.66" style="fill:none;stroke:#fff;stroke-linecap:round;stroke-linejoin:round;stroke-width:1.1091948959003437px"></line><line x1="371.23" y1="131.44" x2="446.04" y2="131.44" style="fill:none;stroke:#fff;stroke-linecap:round;stroke-linejoin:round;stroke-width:1.1091948959003437px"></line><path d="M506.84,159H396.78a8.38,8.38,0,0,0-8.38,8.39v26.17a8.39,8.39,0,0,0,8.38,8.39H505.31l9.92,10.51V167.37A8.39,8.39,0,0,0,506.84,159Z" style="fill:#48A2C3"></path><line x1="429.61" y1="168.99" x2="454.05" y2="168.99" style="fill:none;stroke:#263238;stroke-linecap:round;stroke-linejoin:round;stroke-width:2.2183897918006874px"></line><line x1="429.61" y1="177.51" x2="504.42" y2="177.51" style="fill:none;stroke:#263238;stroke-linecap:round;stroke-linejoin:round;stroke-width:1.1091948959003437px"></line><line x1="429.61" y1="184.55" x2="504.42" y2="184.55" style="fill:none;stroke:#263238;stroke-linecap:round;stroke-linejoin:round;stroke-width:1.1091948959003437px"></line><line x1="429.61" y1="192.33" x2="504.42" y2="192.33" style="fill:none;stroke:#263238;stroke-linecap:round;stroke-linejoin:round;stroke-width:1.1091948959003437px"></line><circle cx="411.35" cy="179.89" r="11.79" style="fill:#fff"></circle><path d="M409.87,170.93a5.5,5.5,0,0,0-5.57,3.82A36.77,36.77,0,0,0,402,186.27c0,2.44,4.83,4.37,7.47,4.57s8.58.1,10.62-3.15-1.27-9.85-2.09-13.91S412.71,170.73,409.87,170.93Z" style="fill:#263238;stroke:#263238;stroke-linecap:round;stroke-linejoin:round;stroke-width:1.1091948959003437px"></path><path d="M417.3,179.08s1.24-1.65,1.51,0-2.11,3.71-2.11,3.71Z" style="fill:#fff;stroke:#263238;stroke-linecap:round;stroke-linejoin:round;stroke-width:1.1091948959003437px"></path><path d="M405.44,179.08s-1.24-1.65-1.51,0,2.11,3.71,2.11,3.71Z" style="fill:#fff;stroke:#263238;stroke-linecap:round;stroke-linejoin:round;stroke-width:1.1091948959003437px"></path><path d="M411.79,171s-4.67-.36-5.75,2.75-.36,8.14,0,9.09,3.35,5.63,4.19,6,2.87.24,3.23-.24,3.35-4.91,3.59-6.46a55.52,55.52,0,0,0-.13-6.86,4.27,4.27,0,0,0-2.63-3.72A7.65,7.65,0,0,0,411.79,171Z" style="fill:#fff;stroke:#263238;stroke-linecap:round;stroke-linejoin:round;stroke-width:1.1091948959003437px"></path><path d="M408.24,172.15s7.55,6.93,9.06,6.93,1.71-5.1.08-7.54S408,167.68,408.24,172.15Z" style="fill:#263238;stroke:#263238;stroke-linecap:round;stroke-linejoin:round;stroke-width:1.1091948959003437px"></path><path d="M448.46,221.68h-110a8.39,8.39,0,0,0-8.39,8.38v45.07l9.92-10.51H448.46a8.38,8.38,0,0,0,8.39-8.38V230.06A8.38,8.38,0,0,0,448.46,221.68Z" style="fill:#a3a3a3"></path><circle cx="352.48" cy="240.13" r="11.79" transform="translate(-4.88 472.92) rotate(-67.35)" style="fill:#fff"></circle><path d="M358.43,240.39s1.24-1.65,1.52,0-2.12,3.71-2.12,3.71Z" style="fill:#fff;stroke:#263238;stroke-linecap:round;stroke-linejoin:round;stroke-width:1.1091948959003437px"></path><path d="M346.57,240.39s-1.23-1.65-1.51,0,2.11,3.71,2.11,3.71Z" style="fill:#fff;stroke:#263238;stroke-linecap:round;stroke-linejoin:round;stroke-width:1.1091948959003437px"></path><path d="M352.92,232.25s-4.67-.36-5.75,2.75-.35,8.14,0,9.1,3.36,5.63,4.19,6,2.88.24,3.23-.24,3.36-4.9,3.59-6.46a55.55,55.55,0,0,0-.13-6.86,4.25,4.25,0,0,0-2.63-3.71A7.9,7.9,0,0,0,352.92,232.25Z" style="fill:#fff;stroke:#263238;stroke-linecap:round;stroke-linejoin:round;stroke-width:1.1091948959003437px"></path><path d="M358.05,236.52a4.25,4.25,0,0,0-2.63-3.71,7.9,7.9,0,0,0-2.5-.56s-4.67-.36-5.75,2.75a15.23,15.23,0,0,0-.53,5.47c.24.27,1,1.11.9.06-.14-1.24-.28-5,.69-5.78s1.1-1.51,2.47-.41,1.24,2.06,2.62,1.37,1.65-2.2,2.88-1.65.83,3.16.83,4.4,0,3.58.83,2.48a3.29,3.29,0,0,0,.36-.75C358.18,238.94,358.11,237.57,358.05,236.52Z" style="fill:#263238;stroke:#263238;stroke-linecap:round;stroke-linejoin:round;stroke-width:1.1091948959003437px"></path><path d="M350.93,249.33s1.48-3,2.42-1.88a6.18,6.18,0,0,1,1.24,2.39A2.78,2.78,0,0,1,350.93,249.33Z" style="fill:#263238;stroke:#263238;stroke-linecap:round;stroke-linejoin:round;stroke-width:1.1091948959003437px"></path><path d="M351.6,232a3.28,3.28,0,0,0-1.07-1.34l-.67-.4s1.61-.67,2.14-.14a10.89,10.89,0,0,1,.94,1.08s.27-1.88.94-1.21a12.1,12.1,0,0,0,1.21,1.07s-1.88.54-1.88,1.88" style="fill:#263238;stroke:#263238;stroke-linecap:round;stroke-linejoin:round;stroke-width:1.1091948959003437px"></path><line x1="371.23" y1="231.69" x2="395.67" y2="231.69" style="fill:none;stroke:#fff;stroke-linecap:round;stroke-linejoin:round;stroke-width:2.2183897918006874px"></line><line x1="371.23" y1="240.21" x2="446.04" y2="240.21" style="fill:none;stroke:#fff;stroke-linecap:round;stroke-linejoin:round;stroke-width:1.1091948959003437px"></line><line x1="371.23" y1="247.25" x2="446.04" y2="247.25" style="fill:none;stroke:#fff;stroke-linecap:round;stroke-linejoin:round;stroke-width:1.1091948959003437px"></line><line x1="371.23" y1="255.02" x2="446.04" y2="255.02" style="fill:none;stroke:#fff;stroke-linecap:round;stroke-linejoin:round;stroke-width:1.1091948959003437px"></line><path d="M448.46,283.21h-110A8.39,8.39,0,0,0,330,291.6v45.07l9.92-10.51H448.46a8.39,8.39,0,0,0,8.39-8.39V291.6A8.38,8.38,0,0,0,448.46,283.21Z" style="fill:#a3a3a3"></path><circle cx="352.48" cy="301.66" r="11.79" transform="translate(-61.67 510.75) rotate(-67.35)" style="fill:#fff"></circle><path d="M358.43,301.92s1.24-1.65,1.52,0-2.12,3.71-2.12,3.71Z" style="fill:#fff;stroke:#263238;stroke-linecap:round;stroke-linejoin:round;stroke-width:1.1091948959003437px"></path><path d="M346.57,301.92s-1.23-1.65-1.51,0,2.11,3.71,2.11,3.71Z" style="fill:#fff;stroke:#263238;stroke-linecap:round;stroke-linejoin:round;stroke-width:1.1091948959003437px"></path><path d="M352.92,293.78s-4.67-.36-5.75,2.76-.35,8.13,0,9.09,3.36,5.63,4.19,6,2.88.24,3.23-.24,3.36-4.91,3.59-6.47a55.57,55.57,0,0,0-.13-6.86,4.25,4.25,0,0,0-2.63-3.71A7.9,7.9,0,0,0,352.92,293.78Z" style="fill:#fff;stroke:#263238;stroke-linecap:round;stroke-linejoin:round;stroke-width:1.1091948959003437px"></path><path d="M358.05,298.05a4.25,4.25,0,0,0-2.63-3.71,7.9,7.9,0,0,0-2.5-.56s-4.67-.36-5.75,2.76a15.17,15.17,0,0,0-.53,5.46c.24.28,1,1.11.9.06-.14-1.24-.28-4.95.69-5.78s1.1-1.51,2.47-.41,1.24,2.06,2.62,1.37,1.65-2.2,2.88-1.65.83,3.17.83,4.4,0,3.58.83,2.48a3.4,3.4,0,0,0,.36-.74C358.18,300.47,358.11,299.1,358.05,298.05Z" style="fill:#263238;stroke:#263238;stroke-linecap:round;stroke-linejoin:round;stroke-width:1.1091948959003437px"></path><path d="M350.93,310.86s1.48-2.95,2.42-1.87a6.11,6.11,0,0,1,1.24,2.39A2.79,2.79,0,0,1,350.93,310.86Z" style="fill:#263238;stroke:#263238;stroke-linecap:round;stroke-linejoin:round;stroke-width:1.1091948959003437px"></path><path d="M351.6,293.55a3.28,3.28,0,0,0-1.07-1.34l-.67-.4s1.61-.67,2.14-.14a10.89,10.89,0,0,1,.94,1.08s.27-1.88.94-1.21a12.1,12.1,0,0,0,1.21,1.07s-1.88.54-1.88,1.88" style="fill:#263238;stroke:#263238;stroke-linecap:round;stroke-linejoin:round;stroke-width:1.1091948959003437px"></path><line x1="371.23" y1="293.22" x2="395.67" y2="293.22" style="fill:none;stroke:#fff;stroke-linecap:round;stroke-linejoin:round;stroke-width:2.2183897918006874px"></line><line x1="371.23" y1="301.74" x2="446.04" y2="301.74" style="fill:none;stroke:#fff;stroke-linecap:round;stroke-linejoin:round;stroke-width:1.1091948959003437px"></line><line x1="371.23" y1="308.78" x2="446.04" y2="308.78" style="fill:none;stroke:#fff;stroke-linecap:round;stroke-linejoin:round;stroke-width:1.1091948959003437px"></line><line x1="371.23" y1="316.55" x2="446.04" y2="316.55" style="fill:none;stroke:#fff;stroke-linecap:round;stroke-linejoin:round;stroke-width:1.1091948959003437px"></line><path d="M448.46,399.16h-110a8.39,8.39,0,0,0-8.39,8.39v45.07l9.92-10.51H448.46a8.38,8.38,0,0,0,8.39-8.39V407.55A8.39,8.39,0,0,0,448.46,399.16Z" style="fill:#a3a3a3"></path><circle cx="352.48" cy="417.61" r="11.79" transform="translate(-62.53 62.08) rotate(-9.25)" style="fill:#fff"></circle><path d="M358.43,417.88s1.24-1.65,1.52,0-2.12,3.71-2.12,3.71Z" style="fill:#fff;stroke:#263238;stroke-linecap:round;stroke-linejoin:round;stroke-width:1.1091948959003437px"></path><path d="M346.57,417.88s-1.23-1.65-1.51,0,2.11,3.71,2.11,3.71Z" style="fill:#fff;stroke:#263238;stroke-linecap:round;stroke-linejoin:round;stroke-width:1.1091948959003437px"></path><path d="M352.92,409.74s-4.67-.36-5.75,2.75-.35,8.14,0,9.1,3.36,5.62,4.19,6,2.88.24,3.23-.24,3.36-4.9,3.59-6.46a55.55,55.55,0,0,0-.13-6.86,4.28,4.28,0,0,0-2.63-3.72A7.91,7.91,0,0,0,352.92,409.74Z" style="fill:#fff;stroke:#263238;stroke-linecap:round;stroke-linejoin:round;stroke-width:1.1091948959003437px"></path><path d="M358.05,414a4.28,4.28,0,0,0-2.63-3.72,7.91,7.91,0,0,0-2.5-.55s-4.67-.36-5.75,2.75a15.23,15.23,0,0,0-.53,5.47c.24.27,1,1.11.9.05-.14-1.23-.28-4.95.69-5.77s1.1-1.52,2.47-.42,1.24,2.07,2.62,1.38,1.65-2.2,2.88-1.65.83,3.16.83,4.4,0,3.58.83,2.48a3.51,3.51,0,0,0,.36-.75C358.18,416.42,358.11,415.06,358.05,414Z" style="fill:#263238;stroke:#263238;stroke-linecap:round;stroke-linejoin:round;stroke-width:1.1091948959003437px"></path><path d="M350.93,426.82s1.48-2.95,2.42-1.88a6.18,6.18,0,0,1,1.24,2.39A2.78,2.78,0,0,1,350.93,426.82Z" style="fill:#263238;stroke:#263238;stroke-linecap:round;stroke-linejoin:round;stroke-width:1.1091948959003437px"></path><path d="M351.6,409.51a3.28,3.28,0,0,0-1.07-1.34l-.67-.4s1.61-.68,2.14-.14a11.52,11.52,0,0,1,.94,1.07s.27-1.87.94-1.2a12.1,12.1,0,0,0,1.21,1.07s-1.88.54-1.88,1.88" style="fill:#263238;stroke:#263238;stroke-linecap:round;stroke-linejoin:round;stroke-width:1.1091948959003437px"></path><line x1="371.23" y1="409.18" x2="395.67" y2="409.18" style="fill:none;stroke:#fff;stroke-linecap:round;stroke-linejoin:round;stroke-width:2.2183897918006874px"></line><line x1="371.23" y1="417.7" x2="446.04" y2="417.7" style="fill:none;stroke:#fff;stroke-linecap:round;stroke-linejoin:round;stroke-width:1.1091948959003437px"></line><line x1="371.23" y1="424.73" x2="446.04" y2="424.73" style="fill:none;stroke:#fff;stroke-linecap:round;stroke-linejoin:round;stroke-width:1.1091948959003437px"></line><line x1="371.23" y1="432.51" x2="446.04" y2="432.51" style="fill:none;stroke:#fff;stroke-linecap:round;stroke-linejoin:round;stroke-width:1.1091948959003437px"></line><path d="M506.84,344.6H396.78A8.39,8.39,0,0,0,388.4,353v26.17a8.38,8.38,0,0,0,8.38,8.39H505.31l9.92,10.51V353A8.39,8.39,0,0,0,506.84,344.6Z" style="fill:#48A2C3"></path><line x1="429.61" y1="354.62" x2="454.05" y2="354.62" style="fill:none;stroke:#263238;stroke-linecap:round;stroke-linejoin:round;stroke-width:2.2183897918006874px"></line><line x1="429.61" y1="363.14" x2="504.42" y2="363.14" style="fill:none;stroke:#263238;stroke-linecap:round;stroke-linejoin:round;stroke-width:1.1091948959003437px"></line><line x1="429.61" y1="370.17" x2="504.42" y2="370.17" style="fill:none;stroke:#263238;stroke-linecap:round;stroke-linejoin:round;stroke-width:1.1091948959003437px"></line><line x1="429.61" y1="377.95" x2="504.42" y2="377.95" style="fill:none;stroke:#263238;stroke-linecap:round;stroke-linejoin:round;stroke-width:1.1091948959003437px"></line><circle cx="411.35" cy="365.52" r="11.79" style="fill:#fff"></circle><path d="M409.87,356.56a5.5,5.5,0,0,0-5.57,3.82A36.67,36.67,0,0,0,402,371.9c0,2.44,4.83,4.37,7.47,4.57s8.58.1,10.62-3.15-1.27-9.85-2.09-13.92S412.71,356.36,409.87,356.56Z" style="fill:#263238;stroke:#263238;stroke-linecap:round;stroke-linejoin:round;stroke-width:1.1091948959003437px"></path><path d="M417.3,364.71s1.24-1.65,1.51,0-2.11,3.71-2.11,3.71Z" style="fill:#fff;stroke:#263238;stroke-linecap:round;stroke-linejoin:round;stroke-width:1.1091948959003437px"></path><path d="M405.44,364.71s-1.24-1.65-1.51,0,2.11,3.71,2.11,3.71Z" style="fill:#fff;stroke:#263238;stroke-linecap:round;stroke-linejoin:round;stroke-width:1.1091948959003437px"></path><path d="M411.79,356.57s-4.67-.36-5.75,2.76-.36,8.13,0,9.09,3.35,5.63,4.19,6,2.87.24,3.23-.24,3.35-4.91,3.59-6.47a55.57,55.57,0,0,0-.13-6.86,4.25,4.25,0,0,0-2.63-3.71A7.9,7.9,0,0,0,411.79,356.57Z" style="fill:#fff;stroke:#263238;stroke-linecap:round;stroke-linejoin:round;stroke-width:1.1091948959003437px"></path><path d="M408.24,357.78s7.55,6.93,9.06,6.93,1.71-5.1.08-7.54S408,353.31,408.24,357.78Z" style="fill:#263238;stroke:#263238;stroke-linecap:round;stroke-linejoin:round;stroke-width:1.1091948959003437px"></path></g></svg>