<svg xmlns="http://www.w3.org/2000/svg" viewBox="0 0 500 500"><g id="freepik--background-simple--inject-65"><path d="M374.47,110.45,372.4,107c-17.44-28.74-49-46.06-82.2-44a87,87,0,0,0-12.73,1.75C247.25,71.3,221,94.15,210.06,123.42c-6.41,17.22-8.2,37-20.37,50.7-15.83,17.78-42.71,18.34-66.34,17.6s-50.53-.11-66.28,17.75c-9.87,11.18-13,27.08-12.21,42.05,2.11,39.64,29.73,75.09,64.86,92.7s76.49,19.2,114.94,11.45c53.86-10.86,105.08-40.67,135.86-86.73S399.1,160.15,374.47,110.45Z" style="fill:#f5f5f5"></path><circle cx="415.56" cy="300.56" r="40.73" transform="translate(-84.61 187.15) rotate(-23.1)" style="fill:#f5f5f5"></circle></g><g id="freepik--Arrow--inject-65"><path d="M479.8,465.21C333.36,385.67,174.89,94.89,174.89,94.89l-35.43,4.7C197.06,220,260.15,323.71,341.35,410.27c32.75,34.91,55.7,55.39,55.7,55.39l70.63-.55Z" style="fill:#48A2C3"></path><g style="opacity:0.30000000000000004"><path d="M480.65,465.21C334.32,385.44,175.86,95.56,175.86,95.56l-35.42,4.7C198,220.7,260.15,323.71,342.32,410.93c32.82,34.85,54.73,54.73,54.73,54.73l70.63-.55Z"></path></g><polygon points="232.33 90.22 114.74 106.24 132.54 33.79 154.66 31.76 232.33 90.22" style="fill:#48A2C3"></polygon><polygon points="232.33 90.22 114.74 106.24 132.54 33.79 154.66 31.76 232.33 90.22" style="opacity:0.30000000000000004"></polygon><polygon points="234.21 89.89 137.25 103.12 154.66 31.76 234.21 89.89" style="fill:#48A2C3"></polygon><path d="M200.77,94l-37,5.26c56.65,122.92,98.51,182.28,175.16,272.9,35.41,41.85,83.52,93.09,83.52,93.09l62.12.45C307.75,321.08,200.77,94,200.77,94Z" style="fill:#48A2C3"></path></g><g id="freepik--Character--inject-65"><path d="M71.89,176A78.56,78.56,0,0,1,63.67,165a27.6,27.6,0,0,1-4.12-12.91c0-.69.23-5.49.89-5.69.48-.14.84,4.09,1.24,4.39a23.59,23.59,0,0,1,7.64,11.67A62.23,62.23,0,0,1,71.89,176" style="fill:#263238"></path><path d="M72.92,133.74l1-.35a20.46,20.46,0,0,1,25.46,11c4,9.08,8.33,19.16,10,24.19,3.49,10.41-5.8,15.33-5.8,15.33s3.69,5.51,3.69,5.51l-3.06,12.7-22.17-6L64.86,160C60.18,149.56,62.35,138.13,72.92,133.74Z" style="fill:#ffbf9d"></path><path d="M103.59,184a27.11,27.11,0,0,1-15.41,1s5.53,7.13,17,1.36Z" style="fill:#ff9a6c"></path><path d="M99.75,153.75a1.57,1.57,0,0,1-.9,2,1.51,1.51,0,0,1-2-.8,1.57,1.57,0,0,1,.91-2A1.5,1.5,0,0,1,99.75,153.75Z" style="fill:#263238"></path><path d="M98.51,149.78c-.11.26-1.53-.18-3.12.38s-2.48,1.76-2.72,1.63,0-.47.33-1a4.28,4.28,0,0,1,2.1-1.54,4.09,4.09,0,0,1,2.56-.06C98.29,149.37,98.57,149.66,98.51,149.78Z" style="fill:#263238"></path><path d="M85.88,159.58a1.57,1.57,0,0,1-.91,2,1.5,1.5,0,0,1-2-.8,1.58,1.58,0,0,1,.91-2A1.5,1.5,0,0,1,85.88,159.58Z" style="fill:#263238"></path><path d="M83.28,155.6c-.12.26-1.53-.18-3.12.38s-2.48,1.76-2.73,1.63-.05-.47.34-1a4.3,4.3,0,0,1,2.09-1.54,4.12,4.12,0,0,1,2.57-.06C83.05,155.19,83.34,155.48,83.28,155.6Z" style="fill:#263238"></path><path d="M93.27,165.85a11.25,11.25,0,0,1,2.42-1.37c.4-.18.75-.4.72-.7s-.33-.71-.69-1.11L93.44,160c-3.21-3.83-5.69-7-5.53-7.16s2.88,2.87,6.09,6.7l2.24,2.71a2.53,2.53,0,0,1,.77,1.53,1.09,1.09,0,0,1-.46.83,2.71,2.71,0,0,1-.66.33A10.85,10.85,0,0,1,93.27,165.85Z" style="fill:#263238"></path><path d="M81.83,151.52c0,.48-1.47.78-3.06,1.59s-2.75,1.8-3.11,1.49c-.16-.15-.07-.64.32-1.25a5.34,5.34,0,0,1,2.07-1.79,5.21,5.21,0,0,1,2.63-.56C81.39,151.06,81.82,151.3,81.83,151.52Z" style="fill:#263238"></path><path d="M95.41,144.56c-.09.5-1.38.78-2.71,1.53s-2.3,1.62-2.75,1.43c-.21-.11-.23-.54.08-1.14a4.48,4.48,0,0,1,1.86-1.8,4.57,4.57,0,0,1,2.53-.58C95.09,144.08,95.44,144.33,95.41,144.56Z" style="fill:#263238"></path><path d="M68.39,167.39c-.21,0-7.86.38-5.16,7.39s9.94,2.83,9.87,2.63S68.39,167.39,68.39,167.39Z" style="fill:#ffbf9d"></path><path d="M69.18,175.6s-.09.13-.26.3a1.31,1.31,0,0,1-.91.37c-.84,0-1.92-.92-2.44-2.17a4.4,4.4,0,0,1-.33-1.88,1.52,1.52,0,0,1,.56-1.29.66.66,0,0,1,.85.06c.17.16.18.31.22.31s.1-.17-.07-.44a.78.78,0,0,0-.44-.33.93.93,0,0,0-.74.08,1.81,1.81,0,0,0-.86,1.58,4.31,4.31,0,0,0,.33,2.11c.59,1.4,1.82,2.44,2.94,2.34a1.39,1.39,0,0,0,1-.61C69.23,175.77,69.21,175.6,69.18,175.6Z" style="fill:#ff9a6c"></path><path d="M90.28,134.64c.89-1.07-4-3.39-7.23-3.55-5-.25-11.83,1.12-15.27,3.75-4.14,3.16-7.1,7-7.76,12.18a29.58,29.58,0,0,0,2.46,15.25,9.06,9.06,0,0,0,2.67,3.88c1.59,1.16,3.85,1.39,4.61,3.56a3.15,3.15,0,0,0,1.57,1.84c1.81.86,2.87-1,3.08-2.61.46-3.34-.66-6.67-1.77-9.86a21.86,21.86,0,0,0-3.06-6.47c-.81-1-1.79-1.92-2.53-3a4.51,4.51,0,0,1-.89-3.68,5.07,5.07,0,0,1,.34-.8,7.83,7.83,0,0,1,6.69-4.23c4.48-.17,12-.74,13.25-2.77,1.77-2.92,1.87-4.41,1.87-4.41Z" style="fill:#263238"></path><path d="M88.73,168.77c.23-.11.88,1.49,2.7,2.08s3.46-.27,3.57,0-.26.46-1,.77a4.29,4.29,0,0,1-2.94.13,3.72,3.72,0,0,1-2.17-1.78C88.59,169.28,88.61,168.81,88.73,168.77Z" style="fill:#263238"></path><path d="M171.31,137.74c.39-.22,1-8.75-1.18-13.19S159.53,112,159.53,112s-3-5.09-5.34-7.33a2.26,2.26,0,0,0-2.87-.24h0s-.72-1.89-2.22-1.12c-.61.32.25,7.84,1.68,10.22s5.72,9.13,5.72,9.13l3.29,8.55-1,1.86Z" style="fill:#ffbf9d"></path><path d="M159.65,118.76a8,8,0,0,1-1.88-1.55,23.53,23.53,0,0,1-6-10.06,8.23,8.23,0,0,1-.46-2.4,42.91,42.91,0,0,0,3.27,7.54A44.06,44.06,0,0,0,159.65,118.76Z" style="fill:#ff9a6c"></path><path d="M180.94,433.86l-8.44,17-.09,1.71s22.46,8.81,22.63,13l-43.72-.82.15-11,7.63-20.36Z" style="fill:#263238"></path><path d="M158.92,450.42a1.78,1.78,0,0,0-1.27,2,1.71,1.71,0,0,0,2,1.28,1.88,1.88,0,0,0,1.34-2.14,1.78,1.78,0,0,0-2.21-1.1" style="fill:#e0e0e0"></path><path d="M151.32,464.74l.19-3.54,41.85,2.11s1.93.88,1.68,2.25Z" style="fill:#455a64"></path><path d="M173.12,452.36c0,.21-1.08.29-2.15.95s-1.64,1.56-1.83,1.47.15-1.32,1.45-2.1S173.17,452.16,173.12,452.36Z" style="fill:#fff"></path><path d="M177.67,454.34c0,.21-.89.55-1.63,1.44s-1,1.84-1.18,1.83-.33-1.22.62-2.31S177.67,454.14,177.67,454.34Z" style="fill:#fff"></path><path d="M180.17,459.88c-.2,0-.47-1,.1-2.19s1.58-1.61,1.66-1.43-.54.8-1,1.76S180.38,459.86,180.17,459.88Z" style="fill:#fff"></path><path d="M95.62,438.32l-8.44,17-.1,1.71s22.47,8.81,22.64,13L66,469.2l.15-11,7.63-20.36Z" style="fill:#263238"></path><path d="M73.6,454.88a1.78,1.78,0,0,0-1.27,2,1.71,1.71,0,0,0,2,1.28A1.89,1.89,0,0,0,75.65,456a1.78,1.78,0,0,0-2.21-1.1" style="fill:#e0e0e0"></path><path d="M66,469.2l.19-3.54L108,467.77s1.93.88,1.68,2.25Z" style="fill:#455a64"></path><path d="M87.8,456.82c0,.21-1.08.29-2.15.95s-1.64,1.56-1.83,1.47.14-1.32,1.45-2.1S87.85,456.62,87.8,456.82Z" style="fill:#fff"></path><path d="M92.35,458.8c0,.21-.89.55-1.63,1.44s-1,1.84-1.18,1.83-.33-1.22.62-2.31S92.35,458.6,92.35,458.8Z" style="fill:#fff"></path><path d="M94.85,464.34c-.2,0-.47-1,.1-2.19s1.57-1.61,1.66-1.43-.54.8-1,1.76S95.06,464.32,94.85,464.34Z" style="fill:#fff"></path><path d="M104.6,292.56c0,1.82,3.93,41.89,3.93,41.89L97.16,374.31S86,400.56,81.24,409.36s-15.52,42-15.52,42l25.52,5.06s30.74-58.91,36.39-68,27.38-40.95,31.75-65.23c1.56-8.68,2.19-30.61,2.19-30.61Z" style="fill:#263238"></path><path d="M146.83,343.33l28,31.15-23.47,67.94L179.67,448c0-.91,25.77-67.21,29.05-78.61,1.85-6.42-14.34-29.87-21.94-38.55-5.94-6.78-18.21-20.26-19.15-21.17s-6.34-9.07-6.34-9.07l-14.46,42.77" style="fill:#263238"></path><path d="M161.85,304.09a13,13,0,0,1,0,1.79c0,1.15-.14,2.81-.33,4.86a107.76,107.76,0,0,1-2.74,15.84,114.92,114.92,0,0,1-5.06,15.26c-.79,1.9-1.47,3.42-2,4.45a12.91,12.91,0,0,1-.82,1.59,10,10,0,0,1,.63-1.67c.45-1.06,1.07-2.6,1.81-4.51a130.32,130.32,0,0,0,4.9-15.25,123.66,123.66,0,0,0,2.88-15.75c.24-2,.4-3.69.5-4.83A11.21,11.21,0,0,1,161.85,304.09Z" style="fill:#455a64"></path><polygon points="107.53 325.18 154.96 325.18 154.96 322.46 107.34 320.64 107.53 325.18" style="opacity:0.30000000000000004"></polygon><path d="M186,372.12c0,.15-2.61.34-5.71,1.19s-5.45,2-5.53,1.87A19.91,19.91,0,0,1,186,372.12Z" style="fill:#455a64"></path><path d="M154.46,351.83s5.17-18.59,4.48-26.66c0,0-3.57,16.47-8,22.71h0Z" style="opacity:0.30000000000000004"></path><path d="M91.5,456.45s-.35,0-1-.15l-2.78-.48-9.13-1.7c-3.57-.68-6.79-1.32-9.12-1.81-1.17-.24-2.11-.45-2.76-.6a4.73,4.73,0,0,1-1-.29,3.8,3.8,0,0,1,1,.09c.66.09,1.61.24,2.79.44,2.34.39,5.58,1,9.14,1.66s6.79,1.33,9.11,1.85A16.71,16.71,0,0,1,91.5,456.45Z" style="fill:#455a64"></path><path d="M177.1,447.46s-.35,0-1-.15l-2.78-.49-9.13-1.7c-3.57-.68-6.79-1.32-9.12-1.81-1.16-.24-2.11-.44-2.75-.6a3.59,3.59,0,0,1-1-.29,4.39,4.39,0,0,1,1,.09c.66.09,1.61.25,2.79.44,2.34.4,5.58,1,9.15,1.66s6.78,1.34,9.11,1.85S177.17,447.34,177.1,447.46Z" style="fill:#455a64"></path><path d="M135.81,211.51s17.47,28.9,24.19,53.09,2.69,28,2.69,28l-29-2.15-7-32Z" style="fill:#e0e0e0"></path><polygon points="79.69 192.94 79.19 190.13 106.8 187.22 109.48 189.34 79.69 192.94" style="fill:#e0e0e0"></polygon><path d="M131.32,198.6c1.89,1.23,17.21,33.24,21.16,53.37,2.55,13,4.45,34.11,5.19,40.35.87,7.28.07,30.27-.74,30.14l-62-2.27,8-55.06s-19-26.6-23.3-40.27a47.26,47.26,0,0,1,0-26.43L79.3,193,107.62,189Z" style="fill:#263238"></path><path d="M106.8,249.58c-.14-.05,2.23-7.19,5.28-16s5.64-15.84,5.77-15.79-2.23,7.19-5.28,16S106.93,249.63,106.8,249.58Z" style="fill:#455a64"></path><path d="M80.85,215.08c2.58,4.69,8.74,11.37,18.91,11s49.2-37.27,54.73-42.77,19-45.42,19-45.42l-16.48-6.16L132,171.11,104.21,191c-1.48-.13-15.14,1.54-19.57,8" style="fill:#263238"></path><path d="M84.64,199s.07-.11.22-.3l.66-.86c.35-.33.76-.77,1.31-1.23a17,17,0,0,1,2-1.4,28.8,28.8,0,0,1,6.28-2.7c1.28-.39,2.69-.76,4.2-1.06a28,28,0,0,1,4.89-.62l-.09,0,27.73-19.95-.05.06,25-39.35.11-.18.19.07,16.48,6.16.24.09-.08.24c-1.14,3.35-2.4,6.91-3.69,10.5-3.09,8.53-6.21,16.82-9.67,24.65-.87,2-1.77,3.88-2.75,5.74-.5.93-1,1.85-1.57,2.73-.27.45-.6.87-.91,1.29a12,12,0,0,1-1.09,1.15c-2.95,2.87-5.89,5.61-8.77,8.28-11.58,10.62-22.3,19.89-32,26.84a79.76,79.76,0,0,1-7.12,4.61,27.85,27.85,0,0,1-3.53,1.71,12.88,12.88,0,0,1-1.79.58,8.1,8.1,0,0,1-1.82.16,19.67,19.67,0,0,1-11.45-3.53,21.78,21.78,0,0,1-5.42-5.38,15.65,15.65,0,0,1-1.39-2.27s.13.19.36.57.6.94,1.12,1.64a22.63,22.63,0,0,0,5.44,5.28A19.57,19.57,0,0,0,99.11,226a8.11,8.11,0,0,0,3.5-.74,27.83,27.83,0,0,0,3.47-1.71,77.24,77.24,0,0,0,7.07-4.62c9.61-7,20.3-16.26,31.85-26.89,2.88-2.67,5.82-5.42,8.76-8.29a11.15,11.15,0,0,0,1.92-2.35c.56-.86,1-1.77,1.54-2.69,1-1.85,1.87-3.77,2.73-5.72,3.45-7.81,6.56-16.1,9.65-24.62,1.29-3.58,2.54-7.14,3.69-10.49l.15.33L157,132l.3-.1-25.09,39.31,0,0,0,0-27.82,19.83,0,0h-.06a29.15,29.15,0,0,0-4.82.59c-1.51.29-2.91.65-4.19,1a29.06,29.06,0,0,0-6.26,2.61,18.26,18.26,0,0,0-2,1.36c-.55.45-1,.87-1.32,1.19l-.69.83C84.73,198.94,84.64,199,84.64,199Z" style="fill:#455a64"></path><path d="M103.54,211.51a2.34,2.34,0,0,1-.26-.78c-.13-.51-.28-1.26-.43-2.18a34.86,34.86,0,0,1-.31-7.34,33.86,33.86,0,0,1,1.24-7.23,20.58,20.58,0,0,1,.7-2.11,2.66,2.66,0,0,1,.35-.74,29.41,29.41,0,0,1-.7,2.94,42,42,0,0,0-.91,14.43C103.41,210.35,103.62,211.49,103.54,211.51Z" style="fill:#455a64"></path><path d="M101.71,246.9c-.09,0-.34-1.62-1.06-4.17a40.67,40.67,0,0,0-10.38-17.64c-1.87-1.87-3.18-2.88-3.12-3a4.76,4.76,0,0,1,1,.65,25.5,25.5,0,0,1,2.42,2A37.44,37.44,0,0,1,97,233a36.94,36.94,0,0,1,4,9.64,26.12,26.12,0,0,1,.62,3.11A4.8,4.8,0,0,1,101.71,246.9Z" style="fill:#455a64"></path><path d="M109.29,256.16a29,29,0,0,1-2.72,6.06,28.54,28.54,0,0,1-3.62,5.57c-.12-.08,1.42-2.61,3.16-5.82S109.16,256.1,109.29,256.16Z" style="fill:#455a64"></path><path d="M157.67,292.32a2.18,2.18,0,0,1,.06.57c0,.42,0,1,.07,1.66,0,1.45.09,3.57.07,6.24,0,5.34-.22,12.88-.7,21.69v.23h-.23c-5,0-10.36-.12-16-.29-12.75-.39-24.28-1-32.62-1.43l-9.88-.59-2.68-.19-.7-.07-.24,0a.93.93,0,0,1,.24,0h.7l2.69.1,9.89.43c8.34.36,19.88.88,32.62,1.27,5.65.17,11.06.3,16,.32l-.25.23c.52-8.8.78-16.33.89-21.67.06-2.66.06-4.78.07-6.23,0-.69,0-1.24,0-1.66A3.61,3.61,0,0,1,157.67,292.32Z" style="fill:#455a64"></path><polygon points="113.64 285.78 113.64 289.66 141.56 289.66 142.94 278.88 140.65 285.78 113.64 285.78" style="opacity:0.30000000000000004"></polygon><path d="M110.29,285.78l.63,0,1.74,0,6.41-.07c5.43-.05,13-.12,21.58-.13l-.24.19c.67-2.55,1.38-5.22,2.1-8l.17-.65.26.32-28.26-.09.15-.09-3.29,6.22-.91,1.7a6.71,6.71,0,0,1-.34.6,3.79,3.79,0,0,1,.25-.56c.21-.42.48-1,.82-1.69l3.16-6.42,0-.1h.11l28.26-.09h.33l-.08.33-.18.65c-.72,2.74-1.43,5.4-2.11,8l-.05.19h-.2c-8.75,0-16.4-.08-21.8-.14l-6.33-.06-1.68,0A3.28,3.28,0,0,1,110.29,285.78Z" style="fill:#455a64"></path></g></svg>
