<svg xmlns="http://www.w3.org/2000/svg" viewBox="0 0 500 500"><g id="freepik--background-simple--inject-16"><path d="M189.12,98.34a119.45,119.45,0,0,1,17.43-13.48,133.33,133.33,0,0,1,195.12,62.05A135.32,135.32,0,0,1,396,259.79c-41.29,77.84-141.23,104.67-223.1,105.37-21.16.18-47.85,1.44-65.72-11.69-12-8.82-18.56-24-18.55-38.91A63,63,0,0,1,104,274c10.76-12.36,27.69-17.48,37.44-30.79,22.49-30.71,10.51-74.77,24-110.37C170.38,119.62,178.8,108,189.12,98.34Z" style="fill:#48A2C3"></path><path d="M189.12,98.34a119.45,119.45,0,0,1,17.43-13.48,133.33,133.33,0,0,1,195.12,62.05A135.32,135.32,0,0,1,396,259.79c-41.29,77.84-141.23,104.67-223.1,105.37-21.16.18-47.85,1.44-65.72-11.69-12-8.82-18.56-24-18.55-38.91A63,63,0,0,1,104,274c10.76-12.36,27.69-17.48,37.44-30.79,22.49-30.71,10.51-74.77,24-110.37C170.38,119.62,178.8,108,189.12,98.34Z" style="fill:#fff;opacity:0.9;isolation:isolate"></path></g><g id="freepik--Clipboard--inject-16"><path d="M274.45,119.78a9.2,9.2,0,1,0,9.2,9.2A9.2,9.2,0,0,0,274.45,119.78Zm0,8.31a2.67,2.67,0,1,1,2.67-2.67A2.67,2.67,0,0,1,274.45,128.09Z" style="fill:#48A2C3"></path><path d="M274.45,119.78a9.2,9.2,0,1,0,9.2,9.2A9.2,9.2,0,0,0,274.45,119.78Zm0,8.31a2.67,2.67,0,1,1,2.67-2.67A2.67,2.67,0,0,1,274.45,128.09Z" style="fill:#fff;opacity:0.6000000000000001;isolation:isolate"></path><rect x="175.92" y="131.86" width="197.05" height="286.3" rx="7.49" style="fill:#48A2C3"></rect><rect x="186.35" y="148.5" width="176.19" height="256.04" style="fill:#fff;opacity:0.8;isolation:isolate"></rect><rect x="225.66" y="129.42" width="97.58" height="15.88" rx="1.93" style="fill:#48A2C3"></rect><rect x="225.66" y="129.42" width="97.58" height="15.88" rx="1.93" style="fill:#fff;opacity:0.4;isolation:isolate"></rect><path d="M310.52,160.05H282.28a3.15,3.15,0,0,1-2.82-1.64,5.67,5.67,0,0,0-10,0,3.16,3.16,0,0,1-2.82,1.64H238.37a3,3,0,0,1-3-3V140.2a3,3,0,0,1,3-3h72.15a3,3,0,0,1,3,3V157A3,3,0,0,1,310.52,160.05Zm-36.07-6.65a7.64,7.64,0,0,1,6.77,4.07,1.19,1.19,0,0,0,1.06.58h28.24a1,1,0,0,0,1-1V140.2a1,1,0,0,0-1-1H238.37a1,1,0,0,0-1,1V157a1,1,0,0,0,1,1h28.26a1.18,1.18,0,0,0,1.05-.58A7.65,7.65,0,0,1,274.45,153.4Z" style="fill:#263238"></path><g style="opacity:0.2;isolation:isolate"><path d="M310.52,160.05H282.28a3.15,3.15,0,0,1-2.82-1.64,5.67,5.67,0,0,0-10,0,3.16,3.16,0,0,1-2.82,1.64H238.37a3,3,0,0,1-3-3V140.2a3,3,0,0,1,3-3h72.15a3,3,0,0,1,3,3V157A3,3,0,0,1,310.52,160.05Zm-36.07-6.65a7.64,7.64,0,0,1,6.77,4.07,1.19,1.19,0,0,0,1.06.58h28.24a1,1,0,0,0,1-1V140.2a1,1,0,0,0-1-1H238.37a1,1,0,0,0-1,1V157a1,1,0,0,0,1,1h28.26a1.18,1.18,0,0,0,1.05-.58A7.65,7.65,0,0,1,274.45,153.4Z" style="fill:#fff"></path></g><rect x="241.53" y="134.27" width="65.87" height="6.82" rx="1.16" style="fill:#48A2C3"></rect><rect x="241.5" y="134.27" width="65.87" height="6.82" rx="1.16" style="fill:#fff;opacity:0.6000000000000001;isolation:isolate"></rect><rect x="273.01" y="288.34" width="17.8" height="17.8" style="opacity:0.30000000000000004;isolation:isolate"></rect><path d="M288.73,313.3H275.09a2.08,2.08,0,0,1-2.08-2.08h0a2.08,2.08,0,0,1,2.08-2.07h13.64a2.08,2.08,0,0,1,2.08,2.07h0A2.08,2.08,0,0,1,288.73,313.3Z" style="opacity:0.30000000000000004;isolation:isolate"></path><rect x="298.33" y="288.34" width="49.58" height="3.81" rx="1.9" style="opacity:0.30000000000000004;isolation:isolate"></rect><rect x="298.33" y="298.34" width="39.58" height="3.81" rx="1.9" style="opacity:0.30000000000000004;isolation:isolate"></rect><rect x="298.33" y="308.34" width="49.58" height="3.81" rx="1.9" style="opacity:0.30000000000000004;isolation:isolate"></rect><rect x="298.33" y="318.34" width="23.58" height="3.81" rx="1.9" style="opacity:0.30000000000000004;isolation:isolate"></rect><path d="M327.06,174.87H221.34a3.46,3.46,0,0,1-3.45-3.45h0a3.45,3.45,0,0,1,3.45-3.45H327.06a3.45,3.45,0,0,1,3.45,3.45h0A3.46,3.46,0,0,1,327.06,174.87Z" style="opacity:0.30000000000000004;isolation:isolate"></path><path d="M344.69,195.29H274.91a1.91,1.91,0,0,1-1.9-1.91h0a1.9,1.9,0,0,1,1.9-1.9h69.78a1.9,1.9,0,0,1,1.9,1.9h0A1.91,1.91,0,0,1,344.69,195.29Z" style="opacity:0.30000000000000004;isolation:isolate"></path><path d="M334.69,205.29H274.91a1.91,1.91,0,0,1-1.9-1.91h0a1.9,1.9,0,0,1,1.9-1.9h59.78a1.9,1.9,0,0,1,1.9,1.9h0A1.91,1.91,0,0,1,334.69,205.29Z" style="opacity:0.30000000000000004;isolation:isolate"></path><path d="M344.69,215.29H274.91a1.91,1.91,0,0,1-1.9-1.91h0a1.9,1.9,0,0,1,1.9-1.9h69.78a1.9,1.9,0,0,1,1.9,1.9h0A1.91,1.91,0,0,1,344.69,215.29Z" style="opacity:0.30000000000000004;isolation:isolate"></path><path d="M324.69,225.29H274.91a1.91,1.91,0,0,1-1.9-1.91h0a1.9,1.9,0,0,1,1.9-1.9h49.78a1.9,1.9,0,0,1,1.9,1.9h0A1.91,1.91,0,0,1,324.69,225.29Z" style="opacity:0.30000000000000004;isolation:isolate"></path><polygon points="278 237.21 279.1 239.43 281.56 239.79 279.78 241.52 280.2 243.97 278 242.81 275.81 243.97 276.23 241.52 274.45 239.79 276.9 239.43 278 237.21" style="opacity:0.30000000000000004;isolation:isolate"></polygon><polygon points="290.42 237.21 291.52 239.43 293.97 239.79 292.19 241.52 292.61 243.97 290.42 242.81 288.22 243.97 288.64 241.52 286.86 239.79 289.32 239.43 290.42 237.21" style="opacity:0.30000000000000004;isolation:isolate"></polygon><polygon points="302.83 237.21 303.93 239.43 306.39 239.79 304.61 241.52 305.03 243.97 302.83 242.81 300.63 243.97 301.05 241.52 299.28 239.79 301.73 239.43 302.83 237.21" style="opacity:0.30000000000000004;isolation:isolate"></polygon><polygon points="315.25 237.21 316.34 239.43 318.8 239.79 317.02 241.52 317.44 243.97 315.25 242.81 313.05 243.97 313.47 241.52 311.69 239.79 314.15 239.43 315.25 237.21" style="opacity:0.30000000000000004;isolation:isolate"></polygon><polygon points="327.66 237.21 328.76 239.43 331.21 239.79 329.44 241.52 329.86 243.97 327.66 242.81 325.46 243.97 325.88 241.52 324.11 239.79 326.56 239.43 327.66 237.21" style="opacity:0.30000000000000004;isolation:isolate"></polygon><polygon points="278 249.95 279.1 252.17 281.56 252.53 279.78 254.26 280.2 256.71 278 255.55 275.81 256.71 276.23 254.26 274.45 252.53 276.9 252.17 278 249.95" style="opacity:0.30000000000000004;isolation:isolate"></polygon><polygon points="290.42 249.95 291.52 252.17 293.97 252.53 292.19 254.26 292.61 256.71 290.42 255.55 288.22 256.71 288.64 254.26 286.86 252.53 289.32 252.17 290.42 249.95" style="opacity:0.30000000000000004;isolation:isolate"></polygon><polygon points="302.83 249.95 303.93 252.17 306.39 252.53 304.61 254.26 305.03 256.71 302.83 255.55 300.63 256.71 301.05 254.26 299.28 252.53 301.73 252.17 302.83 249.95" style="opacity:0.30000000000000004;isolation:isolate"></polygon><polygon points="315.25 249.95 316.34 252.17 318.8 252.53 317.02 254.26 317.44 256.71 315.25 255.55 313.05 256.71 313.47 254.26 311.69 252.53 314.15 252.17 315.25 249.95" style="opacity:0.1;isolation:isolate"></polygon><polygon points="327.66 249.95 328.76 252.17 331.21 252.53 329.44 254.26 329.86 256.71 327.66 255.55 325.46 256.71 325.88 254.26 324.11 252.53 326.56 252.17 327.66 249.95" style="opacity:0.1;isolation:isolate"></polygon><polygon points="278 262.69 279.1 264.91 281.56 265.27 279.78 267 280.2 269.45 278 268.29 275.81 269.45 276.23 267 274.45 265.27 276.9 264.91 278 262.69" style="opacity:0.30000000000000004;isolation:isolate"></polygon><polygon points="290.42 262.69 291.52 264.91 293.97 265.27 292.19 267 292.61 269.45 290.42 268.29 288.22 269.45 288.64 267 286.86 265.27 289.32 264.91 290.42 262.69" style="opacity:0.30000000000000004;isolation:isolate"></polygon><polygon points="302.83 262.69 303.93 264.91 306.39 265.27 304.61 267 305.03 269.45 302.83 268.29 300.63 269.45 301.05 267 299.28 265.27 301.73 264.91 302.83 262.69" style="opacity:0.30000000000000004;isolation:isolate"></polygon><polygon points="315.25 262.69 316.34 264.91 318.8 265.27 317.02 267 317.44 269.45 315.25 268.29 313.05 269.45 313.47 267 311.69 265.27 314.15 264.91 315.25 262.69" style="opacity:0.30000000000000004;isolation:isolate"></polygon><polygon points="327.66 262.69 328.76 264.91 331.21 265.27 329.44 267 329.86 269.45 327.66 268.29 325.46 269.45 325.88 267 324.11 265.27 326.56 264.91 327.66 262.69" style="opacity:0.1;isolation:isolate"></polygon><rect x="273.01" y="338.34" width="17.8" height="17.8" style="opacity:0.30000000000000004;isolation:isolate"></rect><path d="M288.73,363.3H275.09a2.08,2.08,0,0,1-2.08-2.08h0a2.08,2.08,0,0,1,2.08-2.07h13.64a2.08,2.08,0,0,1,2.08,2.07h0A2.08,2.08,0,0,1,288.73,363.3Z" style="opacity:0.30000000000000004;isolation:isolate"></path><rect x="298.33" y="338.34" width="49.58" height="3.81" rx="1.9" style="opacity:0.30000000000000004;isolation:isolate"></rect><rect x="298.33" y="348.34" width="39.58" height="3.81" rx="1.9" style="opacity:0.30000000000000004;isolation:isolate"></rect><rect x="298.33" y="358.34" width="49.58" height="3.81" rx="1.9" style="opacity:0.30000000000000004;isolation:isolate"></rect><rect x="298.33" y="368.34" width="23.58" height="3.81" rx="1.9" style="opacity:0.30000000000000004;isolation:isolate"></rect><rect x="197.47" y="191.48" width="64.18" height="85.22" style="fill:#fff"></rect><rect x="200.47" y="194.48" width="58.18" height="79.22" style="fill:#48A2C3"></rect><rect x="200.47" y="194.48" width="58.18" height="79.22" style="fill:#fff;opacity:0.4;isolation:isolate"></rect><path d="M258.65,256V273.7h-4.52a23.45,23.45,0,0,0-4.11-3.13,9.68,9.68,0,0,0-2.28-1c-6.79-1.84,3-20,3-20h0C253,250.29,255.81,252.85,258.65,256Z" style="fill:#48A2C3"></path><path d="M258.65,256V273.7h-4.52a23.45,23.45,0,0,0-4.11-3.13,9.68,9.68,0,0,0-2.28-1c-6.79-1.84,3-20,3-20h0C253,250.29,255.81,252.85,258.65,256Z" style="fill:#fff;opacity:0.6000000000000001;isolation:isolate"></path><path d="M258.65,273.64v.06h-4.52a23.45,23.45,0,0,0-4.11-3.13l1.34-8.37a19.49,19.49,0,0,1,3.45,3.72h0A25.47,25.47,0,0,1,258.65,273.64Z" style="opacity:0.2;isolation:isolate"></path><path d="M246.19,248.84c-.14.72-.28,1.45-.44,2.17s-.38,1.71-.59,2.56c-2.18,8.77-5.78,16.45-10.94,20.13H216.58c-5.13-2.61-6.11-7-5.94-11.6.11-3.11.75-6.28,1-9a16.75,16.75,0,0,0,0-2.82c-.13-1.42-.4-3.13-.73-5-1.53-8.71-4.52-21.28-3-27.73,1.81-7.84,7.53-10,7.53-10s1.94-.13,4.92-.11c2.2,0,5,.11,7.93.39l.21,0a58.08,58.08,0,0,1,9.73,1.72l.73.21c.63.19,1.26.39,1.87.61,0,0,0,0,0,0,.4.14.79.29,1.18.45h0a4,4,0,0,1,1.34.93C247.88,216.4,249,233.45,246.19,248.84Z" style="fill:#263238"></path><path d="M240.92,211.79c6.35-3,9.09,17.71,6.82,32.66" style="fill:none;stroke:#263238;stroke-linecap:round;stroke-linejoin:round;stroke-width:0.5px"></path><path d="M255.29,273.7H209.65c-.19-.86-.38-1.72-.58-2.57a103.37,103.37,0,0,0-4.47-14.62h0a42.5,42.5,0,0,1,5.84-2.89c.38-.17.77-.33,1.19-.49,1.58-.63,3.42-1.28,5.48-1.9l.66-.19c1.55-.45,3.22-.87,5-1.24h0a69.67,69.67,0,0,1,11.28-1.42s0,0,0,0a68.48,68.48,0,0,1,8.66.14h0c1.13.08,2.28.19,3.45.34,1.47.18,3,.41,4.51.7h0c.17.27,2.95,4.69,4.1,16.37h0C255.05,268.23,255.22,270.81,255.29,273.7Z" style="fill:#48A2C3"></path><path d="M217.37,260.14s-5.22-12.86,11.08-14.31S248,254.54,248,254.54l-7.57-2.62-4,18.45A30.26,30.26,0,0,0,222.15,254Z" style="fill:#48A2C3"></path><path d="M217.37,260.14s-5.22-12.86,11.08-14.31S248,254.54,248,254.54l-7.57-2.62-4,18.45A30.26,30.26,0,0,0,222.15,254Z" style="fill:#fff;opacity:0.6000000000000001;isolation:isolate"></path><path d="M235.75,262.2A67.21,67.21,0,0,0,221.58,251c3.9-3.3,3.5-8.5,2.72-11.77a18.66,18.66,0,0,0-1-3l10.83,2.62a31.81,31.81,0,0,0-.67,4.58,14.15,14.15,0,0,0,.13,3.4c.57,3.31,2.43,3.45,2.43,3.45C237.79,254,235.75,262.2,235.75,262.2Z" style="fill:#e4897b"></path><path d="M233.5,243.42a14.15,14.15,0,0,0,.13,3.4c-4.31-.8-7.42-4.45-9.33-7.57a18.66,18.66,0,0,0-1-3l10.83,2.62A31.81,31.81,0,0,0,233.5,243.42Z" style="opacity:0.2;isolation:isolate"></path><path d="M230.07,207.78c11.79,0,12.78,5.7,13.46,15.52.84,12.28-1.9,21-13.81,18.34C213.55,238.05,214.24,207.78,230.07,207.78Z" style="fill:#e4897b"></path><path d="M237.37,222.76a20.34,20.34,0,0,0,2.76,4,2.6,2.6,0,0,1-2.51,1.08Z" style="fill:#de5753"></path><path d="M231.54,222c0,.79-.39,1.43-.92,1.44s-1-.61-1-1.4.39-1.42.91-1.43S231.52,221.18,231.54,222Z" style="fill:#263238"></path><path d="M230.35,220.61l1.69-.71S231.22,221.35,230.35,220.61Z" style="fill:#263238"></path><path d="M241.27,221.59c0,.79-.39,1.43-.92,1.44s-1-.61-1-1.4.39-1.42.91-1.43S241.25,220.81,241.27,221.59Z" style="fill:#263238"></path><path d="M240.08,220.24l1.68-.7S241,221,240.08,220.24Z" style="fill:#263238"></path><path d="M231.46,215.38s-2.68-.35-4.14,1.43" style="fill:none;stroke:#263238;stroke-linecap:round;stroke-linejoin:round;stroke-width:0.707962px"></path><path d="M238.39,215a4.43,4.43,0,0,1,3.79.79" style="fill:none;stroke:#263238;stroke-linecap:round;stroke-linejoin:round;stroke-width:0.707962px"></path><path d="M219.82,224.39s4.47-7.82,3.81-13.87c0,0,6.72-6.93,15.77-.08,0,0,3.79,6.52,4,11.58,0,0,1.88-17-14.5-17.43S212.56,228.14,221,235.3C221,235.3,217.05,229.28,219.82,224.39Z" style="fill:#263238"></path><path d="M221.37,226.4a4.19,4.19,0,0,0-4.49-3.83c-3,.32-4.38,6.38,3,7.85C220.9,230.63,221.5,229.6,221.37,226.4Z" style="fill:#e4897b"></path><path d="M236.33,233s-4,.9-5.65-2.67" style="fill:none;stroke:#263238;stroke-linecap:round;stroke-linejoin:round;stroke-width:0.707962px"></path><path d="M223.63,210.52s10.89-4.83,18.1,1.55c0,0,2.83-8.4-6.83-11.27s-19.48,6.79-19.48,6.79Z" style="fill:#263238"></path><path d="M223.63,210.52s-6.36,6.27-5.44,18.76-.29,20.39-2.77,28.21,4,10.15,4,10.15-7.4,1.82-8.92-6.1c-1-5.2,1.38-16.46.18-29.87S214.27,208.77,223.63,210.52Z" style="fill:#263238"></path><path d="M211.76,273.7h-2.11c-.19-.86-.38-1.72-.58-2.57l1.59-1.39,0,0A32.74,32.74,0,0,1,211.76,273.7Z" style="opacity:0.2;isolation:isolate"></path><path d="M210.67,273.7h-10.2v-14a25.42,25.42,0,0,1,4.12-3.17h0a9.24,9.24,0,0,1,5.55,7.2,48.35,48.35,0,0,1,.51,6C210.7,271.16,210.69,272.53,210.67,273.7Z" style="fill:#48A2C3"></path><path d="M210.67,273.7h-10.2v-14a25.42,25.42,0,0,1,4.12-3.17h0a9.24,9.24,0,0,1,5.55,7.2,48.35,48.35,0,0,1,.51,6C210.7,271.16,210.69,272.53,210.67,273.7Z" style="fill:#fff;opacity:0.6000000000000001;isolation:isolate"></path><rect x="197.47" y="286.63" width="64.18" height="85.1" style="opacity:0.30000000000000004;isolation:isolate"></rect><path d="M250.86,299.82H207.09a1.91,1.91,0,0,1-1.9-1.91h0a1.9,1.9,0,0,1,1.9-1.9h43.77a1.9,1.9,0,0,1,1.91,1.9h0A1.91,1.91,0,0,1,250.86,299.82Z" style="fill:#fff;opacity:0.30000000000000004;isolation:isolate"></path><rect x="205.19" y="306.65" width="47.58" height="3.81" rx="1.9" style="fill:#fff;opacity:0.30000000000000004;isolation:isolate"></rect><path d="M230.86,321.11H207.09a1.91,1.91,0,0,1-1.9-1.91h0a1.9,1.9,0,0,1,1.9-1.9h23.77a1.9,1.9,0,0,1,1.91,1.9h0A1.91,1.91,0,0,1,230.86,321.11Z" style="fill:#fff;opacity:0.30000000000000004;isolation:isolate"></path><path d="M250.86,331.75H207.09a1.9,1.9,0,0,1-1.9-1.9h0a1.91,1.91,0,0,1,1.9-1.91h43.77a1.91,1.91,0,0,1,1.91,1.91h0A1.9,1.9,0,0,1,250.86,331.75Z" style="fill:#fff;opacity:0.30000000000000004;isolation:isolate"></path><path d="M250.86,342.39H207.09a1.9,1.9,0,0,1-1.9-1.9h0a1.9,1.9,0,0,1,1.9-1.9h43.77a1.9,1.9,0,0,1,1.91,1.9h0A1.9,1.9,0,0,1,250.86,342.39Z" style="fill:#fff;opacity:0.30000000000000004;isolation:isolate"></path><path d="M220.86,353H207.09a1.9,1.9,0,0,1-1.9-1.9h0a1.9,1.9,0,0,1,1.9-1.91h13.77a1.9,1.9,0,0,1,1.91,1.91h0A1.9,1.9,0,0,1,220.86,353Z" style="fill:#fff;opacity:0.30000000000000004;isolation:isolate"></path><path d="M240.86,363.68H207.09a1.9,1.9,0,0,1-1.9-1.9h0a1.9,1.9,0,0,1,1.9-1.9h33.77a1.9,1.9,0,0,1,1.91,1.9h0A1.9,1.9,0,0,1,240.86,363.68Z" style="fill:#fff;opacity:0.30000000000000004;isolation:isolate"></path></g></svg>
