<svg xmlns="http://www.w3.org/2000/svg" xmlns:xlink="http://www.w3.org/1999/xlink" viewBox="0 0 500 500"><defs><clipPath id="freepik--clip-path--inject-70"><path d="M177.09,138.86c-11.22,6.32-20.31,22.07-20.31,35.17s9.09,18.48,20.31,12,20.31-22.22,20.31-35.18S188.3,132.53,177.09,138.86Z" style="fill:none"></path></clipPath></defs><g id="freepik--Device--inject-70"><path d="M146.62,387.69a4.65,4.65,0,0,1-2-3.67V145.11a4.78,4.78,0,0,1,2.17-3.75l150-86.62a4.07,4.07,0,0,1,6.23,3.6L150.82,387.61A4.64,4.64,0,0,1,146.62,387.69Z" style="fill:#e0e0e0"></path><path d="M148.65,149.65l60.93-39.87-4.06-2.35-58.76,33.93a4.78,4.78,0,0,0-2.17,3.75v2.19Z" style="fill:#37474f"></path><path d="M148.65,149.65l60.93-39.87-4.06-2.35-58.76,33.93a4.78,4.78,0,0,0-2.17,3.75v2.19Z" style="fill:#37474f;opacity:0.2"></path><path d="M169,156.68,145.22,143a4.43,4.43,0,0,0-.63,2.13V384a4.07,4.07,0,0,0,6.23,3.59L169,377.14Z" style="fill:#263238"></path><path d="M169,156.68,145.22,143a4.43,4.43,0,0,0-.63,2.13V384a4.07,4.07,0,0,0,6.23,3.59L169,377.14Z" style="fill:#263238;opacity:0.4"></path><path d="M150.82,387.61l150-86.62a4.78,4.78,0,0,0,2.17-3.75V58.34c0-1.38-1-1.94-2.17-1.25l-150,86.62a4.78,4.78,0,0,0-2.17,3.75v238.9C148.65,387.74,149.62,388.3,150.82,387.61Z" style="fill:#455a64"></path><path d="M150.82,387.61l150-86.62a4.78,4.78,0,0,0,2.17-3.75V58.34c0-1.38-1-1.94-2.17-1.25l-150,86.62a4.78,4.78,0,0,0-2.17,3.75v238.9C148.65,387.74,149.62,388.3,150.82,387.61Z" style="fill:#455a64;opacity:0.1"></path><path d="M161.11,202.64l36-20.8c2.39-1.38,4.33-.4,4.33,2.19a9.29,9.29,0,0,1-4.33,7.19l-36,20.8c-2.4,1.38-4.33.4-4.33-2.19A9.26,9.26,0,0,1,161.11,202.64Z" style="fill:#48A2C3"></path><path d="M161.11,217.4l23.83-13.76c2.39-1.38,4.33-.4,4.33,2.19a9.29,9.29,0,0,1-4.33,7.19l-23.83,13.76c-2.4,1.38-4.33.4-4.33-2.19A9.26,9.26,0,0,1,161.11,217.4Z" style="fill:#48A2C3"></path><path d="M158.51,242.66l4.66-2.69c1-.55,1.73-.1,1.73,1v5.38a3.83,3.83,0,0,1-1.73,3L158.51,252c-1,.56-1.73.11-1.73-1v-5.38A3.84,3.84,0,0,1,158.51,242.66Z" style="fill:#48A2C3"></path><path d="M158.51,242.66l4.66-2.69c1-.55,1.73-.1,1.73,1v5.38a3.83,3.83,0,0,1-1.73,3L158.51,252c-1,.56-1.73.11-1.73-1v-5.38A3.84,3.84,0,0,1,158.51,242.66Z" style="opacity:0.2"></path><path d="M158.51,261.43l4.66-2.69c1-.56,1.73-.11,1.73,1v5.38a3.86,3.86,0,0,1-1.73,3l-4.66,2.69c-1,.55-1.73.1-1.73-1v-5.38A3.81,3.81,0,0,1,158.51,261.43Z" style="fill:#48A2C3"></path><g style="opacity:0.2"><path d="M158.51,261.43l4.66-2.69c1-.56,1.73-.11,1.73,1v5.38a3.86,3.86,0,0,1-1.73,3l-4.66,2.69c-1,.55-1.73.1-1.73-1v-5.38A3.81,3.81,0,0,1,158.51,261.43Z"></path></g><path d="M171.13,256.49l28.16-16.27c1.2-.69,2.17-.2,2.17,1.1a4.64,4.64,0,0,1-2.17,3.59l-28.16,16.27c-1.2.69-2.17.2-2.17-1.1A4.64,4.64,0,0,1,171.13,256.49Z" style="fill:#48A2C3"></path><path d="M171.13,256.49l28.16-16.27c1.2-.69,2.17-.2,2.17,1.1a4.64,4.64,0,0,1-2.17,3.59l-28.16,16.27c-1.2.69-2.17.2-2.17-1.1A4.64,4.64,0,0,1,171.13,256.49Z" style="opacity:0.2"></path><path d="M158.51,280.19l4.66-2.69c1-.56,1.73-.11,1.73,1v5.38a3.85,3.85,0,0,1-1.73,3l-4.66,2.69c-1,.55-1.73.1-1.73-1v-5.38A3.81,3.81,0,0,1,158.51,280.19Z" style="fill:#e0e0e0"></path><path d="M171.13,275.25,199.29,259c1.2-.69,2.17-.2,2.17,1.1a4.62,4.62,0,0,1-2.17,3.59l-28.16,16.27c-1.2.69-2.17.2-2.17-1.1A4.64,4.64,0,0,1,171.13,275.25Z" style="fill:#f0f0f0"></path><path d="M158.51,299l4.66-2.69c1-.56,1.73-.11,1.73,1v5.38a3.85,3.85,0,0,1-1.73,3l-4.66,2.69c-1,.55-1.73.1-1.73-1V302A3.81,3.81,0,0,1,158.51,299Z" style="fill:#e0e0e0"></path><path d="M171.13,294.06l28.16-16.26c1.2-.7,2.17-.2,2.17,1.09a4.64,4.64,0,0,1-2.17,3.6l-28.16,16.26c-1.2.69-2.17.2-2.17-1.1A4.64,4.64,0,0,1,171.13,294.06Z" style="fill:#f0f0f0"></path><path d="M158.51,317.76l4.66-2.69c1-.56,1.73-.11,1.73,1v5.38a3.85,3.85,0,0,1-1.73,3l-4.66,2.69c-1,.55-1.73.1-1.73-1v-5.38A3.81,3.81,0,0,1,158.51,317.76Z" style="fill:#e0e0e0"></path><path d="M171.13,312.82l28.16-16.26c1.2-.7,2.17-.2,2.17,1.09a4.64,4.64,0,0,1-2.17,3.6l-28.16,16.26c-1.2.69-2.17.2-2.17-1.1A4.64,4.64,0,0,1,171.13,312.82Z" style="fill:#f0f0f0"></path><path d="M158.94,336.22l20-11.57c1.2-.69,2.17-.2,2.17,1.1a4.64,4.64,0,0,1-2.17,3.59l-20,11.57c-1.19.69-2.16.2-2.16-1.09A4.65,4.65,0,0,1,158.94,336.22Z" style="fill:#48A2C3"></path><path d="M158.94,345.6l40.35-23.29c1.2-.69,2.17-.2,2.17,1.09a4.64,4.64,0,0,1-2.17,3.6l-40.35,23.29c-1.19.69-2.16.2-2.16-1.09A4.65,4.65,0,0,1,158.94,345.6Z" style="fill:#48A2C3"></path><path d="M158.94,345.6l40.35-23.29c1.2-.69,2.17-.2,2.17,1.09a4.64,4.64,0,0,1-2.17,3.6l-40.35,23.29c-1.19.69-2.16.2-2.16-1.09A4.65,4.65,0,0,1,158.94,345.6Z" style="fill:#fff;opacity:0.8"></path><path d="M158.94,345.6l28.17-16.26c1.19-.69,2.16-.2,2.16,1.1a4.65,4.65,0,0,1-2.16,3.59l-28.17,16.26c-1.19.69-2.16.2-2.16-1.09A4.65,4.65,0,0,1,158.94,345.6Z" style="fill:#48A2C3"></path><path d="M158.94,355l20-11.57c1.2-.69,2.17-.2,2.17,1.1a4.64,4.64,0,0,1-2.17,3.59l-20,11.57c-1.19.69-2.16.2-2.16-1.09A4.65,4.65,0,0,1,158.94,355Z" style="fill:#48A2C3"></path><path d="M171.13,237.72l28.16-16.26c1.2-.69,2.17-.2,2.17,1.1a4.64,4.64,0,0,1-2.17,3.59l-28.16,16.26c-1.2.69-2.17.2-2.17-1.09A4.64,4.64,0,0,1,171.13,237.72Z" style="fill:#48A2C3"></path><path d="M171.13,237.72l28.16-16.26c1.2-.69,2.17-.2,2.17,1.1a4.64,4.64,0,0,1-2.17,3.59l-28.16,16.26c-1.2.69-2.17.2-2.17-1.09A4.64,4.64,0,0,1,171.13,237.72Z" style="opacity:0.2"></path><path d="M158.94,355l20-11.57c1.2-.69,2.17-.2,2.17,1.1a4.64,4.64,0,0,1-2.17,3.59l-20,11.57c-1.19.69-2.16.2-2.16-1.09A4.65,4.65,0,0,1,158.94,355Z" style="fill:#48A2C3"></path><path d="M158.94,364.35l40.35-23.29c1.2-.69,2.17-.2,2.17,1.09a4.64,4.64,0,0,1-2.17,3.6L158.94,369c-1.19.7-2.16.2-2.16-1.09A4.65,4.65,0,0,1,158.94,364.35Z" style="fill:#48A2C3"></path><path d="M158.94,364.35l40.35-23.29c1.2-.69,2.17-.2,2.17,1.09a4.64,4.64,0,0,1-2.17,3.6L158.94,369c-1.19.7-2.16.2-2.16-1.09A4.65,4.65,0,0,1,158.94,364.35Z" style="fill:#fff;opacity:0.8"></path><path d="M158.94,364.35l36.29-21c1.2-.69,2.17-.2,2.17,1.1a4.64,4.64,0,0,1-2.17,3.59l-36.29,21c-1.19.7-2.16.2-2.16-1.09A4.65,4.65,0,0,1,158.94,364.35Z" style="fill:#48A2C3"></path><path d="M300.84,57.09l-91.26,52.69v243.9L300.84,301a4.78,4.78,0,0,0,2.17-3.75V58.34C303,57,302,56.4,300.84,57.09Z" style="fill:#ebebeb"></path><path d="M300.84,57.09l-91.26,52.69v243.9L300.84,301a4.78,4.78,0,0,0,2.17-3.75V58.34C303,57,302,56.4,300.84,57.09Z" style="fill:#fafafa;opacity:0.6000000000000001"></path><polygon points="209.58 119.16 209.58 137.92 201.46 147.3 209.58 147.3 209.58 166.06 294.88 116.81 294.88 69.91 209.58 119.16" style="fill:#48A2C3"></polygon><g style="opacity:0.6000000000000001"><path d="M220.74,119.81l34.56-20c1.67-1,3-.18,3,1.75v0a6.72,6.72,0,0,1-3,5.25l-34.56,19.95c-1.68,1-3,.18-3-1.75v0A6.69,6.69,0,0,1,220.74,119.81Z" style="fill:#fff"></path></g><path d="M218.79,135l66.89-38.62c.6-.34,1.08-.1,1.08.55a2.32,2.32,0,0,1-1.08,1.8L218.79,137.3c-.6.34-1.08.1-1.08-.55A2.32,2.32,0,0,1,218.79,135Z" style="fill:#48A2C3"></path><path d="M218.79,135l66.89-38.62c.6-.34,1.08-.1,1.08.55a2.32,2.32,0,0,1-1.08,1.8L218.79,137.3c-.6.34-1.08.1-1.08-.55A2.32,2.32,0,0,1,218.79,135Z" style="fill:#48A2C3"></path><path d="M218.79,135l66.89-38.62c.6-.34,1.08-.1,1.08.55a2.32,2.32,0,0,1-1.08,1.8L218.79,137.3c-.6.34-1.08.1-1.08-.55A2.32,2.32,0,0,1,218.79,135Z" style="fill:#fff;opacity:0.6000000000000001"></path><path d="M218.79,142l66.89-38.62c.6-.35,1.08-.1,1.08.55a2.3,2.3,0,0,1-1.08,1.79l-66.89,38.62c-.6.35-1.08.1-1.08-.55A2.3,2.3,0,0,1,218.79,142Z" style="fill:#48A2C3"></path><path d="M218.79,142l66.89-38.62c.6-.35,1.08-.1,1.08.55a2.3,2.3,0,0,1-1.08,1.79l-66.89,38.62c-.6.35-1.08.1-1.08-.55A2.3,2.3,0,0,1,218.79,142Z" style="fill:#fff;opacity:0.6000000000000001"></path><path d="M218.79,149l66.89-38.62c.6-.34,1.08-.1,1.08.55a2.32,2.32,0,0,1-1.08,1.8l-66.89,38.62c-.6.34-1.08.1-1.08-.55A2.32,2.32,0,0,1,218.79,149Z" style="fill:#fff;opacity:0.6000000000000001"></path><path d="M221.31,168.7,226,166c1-.56,1.73-.11,1.73,1v5.38a3.84,3.84,0,0,1-1.73,3l-4.66,2.69c-1,.55-1.73.1-1.73-1V171.7A3.81,3.81,0,0,1,221.31,168.7Z" style="fill:#48A2C3"></path><path d="M221.31,168.7,226,166c1-.56,1.73-.11,1.73,1v5.38a3.84,3.84,0,0,1-1.73,3l-4.66,2.69c-1,.55-1.73.1-1.73-1V171.7A3.81,3.81,0,0,1,221.31,168.7Z" style="fill:#fff;opacity:0.2"></path><path d="M233.93,163.76l28.16-16.27c1.2-.69,2.17-.2,2.17,1.1a4.64,4.64,0,0,1-2.17,3.59l-28.16,16.27c-1.2.69-2.17.2-2.17-1.1A4.64,4.64,0,0,1,233.93,163.76Z" style="fill:#48A2C3"></path><path d="M233.93,163.76l28.16-16.27c1.2-.69,2.17-.2,2.17,1.1a4.64,4.64,0,0,1-2.17,3.59l-28.16,16.27c-1.2.69-2.17.2-2.17-1.1A4.64,4.64,0,0,1,233.93,163.76Z" style="fill:#fff;opacity:0.8"></path><path d="M220.66,185.5l71-41c.6-.35,1.08-.1,1.08.54a2.31,2.31,0,0,1-1.08,1.8l-71,41c-.6.35-1.08.1-1.08-.55A2.3,2.3,0,0,1,220.66,185.5Z" style="fill:#48A2C3"></path><path d="M220.66,192.53l71-41c.6-.34,1.08-.1,1.08.55a2.32,2.32,0,0,1-1.08,1.8l-71,41c-.6.34-1.08.1-1.08-.55A2.32,2.32,0,0,1,220.66,192.53Z" style="fill:#48A2C3"></path><path d="M220.66,199.57l71-41c.6-.35,1.08-.1,1.08.54a2.31,2.31,0,0,1-1.08,1.8l-71,41c-.6.35-1.08.1-1.08-.54A2.31,2.31,0,0,1,220.66,199.57Z" style="fill:#48A2C3"></path><path d="M220.66,206.62l71-41c.6-.34,1.08-.1,1.08.55a2.32,2.32,0,0,1-1.08,1.8l-71,41c-.6.34-1.08.1-1.08-.55A2.32,2.32,0,0,1,220.66,206.62Z" style="fill:#48A2C3"></path><path d="M220.66,185.5l71-41c.6-.35,1.08-.1,1.08.54a2.31,2.31,0,0,1-1.08,1.8l-71,41c-.6.35-1.08.1-1.08-.55A2.3,2.3,0,0,1,220.66,185.5Z" style="fill:#e0e0e0"></path><path d="M220.66,192.53l71-41c.6-.34,1.08-.1,1.08.55a2.32,2.32,0,0,1-1.08,1.8l-71,41c-.6.34-1.08.1-1.08-.55A2.32,2.32,0,0,1,220.66,192.53Z" style="fill:#e0e0e0"></path><path d="M220.66,199.57l71-41c.6-.35,1.08-.1,1.08.54a2.31,2.31,0,0,1-1.08,1.8l-71,41c-.6.35-1.08.1-1.08-.54A2.31,2.31,0,0,1,220.66,199.57Z" style="fill:#e0e0e0"></path><path d="M220.66,206.62l71-41c.6-.34,1.08-.1,1.08.55a2.32,2.32,0,0,1-1.08,1.8l-71,41c-.6.34-1.08.1-1.08-.55A2.32,2.32,0,0,1,220.66,206.62Z" style="fill:#e0e0e0"></path><path d="M220.66,185.5l71-41c.6-.35,1.08-.1,1.08.54a2.31,2.31,0,0,1-1.08,1.8l-71,41c-.6.35-1.08.1-1.08-.55A2.3,2.3,0,0,1,220.66,185.5Z" style="fill:#e0e0e0;opacity:0.8"></path><path d="M220.66,192.53l71-41c.6-.34,1.08-.1,1.08.55a2.32,2.32,0,0,1-1.08,1.8l-71,41c-.6.34-1.08.1-1.08-.55A2.32,2.32,0,0,1,220.66,192.53Z" style="fill:#e0e0e0;opacity:0.8"></path><path d="M220.66,199.57l71-41c.6-.35,1.08-.1,1.08.54a2.31,2.31,0,0,1-1.08,1.8l-71,41c-.6.35-1.08.1-1.08-.54A2.31,2.31,0,0,1,220.66,199.57Z" style="fill:#e0e0e0;opacity:0.8"></path><path d="M220.66,206.62l71-41c.6-.34,1.08-.1,1.08.55a2.32,2.32,0,0,1-1.08,1.8l-71,41c-.6.34-1.08.1-1.08-.55A2.32,2.32,0,0,1,220.66,206.62Z" style="fill:#e0e0e0;opacity:0.8"></path><path d="M220.66,236.5l71-41c.6-.35,1.08-.1,1.08.54a2.31,2.31,0,0,1-1.08,1.8l-71,41c-.6.35-1.08.1-1.08-.55A2.3,2.3,0,0,1,220.66,236.5Z" style="fill:#e0e0e0"></path><path d="M220.66,243.53l71-41c.6-.34,1.08-.1,1.08.55a2.32,2.32,0,0,1-1.08,1.8l-71,41c-.6.34-1.08.1-1.08-.55A2.32,2.32,0,0,1,220.66,243.53Z" style="fill:#e0e0e0"></path><path d="M220.66,250.57l71-41c.6-.35,1.08-.1,1.08.54a2.31,2.31,0,0,1-1.08,1.8l-71,41c-.6.35-1.08.1-1.08-.54A2.31,2.31,0,0,1,220.66,250.57Z" style="fill:#e0e0e0"></path><path d="M220.66,257.62l71-41c.6-.34,1.08-.1,1.08.55a2.32,2.32,0,0,1-1.08,1.8l-71,41c-.6.34-1.08.1-1.08-.55A2.32,2.32,0,0,1,220.66,257.62Z" style="fill:#e0e0e0"></path><path d="M220.66,236.5l71-41c.6-.35,1.08-.1,1.08.54a2.31,2.31,0,0,1-1.08,1.8l-71,41c-.6.35-1.08.1-1.08-.55A2.3,2.3,0,0,1,220.66,236.5Z" style="fill:#e0e0e0;opacity:0.8"></path><path d="M220.66,243.53l71-41c.6-.34,1.08-.1,1.08.55a2.32,2.32,0,0,1-1.08,1.8l-71,41c-.6.34-1.08.1-1.08-.55A2.32,2.32,0,0,1,220.66,243.53Z" style="fill:#e0e0e0;opacity:0.8"></path><path d="M220.66,250.57l71-41c.6-.35,1.08-.1,1.08.54a2.31,2.31,0,0,1-1.08,1.8l-71,41c-.6.35-1.08.1-1.08-.54A2.31,2.31,0,0,1,220.66,250.57Z" style="fill:#e0e0e0;opacity:0.8"></path><path d="M220.66,257.62l71-41c.6-.34,1.08-.1,1.08.55a2.32,2.32,0,0,1-1.08,1.8l-71,41c-.6.34-1.08.1-1.08-.55A2.32,2.32,0,0,1,220.66,257.62Z" style="fill:#e0e0e0;opacity:0.8"></path><path d="M220.66,288.5l71-41c.6-.35,1.08-.1,1.08.54a2.31,2.31,0,0,1-1.08,1.8l-71,41c-.6.35-1.08.1-1.08-.55A2.3,2.3,0,0,1,220.66,288.5Z" style="fill:#e0e0e0"></path><path d="M220.66,295.53l71-41c.6-.34,1.08-.1,1.08.55a2.32,2.32,0,0,1-1.08,1.8l-71,41c-.6.34-1.08.1-1.08-.55A2.32,2.32,0,0,1,220.66,295.53Z" style="fill:#e0e0e0"></path><path d="M220.66,302.57l71-41c.6-.35,1.08-.1,1.08.54a2.31,2.31,0,0,1-1.08,1.8l-71,41c-.6.35-1.08.1-1.08-.54A2.31,2.31,0,0,1,220.66,302.57Z" style="fill:#e0e0e0"></path><path d="M220.66,309.62l71-41c.6-.34,1.08-.1,1.08.55a2.32,2.32,0,0,1-1.08,1.8l-71,41c-.6.34-1.08.1-1.08-.55A2.32,2.32,0,0,1,220.66,309.62Z" style="fill:#e0e0e0"></path><path d="M220.66,288.5l71-41c.6-.35,1.08-.1,1.08.54a2.31,2.31,0,0,1-1.08,1.8l-71,41c-.6.35-1.08.1-1.08-.55A2.3,2.3,0,0,1,220.66,288.5Z" style="fill:#e0e0e0;opacity:0.8"></path><path d="M220.66,295.53l71-41c.6-.34,1.08-.1,1.08.55a2.32,2.32,0,0,1-1.08,1.8l-71,41c-.6.34-1.08.1-1.08-.55A2.32,2.32,0,0,1,220.66,295.53Z" style="fill:#e0e0e0;opacity:0.8"></path><path d="M220.66,302.57l71-41c.6-.35,1.08-.1,1.08.54a2.31,2.31,0,0,1-1.08,1.8l-71,41c-.6.35-1.08.1-1.08-.54A2.31,2.31,0,0,1,220.66,302.57Z" style="fill:#e0e0e0;opacity:0.8"></path><path d="M220.66,309.62l71-41c.6-.34,1.08-.1,1.08.55a2.32,2.32,0,0,1-1.08,1.8l-71,41c-.6.34-1.08.1-1.08-.55A2.32,2.32,0,0,1,220.66,309.62Z" style="fill:#e0e0e0;opacity:0.8"></path><path d="M221.31,220.29,226,217.6c1-.55,1.73-.1,1.73,1V224a3.81,3.81,0,0,1-1.73,3l-4.66,2.69c-1,.55-1.73.11-1.73-1v-5.38A3.82,3.82,0,0,1,221.31,220.29Z" style="fill:#48A2C3"></path><path d="M221.31,220.29,226,217.6c1-.55,1.73-.1,1.73,1V224a3.81,3.81,0,0,1-1.73,3l-4.66,2.69c-1,.55-1.73.11-1.73-1v-5.38A3.82,3.82,0,0,1,221.31,220.29Z" style="fill:#fff;opacity:0.2"></path><path d="M233.93,215.35l28.16-16.26c1.2-.69,2.17-.2,2.17,1.09a4.64,4.64,0,0,1-2.17,3.6L233.93,220c-1.2.69-2.17.2-2.17-1.09A4.64,4.64,0,0,1,233.93,215.35Z" style="fill:#48A2C3"></path><path d="M233.93,215.35l28.16-16.26c1.2-.69,2.17-.2,2.17,1.09a4.64,4.64,0,0,1-2.17,3.6L233.93,220c-1.2.69-2.17.2-2.17-1.09A4.64,4.64,0,0,1,233.93,215.35Z" style="fill:#fff;opacity:0.8"></path><path d="M221.31,271.89,226,269.2c1-.56,1.73-.11,1.73,1v5.38a3.82,3.82,0,0,1-1.73,3l-4.66,2.69c-1,.55-1.73.1-1.73-1v-5.38A3.81,3.81,0,0,1,221.31,271.89Z" style="fill:#48A2C3"></path><path d="M221.31,271.89,226,269.2c1-.56,1.73-.11,1.73,1v5.38a3.82,3.82,0,0,1-1.73,3l-4.66,2.69c-1,.55-1.73.1-1.73-1v-5.38A3.81,3.81,0,0,1,221.31,271.89Z" style="fill:#fff;opacity:0.2"></path><path d="M233.93,267l28.16-16.27c1.2-.69,2.17-.2,2.17,1.1a4.65,4.65,0,0,1-2.17,3.6l-28.16,16.26c-1.2.69-2.17.2-2.17-1.1A4.64,4.64,0,0,1,233.93,267Z" style="fill:#48A2C3"></path><path d="M233.93,267l28.16-16.27c1.2-.69,2.17-.2,2.17,1.1a4.65,4.65,0,0,1-2.17,3.6l-28.16,16.26c-1.2.69-2.17.2-2.17-1.1A4.64,4.64,0,0,1,233.93,267Z" style="fill:#fff;opacity:0.8"></path><path d="M227.94,317.31l4.66-2.69c1-.55,1.74-.1,1.74,1V321a3.82,3.82,0,0,1-1.74,3l-4.66,2.69c-.95.56-1.73.11-1.73-1v-5.38A3.86,3.86,0,0,1,227.94,317.31Z" style="fill:#48A2C3"></path><path d="M220.66,335.59l19.23-11.1c.6-.34,1.08-.1,1.08.55a2.32,2.32,0,0,1-1.08,1.8l-19.23,11.1c-.6.34-1.08.1-1.08-.55A2.32,2.32,0,0,1,220.66,335.59Z" style="fill:#e0e0e0"></path><path d="M253.81,302.37l4.66-2.69c.95-.55,1.73-.1,1.73,1v5.38a3.83,3.83,0,0,1-1.73,3l-4.66,2.69c-1,.55-1.74.11-1.74-1v-5.38A3.83,3.83,0,0,1,253.81,302.37Z" style="fill:#48A2C3"></path><path d="M246.52,320.65l19.23-11.1c.6-.35,1.08-.1,1.08.55a2.3,2.3,0,0,1-1.08,1.79L246.52,323c-.6.35-1.08.1-1.08-.54A2.31,2.31,0,0,1,246.52,320.65Z" style="fill:#e0e0e0"></path><path d="M279.67,287.43l4.66-2.69c.95-.56,1.73-.11,1.73,1v5.38a3.85,3.85,0,0,1-1.73,3l-4.66,2.69c-1,.55-1.73.1-1.73-1v-5.38A3.81,3.81,0,0,1,279.67,287.43Z" style="fill:#48A2C3"></path><path d="M227.94,317.31l4.66-2.69c1-.55,1.74-.1,1.74,1V321a3.82,3.82,0,0,1-1.74,3l-4.66,2.69c-.95.56-1.73.11-1.73-1v-5.38A3.86,3.86,0,0,1,227.94,317.31Z" style="fill:#fff;opacity:0.2"></path><path d="M253.81,302.37l4.66-2.69c.95-.55,1.73-.1,1.73,1v5.38a3.83,3.83,0,0,1-1.73,3l-4.66,2.69c-1,.55-1.74.11-1.74-1v-5.38A3.83,3.83,0,0,1,253.81,302.37Z" style="fill:#fff;opacity:0.2"></path><path d="M279.67,287.43l4.66-2.69c.95-.56,1.73-.11,1.73,1v5.38a3.85,3.85,0,0,1-1.73,3l-4.66,2.69c-1,.55-1.73.1-1.73-1v-5.38A3.81,3.81,0,0,1,279.67,287.43Z" style="fill:#fff;opacity:0.2"></path><path d="M272.38,305.71l19.23-11.1c.6-.35,1.08-.1,1.08.54a2.31,2.31,0,0,1-1.08,1.8l-19.23,11.1c-.59.35-1.08.1-1.08-.55A2.33,2.33,0,0,1,272.38,305.71Z" style="fill:#e0e0e0"></path><g style="clip-path:url(#freepik--clip-path--inject-70)"><path d="M177.09,138.86c-11.22,6.32-20.31,22.07-20.31,35.17s9.09,18.48,20.31,12,20.31-22.22,20.31-35.18S188.3,132.53,177.09,138.86Z" style="fill:#fafafa"></path><path d="M177.09,138.86c-11.22,6.32-20.31,22.07-20.31,35.17s9.09,18.48,20.31,12,20.31-22.22,20.31-35.18S188.3,132.53,177.09,138.86Z" style="fill:none"></path><path d="M177.09,138.86c-11.22,6.32-20.31,22.07-20.31,35.17s9.09,18.48,20.31,12,20.31-22.22,20.31-35.18S188.3,132.53,177.09,138.86Z" style="fill:none"></path><path d="M186.93,179.23l-16.26,4.36a1.77,1.77,0,0,1-2.31-1.86V154.05A11.1,11.1,0,0,1,176,143.78l5.56-1.49c4.23-1.13,7.66,1.63,7.66,6.16v27.69A3.35,3.35,0,0,1,186.93,179.23Z" style="fill:#37474f"></path><path d="M187.71,186.39,186,178.84s0-10.19-1.45-11.13-1.87-1.12-1.87-1.12c1.86-.64,5.78-1.12,7,2.46,1.17,3.38,2.92,11.71,3.75,15.81Z" style="fill:#f28f8f"></path><path d="M187.57,186.43l-5.8-19.75c2.57-1,5.87-1.83,7.47.82,1.44,2.38,3.74,14.85,4.19,17.36Z" style="fill:#48A2C3"></path><g style="opacity:0.4"><path d="M187.57,186.43l-5.8-19.75c2.57-1,5.87-1.83,7.47.82,1.44,2.38,3.74,14.85,4.19,17.36Z"></path></g><path d="M188.35,186.22l-5.7,1.53a13,13,0,0,1,1.59-4.65,9.28,9.28,0,0,1,4.68-3.51A33.32,33.32,0,0,0,188.35,186.22Z" style="fill:#48A2C3"></path><path d="M188.35,186.22l-5.7,1.53a13,13,0,0,1,1.59-4.65,9.28,9.28,0,0,1,4.68-3.51A33.32,33.32,0,0,0,188.35,186.22Z" style="fill:#48A2C3"></path><g style="opacity:0.7000000000000001"><path d="M188.35,186.22l-5.7,1.53a13,13,0,0,1,1.59-4.65,9.28,9.28,0,0,1,4.68-3.51A33.32,33.32,0,0,0,188.35,186.22Z"></path></g><path d="M187.13,186.55l-16,4.27-1.76-5.45s4.67-10.93-1.1-13.74c.73-.55,6.88-2.95,6.88-2.95l6.61-2c1.26-.34,6.35,1.92,7.64,6.93.46,1.77.3,3.36-2.29,12.58C187.14,186.31,187.13,186.43,187.13,186.55Z" style="fill:#48A2C3"></path><path d="M185.81,145.69c1.1.4,2.46,3,2.33,9.27-.11,5.32-1.71,7-2.51,7.64a8.6,8.6,0,0,1-3.86.91v3.17s2.08,2,1.95,3.52-3,2.6-4.94,1.7a11.16,11.16,0,0,1-3.59-3.22l0-7.3a1.68,1.68,0,0,1-2.39.15,2.83,2.83,0,0,1-.69-4c1-1.31,2.75-1.5,3.43-.19a9.87,9.87,0,0,1,4.3-4.85C183,150.57,184.72,148.86,185.81,145.69Z" style="fill:#ffa8a7"></path><path d="M182.64,155.11a.92.92,0,0,1-.59.88.49.49,0,0,1-.65-.48.92.92,0,0,1,.59-.88A.49.49,0,0,1,182.64,155.11Z" style="fill:#37474f"></path><path d="M182.8,159.55l1.44.1a1,1,0,0,1-.93.81C182.91,160.43,182.68,160,182.8,159.55Z" style="fill:#f28f8f"></path><path d="M187.72,151.71l-1.25-.59a.84.84,0,0,1,1-.51A.79.79,0,0,1,187.72,151.71Z" style="fill:#37474f"></path><path d="M180.84,154.05l1.25-1.27a.67.67,0,0,0-1,.05A1,1,0,0,0,180.84,154.05Z" style="fill:#37474f"></path><path d="M187.43,153.35a.91.91,0,0,1-.59.88.49.49,0,0,1-.65-.49.93.93,0,0,1,.59-.88A.49.49,0,0,1,187.43,153.35Z" style="fill:#37474f"></path><polygon points="184.51 153.75 184.6 157.72 186.57 156.54 184.51 153.75" style="fill:#f28f8f"></polygon><path d="M181.77,163.51c-1.58.2-4.84.07-5.35-1.17a2.54,2.54,0,0,0,1.14,1.45c1,.64,4.21.78,4.21.78Z" style="fill:#f28f8f"></path><polygon points="171.22 190.81 170.55 188.43 172.31 190.52 171.22 190.81" style="fill:#48A2C3"></polygon><path d="M169.91,191.16A70.19,70.19,0,0,0,167,181.1c-1.68-4.61.2-8.59,1.33-9.47s6.88-2.95,6.88-2.95c2.08,5.92,2.65,13.85,2.7,20.34Z" style="fill:#48A2C3"></path><path d="M169.91,191.16A70.19,70.19,0,0,0,167,181.1c-1.68-4.61.2-8.59,1.33-9.47s6.88-2.95,6.88-2.95c2.08,5.92,2.65,13.85,2.7,20.34Z" style="opacity:0.4"></path><path d="M167.07,191.92l-5.71,1.53a3.51,3.51,0,0,1-.45-.36s2.7-10.42,3.56-13.88,1.52-5.84,3.84-7.58c4.17,2.71,2.24,10.24,2.24,10.24Z" style="fill:#48A2C3"></path><path d="M167.07,191.92l-5.71,1.53a3.51,3.51,0,0,1-.45-.36s2.7-10.42,3.56-13.88,1.52-5.84,3.84-7.58c4.17,2.71,2.24,10.24,2.24,10.24Z" style="opacity:0.4"></path><path d="M177.09,138.86c-11.22,6.32-20.31,22.07-20.31,35.17s9.09,18.48,20.31,12,20.31-22.22,20.31-35.18S188.3,132.53,177.09,138.86Z" style="fill:none"></path><path d="M177.09,138.86c-11.22,6.32-20.31,22.07-20.31,35.17s9.09,18.48,20.31,12,20.31-22.22,20.31-35.18S188.3,132.53,177.09,138.86Z" style="fill:none"></path></g></g></svg>