<svg xmlns="http://www.w3.org/2000/svg" viewBox="0 0 500 500"><g id="freepik--background-simple--inject-42"><path d="M102.57,281.21c55.31-38.4,37-115.45,69.48-153.44,77-74.78,288.2-48.59,258,88.75-13.13,51.15-107.45,75.35-134.25,96.09C252.32,338.43,212.58,377,164.7,391.4,90.69,420,35.35,319.67,102.57,281.21Z" style="fill:#48A2C3"></path><path d="M102.57,281.21c55.31-38.4,37-115.45,69.48-153.44,77-74.78,288.2-48.59,258,88.75-13.13,51.15-107.45,75.35-134.25,96.09C252.32,338.43,212.58,377,164.7,391.4,90.69,420,35.35,319.67,102.57,281.21Z" style="fill:#fff;opacity:0.9"></path></g><g id="freepik--Shadow--inject-42"><ellipse id="freepik--path--inject-42" cx="250" cy="416.24" rx="193.89" ry="11.32" style="fill:#f5f5f5"></ellipse></g><g id="freepik--Arrow--inject-42"><rect x="325.64" y="243.17" width="4.8" height="1" transform="translate(-47.07 405.77) rotate(-59.98)" style="fill:#48A2C3"></rect><rect x="327.36" y="229.31" width="17.38" height="1" transform="translate(-31.06 405.8) rotate(-59.98)" style="fill:#48A2C3"></rect><polygon points="368.01 126.35 298.46 157.98 325.39 157.98 233.26 317.44 281.95 317.44 374.08 157.98 401.01 157.98 368.01 126.35" style="fill:#48A2C3"></polygon><polygon points="281.95 317.44 233.26 317.44 200.14 260.1 248.82 260.1 281.95 317.44" style="fill:#48A2C3"></polygon><polygon points="281.95 317.44 233.26 317.44 200.14 260.1 248.82 260.1 281.95 317.44" style="opacity:0.30000000000000004"></polygon><polygon points="248.83 260.1 200.13 260.1 108 419.57 156.69 419.57 248.83 260.1" style="fill:#48A2C3"></polygon></g></svg>