<svg xmlns="http://www.w3.org/2000/svg" viewBox="0 0 500 500"><g id="freepik--Floor--inject-2"><ellipse id="freepik--floor--inject-2" cx="250" cy="344.13" rx="242.11" ry="139.78" style="fill:#f5f5f5"></ellipse></g><g id="freepik--Briefcase--inject-2"><g id="freepik--briefcase--inject-2"><path d="M458.5,333.31v46.21a8.17,8.17,0,0,1-3.64,6.33l-4.36,2.52a8,8,0,0,1-5.14.75,6.53,6.53,0,0,1-2.12-.69.33.33,0,0,1-.1-.06l-.27-.15L391.58,358.6a12.1,12.1,0,0,1-6.06-10.49V304.67a3.46,3.46,0,0,1,1.56-2.7l8.57-4.94a3.39,3.39,0,0,1,3.1,0l58.19,33.59a3.16,3.16,0,0,1,1.1,1.16A3.22,3.22,0,0,1,458.5,333.31Z" style="fill:#48A2C3"></path><path d="M458.5,333.31v46.21a8.17,8.17,0,0,1-3.64,6.33l-4.36,2.52a8,8,0,0,1-5.14.75,6.53,6.53,0,0,1-2.12-.69v0c2,.93,3.58-.11,3.58-2.47V341a4.81,4.81,0,0,0-.69-2.33L458,331.78A3.22,3.22,0,0,1,458.5,333.31Z" style="opacity:0.2"></path><path d="M446.82,341a5.23,5.23,0,0,0-2.35-4.08l-55-31.75c-2.18-1.26-4-.23-4,2.28v40.68a12.1,12.1,0,0,0,6.06,10.49l51.29,29.62c2.17,1.25,3.95.23,3.95-2.28Z" style="opacity:0.30000000000000004"></path><path d="M385.52,319.73a10,10,0,0,0,4.51,7.81l52.28,30.18c2.48,1.44,4.51.26,4.51-2.6V339.67a2.47,2.47,0,0,1,1.24-2.15l8-4.61L395.65,297l-8.89,5.1a2.49,2.49,0,0,0-1.24,2.15Z" style="fill:#48A2C3;opacity:0.6000000000000001"></path><path d="M395.65,297l-8.89,5.1a2.6,2.6,0,0,0-.94,1l61.35,35.29a2.42,2.42,0,0,1,.89-.88l8-4.61Z" style="fill:#48A2C3"></path><path d="M412.09,336.8l8.13,4.7a5,5,0,0,1,2.28,3.91v1.85c0,1.44-1,2-2.24,1.31l-8.18-4.73a5,5,0,0,1-2.26-3.91v-1.82C409.83,336.67,410.84,336.08,412.09,336.8Z" style="fill:#37474f"></path><path d="M415.56,305.07v6.43l-3.72,2.15v-9.81c0-.51.36-.71.79-.46Z" style="fill:#263238"></path><path d="M435,311.89v12l-2.76,1.6-1.86-1.07v-9.82a1.74,1.74,0,0,0-.79-1.37l-14.07-8.12-2.93-1.69c-.43-.25-.79-.05-.79.46v9.81L410,312.57V300.62c0-.05,0-.11,0-.16a1.77,1.77,0,0,1,.79-1.22l1.17-.68a1.78,1.78,0,0,1,1.59,0l20.71,12A1.76,1.76,0,0,1,435,311.89Z" style="fill:#455a64"></path><path d="M432.28,313.49v12l-1.86-1.07v-9.82a1.74,1.74,0,0,0-.79-1.37l-14.07-8.12-2.93-1.69c-.43-.25-.79-.05-.79.46v9.81L410,312.57V300.62c0-.05,0-.11,0-.16.07-.39.4-.53.79-.3l20.71,12A1.77,1.77,0,0,1,432.28,313.49Z" style="fill:#37474f"></path></g></g><g id="freepik--Chair--inject-2"><g id="freepik--chair--inject-2"><path d="M66.59,302.66a5,5,0,0,0,.12,1.07,2.43,2.43,0,0,0,1,1.49l0,0a2.79,2.79,0,0,0,3-.23A9,9,0,0,0,74.75,298a2.9,2.9,0,0,0-1.15-2.59h0l-.2-.11h0a2.5,2.5,0,0,0-1.74-.07,4.94,4.94,0,0,0-1,.43A9,9,0,0,0,66.59,302.66Z" style="fill:#455a64"></path><path d="M67.71,293.89a3.68,3.68,0,0,1,1.81-.55,2.11,2.11,0,0,1,1.15.32l.11.06,2.63,1.52a2.5,2.5,0,0,0-1.74-.07,4.94,4.94,0,0,0-1,.43,9,9,0,0,0-4.08,7.06,5,5,0,0,0,.12,1.07,2.43,2.43,0,0,0,1,1.49L65,303.66l0,0-.23-.14a.15.15,0,0,1-.07-.05,3,3,0,0,1-1-2.5A9,9,0,0,1,67.71,293.89Z" style="fill:#263238"></path><path d="M110.73,278.93a5,5,0,0,0,.11,1.07,2.44,2.44,0,0,0,1,1.49l0,0a2.79,2.79,0,0,0,3-.23,9,9,0,0,0,4.08-7.06,2.89,2.89,0,0,0-1.14-2.59h0l-.2-.12h0a2.56,2.56,0,0,0-1.74-.06,4.94,4.94,0,0,0-1,.43A9,9,0,0,0,110.73,278.93Z" style="fill:#455a64"></path><path d="M111.84,270.16a3.68,3.68,0,0,1,1.82-.55,2.1,2.1,0,0,1,1.14.32l.11.06,2.63,1.51a2.56,2.56,0,0,0-1.74-.06,4.94,4.94,0,0,0-1,.43,9,9,0,0,0-4.07,7.06,5,5,0,0,0,.11,1.07,2.44,2.44,0,0,0,1,1.49l-2.71-1.56,0,0-.23-.14-.07,0a3,3,0,0,1-1-2.5A9,9,0,0,1,111.84,270.16Z" style="fill:#263238"></path><path d="M102.85,311.93a4.93,4.93,0,0,1-.11,1.06,2.47,2.47,0,0,1-1,1.5l0,0a2.83,2.83,0,0,1-3-.23,9,9,0,0,1-4.08-7.07,2.89,2.89,0,0,1,1.15-2.58h0l.2-.12h0a2.53,2.53,0,0,1,1.73-.07,4.13,4.13,0,0,1,1,.44A9,9,0,0,1,102.85,311.93Z" style="fill:#455a64"></path><path d="M101.74,303.16a3.71,3.71,0,0,0-1.82-.55,2.16,2.16,0,0,0-1.15.32l-.1.05L96,304.5a2.53,2.53,0,0,1,1.73-.07,4.13,4.13,0,0,1,1,.44,9,9,0,0,1,4.08,7.06,4.93,4.93,0,0,1-.11,1.06,2.47,2.47,0,0,1-1,1.5l2.7-1.57,0,0,.23-.14.07,0a3,3,0,0,0,1-2.51A9,9,0,0,0,101.74,303.16Z" style="fill:#263238"></path><path d="M131.5,297.89a5.77,5.77,0,0,1-.11,1.07,2.51,2.51,0,0,1-1,1.5l0,0a2.85,2.85,0,0,1-3-.23,9,9,0,0,1-4.08-7.07,2.88,2.88,0,0,1,1.15-2.58v0l.19-.11h0a2.53,2.53,0,0,1,1.73-.07,4.3,4.3,0,0,1,1,.44A9,9,0,0,1,131.5,297.89Z" style="fill:#455a64"></path><path d="M130.39,289.12a3.85,3.85,0,0,0-1.82-.55,2.2,2.2,0,0,0-1.15.32l-.1.06-2.63,1.52a2.53,2.53,0,0,1,1.73-.07,4.3,4.3,0,0,1,1,.44,9,9,0,0,1,4.08,7.05,5.77,5.77,0,0,1-.11,1.07,2.51,2.51,0,0,1-1,1.5l2.7-1.57,0,0,.23-.14.07,0a3,3,0,0,0,1-2.51A9,9,0,0,0,130.39,289.12Z" style="fill:#263238"></path><path d="M76.13,280.68a5,5,0,0,1-.12,1.07,2.49,2.49,0,0,1-1,1.5l0,0a2.83,2.83,0,0,1-3-.23A9,9,0,0,1,68,276a2.88,2.88,0,0,1,1.15-2.58l0,0,.2-.11h0a2.56,2.56,0,0,1,1.74-.07,4.5,4.5,0,0,1,1,.44A9,9,0,0,1,76.13,280.68Z" style="fill:#455a64"></path><path d="M75,271.91a3.79,3.79,0,0,0-1.81-.55,2.2,2.2,0,0,0-1.15.32l-.11.06-2.63,1.52a2.56,2.56,0,0,1,1.74-.07,4.5,4.5,0,0,1,1,.44,9,9,0,0,1,4.08,7.05,5,5,0,0,1-.12,1.07,2.49,2.49,0,0,1-1,1.5l2.7-1.57,0,0,.23-.14.07,0a3,3,0,0,0,1-2.51A9,9,0,0,0,75,271.91Z" style="fill:#263238"></path><polygon points="100.48 272.06 115.04 267.88 115.04 270.99 100.48 279.4 100.48 272.06" style="fill:#ebebeb"></polygon><polygon points="100.48 272.06 99.04 271.18 113.65 267.19 115.04 267.88 100.48 272.06" style="fill:#f5f5f5"></polygon><polygon points="94.18 281.34 73.53 273.61 73.53 270.46 94.18 272.3 94.18 281.34" style="fill:#ebebeb"></polygon><polygon points="73.53 270.46 75.05 270.06 95.41 271.37 94.18 272.3 73.53 270.46" style="fill:#f5f5f5"></polygon><path d="M93.62,280.35c0,2.34,7.19,2.34,7.19,0V259.93H93.62Z" style="fill:#fafafa"></path><path d="M99,275,103,300.68h-2.7L96.56,275A4.33,4.33,0,0,0,99,275Z" style="fill:#f5f5f5"></path><polygon points="96.56 275.04 96.56 282.08 100.26 305.02 100.26 300.68 96.56 275.04" style="fill:#ebebeb"></polygon><rect x="100.26" y="300.68" width="2.7" height="4.34" style="fill:#e0e0e0"></rect><polygon points="95.33 281.87 68.71 295.83 68.71 291.53 95.33 275.06 95.33 281.87" style="fill:#ebebeb"></polygon><path d="M95.33,275.06a3.06,3.06,0,0,1-1.71-.78L67,290.4l1.67,1.13Z" style="fill:#f5f5f5"></path><polygon points="68.71 295.83 68.71 291.53 67.04 290.4 67.04 294.57 68.71 295.83" style="fill:#e0e0e0"></polygon><polygon points="128.9 290.89 100.46 281.16 100.46 274.77 128.9 286.6 128.9 290.89" style="fill:#ebebeb"></polygon><path d="M100.46,274.77c.23-.07.33-.48.35-1.11l28.93,12.59-.84.35Z" style="fill:#f5f5f5"></path><polygon points="129.74 286.25 129.74 290.41 128.9 290.89 128.9 286.6 129.74 286.25" style="fill:#e0e0e0"></polygon><rect x="100.26" y="300.68" width="2.7" height="4.34" style="opacity:0.1"></rect><polygon points="68.71 295.83 68.71 291.53 67.04 290.4 67.04 294.57 68.71 295.83" style="opacity:0.1"></polygon><polygon points="129.74 286.25 129.74 290.41 128.9 290.89 128.9 286.6 129.74 286.25" style="opacity:0.1"></polygon><path d="M103.3,224.35H91.13v42.12c0,3.49,12.17,3.49,12.17,0Z" style="fill:#f0f0f0"></path><path d="M54.09,218.52l46.6-24.34s3.27-15.94-7.77-33.32c0,0,3.29-31-2.23-41.26-4-7.86-8.86-6.78-8.86-6.78L28.9,136.71Z" style="fill:#48A2C3"></path><path d="M54.09,218.52l46.6-24.34s3.27-15.94-7.77-33.32c0,0,3.29-31-2.23-41.26-4-7.86-8.86-6.78-8.86-6.78L28.9,136.71Z" style="opacity:0.2"></path><path d="M81.83,112.82,28.9,136.71l1.74,5.65,57.88-26.13C85.11,112.09,81.83,112.82,81.83,112.82Z" style="fill:#48A2C3"></path><path d="M82,162.35a1,1,0,0,0,1.58.69,2.51,2.51,0,0,0,1.19-2.29c-.11-.82-.82-1.13-1.59-.69A2.52,2.52,0,0,0,82,162.35Z" style="fill:#fff;opacity:0.4"></path><path d="M74,167a1,1,0,0,0,1.58.69,2.51,2.51,0,0,0,1.19-2.29c-.11-.82-.82-1.13-1.59-.69A2.52,2.52,0,0,0,74,167Z" style="fill:#fff;opacity:0.4"></path><path d="M65.89,171.67a1,1,0,0,0,1.58.69,2.51,2.51,0,0,0,1.19-2.29c-.11-.82-.82-1.13-1.59-.69A2.5,2.5,0,0,0,65.89,171.67Z" style="fill:#fff;opacity:0.4"></path><path d="M57.82,176.33a1,1,0,0,0,1.58.69,2.51,2.51,0,0,0,1.19-2.29c-.11-.82-.82-1.13-1.59-.69A2.5,2.5,0,0,0,57.82,176.33Z" style="fill:#fff;opacity:0.4"></path><path d="M154,214v2.57a9.33,9.33,0,0,1-4.53,7.51l-52,27.27a10.37,10.37,0,0,1-9-.18l-30-17.3a9.82,9.82,0,0,1-4.43-7.69v-2.57a9.28,9.28,0,0,1,4.54-7.49l49.17-25.69a11.27,11.27,0,0,1,9.12-.08l32.45,16.24A9.08,9.08,0,0,1,154,214Z" style="fill:#48A2C3"></path><path d="M154,214v2.57a9.33,9.33,0,0,1-4.53,7.51l-52,27.27a10.37,10.37,0,0,1-9-.18l-30-17.3a9.82,9.82,0,0,1-4.43-7.69v-2.57a9.28,9.28,0,0,1,4.54-7.49l49.17-25.69a11.27,11.27,0,0,1,9.12-.08l32.45,16.24A9.08,9.08,0,0,1,154,214Z" style="opacity:0.2"></path><path d="M94.12,252.27a10.15,10.15,0,0,1-5.63-1.07l-30-17.3a9.81,9.81,0,0,1-4.43-7.68v-2.58A9.33,9.33,0,0,1,58,216.55c-1.85,1.32-1.67,3.25.54,4.53l30,17.31a9.54,9.54,0,0,0,4.58,1.1Z" style="opacity:0.2"></path><path d="M97.46,238.56l52-27.27c2.5-1.31,2.48-3.4,0-4.67l-32.45-16.24a11.27,11.27,0,0,0-9.12.08L58.63,216.15c-2.51,1.31-2.56,3.52-.11,4.93l30,17.3A10.3,10.3,0,0,0,97.46,238.56Z" style="fill:#48A2C3"></path><path d="M97.46,238.56l52-27.27c2.5-1.31,2.48-3.4,0-4.67l-32.45-16.24a11.27,11.27,0,0,0-9.12.08L58.63,216.15c-2.51,1.31-2.56,3.52-.11,4.93l30,17.3A10.3,10.3,0,0,0,97.46,238.56Z" style="fill:#48A2C3"></path><path d="M81.83,112.82s7.66-5.19,15.73-.53,5.41,20.35,4.55,30.46S101,170.47,108,176.88s30.25-2.11,40.36-2.11l-8.91,32.88c-9.84-5.35-25.57-10.85-38.8-13.47,0,0,.43-20.5-9-32.21,0,0,3.47-8.2,1.2-24.63C90.82,122.13,88,116.37,81.83,112.82Z" style="fill:#48A2C3"></path><path d="M81.83,112.82s7.66-5.19,15.73-.53,5.41,20.35,4.55,30.46S101,170.47,108,176.88s30.25-2.11,40.36-2.11l-8.91,32.88c-9.84-5.35-25.57-10.85-38.8-13.47,0,0,.43-20.5-9-32.21,0,0,3.47-8.2,1.2-24.63C90.82,122.13,88,116.37,81.83,112.82Z" style="opacity:0.35000000000000003"></path><path d="M139.49,207.65c-.46-2.93-2.33-19.86.83-27.22,2.75-6.41,10-6.79,12.21-4s.25,6.07-3.36,10.77c-3,4-4.13,7.68-4.13,17.29Z" style="fill:#48A2C3"></path><path d="M139.49,207.65c-.46-2.93-2.33-19.86.83-27.22,2.75-6.41,10-6.79,12.21-4s.25,6.07-3.36,10.77c-3,4-4.13,7.68-4.13,17.29Z" style="opacity:0.2"></path><g style="opacity:0.5"><path d="M148.41,177.5a2.83,2.83,0,0,1,2,.63c.8,1-.26,3.24-3.43,7.37-3.35,4.38-4.53,8.65-4.68,16.94a.7.7,0,0,1-.37.63l-.24.12c-.7-7.58-.77-17.26,1.12-21.69a6.14,6.14,0,0,1,5.58-4m0-.68a6.82,6.82,0,0,0-6.21,4.41c-2.11,4.94-1.77,15.49-1.17,22a.69.69,0,0,0,1.05.54l.22-.12a1.44,1.44,0,0,0,.7-1.21c.15-8.28,1.3-12.31,4.55-16.54,3.53-4.61,4.48-6.92,3.4-8.23a3.41,3.41,0,0,0-2.54-.87Z" style="fill:#fff"></path></g><path d="M52.16,232.93l36,18.07-.77-13.26,5.55-3.2c-.4-10.28-3.21-20.82-10.49-23.16-9.09-2.88-20.9-3.81-28-10.21s-6.79-24-5.93-34.14,3.53-25.79-4.54-30.45-15.74.52-15.74.52c-3.45,2.24-7.47,3.86-7.13,6.58a2.93,2.93,0,0,0,2.46,2.77l20.08,76A16.43,16.43,0,0,0,52.16,232.93Z" style="fill:#48A2C3"></path><path d="M52.16,232.93l36,18.07-.77-13.26,5.55-3.2c-.4-10.28-3.21-20.82-10.49-23.16-9.09-2.88-20.9-3.81-28-10.21s-6.79-24-5.93-34.14,3.53-25.79-4.54-30.45-15.74.52-15.74.52c-3.45,2.24-7.47,3.86-7.13,6.58a2.93,2.93,0,0,0,2.46,2.77l20.08,76A16.43,16.43,0,0,0,52.16,232.93Z" style="opacity:0.5"></path><path d="M38.69,146c3.23,3.87,4.89,10,4.3,25.1s-.36,27.26,5.55,34.66c7,8.77,31,15.76,31,15.76l9.38-4.29a11.74,11.74,0,0,0-6.5-5.8c-9.09-2.88-20.9-3.81-28-10.21s-6.79-24-5.93-34.14,3.53-25.79-4.54-30.45-15.74.52-15.74.52c-3.45,2.24-7.47,3.86-7.13,6.58a2.93,2.93,0,0,0,2.46,2.77C28.07,145,35.46,142.09,38.69,146Z" style="fill:#48A2C3"></path><path d="M38.69,146c3.23,3.87,4.89,10,4.3,25.1s-.36,27.26,5.55,34.66c7,8.77,31,15.76,31,15.76l9.38-4.29a11.74,11.74,0,0,0-6.5-5.8c-9.09-2.88-20.9-3.81-28-10.21s-6.79-24-5.93-34.14,3.53-25.79-4.54-30.45-15.74.52-15.74.52c-3.45,2.24-7.47,3.86-7.13,6.58a2.93,2.93,0,0,0,2.46,2.77C28.07,145,35.46,142.09,38.69,146Z" style="opacity:0.35000000000000003"></path><path d="M87.37,237.74l5.55-3.2c0-6.15-1.58-19.52-9.37-22.75-6.18-2.57-9.16,1.2-9.09,3.53.07,2.62,2,4.34,5.09,6.15C83.69,223.85,87.37,228.13,87.37,237.74Z" style="fill:#48A2C3"></path><path d="M87.37,237.74l5.55-3.2c0-6.15-1.58-19.52-9.37-22.75-6.18-2.57-9.16,1.2-9.09,3.53.07,2.62,2,4.34,5.09,6.15C83.69,223.85,87.37,228.13,87.37,237.74Z" style="opacity:0.2"></path><g style="opacity:0.5"><path d="M79.7,213.66a7.57,7.57,0,0,1,2.81.65c5.14,2.14,7.32,11,7.64,18.54a.2.2,0,0,1-.09.19l-.25.14c-.9-6.54-3.81-11.15-8.9-14.08-3.39-1.95-3.7-3-3.72-3.86a1.43,1.43,0,0,1,.45-.84,2.73,2.73,0,0,1,2.06-.74m0-.68a3.41,3.41,0,0,0-2.55.94,2.19,2.19,0,0,0-.65,1.34c0,1.27.75,2.52,4.07,4.43,5,2.9,7.86,7.53,8.64,14.14a.31.31,0,0,0,.3.27.28.28,0,0,0,.15,0l.74-.43a.89.89,0,0,0,.44-.81c-.33-7.77-2.63-16.88-8.07-19.14a8.11,8.11,0,0,0-3.07-.7Z" style="fill:#fff"></path></g></g></g><g id="freepik--Desk--inject-2"><g id="freepik--desk--inject-2"><g id="freepik--desk--inject-2"><polygon points="125.62 297.63 42.37 249.57 230.77 140.79 314.02 188.86 125.62 297.63" style="fill:#48A2C3"></polygon><polygon points="125.62 297.63 42.37 249.57 230.77 140.79 314.02 188.86 125.62 297.63" style="fill:#fff;opacity:0.8"></polygon><polygon points="42.37 249.57 42.37 345.69 46.75 348.22 46.75 338.11 121.24 381.11 121.24 391.23 125.62 393.76 125.62 297.63 42.37 249.57" style="fill:#48A2C3"></polygon><polygon points="42.37 249.57 42.37 345.69 46.75 348.22 46.75 338.11 121.24 381.11 121.24 391.23 125.62 393.76 125.62 297.63 42.37 249.57" style="fill:#fff;opacity:0.6000000000000001"></polygon><polygon points="46.75 348.22 51.13 345.69 51.13 340.63 46.75 338.11 46.75 348.22" style="fill:#48A2C3"></polygon><polygon points="46.75 348.22 51.13 345.69 51.13 340.63 46.75 338.11 46.75 348.22" style="fill:#48A2C3"></polygon><polygon points="125.62 393.76 130 391.23 130 381.11 309.64 277.39 309.64 287.51 314.02 284.98 314.02 188.86 125.62 297.63 125.62 393.76" style="fill:#48A2C3"></polygon><polygon points="125.62 393.76 130 391.23 130 381.11 309.64 277.39 309.64 287.51 314.02 284.98 314.02 188.86 125.62 297.63 125.62 393.76" style="fill:#fff;opacity:0.7000000000000001"></polygon><polygon points="309.64 287.51 305.26 284.98 305.26 279.92 309.64 277.39 309.64 287.51" style="fill:#48A2C3"></polygon></g><g id="freepik--shadow--inject-2" style="opacity:0.2"><path d="M190.29,195.87l13.91,8a2.06,2.06,0,0,0,1.87,0l55.09-31.81c.52-.29.52-.78,0-1.08l-13.91-8a2.06,2.06,0,0,0-1.87,0l-55.09,31.8C189.77,195.09,189.77,195.58,190.29,195.87Z"></path></g><g id="freepik--Sheets--inject-2"><g style="opacity:0.2"><path d="M136.23,213.11,171,233.17a2.18,2.18,0,0,0,2,0l25.57-14.76a.6.6,0,0,0,0-1.13l-34.74-20.06a2.18,2.18,0,0,0-2,0L136.23,212A.6.6,0,0,0,136.23,213.11Z"></path></g><path d="M136.23,211.3,171,231.36a2.18,2.18,0,0,0,2,0L198.5,216.6a.6.6,0,0,0,0-1.13l-34.74-20.06a2.18,2.18,0,0,0-2,0l-25.57,14.76A.6.6,0,0,0,136.23,211.3Z" style="fill:#ebebeb"></path><path d="M161.8,195.41l-24.28,14L171,228.74a2.12,2.12,0,0,0,2,0l24.28-14-33.45-19.32A2.18,2.18,0,0,0,161.8,195.41Z" style="fill:#e0e0e0"></path><path d="M136.23,207.77,171,227.83a2.18,2.18,0,0,0,2,0l25.57-14.76a.6.6,0,0,0,0-1.13l-34.74-20.06a2.18,2.18,0,0,0-2,0l-25.57,14.76A.6.6,0,0,0,136.23,207.77Z" style="fill:#fafafa"></path></g><g id="freepik--shadow--inject-2" style="opacity:0.2"><path d="M76.76,249.21c3.77,2.17,3.77,5.7,0,7.87a15.06,15.06,0,0,1-13.62,0c-3.77-2.17-3.77-5.7,0-7.87A15.06,15.06,0,0,1,76.76,249.21Z"></path></g><g id="freepik--Pot--inject-2"><path d="M75.67,253.56c3-3.1,4.82-10.84,1.86-13.3H62.45c-3,2.46-1.18,10.2,1.85,13.3l.09.09.1.1.28.24.07.06.23.17a2.84,2.84,0,0,0,.39.25,10,10,0,0,0,9.05,0h0a4.25,4.25,0,0,0,.39-.25c.08-.05.14-.11.21-.16l.09-.07.27-.24.12-.11Z" style="fill:#ebebeb"></path><path d="M63.76,239.27c-3.44,2-3.44,5.21,0,7.2a13.81,13.81,0,0,0,12.46,0c3.44-2,3.44-5.21,0-7.2A13.75,13.75,0,0,0,63.76,239.27Z" style="fill:#fafafa"></path><path d="M66.2,240.68c-2.1,1.21-2.1,3.17,0,4.38a8.37,8.37,0,0,0,7.58,0c2.09-1.21,2.09-3.17,0-4.38A8.37,8.37,0,0,0,66.2,240.68Z" style="fill:#ebebeb"></path><path d="M73.78,242.76a8.37,8.37,0,0,0-7.58,0,3.47,3.47,0,0,0-1.26,1.15,3.56,3.56,0,0,0,1.26,1.15,8.37,8.37,0,0,0,7.58,0A3.52,3.52,0,0,0,75,243.91,3.43,3.43,0,0,0,73.78,242.76Z" style="fill:#e0e0e0"></path><path d="M71.36,244.38A11.17,11.17,0,0,0,76,238.51c1.39-4.07.57-9-.67-11-1.69-2.75-5.79-2.44-4.57,2.15s2,9.59,0,12.92Z" style="fill:#48A2C3"></path><g style="opacity:0.2"><path d="M71.36,244.38A11.17,11.17,0,0,0,76,238.51c1.39-4.07.57-9-.67-11-1.69-2.75-5.79-2.44-4.57,2.15s2,9.59,0,12.92Z"></path></g><path d="M71.5,243.55a.21.21,0,0,1-.13-.05.19.19,0,0,1,0-.26,13.39,13.39,0,0,0,3.43-10,11.38,11.38,0,0,0-1.91-6.13.19.19,0,0,1,0-.26.18.18,0,0,1,.26,0c.62.53,1.83,3.13,2,6.39a13.79,13.79,0,0,1-3.52,10.27A.2.2,0,0,1,71.5,243.55Z" style="fill:#fff"></path><path d="M67.84,244.38a1.78,1.78,0,0,0-.75-1,6.7,6.7,0,0,0-1.35-.58c-.81-.3-1.85-.73-2-1.71a2.81,2.81,0,0,1,.13-1,2.27,2.27,0,0,0,.14-1.42c-.18-.44-.64-.67-1-.93a3.47,3.47,0,0,1-1.09-1,2.18,2.18,0,0,1-.32-1.26c.08-.91.95-1.51,1-2.42,0-1.31-3-3.1-1.4-4.34,2.1-1.59,5.39.25,6.34,1.6s.94,2,2.66,3.11c1.43,1,3.12,1.15,3.12,3s-2.41,2-.52,4.08c1.14,1.28-.74,2.38-1.42,3.89A3.11,3.11,0,0,1,67.84,244.38Z" style="fill:#48A2C3"></path><path d="M69.74,244.93h0a.18.18,0,0,1-.18-.2c.41-10.88-5.13-14.71-6.24-15a.19.19,0,0,1,.1-.36c1.87.51,6.9,5.11,6.51,15.39A.19.19,0,0,1,69.74,244.93Z" style="fill:#fff"></path><path d="M68.66,236.81a.21.21,0,0,1-.12-.05c-1.61-1.42-4.75-1.38-4.78-1.38a.19.19,0,0,1,0-.37c.14,0,3.32,0,5,1.47a.2.2,0,0,1,0,.27A.18.18,0,0,1,68.66,236.81Z" style="fill:#fff"></path></g><g id="freepik--Document--inject-2"><g style="opacity:0.2"><path d="M166.51,261.59c.07.12,0,.25-.14.34l-32.79,18.94a.78.78,0,0,1-.41.09.66.66,0,0,1-.4-.09L87,254.44a.38.38,0,0,1-.15-.16.2.2,0,0,1,0-.23l0,0,.06,0L119.77,235a.85.85,0,0,1,.82,0l45.78,26.43,0,0h0s.08.05.1.09Z"></path></g><g id="freepik--List--inject-2"><path d="M88.52,252.12v.79a.87.87,0,0,0,.39.67l43.93,25.36a.83.83,0,0,0,.78,0l31.46-18.16a.86.86,0,0,0,.39-.68v-.79a.86.86,0,0,0-.39-.68l-43.92-25.36a.89.89,0,0,0-.78,0L88.91,251.44A.88.88,0,0,0,88.52,252.12Z" style="fill:#48A2C3"></path><path d="M165.13,258.67c.16.12.15.3,0,.41l-31.46,18.17a.83.83,0,0,1-.39.09V279a1,1,0,0,0,.39-.1l31.46-18.16a.86.86,0,0,0,.39-.68v-.79A.87.87,0,0,0,165.13,258.67Z" style="fill:#fff;opacity:0.4"></path><path d="M88.85,251.48l0,0,0,0h0l-.05.05h0a.86.86,0,0,0-.2.42s0,.06,0,.1v.79a.86.86,0,0,0,.39.67l43.93,25.36a.81.81,0,0,0,.39.1v-1.7a.78.78,0,0,1-.39-.09L88.91,251.89a.43.43,0,0,1-.15-.15.23.23,0,0,1,0-.22Z" style="opacity:0.15"></path><path d="M100.42,240.88c0,.71,1,1.45,1.25,2.08a.52.52,0,0,1,.06.16c-.13.45-.55.76-.63,1.06a.71.71,0,0,0,0,.2v.6a3.7,3.7,0,0,0,.06.41,3.31,3.31,0,0,1-.1.44,2.44,2.44,0,0,0-.15.74c0,.11,0,.49,0,.58a.54.54,0,0,0,.3.54l1.76,1,13.19-7.61v-.58l-1.76-1a1.52,1.52,0,0,0-.89-.17h-.12c-.29,0-.68,0-1.2.08a10.9,10.9,0,0,1-2,0l-.51,0a2.3,2.3,0,0,0-.36,0,8.62,8.62,0,0,1-3.08.34h0a25.6,25.6,0,0,0-3.59-.73h-.12a2.9,2.9,0,0,0-1.39.38c-.48.27-.65.56-.65.86C100.41,240.39,100.42,240.79,100.42,240.88Zm2,.41a.71.71,0,0,1,.31-.31,1.64,1.64,0,0,1,.33-.14,3.41,3.41,0,0,1,2.42.36,1.76,1.76,0,0,1,.71.7.85.85,0,0,1-.32.3,2.64,2.64,0,0,1-1.79.14,3.46,3.46,0,0,1-1-.36A1.71,1.71,0,0,1,102.42,241.29Z" style="fill:#263238"></path><path d="M113.47,239.32h-.12c-.29,0-.68,0-1.2.08a10.9,10.9,0,0,1-2,0l-.51,0a2.3,2.3,0,0,0-.36,0,8.62,8.62,0,0,1-3.08.34h0a25.6,25.6,0,0,0-3.59-.73h-.12a2.9,2.9,0,0,0-1.39.38c-1.61.93.22,2,.6,2.94s-.44,1.36-.57,1.81.22.68-.08,1.65-.07,1.14.15,1.27l1.76,1,13.19-7.61-1.76-1A1.52,1.52,0,0,0,113.47,239.32Zm-9.88,7.41a.83.83,0,0,1-.73-.06c-.23-.13-.28-.32-.11-.42a.83.83,0,0,1,.73.06C103.71,246.44,103.76,246.63,103.59,246.73Zm2.28-4.53a2.64,2.64,0,0,1-1.79.14,3.46,3.46,0,0,1-1-.36c-.86-.5-1-1.21-.39-1.59a2.52,2.52,0,0,1,.33-.14,3.42,3.42,0,0,1,2.42.37C106.34,241.12,106.52,241.83,105.87,242.2Zm7.89-1.34a.83.83,0,0,1-.73-.06c-.23-.14-.27-.32-.1-.42a.83.83,0,0,1,.73.06C113.88,240.57,113.93,240.76,113.76,240.86Z" style="fill:#37474f"></path><path d="M132,274.49l27.38-15.81a.49.49,0,0,0,.23-.4V258a.49.49,0,0,0-.23-.4l-36.18-20.89a.55.55,0,0,0-.47,0L95.36,252.49a.49.49,0,0,0-.23.4v.31a.49.49,0,0,0,.23.4l36.18,20.89A.55.55,0,0,0,132,274.49Z" style="fill:#f5f5f5"></path><polygon points="141.68 262.68 151.14 257.22 151.48 257.42 142.03 262.88 141.68 262.68" style="fill:#e0e0e0"></polygon><polygon points="130.34 269.23 139.79 263.77 140.13 263.97 130.68 269.43 130.34 269.23" style="fill:#e0e0e0"></polygon><path d="M159.44,257.61c.07.07.05.16-.05.23L132,273.64a.48.48,0,0,1-.24.06v.84a.39.39,0,0,0,.24-.05l27.38-15.81a.49.49,0,0,0,.23-.4V258A.47.47,0,0,0,159.44,257.61Z" style="fill:#fafafa"></path><path d="M95.32,252.52a.23.23,0,0,0-.07.07l0,0a.75.75,0,0,0-.06.13l0,.09v.36a.49.49,0,0,0,.23.4l36.18,20.89a.36.36,0,0,0,.23.05v-.84a.44.44,0,0,1-.23-.06L95.36,252.76C95.25,252.69,95.24,252.6,95.32,252.52Z" style="fill:#e0e0e0"></path><path d="M133.92,265c-.09.1,0,.23.1.33a1.52,1.52,0,0,1-.1.47.6.6,0,0,1-.22.32c-.13.07-.31,0-.41-.09s-.11,0-.12,0,0,.11,0,.17a.36.36,0,0,1-.15-.1.56.56,0,0,0-.19-.09s-.1,0-.11,0,0,.16,0,.24.07.19,0,.28-.21,0-.24-.09a1.88,1.88,0,0,1-.18-.24s-.14,0-.13,0a2.17,2.17,0,0,1,0,.36,2.13,2.13,0,0,1-.11.5c0,.06-.1.28-.25.27a.21.21,0,0,1-.17-.11l0-.15a1.19,1.19,0,0,0,0-.77.43.43,0,0,0-.13-.14.17.17,0,0,0-.12,0,.29.29,0,0,0-.13.32c0,.1,0,.21.06.31a2,2,0,0,0,.08.33l.06.11a1,1,0,0,1-.21.45c-.11.14-.46.41-.74.23a.9.9,0,0,1-.34-.52s0-.11,0-.16a2.37,2.37,0,0,0,.36-.45,1.71,1.71,0,0,0,.13-.44,1.14,1.14,0,0,0,0-.55.21.21,0,0,0-.14-.14.33.33,0,0,0-.26,0,.49.49,0,0,0-.23.38,4.63,4.63,0,0,0-.07.52,2.33,2.33,0,0,0,.08.69,2.26,2.26,0,0,1-.51.38s0,0,0,0a2.9,2.9,0,0,0,.49-.35h0a1,1,0,0,0,.33.57.49.49,0,0,0,.32.12.88.88,0,0,0,.45-.11.89.89,0,0,0,.45-.58l.06,0a.38.38,0,0,0,.46-.14,1.2,1.2,0,0,0,.18-.53l0-.28.08.08a.36.36,0,0,0,.39.09c.12-.06.08-.19.06-.27s0-.12,0-.18,0,0,0-.07.18.18.39.17l.06,0a.28.28,0,0,0,0-.13.55.55,0,0,0,.38.07.48.48,0,0,0,.34-.3,1.29,1.29,0,0,0,.12-.38l.21.34a6.14,6.14,0,0,1,.49,1.12l.23.63s.15,0,.13,0a9.43,9.43,0,0,0-.51-1.4,5.36,5.36,0,0,0-.4-.69l-.13-.21a.6.6,0,0,0-.1-.31S133.94,264.94,133.92,265Zm-3.81,1.88a2.8,2.8,0,0,1,0-.5,1.76,1.76,0,0,1,.06-.39.34.34,0,0,1,.28-.26.11.11,0,0,1,.14.09.85.85,0,0,1,0,.5,2.14,2.14,0,0,1-.13.48,1.74,1.74,0,0,1-.32.42A1.86,1.86,0,0,1,130.11,266.84Zm1.43,0-.06-.29a.34.34,0,0,1,0-.31.48.48,0,0,1,.1.29,1.63,1.63,0,0,1,0,.38V267Z" style="fill:#37474f"></path><path d="M137,263.11s-.12,0-.12,0,0,.07.07.1h0a.36.36,0,0,1,0,.17,1.54,1.54,0,0,1,0,.31l0,.14,0,.06v0a.26.26,0,0,1-.12-.05l-.18-.06s-.12,0-.12,0a.61.61,0,0,1,0,.3s0,.05-.05.05-.1-.05-.12-.06a.48.48,0,0,0-.17-.1s-.1,0-.1,0a.57.57,0,0,0,0,.18s.06.17,0,.2-.12-.06-.18-.14a.22.22,0,0,0-.12-.23s-.11,0-.11,0a.39.39,0,0,0,.09.21h0a1.37,1.37,0,0,1,0,.28.74.74,0,0,1-.26.42A.33.33,0,0,1,135,265a.89.89,0,0,0,0-.56,1.3,1.3,0,0,0-.69-.81.09.09,0,0,0-.09,0c-.1.06-.08.15-.07.22a1.21,1.21,0,0,0,.11.3,3.59,3.59,0,0,0,.38.64,1.36,1.36,0,0,0,.27.27.86.86,0,0,1-.11.24s0,0,.05,0A1.2,1.2,0,0,0,135,265a.51.51,0,0,0,.4,0,.56.56,0,0,0,.36-.43.86.86,0,0,0,.06-.23.32.32,0,0,0,.22.07c.21,0,.15-.22.11-.35a.6.6,0,0,0,.13.09.26.26,0,0,0,.24,0,.18.18,0,0,0,.07-.17.13.13,0,1,1,.24-.05c.18,0,.21-.13.22-.21a2.17,2.17,0,0,0,.07-.35v-.06h0a2.89,2.89,0,0,1,.29.32,2.79,2.79,0,0,1,.32.47.91.91,0,0,0-.43.21c-.15.14-.34.48.07.54a.49.49,0,0,0,.59-.38.77.77,0,0,0-.06-.33,1.37,1.37,0,0,1,.35,0c.08,0,.12-.06,0-.07a2,2,0,0,0-.42,0,1.4,1.4,0,0,0-.16-.26,4.39,4.39,0,0,0-.28-.36l-.22-.22-.11-.08A.35.35,0,0,0,137,263.11Zm-2.23,1.57a3.2,3.2,0,0,1-.33-.55,2.28,2.28,0,0,1-.13-.28c0-.06-.05-.15,0-.21a1.28,1.28,0,0,1,.62.74,1.11,1.11,0,0,1,0,.51A1.17,1.17,0,0,1,134.76,264.68Zm2.93.1a.36.36,0,0,1-.36,0c-.11-.08-.05-.22,0-.31a.68.68,0,0,1,.42-.27A.43.43,0,0,1,137.69,264.78Z" style="fill:#37474f"></path><path d="M142.43,260.43c-.06,0-.07.1-.08.14a2.29,2.29,0,0,0-.07.36.62.62,0,0,0-.2-.11.11.11,0,0,0-.1,0,.33.33,0,0,0-.11.13.35.35,0,0,0-.36-.13.39.39,0,0,0-.3.3,1.24,1.24,0,0,0,0,.16c-.06-.14-.11-.28-.16-.42a1.89,1.89,0,0,0-.34-.7.54.54,0,0,0-.62-.19.61.61,0,0,0-.23.22.86.86,0,0,0-.14.29.78.78,0,0,0,0,.16l-.33-.17s-.1,0-.06,0l.38.21a1.71,1.71,0,0,0,0,.45,1.57,1.57,0,0,0,.13.47.3.3,0,0,0,.14.13.26.26,0,0,0,.21,0c.24-.17.16-.44.05-.64a1,1,0,0,0-.43-.36.85.85,0,0,1,.28-.64.22.22,0,0,1,.33,0,1.42,1.42,0,0,1,.21.22,2.33,2.33,0,0,1,.27.61,4.54,4.54,0,0,0,.24.61l0,.06a.73.73,0,0,0,.09.55s.12,0,.13,0a.76.76,0,0,0-.08-.55v0a1.63,1.63,0,0,1,.08-.43.29.29,0,0,1,.16-.19.15.15,0,0,1,.17.05.7.7,0,0,1,.17.25l0,.09s.15,0,.14,0,0,0,0-.06a.68.68,0,0,1,0-.14.25.25,0,0,1,.06-.18c.15.07.2.2.28.29s.16,0,.14,0a.72.72,0,0,1,0-.54s0-.09,0-.14a.34.34,0,0,1,.08.14c0,.1.05.2.08.3l.13.31a5,5,0,0,0,.34.59,2.2,2.2,0,0,0,.54.61s.12,0,.09,0a6.38,6.38,0,0,1-.53-.66,4.44,4.44,0,0,1-.38-.71,2.35,2.35,0,0,1-.11-.35.39.39,0,0,0-.13-.27A.18.18,0,0,0,142.43,260.43ZM140,261a.56.56,0,0,1,.18.59.34.34,0,0,1-.09.12l0,0h0c-.06,0-.08-.09-.1-.12a1.91,1.91,0,0,1-.11-.41,2.33,2.33,0,0,1,0-.38A1.56,1.56,0,0,1,140,261Z" style="fill:#37474f"></path><path d="M146,259.31a.89.89,0,0,0-.43,0,1.37,1.37,0,0,0-.18-.16,2.66,2.66,0,0,0-.45-.29s-.16,0-.14,0a1.23,1.23,0,0,1,.13.41.39.39,0,0,1,0,.21c0,.06-.13,0-.19,0s-.11,0-.12,0,0,.14,0,.15-.17-.08-.21-.09-.09,0-.09,0,.05.14,0,.19l-.16-.09s-.13,0-.11,0a.58.58,0,0,1,.05.14s.06.14,0,.17,0,0-.07,0l-.08-.06a.48.48,0,0,0-.16-.08s-.09,0-.09,0a.9.9,0,0,0,0,.23.57.57,0,0,1,0,.13.12.12,0,0,1-.06.11c-.16.06-.4-.37-.44-.43s-.12,0-.11,0a2.55,2.55,0,0,1,.14.35c0,.12,0,.29-.18.34,0,0,0,0,0,0,.24,0,.27-.19.25-.32a.43.43,0,0,0,0-.05.4.4,0,0,0,.34.14.19.19,0,0,0,.16-.22,2,2,0,0,0,0-.24c.1.07.21.17.35.11s.08-.1.07-.16a.29.29,0,0,0,0-.09l.06,0a.1.1,0,0,0,.09,0c.1,0,.09-.11.07-.18a.23.23,0,0,0,.22,0,.1.1,0,0,0,.08-.13.39.39,0,0,0,.24,0,.2.2,0,0,0,.1-.2A.82.82,0,0,0,145,259l.17.12a1.22,1.22,0,0,1,.27.23.35.35,0,0,0-.12.07c-.1.08-.12.24.11.26s.27-.13.24-.22a.27.27,0,0,0-.06-.1.72.72,0,0,1,.33,0C146,259.38,146.1,259.32,146,259.31Zm-.47.29a.06.06,0,0,1-.12,0c0-.06,0-.11.09-.15h0A.15.15,0,0,1,145.53,259.6Z" style="fill:#37474f"></path><path d="M146.08,256.51c.06.2.14.4.19.6s.09.41.12.62,0,.41.07.62h0c-.11-.13-.2-.27-.33-.4a2,2,0,0,0-.5-.36.65.65,0,0,0-.51,0,.44.44,0,0,0-.18.14h-.22a.57.57,0,0,1-.23,0s-.09,0-.06,0,.32.05.46.07h0a.76.76,0,0,0-.09.18.5.5,0,0,0,.06.41.51.51,0,0,0,.38.18.33.33,0,0,0,.34-.26c0-.16-.11-.34-.32-.45a1,1,0,0,0-.21-.08.27.27,0,0,1,.12-.09.4.4,0,0,1,.43,0,2.22,2.22,0,0,1,.43.34,4.82,4.82,0,0,1,.35.44l.11.15v0c0,.08,0,.16.1.21s.12,0,.12,0a.34.34,0,0,0-.08-.23h0c0-.11,0-.21-.06-.32s0-.4-.06-.6a2.6,2.6,0,0,0-.35-1.16S146.07,256.48,146.08,256.51Zm-.67,1.54a.25.25,0,0,1-.06.37.27.27,0,0,1-.35-.11.46.46,0,0,1-.06-.34.59.59,0,0,1,.09-.2A.72.72,0,0,1,145.41,258.05Z" style="fill:#37474f"></path><path d="M150.4,256.92a3.88,3.88,0,0,0-.82-1s-.15,0-.14,0,.17.34.15.51a.2.2,0,0,1-.06.14.69.69,0,0,1-.15.07.13.13,0,0,0-.07.1l-.17-.11s-.13,0-.13,0a.71.71,0,0,0,0,.2s0,.12,0,.17a1.41,1.41,0,0,1-.28-.26.11.11,0,0,0-.14,0c0,.08,0,.19,0,.27a1,1,0,0,1,0,.17s0,.1,0,.11,0,0,0,0l-.06-.05a.51.51,0,0,1-.09-.16.74.74,0,0,1-.08-.29s-.14,0-.14,0a6.91,6.91,0,0,1,0,.79.77.77,0,0,1-.16.39.66.66,0,0,1-.17.16.83.83,0,0,1-.3.13c-.1,0-.12-.09-.13-.13l-.06-.23s0-.09,0-.13a.72.72,0,0,0,.33-.76c0-.07-.07-.24-.26-.18a.16.16,0,0,0-.1.12.48.48,0,0,0,0,.2c0,.17-.06.33-.07.5v.12l-.11.08s0,0,.09,0h0s0,.07,0,.11a1.21,1.21,0,0,0,.08.25c.09.16.35.1.52,0a.94.94,0,0,0,.41-.37,1.18,1.18,0,0,0,.1-.61l.07.06a.27.27,0,0,0,.3,0c.09-.07.06-.18.06-.26s0-.1,0-.14a1,1,0,0,0,.22.16h.1a.17.17,0,0,0,.12-.19,1,1,0,0,0,0-.16.45.45,0,0,0,.18.1s.12,0,.12,0,0-.1,0-.14.11,0,.15-.07a.23.23,0,0,0,.12-.22.68.68,0,0,0-.07-.27,3.82,3.82,0,0,1,.47.63l.12.18a.89.89,0,0,0-.44.32.58.58,0,0,0-.13.3.4.4,0,0,0,.11.35.61.61,0,0,0,.54.08.48.48,0,0,0,.33-.3.87.87,0,0,0-.23-.71h.16c.06,0,.09,0,0-.05A.91.91,0,0,0,150.4,256.92Zm-3,.44c0-.11,0-.21,0-.32s0-.05,0-.07l0-.06v0a.16.16,0,0,1,0,.07.73.73,0,0,1,0,.36.69.69,0,0,1-.2.32A1.65,1.65,0,0,1,147.38,257.36Zm3.13,0a.44.44,0,0,1,0,.32.4.4,0,0,1-.36.23.3.3,0,0,1-.32-.3.37.37,0,0,1,0-.23.7.7,0,0,1,.43-.41A1.44,1.44,0,0,1,150.51,257.4Z" style="fill:#37474f"></path><path d="M125.53,241.5l.32.18a.19.19,0,0,1,0,.36l-22,12.69a.7.7,0,0,1-.63,0l-.31-.18c-.18-.1-.18-.26,0-.36l22-12.69A.7.7,0,0,1,125.53,241.5Z" style="fill:#e0e0e0"></path><path d="M127.45,242.61l.32.18a.19.19,0,0,1,0,.36l-22,12.69a.7.7,0,0,1-.63,0l-.31-.18c-.18-.1-.18-.26,0-.36l22-12.69A.68.68,0,0,1,127.45,242.61Z" style="fill:#e0e0e0"></path><path d="M129.36,243.71l.32.18a.19.19,0,0,1,0,.36l-22,12.7a.77.77,0,0,1-.63,0l-.31-.19c-.18-.1-.18-.26,0-.36l22-12.69A.68.68,0,0,1,129.36,243.71Z" style="fill:#e0e0e0"></path><path d="M133.59,246.15l.32.19a.19.19,0,0,1,0,.36l-22,12.69a.68.68,0,0,1-.62,0l-.32-.19c-.18-.1-.18-.26,0-.36l22-12.69A.68.68,0,0,1,133.59,246.15Z" style="fill:#e0e0e0"></path><path d="M135.51,247.26l.32.19a.19.19,0,0,1,0,.36l-22,12.69a.68.68,0,0,1-.62,0l-.32-.19c-.18-.1-.18-.26,0-.36l22-12.69A.68.68,0,0,1,135.51,247.26Z" style="fill:#e0e0e0"></path><path d="M137.42,248.36l.32.19a.19.19,0,0,1,0,.36l-22,12.69a.68.68,0,0,1-.62,0l-.32-.18a.19.19,0,0,1,0-.37l22-12.69A.68.68,0,0,1,137.42,248.36Z" style="fill:#e0e0e0"></path><path d="M141.65,250.81l.32.18a.19.19,0,0,1,0,.36L120,264a.68.68,0,0,1-.62,0l-.32-.18a.19.19,0,0,1,0-.36l22-12.69A.68.68,0,0,1,141.65,250.81Z" style="fill:#e0e0e0"></path><path d="M143.57,251.92l.32.18a.19.19,0,0,1,0,.36l-22,12.69a.68.68,0,0,1-.62,0L121,265a.19.19,0,0,1,0-.36l22-12.69A.68.68,0,0,1,143.57,251.92Z" style="fill:#e0e0e0"></path><path d="M145.48,253l.32.18a.19.19,0,0,1,0,.36l-22,12.69a.68.68,0,0,1-.62,0l-.32-.18a.19.19,0,0,1,0-.36l22-12.69A.68.68,0,0,1,145.48,253Z" style="fill:#e0e0e0"></path><path d="M104.64,248.7c0,.1,0,.5,0,.59a1.31,1.31,0,0,0,.3.81l16.14-9.31v-.59a3.55,3.55,0,0,0-1.58-.39h0a2.6,2.6,0,0,0-1.07.22c-1.17.53-1.51.7-2.23,1a1.18,1.18,0,0,1-1.1-.16l0,0-.48-.44-1.31-1.21a.79.79,0,0,0-.62-.2h0l-.31,0a4.34,4.34,0,0,1-1.34,0,2.9,2.9,0,0,1-1.45-.55,3.38,3.38,0,0,0-2.25-.8h-.07a3.24,3.24,0,0,0-1.48.36,2.14,2.14,0,0,0-.42,3.24,1.25,1.25,0,0,1,.36.69,1.61,1.61,0,0,1-.31.75.6.6,0,0,0-.18.39v.59a.37.37,0,0,0,.15.29l1.51,1.39.48.44.05.06a.75.75,0,0,1-.11.15l-2,1.53A1.66,1.66,0,0,0,104.64,248.7Zm4.31-8.84a1.1,1.1,0,0,1-.56.59,2.22,2.22,0,0,1-1.7.1,1.71,1.71,0,0,1-.64-.37,1.08,1.08,0,0,1-.31-.45,1.1,1.1,0,0,1,.57-.6l.22-.1a2.2,2.2,0,0,1,2.11.37A1.1,1.1,0,0,1,109,239.86Z" style="fill:#37474f"></path><path d="M119.51,239.81h0a2.6,2.6,0,0,0-1.07.22c-1.17.53-1.51.7-2.23,1a1.18,1.18,0,0,1-1.1-.16l0,0-.48-.44-1.31-1.21a.79.79,0,0,0-.62-.2h0l-.31,0a4.34,4.34,0,0,1-1.34,0,2.9,2.9,0,0,1-1.45-.55,3.38,3.38,0,0,0-2.25-.8h-.07a3.24,3.24,0,0,0-1.48.36,1.54,1.54,0,0,0-.42,2.66,1.6,1.6,0,0,1,0,2c-.38.44,0,.69,0,.69l1.51,1.38.48.44c.36.34-.06.8-.06.8l-2,1.53c-.84.76-.8,1.37-.36,2l16.14-9.31A3.55,3.55,0,0,0,119.51,239.81Zm-10.87-1a1,1,0,0,1-.25,1.63,2.22,2.22,0,0,1-1.7.1,1.71,1.71,0,0,1-.64-.37.94.94,0,0,1,.26-1.63.88.88,0,0,1,.22-.1A2.18,2.18,0,0,1,108.64,238.82Z" style="fill:#455a64"></path></g></g><g id="freepik--Pen--inject-2"><path d="M143.47,241.12l23.89,13.81,4.08.83a.13.13,0,0,0,.14-.19l-1.28-2.34-23.9-13.81C145.6,239,142.83,240.76,143.47,241.12Z" style="opacity:0.2"></path><g id="freepik--pen--inject-2"><path d="M146.1,237.11l.11,0L146,237l-.05,0h0l0,0h-.2a1,1,0,0,0-.49.15,2.43,2.43,0,0,0-1.09,1.89,1.27,1.27,0,0,0,0,.28v.07s0,0,0,0a.46.46,0,0,0,.09.17l0,0h0l0,0,0,0,0,0h0l.26.15a.47.47,0,0,1-.12-.09.9.9,0,0,0,.63-.13,2.42,2.42,0,0,0,1.1-1.9A.94.94,0,0,0,146.1,237.11Zm-1.62,2.62h0Z" style="fill:#48A2C3"></path><path d="M169,250.33,167.49,253l-.26-.15-22.54-13a.47.47,0,0,1-.12-.09.9.9,0,0,1-.2-.62,2.41,2.41,0,0,1,1.1-1.89,1,1,0,0,1,.49-.15h.14l.11,0h0Z" style="fill:#f0f0f0"></path><path d="M168.26,250.41c.61-.35,1.1-.07,1.1.63a2.42,2.42,0,0,1-1.1,1.9c-.6.35-1.09.06-1.09-.64A2.43,2.43,0,0,1,168.26,250.41Z" style="fill:#48A2C3"></path><path d="M170.62,252l0,0-1.4-1.53h0l0,0h0a.71.71,0,0,0-.88,0,2.43,2.43,0,0,0-1.09,1.89.73.73,0,0,0,.42.76h0l.08,0h0l2,.45a.54.54,0,0,0,.35-.08,1.4,1.4,0,0,0,.62-1.08A.5.5,0,0,0,170.62,252Z" style="fill:#e0e0e0"></path><path d="M152.72,242.07h0l0,0a.26.26,0,0,0-.25,0,.83.83,0,0,0-.39.67.3.3,0,0,0,.09.24h0l0,0,16.64,9.61,1.1-.63Z" style="fill:#455a64"></path><path d="M167.27,251.73l1.54.89,1.1-.63-2.1-1.21A2.64,2.64,0,0,0,167.27,251.73Z" style="fill:#37474f"></path><path d="M171.17,252.77h0l-1.27-1.39,0,0a.5.5,0,0,0-.63,0,1.71,1.71,0,0,0-.77,1.34.52.52,0,0,0,.29.53h0l.05,0,1.86.4h0a.32.32,0,0,0,.2,0,.81.81,0,0,0,.35-.61A.28.28,0,0,0,171.17,252.77Z" style="fill:#48A2C3"></path><path d="M171.17,252.77h0l-1.27-1.39,0,0a.5.5,0,0,0-.63,0,1.71,1.71,0,0,0-.77,1.34.52.52,0,0,0,.29.53h0l.05,0,1.86.4h0a.32.32,0,0,0,.2,0,.81.81,0,0,0,.35-.61A.28.28,0,0,0,171.17,252.77Z" style="opacity:0.1"></path><path d="M171.24,253a.81.81,0,0,1-.35.61.32.32,0,0,1-.2,0h0l-.94-.2a.37.37,0,0,1-.25-.4,1.25,1.25,0,0,1,.56-1,.38.38,0,0,1,.46,0l0,0,.63.69h0A.28.28,0,0,1,171.24,253Z" style="fill:#48A2C3"></path><ellipse cx="170.89" cy="253.17" rx="0.5" ry="0.29" transform="translate(-133.81 274.55) rotate(-60)" style="opacity:0.1"></ellipse><path d="M148.58,239.67a.29.29,0,0,0-.28,0,.85.85,0,0,0-.38.67.26.26,0,0,0,.11.25h0l4.1,2.37a.3.3,0,0,1-.09-.24.83.83,0,0,1,.39-.67.26.26,0,0,1,.25,0Z" style="fill:#fafafa"></path><path d="M148.69,239.92a.83.83,0,0,1-.39.67.25.25,0,0,1-.27,0,.26.26,0,0,1-.11-.25.85.85,0,0,1,.38-.67.29.29,0,0,1,.28,0A.27.27,0,0,1,148.69,239.92Z" style="fill:#f5f5f5"></path><path d="M147.83,238.27h0l-1.62-.93,0,0h0a.7.7,0,0,0-.67.08,2.18,2.18,0,0,0-1,1.71.68.68,0,0,0,.29.64h0l1.64.94h0a.69.69,0,0,0,.68-.07,2.21,2.21,0,0,0,1-1.71A.7.7,0,0,0,147.83,238.27Z" style="fill:#48A2C3"></path><path d="M147.83,238.27h0l-1.62-.93,0,0h0a.7.7,0,0,0-.67.08,2.18,2.18,0,0,0-1,1.71.68.68,0,0,0,.29.64h0l1.64.94h0a.69.69,0,0,0,.68-.07,2.21,2.21,0,0,0,1-1.71A.7.7,0,0,0,147.83,238.27Z" style="opacity:0.05"></path><path d="M147.11,238.32c.54-.31,1-.06,1,.57a2.21,2.21,0,0,1-1,1.71c-.54.31-1,.06-1-.57A2.21,2.21,0,0,1,147.11,238.32Z" style="opacity:0.1"></path><path d="M171.69,253.35h0L171,253h0a.12.12,0,0,0-.13,0,.4.4,0,0,0-.18.31.14.14,0,0,0,0,.12h0l.66.4h0a.28.28,0,0,0,.13,0,.26.26,0,0,0,.26-.26A.27.27,0,0,0,171.69,253.35Z" style="fill:#455a64"></path><path d="M171.72,253.38h0l0,0h0a.17.17,0,0,0-.12,0,.4.4,0,0,0-.18.31.14.14,0,0,0,.05.12h0l.08,0a.26.26,0,0,0,.17-.45Z" style="fill:#263238"></path></g></g><path id="freepik--shadow--inject-2" d="M228.75,223.86l55.51-32.05a2.42,2.42,0,0,1,2.19,0l1.93,1.11a.67.67,0,0,1,0,1.27l-55.51,32.05a2.42,2.42,0,0,1-2.19,0l-1.93-1.12A.67.67,0,0,1,228.75,223.86Z" style="opacity:0.2"></path><g id="freepik--Device--inject-2"><path d="M192,193.22v-.38a2,2,0,0,1,.94-1.61L248,159.42a2.06,2.06,0,0,1,1.87,0l11.27,6.51a2.06,2.06,0,0,1,.94,1.62v.37a2.06,2.06,0,0,1-.94,1.62l-55.09,31.8a2.06,2.06,0,0,1-1.87,0l-11.27-6.51A2,2,0,0,1,192,193.22Z" style="fill:#48A2C3"></path><g style="opacity:0.5"><path d="M192,193.22v-.38a2,2,0,0,1,.94-1.61L248,159.42a2.06,2.06,0,0,1,1.87,0l11.27,6.51a2.06,2.06,0,0,1,.94,1.62v.37a2.06,2.06,0,0,1-.94,1.62l-55.09,31.8a2.06,2.06,0,0,1-1.87,0l-11.27-6.51A2,2,0,0,1,192,193.22Z"></path></g><path d="M192.93,192.31l11.27,6.51a2.09,2.09,0,0,0,1.87,0L261.16,167a.57.57,0,0,0,0-1.08l-11.27-6.51a2.06,2.06,0,0,0-1.87,0l-55.09,31.81C192.41,191.52,192.41,192,192.93,192.31Z" style="fill:#48A2C3"></path><g style="opacity:0.2"><path d="M192.93,192.31l11.27,6.51a2.09,2.09,0,0,0,1.87,0L261.16,167a.57.57,0,0,0,0-1.08l-11.27-6.51a2.06,2.06,0,0,0-1.87,0l-55.09,31.81C192.41,191.52,192.41,192,192.93,192.31Z"></path></g><path d="M284.09,179,288,131.22a4.51,4.51,0,0,0-2-4,5,5,0,0,0-4.53.08l-52.36,30.23a5.79,5.79,0,0,0-2.56,4l-3.94,47.81a4.51,4.51,0,0,0,2,4,5,5,0,0,0,4.53-.09l52.36-30.22A5.82,5.82,0,0,0,284.09,179Z" style="fill:#48A2C3"></path><path d="M284.09,179,288,131.22a4.51,4.51,0,0,0-2-4,5,5,0,0,0-4.53.08l-52.36,30.23a5.79,5.79,0,0,0-2.56,4l-3.94,47.81a4.51,4.51,0,0,0,2,4,5,5,0,0,0,4.53-.09l52.36-30.22A5.82,5.82,0,0,0,284.09,179Z" style="opacity:0.5"></path><path d="M284.09,179,288,131.22a4.51,4.51,0,0,0-2-4,5,5,0,0,0-4.53.08l-52.36,30.23a5.27,5.27,0,0,0-1.7,1.72l8.14,4.7v45.59l45.92-26.51A5.82,5.82,0,0,0,284.09,179Z" style="fill:#48A2C3"></path><path d="M284.09,179,288,131.22a4.51,4.51,0,0,0-2-4,5,5,0,0,0-4.53.08l-52.36,30.23a5.27,5.27,0,0,0-1.7,1.72l8.14,4.7v45.59l45.92-26.51A5.82,5.82,0,0,0,284.09,179Z" style="opacity:0.2"></path><path d="M227.06,212,231,164.14a5.79,5.79,0,0,1,2.56-4l52.35-30.22c1.3-.75,2.24-.15,2.12,1.34L284.09,179a5.82,5.82,0,0,1-2.56,4l-52.36,30.22C227.88,214,226.93,213.44,227.06,212Z" style="fill:#48A2C3"></path><path d="M227.06,212,231,164.14a5.79,5.79,0,0,1,2.56-4l52.35-30.22c1.3-.75,2.24-.15,2.12,1.34L284.09,179a5.82,5.82,0,0,1-2.56,4l-52.36,30.22C227.88,214,226.93,213.44,227.06,212Z" style="opacity:0.35000000000000003"></path><path d="M254.08,173.59a9.07,9.07,0,0,1,3.83-6.44c1.91-1.11,3.3,0,3.1,2.43a9.08,9.08,0,0,1-3.83,6.44C255.26,177.13,253.88,176,254.08,173.59Z" style="fill:#48A2C3"></path><polygon points="255.31 188.05 268.18 180.57 265.99 179.3 253.12 186.78 255.31 188.05" style="fill:#48A2C3"></polygon><g style="opacity:0.2"><polygon points="255.31 188.05 268.18 180.57 265.99 179.3 253.12 186.78 255.31 188.05"></polygon></g><path d="M274.15,202.51l-15.67,9.06a2,2,0,0,1-1,.22,2,2,0,0,1-.86-.21h0l-6.9-4,0,0a2,2,0,0,1-.9-1.6v-.37c0-.59.41-.84.93-.54l4.17,2.4.93.54-.21-1.06-1.47-20.14,2.19,1.26,12.87-7.48,6.71,20.35A1.63,1.63,0,0,1,274.15,202.51Z" style="fill:#48A2C3"></path><g style="opacity:0.45"><path d="M274.15,202.51l-15.67,9.06a2,2,0,0,1-1,.22,2,2,0,0,1-.86-.21h0l-6.9-4,0,0a2,2,0,0,1-.9-1.6v-.37c0-.59.41-.84.93-.54l4.17,2.4.93.54-.21-1.06-1.47-20.14,2.19,1.26,12.87-7.48,6.71,20.35A1.63,1.63,0,0,1,274.15,202.51Z"></path></g><polygon points="249.06 204.98 254.4 201.89 255.49 209.08 249.06 204.98" style="fill:#48A2C3"></polygon><polygon points="249.06 204.98 254.4 201.89 255.49 209.08 249.06 204.98" style="opacity:0.5"></polygon><path d="M255.31,188.05l-2.19-1.26,1.47,20.14c.12.59-.21.82-.72.52l-4.17-2.4c-.52-.3-.93-.05-.93.54V206a2,2,0,0,0,.9,1.6l0,0,6.9,4h0a2,2,0,0,0,.86.21Z" style="fill:#48A2C3"></path><g style="opacity:0.65"><path d="M255.31,188.05l-2.19-1.26,1.47,20.14c.12.59-.21.82-.72.52l-4.17-2.4c-.52-.3-.93-.05-.93.54V206a2,2,0,0,0,.9,1.6l0,0,6.9,4h0a2,2,0,0,0,.86.21Z"></path></g></g></g></g><g id="freepik--Characters--inject-2"><g id="freepik--characters--inject-2"><g id="freepik--Character--inject-2"><path d="M233.3,223.74h0c-4.5-10.7-12.09-29.66-12.55-33.29-.7-5.49,0-33.84.89-43.34s3.68-14,9.8-16.11a13.72,13.72,0,0,1,8.21,8.19c2.24,6.37.93,15.23.93,15.23l-2.76,36,7.05,26.7a12.8,12.8,0,0,0,4.27,6.68,45.37,45.37,0,0,1,4.43,3.7c2.06,2.27,3.21,4.46,5.39,6.42s1.47,2.31,0,2.9-4-.86-6-2.79c-.66-.61-1.27-1.11-1.8-1.52a42.18,42.18,0,0,0,6.78,13.14c2.54,3.09,3.27,5.74-.4,6.89-4.6,1.44-9.33,1.44-13.27-1.38s-6-8.44-7.36-13.07S235.25,228.18,233.3,223.74Z" style="fill:#ffa8a7"></path><path d="M238.6,190.33l.53-10.18s3-31.84,3-38c0-6.91-1.89-10-4.43-11.2s-5.05-1.71-10.79-2.66c-7.85,4.91-7.43,27.55-7.67,41.16s-.84,20.4,1.2,24.66,12.84,29.58,12.84,29.58a19.51,19.51,0,0,0,11.81-5.83Z" style="fill:#37474f"></path><polygon points="181.97 392.12 194.24 392.12 196.69 370.39 181.97 370.39 181.97 392.12" style="fill:#ffa8a7"></polygon><polygon points="222.51 369.78 235.58 370.21 235.35 347.71 220.56 347.43 222.51 369.78" style="fill:#ffa8a7"></polygon><path d="M182.1,214.46c-.24,11.91-2.76,93.77-2.76,93.77a174.87,174.87,0,0,0-1.56,19.42c-.33,15.74,3,53.13,3,53.13.73,3.4,13.42,4.78,15.1,1.71,0,0,6.94-54.23,8.91-69.81,1.71-13.61,7-56.5,7-56.5l4.74,42.09a136.49,136.49,0,0,0,.34,15.3c.51,7.21,4.13,49.75,4.13,49.75.06,2.65,13.26,4.84,15.48.93,0,0,4.18-62.09,4.3-68.71.15-7.54-.9-81.93-.9-81.93Z" style="fill:#37474f"></path><path d="M194.94,385.88l.21-1.85c.68,0,1,.76,1.25,2.39a35.54,35.54,0,0,0,3.26,10c2.09,4.29,3.3,6.07,7.41,11.24,1,1.22,3.17,3.17,3.94,4.54s1,5.16-.27,6c-4.79,3.19-12.07,3.28-17.21,1.77a9.87,9.87,0,0,1-7.48-8.39c-.83-4.69-1.27-7.59-3.66-11.13-.87-1.3-2.29-2.35-2.88-3.8-1.07-2.61-.21-5.54.47-8.14.59-2.24,1.22-4.71,2-4.5v1.38c.92,1,4.15,2,7,2.15C190.85,387.64,195,387.3,194.94,385.88Z" style="fill:#263238"></path><path d="M235.55,366.66c.32.22,1.06,1.07,2.38,2.29a45.6,45.6,0,0,0,4.23,3.27,77.46,77.46,0,0,0,9.42,5.91c3.89,2.14,7.4,3.44,12,5.54a3.93,3.93,0,0,1,1.3.86,2.56,2.56,0,0,1,.56,1.16,4.82,4.82,0,0,1-1.94,4.65,12.92,12.92,0,0,1-4.86,2.07,25,25,0,0,1-12.12.36,34.36,34.36,0,0,1-9.74-4.5,22,22,0,0,0-8.33-3.58c-2.61-.38-5.83-.25-8.09-1.81-2.52-1.73-1.51-5.44-.8-8.62.78-3.48.95-8.78,2.53-8.66l.12,1.38c.14,1.51,3.78,2.19,6.59,2.2,2.33,0,6.73-.61,6.72-1.71Z" style="fill:#263238"></path><path d="M213.48,237.91a39.9,39.9,0,0,0,13.4-8.6s-2.14,6.24-10.91,11.37l.58,54.39-4.42-38.89Z" style="opacity:0.30000000000000004"></path><path d="M201.88,127.53c-2.23.53-9.29,2.43-15,4.46a16,16,0,0,0-7.23,5.53c-4.17,6.09-.41,19.59,2.65,45-.23,16.44-.7,33.84-.7,33.84,7.55,5.5,42.8,9.24,58.7-2.37,0,0,.53-58.65-.52-66.67-2-15.34-8-19.45-20.43-20.17Z" style="fill:#263238"></path><path d="M223.54,145.54c1.12,3.84,7.36,29.19,6.9,38.73-.35,7.46-3.15,11.09-4.65,12.68s-4.09,2.43-5.75-.19a21.74,21.74,0,0,1-3.45-9.39c-.52-5.1,2.29-22.74,1.51-40.9A3.9,3.9,0,0,1,223.54,145.54Z" style="fill:#48A2C3"></path><path d="M223.79,136.88c2.61,2.24-.25,8.66-.25,8.66a7.42,7.42,0,0,0-5.44.93s-5.21-2.22-5.22-6.08c0-3.51,3.73-2.38,6.38-2.84C222.07,137.06,223.48,135,223.79,136.88Z" style="fill:#48A2C3"></path><path d="M223.54,145.54c-.43-1.5-2.48-1.36-4.11-1.88a4.4,4.4,0,0,1-2.21-1.9c-.84-1.45,0-3.87,1.18-4.12h0c-2.53.18-5.53-.39-5.52,2.75,0,3.86,5.22,6.08,5.22,6.08A7.42,7.42,0,0,1,223.54,145.54Z" style="opacity:0.2"></path><path d="M205.6,91.85A16.06,16.06,0,1,0,221.27,75.4,16.06,16.06,0,0,0,205.6,91.85Z" style="fill:#263238"></path><path d="M194.17,103.54s2.89,12.17,4,14.15a5.54,5.54,0,0,0,3.26,2.5L201,111.6Z" style="fill:#263238"></path><path d="M197,86a6,6,0,0,0-5,1.87c-2.09,2.25-.73,9.07,2.1,15.72l4.92.45Z" style="fill:#263238"></path><path d="M200.56,104c-1,.61-2.42-1.25-3.66-2.49s-5.24-2.87-7.12,1.33,2,9.8,5.12,10.7c5.41,1.56,6.13-1.9,6.13-1.9l.92,21.92h0c3.83,4.67,12,3.4,16.45,2.49,3.57-.72,4.49-1.72,1-5.6l-.16-6.28a34.09,34.09,0,0,0,7.25.2c3.93-.71,6.35-3.88,7.43-8.18,1.65-6.58,2.06-13.91.41-25.93-2-14.77-19.36-14.5-28.51-8.43S200.56,104,200.56,104Z" style="fill:#ffa8a7"></path><path d="M200.59,105.61c-.49,0-2.44-3-3.69-4.14C195.16,100,197,86,197,86a6.79,6.79,0,0,1,1-7.57c2.27-2.61,5.43-5.81,16-4.81,7.53.7,15.76,2.85,22.29-.55a11.25,11.25,0,0,1-3.63,12s-2.35,1.59-8.62,2.51-16.09.24-17.43.09c-1.83-.21-2.18,1.57-3.05,6.42C202.8,98.34,202.26,105.54,200.59,105.61Z" style="fill:#263238"></path><path d="M197.05,87,191,84a3.29,3.29,0,0,1,4.47-1.6A3.55,3.55,0,0,1,197.05,87Z" style="fill:#263238"></path><path d="M219.2,124.13s-8.86-1.57-12-3.13a10.27,10.27,0,0,1-4.36-4.11,13.87,13.87,0,0,0,2.54,4.91c2.33,2.83,13.86,4.85,13.86,4.85Z" style="fill:#f28f8f"></path><path d="M218.46,102.52a1.77,1.77,0,1,1-1.67-1.93A1.81,1.81,0,0,1,218.46,102.52Z" style="fill:#263238"></path><path d="M217.21,97.27l-3.88,1.89a2.27,2.27,0,0,1,1-3A2.11,2.11,0,0,1,217.21,97.27Z" style="fill:#263238"></path><path d="M217.25,113.69l5.51,1.51a2.81,2.81,0,0,1-3.45,2.1A3,3,0,0,1,217.25,113.69Z" style="fill:#f28f8f"></path><path d="M233.05,97.88l-4.11-1.41a2.09,2.09,0,0,1,2.69-1.4A2.28,2.28,0,0,1,233.05,97.88Z" style="fill:#263238"></path><path d="M232.63,101.8a1.77,1.77,0,1,1-1.93-1.67A1.79,1.79,0,0,1,232.63,101.8Z" style="fill:#263238"></path><polygon points="224.16 100.94 224.8 111.56 230.34 109.64 224.16 100.94" style="fill:#f28f8f"></polygon><path d="M218.4,136c-4.9-1-15.63-4-16.75-9.7l-.15-3.11c-1.9,0-2.77,2.13-3.71,5.17-.39,8,8.06,15.32,16.55,17.29,0,0-.22-4.16,1.22-6.33A14.69,14.69,0,0,1,218.4,136Z" style="fill:#37474f"></path><path d="M219.22,125a8.38,8.38,0,0,1,3.42,2c6.36,6.58,2.73,15.2,2.73,15.2s-.28-3.77-2.13-5A9.27,9.27,0,0,0,218.4,136c1.56-1.66,1.8-3,1-5.6Z" style="fill:#37474f"></path></g><g id="freepik--character--inject-2"><path d="M335.94,148c-3.78,11-8.5,30.25-8.5,30.25l-35.33,14.23,1,4.64-8.39-3.45L280.57,198s4.59,10.73,10.71,9.36a40.19,40.19,0,0,0,4.29-1.08c1.93-.68,3.43-1.53,4.93-2.12,2.22-.86,4.48-1.56,7.43-2.44,11.55-3.44,23.82-6.66,27.43-7.76,5.54-1.7,5.61-2.86,7.91-9.21C346.58,175.59,353,154,353,154V133.67C345.7,133.75,340,136.12,335.94,148Z" style="fill:#b16668"></path><g id="freepik--character--inject-2"><path d="M400.27,369.9A99.57,99.57,0,0,1,402.11,380c.49,3.81.79,6.63,1.9,13.15,1,5.94,1.78,10.48-2.42,14.94-3.69,3.93-10.2,5.44-12.34,1-2.45-5.1-2.13-13.39-1.8-18.55s.26-6.67.3-10.78c0-3.62.21-5.1.41-8.22C392.13,371.28,396.31,370.21,400.27,369.9Z" style="fill:#37474f"></path><path d="M356.39,389.12l-1.36-.2c-.09-4.28.16-8.18-.9-10.2l1.94-5.24Z" style="fill:#263238"></path><path d="M359.74,369.66c-.31,2.93-2,5.93-2.09,11.7a50.24,50.24,0,0,0,.15,7.38l-1.41.38-.32-15.64Z" style="fill:#263238"></path><path d="M327.5,393.05s.06,1.71.8,2.27,2.29,2.25,9.81,1.81,10.16-2.3,12.73-4.65,3.24-8.5,3.63-11.41c.74-5.63,3.08-8.58,5.27-11.41a5,5,0,0,0,.22-2.92s-6.22-.35-8.91,6.54-4.8,14.88-10.88,16.79A105.23,105.23,0,0,1,327.5,393.05Z" style="fill:#263238"></path><path d="M400.27,369.9c0-4.86,0-11.31.45-19.86.51-10,.58-17.73.54-28.28,0-8-.45-15.06-3.28-30.37,3-30.75,4.09-62.53.46-74.21-3.11-10-6.29-13.37-9.09-18.28-1.46-2.54-4.13-6.31-4.13-9.71A62.84,62.84,0,0,1,363,193.51c-14.26.13-19.24-3.74-19.24-3.74s-6.43,74.5-5.09,98.81c.8,14.39,1.95,35.69,2.38,46.16.33,8.07,1.26,18.57,1.18,23A37.38,37.38,0,0,1,340,369.11a82.05,82.05,0,0,1-4.67,11.51,11.73,11.73,0,0,1-1.73,2.72,31.16,31.16,0,0,1-3.19,3.1c-2.3,2-3.45,3-3.25,4.8s1.57,2.58,3.12,3c3.7,1.11,7.88.65,11.58,0s7.83-2.4,9.41-5.93a14.38,14.38,0,0,0,.88-3.24c.68-3.64,1.3-7.35,2.83-10.74A23.68,23.68,0,0,1,357,370.2c1-1.4,2.16-2.93,2.34-4.68.14-1.46-1-3.53-2.45-5.74l0,0c-1.28-1.92-.93-3.25-.48-9.29,1-13.08,3.63-22.49,5.87-38.38,1.11-7.89.86-14.21-.47-23,1.52-10.41,4.15-21.33,5.7-28.52,2.51,15,4.12,20.53,5.49,31.91,1.89,15.77,10.76,48.78,12.17,57.27s2.3,14.18,3,21.08c.57,6,1,18,1.77,23.49,1.2,8.77,10.23,6.09,11.69-1.64C402.53,387.51,400.35,376.61,400.27,369.9Z" style="fill:#b16668"></path><path d="M343.27,195.74c-.82,10.32-4.57,52-5.3,65.08-.59,10.51-.29,22.92,0,31.49,6.92,4.49,35.24,12.57,49.87-8.68,3,7.23,6.57,11.16,10.81,8.72,0,0,3.11-30.39,3.24-50s-2.22-28.95-7-36-8.16-12-8.16-12Z" style="fill:#37474f"></path><path d="M359.3,362.45c-1.07-1.89-2.05-2.42-3.08-4.05a8.06,8.06,0,0,0-2.43,4c-.46,1.5-1.66,8.89-3.48,14.76-1.36,4.41-3.65,6.75-6.8,7.95a12.72,12.72,0,0,1-6.2.7h0c-3.91-.53-3-3.35-3-3.35-.9,1.25-4.63,4.29-6.84,6.53-1.25,1.27-.66,3.19.29,4.43,1.09.94,3.64,2.82,13,1.46,8.3-1.2,10.24-5,11-6.76a40.44,40.44,0,0,0,1.72-7.78,24.63,24.63,0,0,1,2.91-8.25c.19-.32.37-.62.55-.88h0a31.82,31.82,0,0,1,2-2.63c.58-.7,1-1,1.2-1.7A6.34,6.34,0,0,0,359.3,362.45Z" style="fill:#37474f"></path><path d="M341.7,170.68c.22,4.13,2.07,19.09,2.07,19.09,16.87,11.42,41.45-.58,41.45-.58l4.6-31.13s-10.09-10.34-1.83-23.33l-13.38-.86-14.32-.07-7.32-.13c-5.15,3.78-14.05,13.45-15.7,17.69S334.2,161.85,341.7,170.68Z" style="fill:#48A2C3"></path><g style="opacity:0.6000000000000001"><path d="M341.7,170.68c.22,4.13,2.07,19.09,2.07,19.09,16.87,11.42,41.45-.58,41.45-.58l4.6-31.13s-10.09-10.34-1.83-23.33l-13.38-.86-14.32-.07-7.32-.13c-5.15,3.78-14.05,13.45-15.7,17.69S334.2,161.85,341.7,170.68Z" style="fill:#fff"></path></g><path d="M358.25,170c1.46,1.89,8.24,4.22,13.81,1.75a12.6,12.6,0,0,0,7.75-10.2s1.59,8.59-7,12.09S358.69,171.88,358.25,170Z" style="fill:#263238;opacity:0.1"></path><path d="M350.43,121.07s25.24,9.84,25.24,5.44c4.73-8.77,14.29-11.6,14.29-26.93,0-16-13.3-23.84-26.6-23.84h0a24.17,24.17,0,0,0-20.73,11.59c-7.59,2-5.65,12.48,1.95,14.36Z" style="fill:#263238"></path><path d="M376.33,130c-3.58-3.18-3.61-9-.05-13s9.34-4.65,12.92-1.46,3.61,9,.06,13S379.92,133.15,376.33,130Z" style="fill:#263238"></path><path d="M375.67,134V114.56s2.5,2.49,6.17-.2c3.29-2.41,4.67-7.58,2.36-10.25-1.63-1.89-6.69-2.93-8.66,1.14,0,0-5.86-.28-13.51-5.71s-9.46-10.22-14.15-10.76c-2.2,1.68-4.34,6.63-4.11,19.68.17,9.66,4.49,14.27,6.7,15.93,1.8,1.35,4.1,1.54,8,.9v9.16s-11.51,12.81-2.24,12.24C370.18,145.83,375.67,134,375.67,134Z" style="fill:#b16668"></path><path d="M375.54,104.35v5.36h0a3.79,3.79,0,0,1-3.82-3.75v-5.17Z" style="fill:#263238"></path><path d="M359.69,104.41a1.77,1.77,0,1,0,1.86-1.71A1.78,1.78,0,0,0,359.69,104.41Z" style="fill:#263238"></path><path d="M345,99.78l3.86-2.17a2.16,2.16,0,0,0-3-.86A2.26,2.26,0,0,0,345,99.78Z" style="fill:#263238"></path><path d="M361.05,114.65l-4.92,1.75a2.55,2.55,0,0,0,3.29,1.6A2.66,2.66,0,0,0,361.05,114.65Z" style="fill:#9a4a4d"></path><path d="M346.21,104a1.78,1.78,0,0,0,1.67,1.88,1.81,1.81,0,0,0,1.86-1.72,1.78,1.78,0,0,0-1.68-1.88A1.8,1.8,0,0,0,346.21,104Z" style="fill:#263238"></path><polygon points="354.71 103.14 354.45 112.61 349.37 111.07 354.71 103.14" style="fill:#9a4a4d"></polygon><path d="M358.47,125.29c4.1-.52,12.55-2.9,13.86-6.18a8.47,8.47,0,0,1-3,4.18c-2.52,2.12-10.9,4.51-10.9,4.51Z" style="fill:#9a4a4d"></path><path d="M369.62,76.33c-8.48-1.94-11.86.52-20.44-.39-3.52-.37-6.74-.54-9.09.65-2.68,1.35-4.25,4.31-3.89,8.12.61,6.44,7.55,8.09,7.55,8.09s5.89-13.25,13.71-13.15S369.62,76.33,369.62,76.33Z" style="fill:#263238"></path></g><path d="M343.42,187.45l-.15,8.29s5.46,4.18,15.48,4.85,24.09-3.28,28-6.22a13.69,13.69,0,0,1-1.06-8,49.79,49.79,0,0,1-24.83,5.55C346.82,191.24,343.42,187.45,343.42,187.45Z" style="fill:#263238"></path><path d="M410.66,219.87h0c1.14-10.38,2.77-29.86,2.25-33.1-.8-4.91-9.27-33-12.19-41.56-2.79-8.1-7-10.57-14.17-10.57,0,0-5,2.24-5,10.2,0,6.06,3,12.27,3,12.27l12.58,35.71.74,24.81a11.54,11.54,0,0,1-2,6.84,40.62,40.62,0,0,0-2.87,4.32c-1.2,2.49-1.64,4.67-3,6.91s-.68,2.37.72,2.51,3.19-1.75,4.48-4c.41-.69.8-1.28,1.16-1.77a37.7,37.7,0,0,1-2.49,13.06c-1.4,3.31-1.35,5.78,2.11,5.83,4.33.07,9.5-1.67,12.17-5.11s3-8.8,3-13.14S410.12,224.19,410.66,219.87Z" style="fill:#b16668"></path></g><path d="M265.52,207.49c-1.37-.22-3.87-.54-5.52-.68-4.73-.4-10.89-.77-10.89-.77l1.47-14.95,8.95,1.28a25.07,25.07,0,0,0,8.3-.2c3.61-.63,6.74-3.15,10.41-3.15,1.89,0,3,1.21,4.12,2.69a21.66,21.66,0,0,1,2.08,2.81c2.7,4.49,6.74,10.35,8.28,11.22,1.81,1,2.85.49,2.85.49,2.05,3.48-5.3,4.48-8.47,5.3a21.52,21.52,0,0,1-10.32-.19C274.22,210.53,266.89,207.71,265.52,207.49Z" style="fill:#ffa8a7"></path><path d="M186.85,132a23.68,23.68,0,0,0-9.61,5.71c-4,4-4.2,10.73-2.19,17.49s19.43,36.95,22,41.57c3.35,6,5.32,6,11,6.64,7.11.85,49.78,3.64,49.78,3.64,2.49-.49,3.83-12.94,1.34-15.21l-44.95-7L199.09,151.9S195,133.15,186.85,132Z" style="fill:#37474f"></path><path d="M296.84,190.61c-2.85.8-5.06-.1-8.22-1.15-3.32-1.09-4.13-1.24-6.67-.44-2.36.75-5.08,1.29-6.05,2.69-.29.43-1.25,3.37-2,5.55.06,1.08,2.64,1.46,3.77-.11,1-1.34,1.18-2.13,1.61-2.62a29.06,29.06,0,0,1,5.15,0l11.83,5.28Z" style="fill:#b16668"></path><path d="M264.94,207.4a4.16,4.16,0,0,1,3.45-1.74,24.6,24.6,0,0,1,4.45.23c1.33.16,2.67.26,4,.42.68.09,1.35.18,2,.31.44.08,1,.39,1,.93a5.57,5.57,0,0,1,1.74-.44,2.28,2.28,0,0,1,1.67.53c1,.91.31,2.31-.33,3.2a5.11,5.11,0,0,1-3,2.18,18,18,0,0,1-6.93-.34C270.76,212.1,262.82,209.58,264.94,207.4Z" style="fill:#b16668"></path></g></g><g id="freepik--speech-bubble--inject-2"><g id="freepik--speech-bubble--inject-2"><ellipse cx="288.18" cy="60.6" rx="35.25" ry="30.87" style="fill:#48A2C3"></ellipse><path d="M260.36,77.77c-.5,4.12-4.55,11.23-11.06,13.44a.44.44,0,0,0,0,.84,19,19,0,0,0,20-5.9Z" style="fill:#48A2C3"></path><path d="M316,77.77c.5,4.12,4.55,11.23,11.07,13.44a.44.44,0,0,1,0,.84,19,19,0,0,1-20-5.9Z" style="fill:#48A2C3"></path><path d="M268.08,54.57a7.67,7.67,0,0,1,2.6.42,6.11,6.11,0,0,1,2,1.19A5.55,5.55,0,0,1,274.06,58a6.37,6.37,0,0,1,.54,2.33c0,.29,0,.55,0,.79v1.37c0,.24,0,.49,0,.77a6.47,6.47,0,0,1-.53,2.33,5.57,5.57,0,0,1-1.32,1.82,6,6,0,0,1-2,1.19,7.51,7.51,0,0,1-2.58.42h-5.57a.54.54,0,0,1-.4-.17.53.53,0,0,1-.16-.39V55.12a.53.53,0,0,1,.16-.39.54.54,0,0,1,.4-.16Zm2.7,5.67c-.08-1.58-1-2.37-2.81-2.37h-2.1v7.85h2.21c1.73,0,2.63-.8,2.7-2.38,0-.29,0-.56,0-.81V61.05C270.8,60.8,270.8,60.53,270.78,60.24Z" style="fill:#fafafa"></path><path d="M287.32,65.72a.53.53,0,0,1,.39.16.54.54,0,0,1,.17.39v2.19a.58.58,0,0,1-.56.56h-9.79a.54.54,0,0,1-.39-.17.53.53,0,0,1-.16-.39V55.12a.55.55,0,0,1,.55-.55h9.63a.55.55,0,0,1,.55.55v2.19a.53.53,0,0,1-.16.39.54.54,0,0,1-.39.17H280.8V60.1h5.9a.55.55,0,0,1,.56.56v2.19a.53.53,0,0,1-.16.39.55.55,0,0,1-.4.16h-5.9v2.32Z" style="fill:#fafafa"></path><path d="M297.89,54.57a.82.82,0,0,1,.63.22,1.21,1.21,0,0,1,.3.46l4.5,13a.83.83,0,0,1,.09.31.45.45,0,0,1-.14.32A.42.42,0,0,1,303,69h-2.6a.82.82,0,0,1-.59-.18.7.7,0,0,1-.21-.34L299,66.79h-5.49l-.58,1.71a.73.73,0,0,1-.22.34.8.8,0,0,1-.59.18h-2.6a.44.44,0,0,1-.45-.45.78.78,0,0,1,.08-.31l4.5-13a1.21,1.21,0,0,1,.3-.46.82.82,0,0,1,.63-.22Zm-3.34,9h3.34l-1.67-5Z" style="fill:#fafafa"></path><path d="M315.2,65.72a.55.55,0,0,1,.55.55v2.19a.53.53,0,0,1-.16.39.54.54,0,0,1-.39.17h-9.56a.56.56,0,0,1-.4-.17.53.53,0,0,1-.16-.39V55.12a.53.53,0,0,1,.16-.39.55.55,0,0,1,.4-.16h2.7a.53.53,0,0,1,.39.16.54.54,0,0,1,.17.39v10.6Z" style="fill:#fafafa"></path></g></g></svg>
