<svg xmlns="http://www.w3.org/2000/svg" viewBox="0 0 500 500"><g id="freepik--background-simple--inject-8"><path d="M103.88,102.34C139.29,75.15,184.67,92,214.33,119.13c21.19,19.37,37.27,43.56,56,65.33,11.84,13.78,25.83,27.22,43.59,31,14.41,3.05,29.32-.71,43.43-4.92s28.53-8.95,43.22-7.86c38.14,2.84,47.58,50.66,37.31,80.57-5.74,16.69-19.3,31.88-34.88,40.4-20.24,11.08-43.83,10-66.18,10.57-52.06,1.25-105,12-148.76,41.4-14.07,9.45-27,22-44.55,24.45-27.47,3.79-54-14.48-67.27-37.56-15.5-27-5.16-58.1,4.69-85.3,5.34-14.71,10.4-30,9.78-45.9-.91-23.27-14-44.62-15.75-67.84C73.21,140,85.23,116.66,103.88,102.34Z" style="fill:#48A2C3"></path><path d="M103.88,102.34C139.29,75.15,184.67,92,214.33,119.13c21.19,19.37,37.27,43.56,56,65.33,11.84,13.78,25.83,27.22,43.59,31,14.41,3.05,29.32-.71,43.43-4.92s28.53-8.95,43.22-7.86c38.14,2.84,47.58,50.66,37.31,80.57-5.74,16.69-19.3,31.88-34.88,40.4-20.24,11.08-43.83,10-66.18,10.57-52.06,1.25-105,12-148.76,41.4-14.07,9.45-27,22-44.55,24.45-27.47,3.79-54-14.48-67.27-37.56-15.5-27-5.16-58.1,4.69-85.3,5.34-14.71,10.4-30,9.78-45.9-.91-23.27-14-44.62-15.75-67.84C73.21,140,85.23,116.66,103.88,102.34Z" style="fill:#fff;opacity:0.9;isolation:isolate"></path></g><g id="freepik--Shadow--inject-8"><ellipse id="freepik--path--inject-8" cx="250" cy="416.24" rx="193.89" ry="11.32" style="fill:#f5f5f5"></ellipse></g><g id="freepik--Character--inject-8"><path d="M169.23,249.79H412.32a0,0,0,0,1,0,0v76a31.7,31.7,0,0,1-31.7,31.7H200.93a31.7,31.7,0,0,1-31.7-31.7v-76a0,0,0,0,1,0,0Z" transform="translate(581.55 607.33) rotate(180)" style="fill:#48A2C3"></path><path d="M169.23,249.79H412.32a0,0,0,0,1,0,0v76a31.7,31.7,0,0,1-31.7,31.7H200.93a31.7,31.7,0,0,1-31.7-31.7v-76a0,0,0,0,1,0,0Z" transform="translate(581.55 607.33) rotate(180)" style="fill:#fff;opacity:0.4;isolation:isolate"></path><path d="M102.67,416.29h66.56V292.05a18.84,18.84,0,0,0-18.84-18.84H121.51a18.84,18.84,0,0,0-18.84,18.84Z" style="fill:#48A2C3"></path><path d="M102.67,416.29h66.56V292.05a18.84,18.84,0,0,0-18.84-18.84H121.51a18.84,18.84,0,0,0-18.84,18.84Z" style="fill:#fff;opacity:0.4;isolation:isolate"></path><path d="M102.67,416.29H141V292.05a18.85,18.85,0,0,0-18.84-18.84h-.61a18.84,18.84,0,0,0-18.84,18.84Z" style="fill:#fff;opacity:0.5;isolation:isolate"></path><rect x="149.02" y="368.41" width="239.79" height="47.88" transform="translate(537.83 784.7) rotate(180)" style="fill:#48A2C3"></rect><rect x="149.02" y="368.41" width="239.79" height="47.88" transform="translate(537.83 784.7) rotate(180)" style="fill:#fff;opacity:0.4;isolation:isolate"></rect><rect x="129.55" y="334.62" width="270.21" height="50.24" rx="19.15" transform="translate(529.31 719.47) rotate(180)" style="fill:#48A2C3"></rect><rect x="129.55" y="334.62" width="270.21" height="50.24" rx="19.15" transform="translate(529.31 719.47) rotate(180)" style="fill:#fff;opacity:0.6000000000000001;isolation:isolate"></rect><rect x="334.61" y="334.62" width="64.8" height="50.24" rx="19.15" transform="translate(734.02 719.47) rotate(180)" style="opacity:0.2;isolation:isolate"></rect><path d="M364.28,416.29h66.56V292.05A18.84,18.84,0,0,0,412,273.21H383.12a18.84,18.84,0,0,0-18.84,18.84Z" style="fill:#48A2C3"></path><path d="M364.28,416.29h66.56V292.05A18.84,18.84,0,0,0,412,273.21H383.12a18.84,18.84,0,0,0-18.84,18.84Z" style="fill:#fff;opacity:0.6000000000000001;isolation:isolate"></path><path d="M364.28,416.29h38.28V292.05a18.84,18.84,0,0,0-18.83-18.84h-.61a18.84,18.84,0,0,0-18.84,18.84Z" style="fill:#fff;opacity:0.4;isolation:isolate"></path><path d="M185.27,199.13s2.93-6.79-9.27-10.91-20.94,5.23-24.36,15.38,1.08,8.43-8,13.19-6.73,10.19-5.26,11.94-6.72,9.59.15,16,33.88,8,41.38-4.7S194.34,199.3,185.27,199.13Z" style="fill:#263238"></path><path d="M183.86,200.22a5.84,5.84,0,0,1,7.15.16c3.9,2.85,1.9,14.17-1.18,18.61s.52,8.69-1.75,11.51" style="fill:none;stroke:#263238;stroke-linecap:round;stroke-linejoin:round;stroke-width:0.5px"></path><path d="M183.08,199.18s5.15-.83,2-7.05-11.91-8.29-18.57-5.66-10.07,7.46-11.07,13.17" style="fill:none;stroke:#263238;stroke-linecap:round;stroke-linejoin:round;stroke-width:0.5px"></path><path d="M152.38,206.65s-.73,5.38-5.12,6.37-16,6.51-13.46,12.39-.94,7-2.19,10,2.17,4.22,2.17,4.22" style="fill:none;stroke:#263238;stroke-linecap:round;stroke-linejoin:round;stroke-width:0.5px"></path><path d="M185,221.27s-3,8.22-.28,11.86.11,9.39-2.15,9.44" style="fill:none;stroke:#263238;stroke-linecap:round;stroke-linejoin:round;stroke-width:0.5px"></path><path d="M307.53,335.74c-.74-.06-.15-6.55-.15-6.55a15.09,15.09,0,0,0,9.08-12.1c.63-5.59,4.68-2.21,4.4,3.9s-.49,10.78-.68,15.12S315.25,336.27,307.53,335.74Z" style="fill:#ebb376"></path><path d="M307.53,335.74c-.74-.06-.15-6.55-.15-6.55a15.09,15.09,0,0,0,9.08-12.1c.63-5.59,4.68-2.21,4.4,3.9s-.49,10.78-.68,15.12S315.25,336.27,307.53,335.74Z" style="opacity:0.2;isolation:isolate"></path><polygon points="309.49 328.86 309.19 335.62 299.73 336.3 291.05 336.91 290.11 328.83 300.37 328.84 309.49 328.86" style="fill:#ebb376"></polygon><polygon points="309.49 328.86 309.19 335.62 299.73 336.3 291.05 336.91 290.11 328.83 300.37 328.84 309.49 328.86" style="opacity:0.2;isolation:isolate"></polygon><polygon points="320.51 326.85 318.38 333.27 309.09 331.35 300.57 329.57 301.87 321.54 311.74 324.35 320.51 326.85" style="fill:#ebb376"></polygon><path d="M316.91,332.87c-.7-.25,1.78-6.39,1.78-6.39s6.87-1.15,11.73-9.06c2.95-4.8,5.1-.85,3.17,4.95l-4.77,14.37C327.44,340.86,324.19,335.48,316.91,332.87Z" style="fill:#ebb376"></path><polygon points="311.94 324.41 309.27 331.41 300.66 329.6 301.91 321.56 311.94 324.41" style="opacity:0.2;isolation:isolate"></polygon><path d="M298,324.89l-1.2,5.84-1.45,7-62.24-.84-10,0h-2.49l-6.47,0h-.4c-14.39.05-33.18.11-43,.11h-.55c-16.4-.66-.4-31.1-.4-31.1Z" style="fill:#48A2C3"></path><path d="M298,324.89l-1.2,5.84-1.45,7-62.24-.84-10,0h-2.49l-6.47,0h-.4c-14.39.05-33.18.11-43,.11h-.55c-16.4-.66-.4-31.1-.4-31.1Z" style="opacity:0.1;isolation:isolate"></path><path d="M308.92,322.11l-3,10.78-9.14-2.16-.08,0c-17.71-4.15-55.21-12.82-60.28-13.06a14.15,14.15,0,0,0-4.74,1.15c-3.5,1.26-8.35,3.45-14.05,5.89l-.22.09a190.79,190.79,0,0,1-26.77,9.53l-.22.05a80.86,80.86,0,0,1-19.7,2.75h-.55c-27-.6-18.08-45.58-18.08-45.58l33-2.53,6,10.34,4.76-1.28,1.91-.51,5.49-1.47c10-2.64,23.32-6.1,28.84-7.21,2.75-.55,10.55,2.11,20.18,6.14l2.74,1.17h0l.87.38c1,.41,1.95.84,2.94,1.28h0c11.73,5.18,24.93,11.61,34.83,16.55l7.49,3.77C306,320.57,308.92,322.11,308.92,322.11Z" style="fill:#48A2C3"></path><path d="M308.92,322.11l-3,10.78-9.14-2.16-.08,0c-17.71-4.15-55.21-12.82-60.28-13.06a14.15,14.15,0,0,0-4.74,1.15c-3.5,1.26-8.35,3.45-14.05,5.89l-.22.09a190.79,190.79,0,0,1-26.77,9.53l-.22.05a80.86,80.86,0,0,1-19.7,2.75h-.55c-27-.6-18.08-45.58-18.08-45.58l33-2.53,6,10.34,4.76-1.28,1.91-.51,5.49-1.47c10-2.64,23.32-6.1,28.84-7.21,2.75-.55,10.55,2.11,20.18,6.14l2.74,1.17h0l.87.38c1,.41,1.95.84,2.94,1.28h0c11.73,5.18,24.93,11.61,34.83,16.55l7.49,3.77C306,320.57,308.92,322.11,308.92,322.11Z" style="opacity:0.1;isolation:isolate"></path><g style="opacity:0.4"><polygon points="182.98 318.94 184.15 318.83 184.73 317.8 185.19 318.89 186.35 319.12 185.47 319.9 185.6 321.07 184.59 320.47 183.52 320.96 183.78 319.81 182.98 318.94" style="fill:#fff"></polygon><polygon points="165.18 327.17 166.35 327.06 166.93 326.03 167.4 327.11 168.56 327.34 167.67 328.12 167.81 329.29 166.79 328.69 165.72 329.18 165.98 328.03 165.18 327.17" style="fill:#fff"></polygon><polygon points="215.07 322.8 216.25 322.69 216.82 321.67 217.29 322.75 218.44 322.98 217.56 323.76 217.7 324.93 216.68 324.33 215.61 324.82 215.87 323.67 215.07 322.8" style="fill:#fff"></polygon><polygon points="267.34 309.36 268.52 309.25 269.09 308.22 269.56 309.3 270.72 309.53 269.83 310.31 269.97 311.48 268.95 310.88 267.88 311.37 268.14 310.22 267.34 309.36" style="fill:#fff"></polygon><polygon points="212.44 302.79 213.62 302.68 214.19 301.65 214.66 302.73 215.82 302.96 214.93 303.74 215.07 304.92 214.05 304.31 212.98 304.81 213.24 303.65 212.44 302.79" style="fill:#fff"></polygon><polygon points="240.84 305.37 242.02 305.26 242.59 304.24 243.06 305.32 244.22 305.55 243.33 306.33 243.47 307.5 242.45 306.9 241.38 307.39 241.64 306.24 240.84 305.37" style="fill:#fff"></polygon><polygon points="188.08 332.38 189.25 332.27 189.83 331.24 190.29 332.32 191.45 332.56 190.57 333.33 190.7 334.5 189.69 333.9 188.62 334.39 188.88 333.24 188.08 332.38" style="fill:#fff"></polygon><polygon points="229.68 332.31 232.23 330.08 231.84 326.72 234.74 328.46 237.82 327.05 237.07 330.35 239.36 332.84 235.99 333.14 234.33 336.09 233 332.98 229.68 332.31" style="fill:#fff"></polygon><path d="M205.25,300l-3.37.3-1.66,2.95-1.34-3.11-3.31-.67,2.23-2,5.49-1.47-.33,1.47Z" style="fill:#fff"></path><polygon points="252.15 328.29 253.92 326.74 253.65 324.39 255.68 325.61 257.82 324.62 257.3 326.92 258.9 328.66 256.55 328.87 255.39 330.93 254.46 328.76 252.15 328.29" style="fill:#fff"></polygon><polygon points="196.85 324.78 199.95 322.07 199.48 317.97 203.02 320.08 206.77 318.37 205.85 322.39 208.64 325.42 204.54 325.79 202.51 329.39 200.89 325.6 196.85 324.78" style="fill:#fff"></polygon><path d="M302.64,319.71l-4.11.37-2,3.6-1.63-3.79-4-.82,3.1-2.71-.23-2,7.49,3.77Z" style="fill:#fff"></path><path d="M261.42,302l-4.11.37-2,3.59-1.62-3.79-4-.81,3.11-2.72-.42-3.59,2.74,1.17h0l.73.44.14-.06c1,.41,1.95.84,2.94,1.28l-.24,1.08Z" style="fill:#fff"></path><path d="M173.7,324.34a4.72,4.72,0,0,0-.15,2.87,3.58,3.58,0,0,1,.21-1.57,3.55,3.55,0,1,1,2.46,4.7l.2.1a4.72,4.72,0,1,0-2.72-6.1Z" style="fill:#fff"></path><path d="M274.52,330.56a2.31,2.31,0,0,0-.08,1.44,1.81,1.81,0,0,1,.11-.79,1.77,1.77,0,1,1,1.22,2.35.93.93,0,0,1,.1.05,2.36,2.36,0,1,0-1.35-3.05Z" style="fill:#fff"></path><path d="M272.16,317.12a2.31,2.31,0,0,0-.08,1.44,1.77,1.77,0,1,1,1.33,1.56l.1.05a2.36,2.36,0,1,0-1.35-3.05Z" style="fill:#fff"></path><path d="M223.12,337h-2.49a3.58,3.58,0,0,0-2-1.84,3.54,3.54,0,0,0-4.51,1.87h-.4a4.29,4.29,0,0,1,.27-1.14,4.72,4.72,0,0,1,9.09,1.1Z" style="fill:#fff"></path><path d="M225.27,296.9a4.68,4.68,0,0,0-.15,2.88,3.42,3.42,0,0,1,.21-1.57,3.54,3.54,0,1,1,2.46,4.69,1.74,1.74,0,0,0,.19.1,4.72,4.72,0,1,0-2.71-6.1Z" style="fill:#fff"></path></g><path d="M185.13,289l.78,21.41,45.81,8.4,65,11.91-69.25-23-36.2,1.43a18.15,18.15,0,0,1,4.6-11.11l-4.76,1.28Z" style="opacity:0.2;isolation:isolate"></path><path d="M184.9,232.19c7.92,2.59,4.43,29.05,10,36.79,4,5.6,21.34,8.64,24.66,12.31s-1,9.78-1,9.78-30-3.64-37.12-7.77S184.9,232.19,184.9,232.19Z" style="fill:#48A2C3"></path><path d="M219.4,289.7a13.88,13.88,0,0,1-.81,1.37s-30-3.64-37.13-7.77c-2.18-1.27-2.7-6.63-2.36-13.44l0-.64h0a189.14,189.14,0,0,1,2.31-19c1.62-9.85,3.46-18.05,3.46-18.05,3.77,1.23,4.94,7.84,5.75,15.28.21,1.84.38,3.73.57,5.61.64,6.49,1.4,12.75,3.67,15.9,1.36,1.89,4.23,3.48,7.57,4.92.8.34,1.62.67,2.45,1,6,2.34,12.7,4.28,14.64,6.42C221.89,283.89,220.45,287.68,219.4,289.7Z" style="opacity:0.1;isolation:isolate"></path><g style="opacity:0.4"><path d="M191.22,253.08l-1.28,2-1.18-3.17-3.29-.82,2.65-2.11-.24-3.37,2.77,1.83C190.86,249.31,191,251.2,191.22,253.08Z" style="fill:#fff"></path><polygon points="207.99 279.86 209.96 281.16 212.15 280.28 211.52 282.55 213.04 284.36 210.68 284.46 209.43 286.47 208.6 284.26 206.31 283.69 208.16 282.22 207.99 279.86" style="fill:#fff"></polygon><path d="M190.26,270.89l-4.11.18-2.19,3.5-1.45-3.86-3.41-.85,0-.64h0l2.61-2.07-.29-4.11,3.45,2.27,3.82-1.54-1.1,4Z" style="fill:#fff"></path><path d="M204.91,274.88a4.72,4.72,0,0,1-8.63-3.07c0-.08,0-.15,0-.22a3.53,3.53,0,0,0,6.14,2.31C203.26,274.24,204.08,274.57,204.91,274.88Z" style="fill:#fff"></path></g><path d="M219.4,289.7a13.88,13.88,0,0,1-.81,1.37s-30-3.64-37.13-7.77c-2.18-1.27-2.7-6.63-2.36-13.44l0-.64h0a189.14,189.14,0,0,1,2.31-19c2.31,5.19,5.35,13.53,8.28,26.11C189.72,276.35,196.59,283,219.4,289.7Z" style="opacity:0.2;isolation:isolate"></path><path d="M194.35,298.46l-6.59,6.29L180.43,298v13.72l-23.94,22.87c-6.37-5.64-7.89-21.37-8.46-38.75-.32-10-.33-20.49-.75-30-.06-1.25-.12-2.47-.2-3.67a124,124,0,0,0-1.26-12.43,47.09,47.09,0,0,0-1.69-7.23c-.35-1.05-.71-2.15-1.1-3.28a2.88,2.88,0,0,1,1.94-3.68,99.53,99.53,0,0,1,10.79-2.43,105.51,105.51,0,0,1,14.82-1.56c6.43,0,13.8.67,13.8.67s1.06.26,1.71,7.06a209.77,209.77,0,0,1,.62,23.23c-.08,4.69-.26,10.08-.58,16.26,0,1-.1,1.93-.16,2.93Z" style="fill:#48A2C3"></path><g style="opacity:0.4"><polygon points="181.4 265.65 181.93 266.7 183.09 266.88 182.25 267.7 182.45 268.86 181.4 268.31 180.36 268.86 180.56 267.7 179.71 266.88 180.88 266.7 181.4 265.65" style="fill:#fff"></polygon><polygon points="167.34 251.98 167.87 253.04 169.03 253.21 168.19 254.03 168.39 255.2 167.34 254.65 166.3 255.2 166.5 254.03 165.65 253.21 166.82 253.04 167.34 251.98" style="fill:#fff"></polygon><polygon points="189.31 296.99 189.83 298.05 191 298.22 190.15 299.04 190.35 300.2 189.31 299.65 188.26 300.2 188.46 299.04 187.62 298.22 188.78 298.05 189.31 296.99" style="fill:#fff"></polygon><polygon points="176.42 235.62 176.94 236.68 178.11 236.85 177.27 237.67 177.47 238.83 176.42 238.28 175.38 238.83 175.58 237.67 174.73 236.85 175.9 236.68 176.42 235.62" style="fill:#fff"></polygon><path d="M159.05,325.36l-3.35.48-1.5,3-1.5-3-1.19-.18c-.19-.61-.37-1.24-.53-1.89l.8-.78-.56-3.33,3,1.58,3-1.58-.58,3.34Z" style="fill:#fff"></path><polygon points="170.98 302.65 173.07 303.75 175.16 302.66 174.76 304.98 176.45 306.63 174.11 306.97 173.06 309.08 172.02 306.96 169.69 306.62 171.38 304.98 170.98 302.65" style="fill:#fff"></polygon><polygon points="151.99 257.6 154.07 258.7 156.16 257.61 155.76 259.93 157.45 261.58 155.11 261.92 154.06 264.03 153.02 261.91 150.69 261.57 152.38 259.93 151.99 257.6" style="fill:#fff"></polygon><polygon points="189.02 287.86 186.39 288.23 184.56 291.93 182.74 288.23 178.66 287.63 181.62 284.76 180.92 280.69 184.57 282.61 186.01 281.86 189.02 287.86" style="fill:#fff"></polygon><polygon points="151.46 238.92 155.11 240.85 158.76 238.93 158.06 243 161 245.88 156.92 246.47 155.09 250.16 153.27 246.46 149.19 245.86 152.15 242.99 151.46 238.92" style="fill:#fff"></polygon><path d="M181.14,248.07a4.74,4.74,0,0,0-2.74.89,3.49,3.49,0,0,1,1.54-.36,3.54,3.54,0,1,1-3.5,4c0,.08,0,.15,0,.22a4.72,4.72,0,1,0,4.72-4.72Z" style="fill:#fff"></path><path d="M161.13,264.89a2.34,2.34,0,0,0-1.37.45,1.68,1.68,0,0,1,.77-.18,1.77,1.77,0,1,1-1.75,2s0,.08,0,.11a2.36,2.36,0,1,0,2.36-2.36Z" style="fill:#fff"></path><path d="M155.1,296.43a4.63,4.63,0,0,0-2.74.89,3.43,3.43,0,0,1,1.54-.37,3.55,3.55,0,1,1-3.5,4c0,.07,0,.14,0,.22a4.72,4.72,0,1,0,4.72-4.72Z" style="fill:#fff"></path></g><path d="M169.74,242.14c2.47,12.38,2.51,33.34,2.51,34.6a233.19,233.19,0,0,0-4.91-34.09c-6.23-1.58-12.24-7-12.24-7l1.71-2.61a106.16,106.16,0,0,1,13.77-1.38c.69,0,1.4,0,2.1,0a3.48,3.48,0,0,1,1.78,1.91C175.09,236.05,169.74,242.14,169.74,242.14Z" style="opacity:0.2;isolation:isolate"></path><path d="M172.91,243.73a.81.81,0,0,1-.81.81.82.82,0,0,1-.82-.81.82.82,0,0,1,.82-.82A.82.82,0,0,1,172.91,243.73Z" style="opacity:0.2;isolation:isolate"></path><path d="M173.88,260.82a.81.81,0,0,1-.81.81.82.82,0,0,1-.82-.81.82.82,0,0,1,.82-.82A.82.82,0,0,1,173.88,260.82Z" style="opacity:0.2;isolation:isolate"></path><path d="M174.7,278.8a.82.82,0,0,1-.82.81.82.82,0,0,1,0-1.63A.82.82,0,0,1,174.7,278.8Z" style="opacity:0.2;isolation:isolate"></path><path d="M180.53,294.54a.82.82,0,0,1-.82.81.81.81,0,0,1-.81-.81.82.82,0,0,1,.81-.82A.82.82,0,0,1,180.53,294.54Z" style="opacity:0.2;isolation:isolate"></path><path d="M147.08,262.24a124,124,0,0,0-1.26-12.43c1.28-3.25,2.17-5.27,2.17-5.27S152.72,250.81,147.08,262.24Z" style="opacity:0.2;isolation:isolate"></path><path d="M186.71,262.59c-.08,4.69-.26,10.08-.58,16.26-6.82,4.26-24.22,14.5-38.1,17-.32-10-.33-20.49-.75-30A94.86,94.86,0,0,0,186.71,262.59Z" style="opacity:0.2;isolation:isolate"></path><path d="M252.14,288.71l.13,2.94c0,.75-.83,1.1-1.58,1.13l-58.64,2.71c-.75,0-1.67-.23-1.71-1l-.13-2.93Z" style="fill:#263238"></path><path d="M252.14,288.71l.13,2.94c0,.75-.83,1.1-1.58,1.13l-58.64,2.71c-.75,0-1.67-.23-1.71-1l-.13-2.93Z" style="fill:#fff;opacity:0.7000000000000001;isolation:isolate"></path><path d="M252.14,288.71l.13,2.94c0,.75-.83,1.1-1.58,1.13L212,294.57c-.75,0-1.66-.23-1.69-1l-.14-2.94Z" style="opacity:0.2;isolation:isolate"></path><path d="M260.54,257.79l-5.51,32a2.37,2.37,0,0,1-2.19,1.9l-38.13,1.77a1.54,1.54,0,0,1-1.53-1.93l5.52-31.74a2.19,2.19,0,0,1,2.2-1.66L259,256.36C260.06,256.31,260.72,256.75,260.54,257.79Z" style="fill:#263238"></path><path d="M260.54,257.79l-5.51,32a2.37,2.37,0,0,1-2.19,1.9l-38.13,1.77a1.54,1.54,0,0,1-1.53-1.93l5.52-31.74a2.19,2.19,0,0,1,2.2-1.66L259,256.36C260.06,256.31,260.72,256.75,260.54,257.79Z" style="fill:#fff;opacity:0.7000000000000001;isolation:isolate"></path><path d="M260.54,257.79l-5.51,32a2.37,2.37,0,0,1-2.19,1.9L216,293.39a1.55,1.55,0,0,1-1.53-1.93L220,259.72a2.17,2.17,0,0,1,2.19-1.66l36.84-1.7C260.06,256.31,260.72,256.75,260.54,257.79Z" style="fill:#fff;opacity:0.4;isolation:isolate"></path><path d="M242.48,274.76h0c.12,2.72-2.68,5.05-4.82,5.15s-3.49-2-3-4.78,2.51-4.95,4.59-5.13c-.48,2.74.92,4.87,3,4.77Z" style="opacity:0.2;isolation:isolate"></path><path d="M157.28,234.4s2.45,3.48,10.58,4.52c0,0,4-2.65,2.32-5.87,0,0-1.76-.55-2.14-3.35a13.58,13.58,0,0,1,.75-5.83c.09-.3.2-.62.31-.94l-10.28-6.43S162.44,229.53,157.28,234.4Z" style="fill:#ebb376"></path><path d="M161.13,220.23s.55,7.35,6.91,9.47a13.58,13.58,0,0,1,.75-5.83C165,221.89,161.13,220.23,161.13,220.23Z" style="opacity:0.2;isolation:isolate"></path><path d="M174.73,197.68c8.09,2.68,9.26,7.87,7.1,16.41-2.71,10.67-7.47,17.31-16.85,11.73C152.23,218.25,161.29,193.24,174.73,197.68Z" style="fill:#ebb376"></path><path d="M176.74,211.91A18.28,18.28,0,0,0,178,216a2.35,2.35,0,0,1-2.44.21Z" style="fill:#d58745"></path><path d="M172,209.61c-.2.67-.73,1.1-1.18,1s-.64-.79-.44-1.46S172.21,208.94,172,209.61Z" style="fill:#263238"></path><path d="M171.41,209l1.63-.13S171.94,209.85,171.41,209Z" style="fill:#263238"></path><path d="M170.59,208a1.48,1.48,0,0,1,1.82-.34" style="fill:none;stroke:#263238;stroke-linecap:round;stroke-linejoin:round;stroke-width:0.25px"></path><path d="M178.37,212.46s.22,1.8.81,1.89" style="fill:none;stroke:#263238;stroke-linecap:round;stroke-linejoin:round;stroke-width:0.25px"></path><path d="M171.73,210.55s-.78,1.31-1.71.86" style="fill:none;stroke:#263238;stroke-linecap:round;stroke-linejoin:round;stroke-width:0.25px"></path><path d="M180.32,212c-.2.67-.73,1.11-1.18,1s-.64-.79-.44-1.46S180.53,211.28,180.32,212Z" style="fill:#263238"></path><path d="M179.72,211.32l1.63-.13S180.25,212.2,179.72,211.32Z" style="fill:#263238"></path><path d="M178.9,210.36a1.5,1.5,0,0,1,1.83-.35" style="fill:none;stroke:#263238;stroke-linecap:round;stroke-linejoin:round;stroke-width:0.25px"></path><path d="M173.78,204a4.45,4.45,0,0,0-3.92.06" style="fill:none;stroke:#263238;stroke-linecap:round;stroke-linejoin:round;stroke-width:0.7246800000000001px"></path><path d="M179.77,205.6a4,4,0,0,1,3,1.73" style="fill:none;stroke:#263238;stroke-linecap:round;stroke-linejoin:round;stroke-width:0.7246800000000001px"></path><path d="M161.37,208.4s6-5.4,7.11-10.72c0,0,18.2-1.25,13.61,15.29,0,0,6.35-13.94-7.46-18.86s-20.48,15.45-15.3,23.89C159.33,218,157.65,211.78,161.37,208.4Z" style="fill:#263238"></path><path d="M162.13,210.54a3.75,3.75,0,0,0-2.75-4.51c-2.6-.55-5.5,4.2.33,7.5C160.55,214,161.34,213.3,162.13,210.54Z" style="fill:#ebb376"></path><path d="M168.05,196.09c2.68,4.13.18,9.36-3.16,12.24-3.13,2.7-8.7,2.81-10.37,7.06" style="fill:none;stroke:#263238;stroke-linecap:round;stroke-linejoin:round;stroke-width:0.5px"></path><path d="M171.14,219c1-.51,4.12.25,3.8,1.34S166.81,221.25,171.14,219Z" style="fill:#263238"></path><path d="M187.16,268.86l1.11-4.26a3.37,3.37,0,0,1,4.1-2.4l4.63,1.21-2.8,10.75L189.56,273A3.36,3.36,0,0,1,187.16,268.86Zm7.4-4-2.7-.71a1.36,1.36,0,0,0-1.65,1l-1.11,4.26a1.36,1.36,0,0,0,1,1.65l2.7.71Z" style="fill:#263238"></path><g style="opacity:0.2;isolation:isolate"><path d="M194.56,264.84l-2.7-.71a1.36,1.36,0,0,0-1.65,1l-1.11,4.26a1.36,1.36,0,0,0,1,1.65l2.7.71Z"></path></g><rect x="192.58" y="262.69" width="14.66" height="14.66" rx="1.06" transform="translate(325.18 581.77) rotate(-165.38)" style="fill:#263238"></rect><path d="M202.27,243.92s4.86,1.46,3.83,5.6-4.42,6.19-.38,10.58a4.1,4.1,0,0,1-3.32-5.32c1.1-4.6,4-7.68-.55-10.8" style="fill:#fff;opacity:0.7000000000000001;isolation:isolate"></path><rect x="192.58" y="262.69" width="14.66" height="14.66" rx="1.06" transform="translate(325.18 581.77) rotate(-165.38)" style="fill:#fff;opacity:0.2"></rect><path d="M165,267.56l13.41-4s10.39-1.73,12.85-1.21,1.32,8.53.41,9.18-9.65,2.37-10.23,1.71a13.14,13.14,0,0,0-3-1.71l-10.78,3.88Z" style="fill:#ebb376"></path><path d="M145,235.62c-5.88-.09-26.06,30.3-20.12,45.07s51.57-6.12,51.57-6.12l-4-9.68s-27.43,6.84-30.59,4,4.89-11.35,4.89-11.35,2.46-8.3,2.44-13S145,235.62,145,235.62Z" style="fill:#48A2C3"></path><path d="M176.42,274.57s-3.38,1.55-8.41,3.5l-.8.31h0c-.5.18-1,.38-1.52.56h0c-.47.19-1,.37-1.45.54-11.61,4.23-28.4,9-36,4.9a7.17,7.17,0,0,1-3.37-3.7,16.54,16.54,0,0,1-1.08-6.09h0c0-7.35,3.46-16.37,7.74-23.88l.3-.52c1.17-2,2.4-3.93,3.62-5.66.15-.22.31-.43.46-.64,3.61-5,7.13-8.3,9.08-8.27,0,0,4.21,4.26,4.22,8.92s-2.44,13-2.44,13a37.27,37.27,0,0,0-3,3.63h0a16.7,16.7,0,0,0-2.4,4.42c-.4,1.32-.37,2.51.49,3.29,2.12,1.93,15.18-.52,23.53-2.34l.24,0c3.58-.79,6.25-1.44,6.74-1.56l.08,0,1.42,3.47Z" style="opacity:0.1;isolation:isolate"></path><g style="opacity:0.4"><polygon points="129.83 262.29 130.35 263.35 131.52 263.51 130.67 264.34 130.87 265.5 129.83 264.95 128.78 265.5 128.98 264.34 128.14 263.51 129.3 263.35 129.83 262.29" style="fill:#fff"></polygon><polygon points="154.07 270.39 154.59 271.45 155.76 271.62 154.91 272.44 155.11 273.61 154.07 273.06 153.02 273.61 153.22 272.44 152.38 271.62 153.55 271.45 154.07 270.39" style="fill:#fff"></polygon><path d="M168,278.07l-.8.31h0l-1.34.19-.18.37h0c-.47.19-1,.37-1.45.54l-.45-.92-2.33-.34,1.69-1.65-.4-2.32,2.09,1.1,2.09-1.1-.4,2.33Z" style="fill:#fff"></path><path d="M144,260.12l-.18,1h0a16.7,16.7,0,0,0-2.4,4.42l-.56-1.14-2.33-.34,1.69-1.65-.4-2.33,2.09,1.11Z" style="fill:#fff"></path><path d="M134,282.35l-5.08.74-.65,1.3a7.17,7.17,0,0,1-3.37-3.7,16.54,16.54,0,0,1-1.08-6.09l2.84,1.49,4.55-2.38-.88,5.06Z" style="fill:#fff"></path><path d="M173.87,268.36a4.65,4.65,0,0,1-3.85,2,4.71,4.71,0,0,1-4.63-3.85l.24,0a3.5,3.5,0,0,0,3.19,2.07,3.55,3.55,0,0,0,3.55-3.55v-.08l.08,0Z" style="fill:#fff"></path><path d="M142.88,278.33a2.4,2.4,0,0,0-1.37.44,1.78,1.78,0,1,1-1,1.81s0,.07,0,.11a2.36,2.36,0,1,0,2.36-2.36Z" style="fill:#fff"></path><path d="M140.45,248.6a4.72,4.72,0,0,1-9.44,0c0-.07,0-.14,0-.22a3.56,3.56,0,0,0,3.5,3.11,3.54,3.54,0,0,0,.9-7c.15-.22.31-.43.46-.64A4.71,4.71,0,0,1,140.45,248.6Z" style="fill:#fff"></path></g></g></svg>