<svg xmlns="http://www.w3.org/2000/svg" viewBox="0 0 500 500"><g id="freepik--background-simple--inject-44"><path d="M386.17,290.65C381,324.39,402.48,374,359.5,392.82c-57.4,25.15-93.37-38.5-139.95-50.15-35.58-8.9-97.07,55.7-141.38,14.69s30.31-97,33.12-130.37c2.78-33-59-90.58-9.45-125.67,48.64-34.4,104,31.31,150,43.58C292.72,155.79,392,104,421.52,154.77,449.48,202.84,391.17,258.07,386.17,290.65Z" style="fill:#48A2C3"></path><path d="M386.17,290.65C381,324.39,402.48,374,359.5,392.82c-57.4,25.15-93.37-38.5-139.95-50.15-35.58-8.9-97.07,55.7-141.38,14.69s30.31-97,33.12-130.37c2.78-33-59-90.58-9.45-125.67,48.64-34.4,104,31.31,150,43.58C292.72,155.79,392,104,421.52,154.77,449.48,202.84,391.17,258.07,386.17,290.65Z" style="fill:#fff;opacity:0.9"></path></g><g id="freepik--Drawings--inject-44"><rect x="203.46" y="92.35" width="87.52" height="93.76" style="fill:#48A2C3"></rect><rect x="206.72" y="95.61" width="81.01" height="87.26" style="fill:#fff;opacity:0.9"></rect><path d="M215.78,90.46h-1.29a3.53,3.53,0,0,0,0,7.05h1.29a3.53,3.53,0,0,0,0-7.05Z" style="fill:#48A2C3"></path><path d="M215.78,90.46h-1.29a3.53,3.53,0,0,0,0,7.05h1.29a3.53,3.53,0,0,0,0-7.05Z" style="fill:#fff;opacity:0.30000000000000004"></path><path d="M218,94a3.53,3.53,0,1,1-3.53-3.52A3.53,3.53,0,0,1,218,94Z" style="opacity:0.2"></path><path d="M290.54,115.82h-1.28a3.53,3.53,0,1,0,0,7.05h1.28a3.53,3.53,0,1,0,0-7.05Z" style="fill:#48A2C3"></path><path d="M290.54,115.82h-1.28a3.53,3.53,0,1,0,0,7.05h1.28a3.53,3.53,0,1,0,0-7.05Z" style="fill:#fff;opacity:0.30000000000000004"></path><path d="M292.78,119.34a3.53,3.53,0,1,1-3.52-3.52A3.53,3.53,0,0,1,292.78,119.34Z" style="opacity:0.2"></path><path d="M209.12,100.17v80.48H253.3V100.17Zm35.45.54h8.18v8.18h-8.18Zm0,8.9h8.18v8.18h-8.18Zm0,8.9h8.18v8.19h-8.18Zm0,8.9h8.18v8.19h-8.18Zm0,8.9h8.18v8.19h-8.18Zm0,8.91h8.18v8.18h-8.18Zm0,8.9h8.18v8.18h-8.18Zm0,8.9h8.18v8.18h-8.18Zm-26.73,8.18h-8.18V163h8.18Zm0-8.9h-8.18v-8.18h8.18Zm0-8.9h-8.18v-8.18h8.18Zm0-8.9h-8.18v-8.19h8.18Zm0-8.9h-8.18v-8.19h8.18Zm0-8.9h-8.18v-8.19h8.18Zm0-8.91h-8.18v-8.18h8.18Zm8.73,53.41h-8.18V163h8.18Zm8.73-52.69v8.19h-8.19v-8.19Zm0,8.9v8.19h-8.19v-8.19Zm0,8.9v8.19h-8.19v-8.19Zm0,8.91v8.18h-8.19v-8.18Zm0,8.9v8.18h-8.19v-8.18Zm0-36.33h-8.19v-8.18h8.19Zm-8.73,0h-8.18v-8.18h8.18Zm0,8.91h-8.18v-8.19h8.18Zm0,8.9h-8.18v-8.19h8.18Zm0,8.9h-8.18v-8.19h8.18Zm0,8.9h-8.18v-8.18h8.18Zm0,8.9h-8.18v-8.18h8.18Zm.54.72h8.19v8.18h-8.19Zm8.73,0H244v8.18h-8.19Zm0-8.9H244v8.18h-8.19Zm0-8.9H244v8.18h-8.19Zm0-8.91H244v8.19h-8.19Zm0-8.9H244v8.19h-8.19Zm0-8.9H244v8.19h-8.19Zm0-8.9H244v8.18h-8.19Zm0-8.9H244v8.18h-8.19Zm-8.73,0h8.19v8.18h-8.19Zm-8.72,0h8.18v8.18h-8.18Zm-8.73,0h8.18v8.18h-8.18Zm8.18,79.39h-8.18v-8.18h8.18Zm8.73,0h-8.18v-8.18h8.18Zm8.73,0h-8.19v-8.18h8.19Zm8.73,0h-8.19v-8.18H244Zm8.72,0h-8.18v-8.18h8.18Z" style="fill:#48A2C3"></path><path d="M209.12,100.17v80.48H253.3V100.17Zm35.45.54h8.18v8.18h-8.18Zm0,8.9h8.18v8.18h-8.18Zm0,8.9h8.18v8.19h-8.18Zm0,8.9h8.18v8.19h-8.18Zm0,8.9h8.18v8.19h-8.18Zm0,8.91h8.18v8.18h-8.18Zm0,8.9h8.18v8.18h-8.18Zm0,8.9h8.18v8.18h-8.18Zm-26.73,8.18h-8.18V163h8.18Zm0-8.9h-8.18v-8.18h8.18Zm0-8.9h-8.18v-8.18h8.18Zm0-8.9h-8.18v-8.19h8.18Zm0-8.9h-8.18v-8.19h8.18Zm0-8.9h-8.18v-8.19h8.18Zm0-8.91h-8.18v-8.18h8.18Zm8.73,53.41h-8.18V163h8.18Zm8.73-52.69v8.19h-8.19v-8.19Zm0,8.9v8.19h-8.19v-8.19Zm0,8.9v8.19h-8.19v-8.19Zm0,8.91v8.18h-8.19v-8.18Zm0,8.9v8.18h-8.19v-8.18Zm0-36.33h-8.19v-8.18h8.19Zm-8.73,0h-8.18v-8.18h8.18Zm0,8.91h-8.18v-8.19h8.18Zm0,8.9h-8.18v-8.19h8.18Zm0,8.9h-8.18v-8.19h8.18Zm0,8.9h-8.18v-8.18h8.18Zm0,8.9h-8.18v-8.18h8.18Zm.54.72h8.19v8.18h-8.19Zm8.73,0H244v8.18h-8.19Zm0-8.9H244v8.18h-8.19Zm0-8.9H244v8.18h-8.19Zm0-8.91H244v8.19h-8.19Zm0-8.9H244v8.19h-8.19Zm0-8.9H244v8.19h-8.19Zm0-8.9H244v8.18h-8.19Zm0-8.9H244v8.18h-8.19Zm-8.73,0h8.19v8.18h-8.19Zm-8.72,0h8.18v8.18h-8.18Zm-8.73,0h8.18v8.18h-8.18Zm8.18,79.39h-8.18v-8.18h8.18Zm8.73,0h-8.18v-8.18h8.18Zm8.73,0h-8.19v-8.18h8.19Zm8.73,0h-8.19v-8.18H244Zm8.72,0h-8.18v-8.18h8.18Z" style="fill:#fff;opacity:0.5"></path><polygon points="233.44 113.56 229.36 113.56 229.99 106.08 232.81 106.08 233.44 113.56" style="fill:#263238"></polygon><polygon points="233.44 113.56 229.36 113.56 229.99 106.08 232.81 106.08 233.44 113.56" style="fill:#fff;opacity:0.5"></polygon><polygon points="232.99 111.11 229.81 111.11 228.66 104.52 234.13 104.52 232.99 111.11" style="fill:#48A2C3"></polygon><polygon points="232.99 111.11 229.81 111.11 228.66 104.52 234.13 104.52 232.99 111.11" style="fill:#fff;opacity:0.5"></polygon><polygon points="229.24 101.37 233.56 101.37 234.13 104.52 228.66 104.52 229.24 101.37" style="fill:#48A2C3"></polygon><polygon points="229.24 101.37 233.56 101.37 234.13 104.52 228.66 104.52 229.24 101.37" style="fill:#fff;opacity:0.30000000000000004"></polygon><polygon points="225.9 128.41 236.89 128.41 237.37 135.52 225.42 135.52 225.9 128.41" style="fill:#48A2C3"></polygon><polygon points="225.9 128.41 236.89 128.41 237.37 135.52 225.42 135.52 225.9 128.41" style="fill:#fff;opacity:0.30000000000000004"></polygon><polygon points="229.49 151.89 225.1 151.89 224.5 159.59 225.11 174.56 227.59 174.56 230.09 158.32 229.49 151.89" style="fill:#48A2C3"></polygon><polygon points="229.49 151.89 225.1 151.89 224.5 159.59 225.11 174.56 227.59 174.56 230.09 158.32 229.49 151.89" style="fill:#fff;opacity:0.30000000000000004"></polygon><polygon points="225.42 135.52 225.1 151.89 229.49 151.89 231.4 135.52 225.42 135.52" style="fill:#48A2C3"></polygon><polygon points="225.42 135.52 225.1 151.89 229.49 151.89 231.4 135.52 225.42 135.52" style="fill:#fff;opacity:0.5"></polygon><polygon points="233.39 151.89 237.77 151.89 238.37 159.59 237.76 174.56 235.29 174.56 232.79 158.32 233.39 151.89" style="fill:#48A2C3"></polygon><polygon points="233.39 151.89 237.77 151.89 238.37 159.59 237.76 174.56 235.29 174.56 232.79 158.32 233.39 151.89" style="fill:#fff;opacity:0.30000000000000004"></polygon><polygon points="237.45 135.52 237.77 151.89 233.39 151.89 231.47 135.52 237.45 135.52" style="fill:#48A2C3"></polygon><polygon points="237.45 135.52 237.77 151.89 233.39 151.89 231.47 135.52 237.45 135.52" style="fill:#fff;opacity:0.5"></polygon><polygon points="236.89 128.41 225.9 128.41 224.79 112.39 238.01 112.39 236.89 128.41" style="fill:#48A2C3"></polygon><polygon points="236.89 128.41 225.9 128.41 224.79 112.39 238.01 112.39 236.89 128.41" style="fill:#fff;opacity:0.30000000000000004"></polygon><polygon points="225.9 128.41 231.4 120.4 236.89 128.41 225.9 128.41" style="fill:#fff;opacity:0.30000000000000004"></polygon><polygon points="220.87 177.63 225.11 174.56 227.59 174.56 226.15 179.45 220.87 177.63" style="fill:#263238"></polygon><polygon points="220.87 177.63 225.11 174.56 227.59 174.56 226.15 179.45 220.87 177.63" style="fill:#fff;opacity:0.5"></polygon><rect x="220.87" y="177.63" width="5.28" height="1.81" style="fill:#263238"></rect><rect x="220.87" y="177.63" width="5.28" height="1.81" style="fill:#fff;opacity:0.30000000000000004"></rect><polygon points="242 177.63 237.76 174.56 235.29 174.56 236.72 179.45 242 177.63" style="fill:#263238"></polygon><polygon points="242 177.63 237.76 174.56 235.29 174.56 236.72 179.45 242 177.63" style="fill:#fff;opacity:0.5"></polygon><rect x="236.72" y="177.63" width="5.28" height="1.81" transform="translate(478.72 357.08) rotate(180)" style="fill:#263238"></rect><rect x="236.72" y="177.63" width="5.28" height="1.81" transform="translate(478.72 357.08) rotate(180)" style="fill:#fff;opacity:0.30000000000000004"></rect><polygon points="222.97 124.88 219.83 124.88 222.37 112.39 226.15 112.39 222.97 124.88" style="fill:#48A2C3"></polygon><polygon points="222.97 124.88 219.83 124.88 219.02 129.05 218.78 136.99 221.53 136.99 222.9 129.05 222.97 124.88" style="fill:#263238"></polygon><polygon points="221.53 136.99 218.78 136.99 218.36 140 219.29 141.46 221.05 140.71 221.97 139.34 221.53 136.99" style="fill:#263238"></polygon><polygon points="222.97 124.88 219.83 124.88 222.37 112.39 226.15 112.39 222.97 124.88" style="fill:#fff;opacity:0.5"></polygon><polygon points="222.97 124.88 219.83 124.88 219.02 129.05 218.78 136.99 221.53 136.99 222.9 129.05 222.97 124.88" style="fill:#fff;opacity:0.6000000000000001"></polygon><polygon points="221.53 136.99 218.78 136.99 218.36 140 219.29 141.46 221.05 140.71 221.97 139.34 221.53 136.99" style="fill:#fff;opacity:0.5"></polygon><polygon points="226.5 116.58 222.2 116.58 221.57 111.73 227.14 111.73 226.5 116.58" style="fill:#263238"></polygon><polygon points="221.57 111.73 218.78 116.58 220.87 117.54 222.2 116.58 221.57 111.73" style="fill:#263238"></polygon><polygon points="226.5 116.58 222.2 116.58 221.57 111.73 227.14 111.73 226.5 116.58" style="fill:#fff;opacity:0.5"></polygon><polygon points="221.57 111.73 218.78 116.58 220.87 117.54 222.2 116.58 221.57 111.73" style="fill:#fff;opacity:0.6000000000000001"></polygon><polygon points="239.44 124.88 242.59 124.88 240.04 112.39 236.26 112.39 239.44 124.88" style="fill:#48A2C3"></polygon><polygon points="239.44 124.88 242.59 124.88 240.04 112.39 236.26 112.39 239.44 124.88" style="fill:#fff;opacity:0.5"></polygon><polygon points="239.44 124.88 242.59 124.88 243.39 129.05 243.63 136.99 240.89 136.99 239.51 129.05 239.44 124.88" style="fill:#263238"></polygon><polygon points="239.44 124.88 242.59 124.88 243.39 129.05 243.63 136.99 240.89 136.99 239.51 129.05 239.44 124.88" style="fill:#fff;opacity:0.6000000000000001"></polygon><polygon points="240.89 136.99 243.63 136.99 244.05 140 243.12 141.46 241.37 140.71 240.44 139.34 240.89 136.99" style="fill:#263238"></polygon><polygon points="240.89 136.99 243.63 136.99 244.05 140 243.12 141.46 241.37 140.71 240.44 139.34 240.89 136.99" style="fill:#fff;opacity:0.5"></polygon><polygon points="235.9 116.58 240.2 116.58 240.83 111.73 235.26 111.73 235.9 116.58" style="fill:#263238"></polygon><polygon points="235.9 116.58 240.2 116.58 240.83 111.73 235.26 111.73 235.9 116.58" style="fill:#fff;opacity:0.5"></polygon><polygon points="240.83 111.73 243.62 116.58 241.53 117.54 240.2 116.58 240.83 111.73" style="fill:#263238"></polygon><polygon points="240.83 111.73 243.62 116.58 241.53 117.54 240.2 116.58 240.83 111.73" style="fill:#fff;opacity:0.6000000000000001"></polygon><g style="opacity:0.9"><rect x="276.87" y="112.36" width="4.82" height="1.37" style="fill:#263238"></rect><rect x="259.84" y="112.36" width="4.38" height="1.37" style="fill:#263238"></rect><rect x="266.83" y="112.36" width="5.15" height="1.37" style="fill:#263238"></rect><rect x="272.77" y="112.36" width="3.25" height="1.37" style="fill:#263238"></rect></g><g style="opacity:0.9"><rect x="259.84" y="109.34" width="4.38" height="1.37" style="fill:#263238"></rect><rect x="266.83" y="109.34" width="2.54" height="1.37" style="fill:#263238"></rect><rect x="275.3" y="109.34" width="4.38" height="1.37" style="fill:#263238"></rect><rect x="270.15" y="109.34" width="4.38" height="1.37" style="fill:#263238"></rect><rect x="266.83" y="115.37" width="3.51" height="1.37" style="fill:#263238"></rect><rect x="271.19" y="115.37" width="4.82" height="1.37" style="fill:#263238"></rect><rect x="276.87" y="115.37" width="3.45" height="1.37" style="fill:#263238"></rect><rect x="259.84" y="115.37" width="4.38" height="1.37" style="fill:#263238"></rect></g><g style="opacity:0.30000000000000004"><g style="opacity:0.9"><rect x="276.87" y="112.36" width="4.82" height="1.37" style="fill:#fff"></rect><rect x="259.84" y="112.36" width="4.38" height="1.37" style="fill:#fff"></rect><rect x="266.83" y="112.36" width="5.15" height="1.37" style="fill:#fff"></rect><rect x="272.77" y="112.36" width="3.25" height="1.37" style="fill:#fff"></rect></g><g style="opacity:0.9"><rect x="259.84" y="109.34" width="4.38" height="1.37" style="fill:#fff"></rect><rect x="266.83" y="109.34" width="2.54" height="1.37" style="fill:#fff"></rect><rect x="275.3" y="109.34" width="4.38" height="1.37" style="fill:#fff"></rect><rect x="270.15" y="109.34" width="4.38" height="1.37" style="fill:#fff"></rect><rect x="266.83" y="115.37" width="3.51" height="1.37" style="fill:#fff"></rect><rect x="271.19" y="115.37" width="4.82" height="1.37" style="fill:#fff"></rect><rect x="276.87" y="115.37" width="3.45" height="1.37" style="fill:#fff"></rect><rect x="259.84" y="115.37" width="4.38" height="1.37" style="fill:#fff"></rect></g></g><rect x="263.37" y="131.97" width="66.07" height="41.53" style="fill:#48A2C3"></rect><rect x="266.39" y="134.98" width="60.04" height="35.5" style="fill:#fff;opacity:0.9"></rect><path d="M307.68,158.62h-9.31a4.55,4.55,0,0,1-4.24-2.93l-1.94-5.12,1.76-.67,1.94,5.13a2.66,2.66,0,0,0,2.48,1.71h9.31Z" style="fill:#263238"></path><polygon points="301.32 150.24 300.31 154.36 302.03 154.36 304.39 150.24 301.32 150.24" style="fill:#263238"></polygon><g style="opacity:0.2"><path d="M307.68,158.62h-9.31a4.55,4.55,0,0,1-4.24-2.93l-1.94-5.12,1.76-.67,1.94,5.13a2.66,2.66,0,0,0,2.48,1.71h9.31Z" style="fill:#fff"></path><polygon points="301.32 150.24 300.31 154.36 302.03 154.36 304.39 150.24 301.32 150.24" style="fill:#fff"></polygon></g><polygon points="316.9 165.12 309.09 165.12 304.39 150.24 312.2 150.24 316.9 165.12" style="fill:#263238"></polygon><polygon points="316.9 165.12 309.09 165.12 304.39 150.24 312.2 150.24 316.9 165.12" style="fill:#fff;opacity:0.4"></polygon><path d="M311.53,163.55h0a1.06,1.06,0,0,1-1-.74l-2.23-7.07a1.06,1.06,0,0,1,1-1.38h0a1,1,0,0,1,1,.74l2.24,7.07A1.07,1.07,0,0,1,311.53,163.55Z" style="fill:#48A2C3"></path><polygon points="317.84 167.81 308.15 167.81 309.09 165.12 316.9 165.12 317.84 167.81" style="fill:#263238"></polygon><polygon points="317.84 167.81 308.15 167.81 309.09 165.12 316.9 165.12 317.84 167.81" style="fill:#fff;opacity:0.7000000000000001"></polygon><rect x="274.87" y="142.18" width="2.14" height="7.12" style="fill:#263238"></rect><rect x="274.87" y="142.18" width="2.14" height="7.12" style="fill:#fff;opacity:0.2"></rect><polygon points="277.02 137.65 277.02 140.79 282.04 140.79 282.04 139.34 279.03 137.65 277.02 137.65" style="fill:#263238"></polygon><polygon points="277.02 137.65 277.02 140.79 282.04 140.79 282.04 139.34 279.03 137.65 277.02 137.65" style="fill:#fff;opacity:0.7000000000000001"></polygon><rect x="277.02" y="140.79" width="33.9" height="7.09" style="fill:#263238"></rect><rect x="277.02" y="140.79" width="33.9" height="7.09" style="fill:#fff;opacity:0.6000000000000001"></rect><rect x="277.02" y="147.88" width="38.93" height="3.54" style="fill:#263238"></rect><rect x="277.02" y="147.88" width="38.93" height="3.54" style="fill:#fff;opacity:0.4"></rect><polygon points="315.95 147.88 310.92 147.88 310.92 140.79 315.95 143.61 315.95 147.88" style="fill:#263238"></polygon><polygon points="315.95 147.88 310.92 147.88 310.92 140.79 315.95 143.61 315.95 147.88" style="fill:#fff;opacity:0.7000000000000001"></polygon><polygon points="282.46 146.26 280.82 146.26 281.76 142.81 283.4 142.81 282.46 146.26" style="fill:#48A2C3"></polygon><polygon points="285.05 146.26 283.4 146.26 284.34 142.81 285.99 142.81 285.05 146.26" style="fill:#48A2C3"></polygon><polygon points="287.63 146.26 285.99 146.26 286.93 142.81 288.57 142.81 287.63 146.26" style="fill:#48A2C3"></polygon><polygon points="290.21 146.26 288.57 146.26 289.51 142.81 291.15 142.81 290.21 146.26" style="fill:#48A2C3"></polygon><path d="M314,147.88a5.11,5.11,0,1,1-5.1-5.1A5.1,5.1,0,0,1,314,147.88Z" style="fill:#48A2C3"></path><path d="M314,147.88a5.11,5.11,0,1,1-5.1-5.1A5.1,5.1,0,0,1,314,147.88Z" style="fill:#fff;opacity:0.5"></path><path d="M311.7,147.88a2.79,2.79,0,1,1-2.78-2.78A2.79,2.79,0,0,1,311.7,147.88Z" style="fill:#48A2C3"></path><rect x="308.28" y="146.31" width="1.27" height="3.15" transform="translate(195.03 -175.12) rotate(45)" style="fill:#fff;opacity:0.9"></rect><path d="M275.52,129.94h-1.29a3.53,3.53,0,0,0,0,7.05h1.29a3.53,3.53,0,0,0,0-7.05Z" style="fill:#48A2C3"></path><path d="M275.52,129.94h-1.29a3.53,3.53,0,0,0,0,7.05h1.29a3.53,3.53,0,0,0,0-7.05Z" style="fill:#fff;opacity:0.30000000000000004"></path><path d="M277.75,133.46a3.52,3.52,0,1,1-3.52-3.52A3.52,3.52,0,0,1,277.75,133.46Z" style="opacity:0.2"></path><path d="M321.71,129.94h-1.29a3.53,3.53,0,0,0,0,7.05h1.29a3.53,3.53,0,0,0,0-7.05Z" style="fill:#48A2C3"></path><path d="M321.71,129.94h-1.29a3.53,3.53,0,0,0,0,7.05h1.29a3.53,3.53,0,0,0,0-7.05Z" style="fill:#fff;opacity:0.30000000000000004"></path><path d="M324,133.46a3.53,3.53,0,1,1-3.53-3.52A3.53,3.53,0,0,1,324,133.46Z" style="opacity:0.2"></path></g><g id="freepik--Desk--inject-44"><path d="M393.74,287.3h1.34a1.86,1.86,0,0,1,1.86,1.86V414.9a0,0,0,0,1,0,0h-5.06a0,0,0,0,1,0,0V289.16A1.86,1.86,0,0,1,393.74,287.3Z" transform="translate(788.81 702.2) rotate(180)" style="fill:#48A2C3"></path><path d="M393.74,287.3h1.34a1.86,1.86,0,0,1,1.86,1.86V414.9a0,0,0,0,1,0,0h-5.06a0,0,0,0,1,0,0V289.16A1.86,1.86,0,0,1,393.74,287.3Z" transform="translate(788.81 702.2) rotate(180)" style="fill:#fff;opacity:0.30000000000000004"></path><path d="M347.58,348.51h2a1.53,1.53,0,0,1,1.53,1.53v88a0,0,0,0,1,0,0H346a0,0,0,0,1,0,0V350A1.53,1.53,0,0,1,347.58,348.51Z" transform="translate(741.83 44.67) rotate(90)" style="fill:#48A2C3"></path><path d="M347.58,348.51h2a1.53,1.53,0,0,1,1.53,1.53v88a0,0,0,0,1,0,0H346a0,0,0,0,1,0,0V350A1.53,1.53,0,0,1,347.58,348.51Z" transform="translate(741.83 44.67) rotate(90)" style="fill:#fff;opacity:0.4"></path><path d="M304.27,287.3h1.34a1.86,1.86,0,0,1,1.86,1.86V414.9a0,0,0,0,1,0,0h-5.06a0,0,0,0,1,0,0V289.16A1.86,1.86,0,0,1,304.27,287.3Z" transform="translate(609.87 702.2) rotate(180)" style="fill:#48A2C3"></path><rect x="391.88" y="287.3" width="5.06" height="4.56" style="opacity:0.2"></rect><rect x="302.41" y="287.3" width="5.06" height="4.56" style="opacity:0.2"></rect><rect x="187.65" y="278.62" width="209.29" height="8.68" transform="translate(584.58 565.92) rotate(180)" style="fill:#48A2C3"></rect><rect x="187.65" y="278.62" width="209.29" height="8.68" transform="translate(584.58 565.92) rotate(180)" style="fill:#fff;opacity:0.30000000000000004"></rect><rect x="301.68" y="278.62" width="95.25" height="8.68" transform="translate(698.62 565.92) rotate(180)" style="opacity:0.1"></rect><rect x="176.8" y="273.82" width="230.98" height="5.42" transform="translate(584.58 553.07) rotate(180)" style="fill:#48A2C3"></rect><rect x="176.8" y="273.82" width="230.98" height="5.42" transform="translate(584.58 553.07) rotate(180)" style="fill:#fff;opacity:0.5"></rect><rect x="301.68" y="273.82" width="106.1" height="5.42" transform="translate(709.47 553.07) rotate(180)" style="opacity:0.2"></rect><path d="M307.47,287.3h-5.06V412.88a2,2,0,0,0,2,2h1a2,2,0,0,0,2-2" style="fill:#fff;opacity:0.30000000000000004"></path><path d="M279.56,287.3h1.34a1.86,1.86,0,0,1,1.86,1.86V414.9a0,0,0,0,1,0,0H277.7a0,0,0,0,1,0,0V289.16A1.86,1.86,0,0,1,279.56,287.3Z" transform="translate(560.46 702.2) rotate(180)" style="fill:#48A2C3"></path><path d="M279.56,287.3h1.34a1.86,1.86,0,0,1,1.86,1.86V414.9a0,0,0,0,1,0,0H277.7a0,0,0,0,1,0,0V289.16A1.86,1.86,0,0,1,279.56,287.3Z" transform="translate(560.46 702.2) rotate(180)" style="fill:#fff;opacity:0.30000000000000004"></path><path d="M233.4,348.51h2a1.53,1.53,0,0,1,1.53,1.53v88a0,0,0,0,1,0,0h-5.06a0,0,0,0,1,0,0V350A1.53,1.53,0,0,1,233.4,348.51Z" transform="translate(627.66 158.85) rotate(90)" style="fill:#48A2C3"></path><path d="M233.4,348.51h2a1.53,1.53,0,0,1,1.53,1.53v88a0,0,0,0,1,0,0h-5.06a0,0,0,0,1,0,0V350A1.53,1.53,0,0,1,233.4,348.51Z" transform="translate(627.66 158.85) rotate(90)" style="fill:#fff;opacity:0.4"></path><path d="M190.09,287.3h1.34a1.86,1.86,0,0,1,1.86,1.86V414.9a0,0,0,0,1,0,0h-5.06a0,0,0,0,1,0,0V289.16A1.86,1.86,0,0,1,190.09,287.3Z" transform="translate(381.52 702.2) rotate(180)" style="fill:#48A2C3"></path><rect x="277.7" y="287.3" width="5.06" height="4.56" style="opacity:0.2"></rect><rect x="188.23" y="287.3" width="5.06" height="4.56" style="opacity:0.2"></rect><path d="M193.29,287.3h-5.06V412.88a2,2,0,0,0,2,2h1a2,2,0,0,0,2-2" style="fill:#fff;opacity:0.30000000000000004"></path></g><g id="freepik--device-2--inject-44"><rect x="346.67" y="325.94" width="39.46" height="88.97" style="fill:#263238"></rect><rect x="346.67" y="325.94" width="39.46" height="88.97" style="fill:#fff;opacity:0.30000000000000004"></rect><rect x="313.91" y="325.94" width="39.46" height="88.97" style="fill:#263238"></rect><rect x="313.91" y="325.94" width="39.46" height="88.97" style="fill:#fff;opacity:0.7000000000000001"></rect><polygon points="338.61 351.59 328.68 351.59 313.91 325.94 353.38 325.94 338.61 351.59" style="fill:#fff;opacity:0.4"></polygon><polygon points="338.61 363.12 328.68 363.12 313.91 414.9 353.38 414.9 338.61 363.12" style="fill:#fff;opacity:0.4"></polygon><rect x="328.68" y="351.59" width="9.92" height="11.53" style="fill:#fff;opacity:0.7000000000000001"></rect><path d="M333.65,361.13a3.57,3.57,0,0,1-2.53-6.09l1,.95a2.22,2.22,0,0,0,0,3.14,2.28,2.28,0,0,0,3.13,0,2.22,2.22,0,0,0,0-3.14l1-.95a3.55,3.55,0,0,1,0,5A3.52,3.52,0,0,1,333.65,361.13Z" style="fill:#48A2C3"></path><rect x="332.97" y="353.58" width="1.36" height="3.32" style="fill:#48A2C3"></rect></g><g id="freepik--devices-1--inject-44"><polygon points="238.44 268.1 272.07 268.1 272.07 274.65 204.8 274.65 204.8 271.32 238.44 268.1" style="fill:#263238"></polygon><polygon points="238.44 268.1 272.07 268.1 272.07 274.65 204.8 274.65 204.8 271.32 238.44 268.1" style="fill:#fff;opacity:0.7000000000000001"></polygon><polygon points="238.44 274.65 272.07 274.65 272.07 268.1 238.44 271.32 238.44 274.65" style="opacity:0.5"></polygon><rect x="214.05" y="253.33" width="4.56" height="17.53" style="fill:#263238"></rect><rect x="214.05" y="253.33" width="4.56" height="17.53" style="fill:#fff;opacity:0.30000000000000004"></rect><path d="M221.69,267.33H211a3.5,3.5,0,0,0-1.35.27l-8.53,3.48a3.57,3.57,0,0,0-2.23,3.31H233.8a3.57,3.57,0,0,0-2.23-3.31L223,267.6A3.5,3.5,0,0,0,221.69,267.33Z" style="fill:#263238"></path><path d="M221.69,267.33H211a3.5,3.5,0,0,0-1.35.27l-8.53,3.48a3.57,3.57,0,0,0-2.23,3.31H233.8a3.57,3.57,0,0,0-2.23-3.31L223,267.6A3.5,3.5,0,0,0,221.69,267.33Z" style="fill:#fff;opacity:0.5"></path><rect x="214.05" y="253.33" width="4.56" height="6.43" style="opacity:0.1"></rect><rect x="182.99" y="206.43" width="66.68" height="49.24" style="fill:#263238"></rect><rect x="182.99" y="206.43" width="66.68" height="49.24" style="fill:#fff;opacity:0.5"></rect><polygon points="249.67 255.66 252.09 253.49 252.09 208.6 249.67 206.43 249.67 255.66" style="fill:#263238"></polygon><polygon points="249.67 255.66 252.09 253.49 252.09 208.6 249.67 206.43 249.67 255.66" style="fill:#fff;opacity:0.30000000000000004"></polygon><rect x="185.7" y="209.14" width="61.26" height="42.73" style="fill:#48A2C3"></rect><rect x="185.7" y="209.14" width="61.26" height="42.73" style="fill:#fff;opacity:0.4"></rect><path d="M221.67,234.37a2,2,0,0,1-3.42-1.2c-.35-3.77-.89-6-.1-8a5.5,5.5,0,0,1,10.19,4.12Z" style="fill:#48A2C3"></path><path d="M221.67,233.45a2,2,0,0,1-3.42-1.2c-.35-3.77-.89-6-.1-8a5.5,5.5,0,0,1,10.19,4.12Z" style="fill:#48A2C3"></path><path d="M221.67,233.45a2,2,0,0,1-3.42-1.2c-.35-3.77-.89-6-.1-8a5.5,5.5,0,0,1,10.19,4.12Z" style="fill:#fff;opacity:0.30000000000000004"></path><path d="M241.81,234.37a2,2,0,0,0,3.42-1.2c.35-3.77.88-6,.1-8a5.5,5.5,0,0,0-10.19,4.12Z" style="fill:#48A2C3"></path><path d="M241.6,233.45a2,2,0,0,0,3.41-1.2c.36-3.77.89-6,.1-8a5.49,5.49,0,0,0-10.18,4.12Z" style="fill:#fff;opacity:0.30000000000000004"></path><rect x="223.24" y="226.91" width="16.65" height="4.63" style="fill:#48A2C3"></rect><rect x="223.24" y="226.91" width="16.65" height="4.63" style="fill:#fff;opacity:0.30000000000000004"></rect><rect x="223.24" y="221.15" width="16.65" height="7.95" style="fill:#48A2C3"></rect><rect x="223.24" y="221.15" width="16.65" height="7.95" style="fill:#fff;opacity:0.6000000000000001"></rect><path d="M228.34,228.39a5.5,5.5,0,1,1-3-7.15A5.49,5.49,0,0,1,228.34,228.39Z" style="fill:#48A2C3"></path><path d="M228.34,228.39a5.5,5.5,0,1,1-3-7.15A5.49,5.49,0,0,1,228.34,228.39Z" style="fill:#fff;opacity:0.7000000000000001"></path><path d="M226.46,226.27a3.25,3.25,0,1,1-3.25-3.25A3.25,3.25,0,0,1,226.46,226.27Z" style="fill:#48A2C3"></path><path d="M226.46,226.27a3.25,3.25,0,1,1-3.25-3.25A3.25,3.25,0,0,1,226.46,226.27Z" style="opacity:0.30000000000000004"></path><path d="M234.82,228.39a5.5,5.5,0,1,0,3-7.15A5.49,5.49,0,0,0,234.82,228.39Z" style="fill:#48A2C3"></path><path d="M234.82,228.39a5.5,5.5,0,1,0,3-7.15A5.49,5.49,0,0,0,234.82,228.39Z" style="fill:#fff;opacity:0.7000000000000001"></path><rect x="230.12" y="223.9" width="2.89" height="0.85" style="fill:#48A2C3"></rect><path d="M238.39,225.11a.88.88,0,1,1-1-.69A.88.88,0,0,1,238.39,225.11Z" style="fill:#48A2C3"></path><path d="M240.47,224.61a.88.88,0,1,1-1.72.34.88.88,0,0,1,1.72-.34Z" style="fill:#48A2C3"></path><path d="M238.93,227.86a.88.88,0,0,1-.7,1,.89.89,0,0,1-1-.69.88.88,0,0,1,.7-1A.89.89,0,0,1,238.93,227.86Z" style="fill:#48A2C3"></path><path d="M241,227.37a.87.87,0,0,1-.69,1,.88.88,0,0,1-.34-1.72A.88.88,0,0,1,241,227.37Z" style="fill:#48A2C3"></path><path d="M242.58,224.17a.88.88,0,1,1-1.72.33.89.89,0,0,1,.69-1A.88.88,0,0,1,242.58,224.17Z" style="fill:#48A2C3"></path><path d="M243.12,226.92a.88.88,0,1,1-1.72.33.88.88,0,0,1,1.72-.33Z" style="fill:#48A2C3"></path><path d="M225.14,226.25a1.93,1.93,0,1,1-1.93-1.93A1.92,1.92,0,0,1,225.14,226.25Z" style="fill:#48A2C3;opacity:0.30000000000000004"></path><rect x="188.39" y="214.57" width="27.93" height="32.36" style="fill:#263238"></rect><rect x="188.39" y="214.57" width="27.93" height="32.36" style="fill:#fff;opacity:0.5"></rect><rect x="189.2" y="216.93" width="26.31" height="28.86"></rect><rect x="192.62" y="220.03" width="3.9" height="1.22" style="fill:#48A2C3"></rect><rect x="197.21" y="220.03" width="3.9" height="1.22" style="fill:#48A2C3"></rect><rect x="206.4" y="220.03" width="3.9" height="1.22" style="fill:#48A2C3"></rect><rect x="207.8" y="222.72" width="4.3" height="1.22" style="fill:#48A2C3"></rect><rect x="199.16" y="225.4" width="2.81" height="1.22" style="fill:#48A2C3"></rect><rect x="202.74" y="225.4" width="4.3" height="1.22" style="fill:#48A2C3"></rect><rect x="207.8" y="225.4" width="3.08" height="1.22" style="fill:#48A2C3"></rect><rect x="197.68" y="230.77" width="5.32" height="1.22" style="fill:#48A2C3"></rect><rect x="203.76" y="230.77" width="3.28" height="1.22" style="fill:#48A2C3"></rect><rect x="203.71" y="236.14" width="4.3" height="1.22" style="fill:#48A2C3"></rect><rect x="208.77" y="236.14" width="3.32" height="1.22" style="fill:#48A2C3"></rect><rect x="192.62" y="241.51" width="4.3" height="1.22" style="fill:#48A2C3"></rect><rect x="196.52" y="222.72" width="6.86" height="1.22" style="fill:#48A2C3"></rect><rect x="196.9" y="228.08" width="5.07" height="1.22" style="fill:#48A2C3"></rect><rect x="207.8" y="230.77" width="4.3" height="1.22" style="fill:#48A2C3"></rect><rect x="196.7" y="233.45" width="4.3" height="1.22" style="fill:#48A2C3"></rect><rect x="201.76" y="233.45" width="4.3" height="1.22" style="fill:#48A2C3"></rect><rect x="192.62" y="236.14" width="4.3" height="1.22" style="fill:#48A2C3"></rect><rect x="202.74" y="238.82" width="3.32" height="1.22" style="fill:#48A2C3"></rect><rect x="206.82" y="238.82" width="5.28" height="1.22" style="fill:#48A2C3"></rect><rect x="197.68" y="241.51" width="5.28" height="1.22" style="fill:#48A2C3"></rect><g style="opacity:0.5"><rect x="196.52" y="222.72" width="6.86" height="1.22" style="fill:#fff"></rect><rect x="196.9" y="228.08" width="5.07" height="1.22" style="fill:#fff"></rect><rect x="207.8" y="230.77" width="4.3" height="1.22" style="fill:#fff"></rect><rect x="196.7" y="233.45" width="4.3" height="1.22" style="fill:#fff"></rect><rect x="201.76" y="233.45" width="4.3" height="1.22" style="fill:#fff"></rect><rect x="192.62" y="236.14" width="4.3" height="1.22" style="fill:#fff"></rect><rect x="202.74" y="238.82" width="3.32" height="1.22" style="fill:#fff"></rect><rect x="206.82" y="238.82" width="5.28" height="1.22" style="fill:#fff"></rect><rect x="197.68" y="241.51" width="5.28" height="1.22" style="fill:#fff"></rect></g><rect x="201.81" y="220.03" width="3.9" height="1.22" style="fill:#48A2C3"></rect><rect x="204.14" y="222.72" width="2.9" height="1.22" style="fill:#48A2C3"></rect><rect x="192.62" y="225.4" width="5.79" height="1.22" style="fill:#48A2C3"></rect><rect x="202.74" y="228.08" width="5.24" height="1.22" style="fill:#48A2C3"></rect><rect x="208.74" y="228.08" width="3.36" height="1.22" style="fill:#48A2C3"></rect><rect x="192.62" y="230.77" width="4.3" height="1.22" style="fill:#48A2C3"></rect><rect x="206.82" y="233.45" width="4.3" height="1.22" style="fill:#48A2C3"></rect><rect x="197.68" y="236.14" width="5.28" height="1.22" style="fill:#48A2C3"></rect><rect x="198.65" y="238.82" width="3.32" height="1.22" style="fill:#48A2C3"></rect><rect x="203.71" y="241.51" width="4.3" height="1.22" style="fill:#48A2C3"></rect><g style="opacity:0.4"><rect x="201.81" y="220.03" width="3.9" height="1.22"></rect><rect x="204.14" y="222.72" width="2.9" height="1.22"></rect><rect x="192.62" y="225.4" width="5.79" height="1.22"></rect><rect x="202.74" y="228.08" width="5.24" height="1.22"></rect><rect x="208.74" y="228.08" width="3.36" height="1.22"></rect><rect x="192.62" y="230.77" width="4.3" height="1.22"></rect><rect x="206.82" y="233.45" width="4.3" height="1.22"></rect><rect x="197.68" y="236.14" width="5.28" height="1.22"></rect><rect x="198.65" y="238.82" width="3.32" height="1.22"></rect><rect x="203.71" y="241.51" width="4.3" height="1.22"></rect></g><rect x="208.77" y="241.51" width="2.35" height="1.22" style="fill:#48A2C3"></rect><rect x="351.24" y="253.33" width="4.56" height="17.53" style="fill:#263238"></rect><rect x="351.24" y="253.33" width="4.56" height="17.53" style="fill:#fff;opacity:0.30000000000000004"></rect><path d="M358.88,267.33H348.16a3.5,3.5,0,0,0-1.35.27l-8.53,3.48a3.57,3.57,0,0,0-2.23,3.31H371a3.57,3.57,0,0,0-2.23-3.31l-8.53-3.48A3.5,3.5,0,0,0,358.88,267.33Z" style="fill:#263238"></path><path d="M358.88,267.33H348.16a3.5,3.5,0,0,0-1.35.27l-8.53,3.48a3.57,3.57,0,0,0-2.23,3.31H371a3.57,3.57,0,0,0-2.23-3.31l-8.53-3.48A3.5,3.5,0,0,0,358.88,267.33Z" style="fill:#fff;opacity:0.5"></path><rect x="351.24" y="253.33" width="4.56" height="6.43" style="opacity:0.1"></rect><rect x="320.18" y="206.43" width="66.68" height="49.24" style="fill:#263238"></rect><rect x="320.18" y="206.43" width="66.68" height="49.24" style="fill:#fff;opacity:0.5"></rect><polygon points="386.86 255.66 389.28 253.49 389.28 208.6 386.86 206.43 386.86 255.66" style="fill:#263238"></polygon><polygon points="386.86 255.66 389.28 253.49 389.28 208.6 386.86 206.43 386.86 255.66" style="fill:#fff;opacity:0.30000000000000004"></polygon><rect x="322.89" y="209.14" width="61.26" height="42.73" style="fill:#48A2C3"></rect><rect x="322.89" y="209.14" width="61.26" height="42.73" style="fill:#fff;opacity:0.6000000000000001"></rect><path d="M377.48,209H322.76v43h61.53V209Zm-6.81.27h6.54v6.85h-6.54Zm6.54,14h-6.54V216.4h6.54Zm0,7.12h-6.54v-6.85h6.54Zm0,7.12h-6.54v-6.85h6.54Zm0,7.12h-6.54v-6.85h6.54Zm-47.37-6.85h6.53v6.85h-6.53Zm0-7.12h6.53v6.85h-6.53Zm0-7.12h6.53v6.85h-6.53Zm0-7.12h6.53v6.85h-6.53Zm40.56,6.85h-6.53V216.4h6.53Zm0,7.12h-6.53v-6.85h6.53Zm0,7.12h-6.53v-6.85h6.53Zm-33.76-6.85h6.54v6.85h-6.54Zm0-7.12h6.54v6.85h-6.54Zm27,6.85h-6.54v-6.85h6.54Zm-6.81,0h-6.54v-6.85h6.54Zm-6.81,0h-6.53v-6.85H350Zm-6.53.27H350v6.85h-6.53Zm6.8,0h6.54v6.85h-6.54Zm6.81,0h6.54v6.85h-6.54Zm6.54-7.39h-6.54V216.4h6.54Zm-6.81,0h-6.54V216.4h6.54Zm-6.81,0h-6.53V216.4H350Zm-6.8,0h-6.54V216.4h6.54Zm-6.54,14.51h6.54v6.85h-6.54Zm6.81,0H350v6.85h-6.53Zm6.8,0h6.54v6.85h-6.54Zm6.81,0h6.54v6.85h-6.54Zm6.81,0h6.53v6.85h-6.53Zm0-28.49h6.53v6.85h-6.53Zm-6.81,0h6.54v6.85h-6.54Zm-6.81,0h6.54v6.85h-6.54Zm-6.8,0H350v6.85h-6.53Zm-6.81,0h6.54v6.85h-6.54Zm-6.8,0h6.53v6.85h-6.53Zm-6.81,0h6.53v6.85H323Zm0,7.13h6.53v6.85H323Zm0,7.12h6.53v6.85H323Zm0,7.12h6.53v6.85H323Zm0,7.12h6.53v6.85H323Zm6.53,14H323v-6.85h6.53Zm6.81,0h-6.53v-6.85h6.53Zm6.81,0h-6.54v-6.85h6.54Zm6.8,0h-6.53v-6.85H350Zm6.81,0h-6.54v-6.85h6.54Zm6.81,0h-6.54v-6.85h6.54Zm6.8,0h-6.53v-6.85h6.53Zm6.81,0h-6.54v-6.85h6.54Zm6.81,0h-6.54v-6.85H384Zm0-7.12h-6.54v-6.85H384Zm0-7.12h-6.54v-6.85H384Zm0-7.12h-6.54v-6.85H384Zm0-7.12h-6.54V216.4H384Zm-6.54-7.13v-6.85H384v6.85Z" style="fill:#48A2C3"></path><path d="M374.64,214.15H366.1l-2,3.44h-4.18v-1.87H344.2v9.34h-5.12a4,4,0,1,0,0,7.91h5.12v10.31h8.54v6.25h4.61v.07h7.1V245h-7.1v-1.71h2.58V225.51h4.18l2,3.44h8.54l4.27-7.4Z" style="fill:#fff"></path><path d="M364.86,250H357v-.07h-4.61v-6.25H343.8V233.38h-4.72a4.37,4.37,0,1,1,0-8.73h4.72v-9.33h16.53v1.87h3.55l2-3.44h9l4.51,7.8-4.51,7.8h-9l-2-3.43h-3.55v17.77h-2.57v.89h7.1Zm-7.1-.82H364V245.4H357v-2.53h2.57V225.1h4.83l2,3.44h8.07l4-7-4-7h-8.07l-2,3.44h-4.83v-1.87H344.61v9.33h-5.53a3.56,3.56,0,0,0,0,7.11h5.53v10.3h8.54v6.25h4.61Z" style="fill:#263238"></path><path d="M357.76,238h-3.93v-9.81h3.93Zm-3.12-.82H357V229h-2.31Z" style="fill:#263238"></path><path d="M372.64,224h-4.48v-4.48h4.48Zm-3.66-.82h2.85v-2.85H369Z" style="fill:#263238"></path><polygon points="348.47 221.8 347.66 217.78 354.12 221.8 348.47 221.8" style="fill:#48A2C3"></polygon><polygon points="348.47 221.8 347.66 217.78 354.12 221.8 348.47 221.8" style="fill:#fff;opacity:0.7000000000000001"></polygon><polygon points="348.47 221.8 347.66 225.82 354.12 221.8 348.47 221.8" style="fill:#48A2C3"></polygon><polygon points="348.47 221.8 347.66 225.82 354.12 221.8 348.47 221.8" style="opacity:0.30000000000000004"></polygon><rect x="326.19" y="239.26" width="23.31" height="10.02" style="fill:#263238"></rect><rect x="326.19" y="239.26" width="23.31" height="10.02" style="fill:#fff;opacity:0.5"></rect><rect x="326.87" y="241.23" width="21.96" height="7.1"></rect><rect x="329.77" y="242.88" width="3.26" height="1.02" style="fill:#48A2C3"></rect><rect x="334.97" y="242.88" width="1.89" height="1.02" style="fill:#48A2C3"></rect><rect x="341.28" y="242.88" width="3.26" height="1.02" style="fill:#48A2C3"></rect><rect x="342.44" y="245.12" width="3.59" height="1.02" style="fill:#48A2C3"></rect><rect x="329.77" y="245.12" width="3.26" height="1.02" style="fill:#48A2C3"></rect><rect x="334.97" y="245.12" width="3.83" height="1.02" style="fill:#48A2C3"></rect><rect x="337.44" y="242.88" width="3.26" height="1.02" style="fill:#48A2C3"></rect><rect x="339.39" y="245.12" width="2.42" height="1.02" style="fill:#48A2C3"></rect><rect x="279.15" y="249.65" width="5.43" height="20.86" style="fill:#263238"></rect><rect x="279.15" y="249.65" width="5.43" height="20.86" style="fill:#263238"></rect><path d="M288.24,266.31H275.48a4.24,4.24,0,0,0-1.61.32l-10.15,4.13a4.28,4.28,0,0,0-2.65,3.95h41.58a4.28,4.28,0,0,0-2.65-3.95l-10.15-4.13A4.24,4.24,0,0,0,288.24,266.31Z" style="fill:#263238"></path><rect x="279.15" y="249.65" width="5.43" height="5.91" style="opacity:0.1"></rect><rect x="242.18" y="193.83" width="79.36" height="58.59" style="fill:#263238"></rect><rect x="242.18" y="193.83" width="79.36" height="58.59" style="fill:#fff;opacity:0.2"></rect><polygon points="321.54 252.42 324.63 249.84 324.63 196.41 321.54 193.83 321.54 252.42" style="fill:#263238"></polygon><polygon points="295.23 213.78 268.49 213.78 245.62 197.8 318.1 197.8 295.23 213.78" style="fill:#48A2C3"></polygon><polygon points="295.23 213.78 268.49 213.78 245.62 197.8 318.1 197.8 295.23 213.78" style="fill:#fff;opacity:0.30000000000000004"></polygon><polygon points="295.23 232.47 268.49 232.47 245.62 248.44 318.1 248.44 295.23 232.47" style="fill:#48A2C3"></polygon><polygon points="295.23 232.47 268.49 232.47 245.62 248.44 318.1 248.44 295.23 232.47" style="fill:#fff;opacity:0.5"></polygon><polygon points="295.23 232.47 295.23 213.78 318.1 197.8 318.1 248.44 295.23 232.47" style="fill:#48A2C3"></polygon><polygon points="295.23 232.47 295.23 213.78 318.1 197.8 318.1 248.44 295.23 232.47" style="fill:#fff;opacity:0.2"></polygon><polygon points="268.49 232.47 268.49 213.78 245.62 197.8 245.62 248.44 268.49 232.47" style="fill:#48A2C3"></polygon><polygon points="268.49 232.47 268.49 213.78 245.62 197.8 245.62 248.44 268.49 232.47" style="fill:#fff;opacity:0.2"></polygon><rect x="268.49" y="213.78" width="26.75" height="18.69" style="fill:#48A2C3"></rect><rect x="268.49" y="213.78" width="26.75" height="18.69" style="fill:#fff;opacity:0.7000000000000001"></rect><path d="M318.1,248.44v-4.59c-2.17-1.74-5.22-3.46-7-1.3a7.55,7.55,0,0,0-2,5.89Z" style="fill:#48A2C3"></path><path d="M306.63,248.44H311l1.88-6.66a24.07,24.07,0,0,0-10.17-7.59c-6.53-2.48-5.12,8.47-3.07,10.37C300.8,245.61,304,247.22,306.63,248.44Z" style="fill:#ff8b7b"></path><polygon points="308.48 248.44 307.07 235.61 304.09 235.61 302.67 248.44 308.48 248.44" style="fill:#263238"></polygon><polygon points="308.48 248.44 307.07 235.61 304.09 235.61 302.67 248.44 308.48 248.44" style="fill:#fff;opacity:0.2"></polygon><polygon points="305.75 248.44 304.34 235.61 301.36 235.61 299.95 248.44 305.75 248.44" style="fill:#263238"></polygon><polygon points="305.75 248.44 304.34 235.61 301.36 235.61 299.95 248.44 305.75 248.44" style="fill:#fff;opacity:0.4"></polygon><path d="M302.6,234.93s1.42.94,2,5.93-1.36,5.12-2.71,4.51-2.26-1-2.26-1S297.38,233.78,302.6,234.93Z" style="fill:#ff8b7b"></path><path d="M307.21,248.18l.53.26h1.5l-.75-9.24s-3.52-3.33-3.86,1.66S307.21,248.18,307.21,248.18Z" style="fill:#ff8b7b"></path><polygon points="311.34 228.56 297.48 221.55 293.86 221.55 292.67 225.44 292.67 228.56 304.49 238.53 313.03 238.53 313.03 234.09 311.34 228.56" style="fill:#263238"></polygon><polygon points="311.34 228.56 297.48 221.55 293.86 221.55 292.67 225.44 292.67 228.56 304.49 238.53 313.03 238.53 313.03 234.09 311.34 228.56" style="fill:#fff;opacity:0.5"></polygon><polygon points="311.34 228.56 306.19 228.56 304.49 234.09 304.49 238.53 313.03 238.53 313.03 234.09 311.34 228.56" style="opacity:0.30000000000000004"></polygon><polygon points="310.6 229.99 306.92 229.99 305.71 233.93 305.71 234.93 311.81 234.93 311.81 233.93 310.6 229.99" style="opacity:0.1"></polygon><polygon points="306.92 229.99 305.71 233.93 305.71 234.24 311.12 234.24 311.12 233.23 310.12 229.99 306.92 229.99" style="fill:#48A2C3"></polygon><polygon points="306.92 229.99 305.71 233.93 305.71 234.24 311.12 234.24 311.12 233.23 310.12 229.99 306.92 229.99" style="opacity:0.2"></polygon><polygon points="306.19 228.56 311.34 228.56 297.48 221.55 293.86 221.55 306.19 228.56" style="fill:#fff;opacity:0.5"></polygon><polygon points="292.67 225.44 292.67 228.56 304.49 238.53 304.49 234.09 292.67 225.44" style="opacity:0.2"></polygon><polygon points="296.41 227.48 297.4 224.24 297.94 224.55 296.93 227.85 296.41 227.48" style="fill:#48A2C3"></polygon><polygon points="295.38 226.72 296.33 223.63 296.87 223.94 295.89 227.1 295.38 226.72" style="fill:#48A2C3"></polygon><polygon points="294.35 225.97 295.25 223.02 295.79 223.32 294.86 226.35 294.35 225.97" style="fill:#48A2C3"></polygon><polygon points="297.45 221.06 296.35 218.84 295.79 218.84 295.29 220.47 295.29 221.78 296.92 222.53 297.7 222.53 297.7 221.88 297.45 221.06" style="fill:#263238"></polygon><polygon points="297.45 221.06 296.35 218.84 295.79 218.84 295.29 220.47 295.29 221.78 296.92 222.53 297.7 222.53 297.7 221.88 297.45 221.06" style="fill:#fff;opacity:0.5"></polygon><polygon points="297.45 221.06 297.17 221.06 296.92 221.88 296.92 222.53 297.7 222.53 297.7 221.88 297.45 221.06" style="opacity:0.2"></polygon><polygon points="297.17 221.06 297.45 221.06 297.45 221.06 296.35 218.84 295.79 218.84 297.17 221.06" style="fill:#fff;opacity:0.5"></polygon><path d="M287.72,222.72h-2a3.85,3.85,0,0,0-3.41-3.42v-2h-.82v2a3.85,3.85,0,0,0-3.41,3.42h-2v.81h2a3.83,3.83,0,0,0,3.41,3.41V229h.82v-2.05a3.83,3.83,0,0,0,3.41-3.41h2Zm-5.45,3.68v-1.92h-.82v1.92a3.31,3.31,0,0,1-2.87-2.87h1.92v-.81h-1.92a3.29,3.29,0,0,1,2.87-2.87v1.91h.82v-1.91a3.29,3.29,0,0,1,2.87,2.87h-1.92v.81h1.92A3.31,3.31,0,0,1,282.27,226.4Z" style="fill:#48A2C3"></path><path d="M287.72,222.72h-2a3.85,3.85,0,0,0-3.41-3.42v-2h-.82v2a3.85,3.85,0,0,0-3.41,3.42h-2v.81h2a3.83,3.83,0,0,0,3.41,3.41V229h.82v-2.05a3.83,3.83,0,0,0,3.41-3.41h2Zm-5.45,3.68v-1.92h-.82v1.92a3.31,3.31,0,0,1-2.87-2.87h1.92v-.81h-1.92a3.29,3.29,0,0,1,2.87-2.87v1.91h.82v-1.91a3.29,3.29,0,0,1,2.87,2.87h-1.92v.81h1.92A3.31,3.31,0,0,1,282.27,226.4Z" style="opacity:0.2"></path><g style="opacity:0.9"><rect x="262.6" y="204.3" width="2.89" height="0.82" style="fill:#fff"></rect><rect x="252.4" y="204.3" width="2.62" height="0.82" style="fill:#fff"></rect><rect x="256.59" y="204.3" width="3.09" height="0.82" style="fill:#fff"></rect><rect x="260.14" y="204.3" width="1.95" height="0.82" style="fill:#fff"></rect></g><g style="opacity:0.9"><rect x="252.4" y="202.5" width="2.62" height="0.82" style="fill:#fff"></rect><rect x="256.59" y="202.5" width="1.52" height="0.82" style="fill:#fff"></rect><rect x="261.67" y="202.5" width="2.62" height="0.82" style="fill:#fff"></rect><rect x="258.58" y="202.5" width="2.62" height="0.82" style="fill:#fff"></rect><rect x="256.59" y="206.11" width="2.1" height="0.82" style="fill:#fff"></rect><rect x="259.2" y="206.11" width="2.89" height="0.82" style="fill:#fff"></rect><rect x="262.6" y="206.11" width="2.07" height="0.82" style="fill:#fff"></rect><rect x="252.4" y="206.11" width="2.62" height="0.82" style="fill:#fff"></rect></g></g><g id="freepik--Character--inject-44"><path d="M179.08,193.38s8.85,2.54,8.65-2.65-7.67.22-9.65-1.15S179.08,193.38,179.08,193.38Z" style="fill:#263238"></path><path d="M179.08,193.38s8.85,2.54,8.65-2.65-7.67.22-9.65-1.15S179.08,193.38,179.08,193.38Z" style="opacity:0.6000000000000001"></path><polygon points="214.82 386.69 213.76 406.13 206.71 406.67 204.85 386.81 214.82 386.69" style="fill:#ff8b7b"></polygon><path d="M215,406.05a.18.18,0,0,1-.16-.14.18.18,0,0,1,.07-.19c.12-.08,2.69-1.79,4-1.53a.93.93,0,0,1,.6.38.68.68,0,0,1,.07.79c-.28.44-1.26.68-2.21.75A13.28,13.28,0,0,1,215,406.05Zm.57-.28c1.44.07,3.37-.07,3.69-.6.05-.06.09-.18-.06-.39a.48.48,0,0,0-.38-.23,1,1,0,0,0-.35,0A8.2,8.2,0,0,0,215.6,405.77Z" style="fill:#48A2C3"></path><path d="M214.93,406.05a.17.17,0,0,1-.09-.16c0-.1.06-2.18,1-3.05a1.3,1.3,0,0,1,1-.38c.5,0,.68.25.71.46.22.85-1.5,2.65-2.39,3.12h-.2Zm1.78-3.24a.93.93,0,0,0-.61.27,4.26,4.26,0,0,0-.85,2.43c.91-.63,2-2,1.94-2.54,0,0-.05-.17-.37-.18l-.11,0Z" style="fill:#48A2C3"></path><path d="M214.17,405l-8.38.59a.68.68,0,0,0-.62.57l-1,6.92a1.14,1.14,0,0,0,.94,1.29h.24c3-.26,5.69-.62,9.44-.88,4.44-.31,3.35.3,8.57,0,3.15-.18,3.47-3.79,2.13-3.87-6.15-.34-6.92-2.14-9.42-4.15A2.68,2.68,0,0,0,214.17,405Z" style="fill:#263238"></path><polygon points="214.11 399.67 206.06 399.7 205.32 391.86 214.54 391.74 214.11 399.67" style="opacity:0.1"></polygon><path d="M139.06,301.05s-4.12,20.41,13,24.21,49-.32,49-.32-3.63,11.08,4.3,70.92h9.49s8.83-67.26,3.09-77.74S177.67,302.64,139.06,301.05Z" style="fill:#48A2C3"></path><path d="M139.06,301.05s-4.12,20.41,13,24.21,49-.32,49-.32-3.63,11.08,4.3,70.92h9.49s8.83-67.26,3.09-77.74S177.67,302.64,139.06,301.05Z" style="fill:#48A2C3"></path><path d="M217.21,317a8.11,8.11,0,0,1,.72,1.08c2.91,5.32,2.07,25.25.54,43.6-7.11-22.32-6.69-28-6.69-28s-4.69-.3-11.51-.67c.18-6.29.78-8.15.78-8.15S211.9,314.54,217.21,317Z" style="opacity:0.2"></path><polygon points="215.81 393.24 215.28 397.01 204.86 397.02 204.34 393.41 215.81 393.24" style="fill:#48A2C3"></polygon><polygon points="215.81 393.24 215.28 397.01 204.86 397.02 204.34 393.41 215.81 393.24" style="fill:#fff;opacity:0.30000000000000004"></polygon><polygon points="245.27 405.05 238.92 406.27 236.4 397.61 234.01 389.42 232.92 385.65 242.26 383.25 242.66 386.18 243.97 395.68 245.27 405.05" style="fill:#ff8b7b"></polygon><path d="M246.09,405.62a.19.19,0,0,1-.14-.16.19.19,0,0,1,.1-.18c.13-.06,2.91-1.41,4.16-1a1,1,0,0,1,.55.46.71.71,0,0,1,0,.8,3.35,3.35,0,0,1-2.3.43A13.32,13.32,0,0,1,246.09,405.62Zm.61-.2c1.41.27,3.35.39,3.74-.09.05-.05.11-.16,0-.4a.49.49,0,0,0-.34-.27,1,1,0,0,0-.35-.07A8.25,8.25,0,0,0,246.7,405.42Z" style="fill:#48A2C3"></path><path d="M246,405.61a.22.22,0,0,1-.07-.17c0-.1.36-2.16,1.4-2.89a1.35,1.35,0,0,1,1-.25c.5.09.64.35.64.56.11.88-1.85,2.41-2.79,2.76h-.08A.2.2,0,0,1,246,405.61Zm2.21-3a.93.93,0,0,0-.64.19,4.26,4.26,0,0,0-1.18,2.28c1-.5,2.29-1.72,2.28-2.24,0-.05,0-.18-.35-.23Z" style="fill:#48A2C3"></path><path d="M245.38,404.5l-8.38-.57a.68.68,0,0,0-.69.49l-2,6.71a1.12,1.12,0,0,0,.75,1.4.85.85,0,0,0,.23,0c3,.15,5.72.17,9.48.43,4.44.3,3.28.75,8.49,1.18,3.14.25,4-3.28,2.63-3.55-6-1.18-6.56-3.06-8.76-5.4A2.66,2.66,0,0,0,245.38,404.5Z" style="fill:#263238"></path><polygon points="244.15 395.64 243.97 395.68 236.4 397.61 234.01 389.42 242.66 386.18 242.69 386.17 244.15 395.64" style="opacity:0.1"></polygon><path d="M144.31,302.3s-2.2,22.82,15.37,22.43,53.93,1.95,53.93,1.95-.9,11.63,21.06,67.86l9.21-2.25s-6.46-69.72-14.52-78.53S182.19,294.66,144.31,302.3Z" style="fill:#48A2C3"></path><polygon points="244.74 389.45 245.16 393.58 233.97 396.31 232.46 392.61 244.74 389.45" style="fill:#48A2C3"></polygon><polygon points="244.74 389.45 245.16 393.58 233.97 396.31 232.46 392.61 244.74 389.45" style="fill:#fff;opacity:0.30000000000000004"></polygon><path d="M185.45,203.44l3.33,4.68a4.29,4.29,0,0,1-3.83.58Z" style="fill:#ff5652"></path><path d="M184.27,200a.32.32,0,0,0,.28-.12,2.57,2.57,0,0,1,2.09-1.08.33.33,0,0,0,.35-.3.33.33,0,0,0-.3-.35,3.21,3.21,0,0,0-2.66,1.33.33.33,0,0,0,.06.46h0A.32.32,0,0,0,184.27,200Z" style="fill:#1a2e35"></path><path d="M187.27,202.67c0,.62-.26,1.15-.67,1.18s-.8-.49-.82-1.09.25-1.16.66-1.18S187.22,202,187.27,202.67Z" style="fill:#1a2e35"></path><path d="M163,200c.16,8.31,0,11.85,4.06,16.28,6.22,4.6,16.22,4.66,18.55-3.55,2.1-7.38,1.49-19.71-6.5-23.4A11.36,11.36,0,0,0,163,200Z" style="fill:#ff8b7b"></path><path d="M175.67,219.4l0-.41c.08-.91.88-2.62,1.77-2.42L181,218.4A11,11,0,0,1,175.67,219.4Z" style="fill:#1a2e35;opacity:0.2"></path><polygon points="175.87 217.29 173.61 229.77 162.12 228.23 165.84 215.38 175.87 217.29" style="fill:#ff8b7b"></polygon><path d="M175.6,224.46l3.89-2.24s-12.44-4.06-17.79-2.51-3,4-3,4Z" style="fill:#48A2C3"></path><path d="M175.6,224.46l3.89-2.24s-12.44-4.06-17.79-2.51-3,4-3,4Z" style="opacity:0.30000000000000004"></path><path d="M161.5,242s5.44,20.7,7.54,22.71c1.35,1.3,25-1.43,25-1.43l6.57-2.32a3.3,3.3,0,0,1,3.23.61c2,1.71,5.31,4.8,5.42,6.62a3.14,3.14,0,0,1-1.61,2.34c-1.35.38-5.12-2.31-5.12-2.31l-8.57.75s-21.29,6.4-27.53,5.79c-7.24-.71-13.91-26.81-13.91-26.81Z" style="fill:#ff8b7b"></path><path d="M161.5,242s5.44,20.7,7.54,22.71c1.35,1.3,25-1.43,25-1.43l6.57-2.32a3.3,3.3,0,0,1,3.23.61c2,1.71,5.31,4.8,5.42,6.62a3.14,3.14,0,0,1-1.61,2.34c-1.35.38-5.12-2.31-5.12-2.31l-8.57.75s-21.29,6.4-27.53,5.79c-7.24-.71-13.91-26.81-13.91-26.81Z" style="opacity:0.1"></path><path d="M153.16,226.73s6.16.73,10.73,21.18a27.44,27.44,0,0,0-10.24,5.73s-3.65-9.33-4-14.43C149.17,232.41,153.16,226.73,153.16,226.73Z" style="fill:#48A2C3"></path><path d="M153.16,226.73s6.16.73,10.73,21.18a27.44,27.44,0,0,0-10.24,5.73s-3.65-9.33-4-14.43C149.17,232.41,153.16,226.73,153.16,226.73Z" style="opacity:0.30000000000000004"></path><path d="M186.63,230.25s-6.65,46.49-7.41,70.6c0,0-15.19,1.76-41,2.15,0,0-3.94-75.15,20.45-79.26C181.42,219.9,186.63,230.25,186.63,230.25Z" style="fill:#48A2C3"></path><path d="M186.63,230.25s-6.25,39.64-7,63.76c0,0-15-.39-40.76,0,0,0-4.57-66.16,19.82-70.27C181.42,219.9,186.63,230.25,186.63,230.25Z" style="opacity:0.30000000000000004"></path><path d="M180.14,234.68l4.81,8c-.5,3.81-1.07,8.29-1.65,13.11a45,45,0,0,1-4.43-21Z" style="opacity:0.2"></path><path d="M188,232s9.9,21.78,12.39,23.56c1.61,1.15,20.31-.71,20.31-.71s5.91-4.55,8.22-4.29c2.73.31,7.82,4.44,8.37,7.13a3.36,3.36,0,0,1-1.32,2.68c-1.36.6-4.21-1.6-5.69-1.64-2.26-.06-6.62,1.49-8.81,2.07-7.08,1.86-15.73,5.33-22.32,5.63-7.66.34-19.65-26.88-19.65-26.88Z" style="fill:#ff8b7b"></path><path d="M181,225.46s6.52-.22,14.49,20.35a28.92,28.92,0,0,0-9.75,7.58s-5.27-9.14-6.44-14.39C177.73,232,181,225.46,181,225.46Z" style="fill:#48A2C3"></path><path d="M181,225.46s6.52-.22,14.49,20.35a28.92,28.92,0,0,0-9.75,7.58s-5.27-9.14-6.44-14.39C177.73,232,181,225.46,181,225.46Z" style="opacity:0.30000000000000004"></path><path d="M173.52,216.84a16.13,16.13,0,0,0,6-11.05,33.66,33.66,0,0,0,1.37-4.94,49.42,49.42,0,0,0,.1-7.8,2.26,2.26,0,0,0,2.62-2.3s.93-4.27-1.73-7.21-4.6,2-4.6,2-2.25-5.59-4.74-4.74-2.27,4.34-2.27,4.34-6-3.18-7.31-.58,1.73,4.2,1.73,4.2-6.79-.31-6.18,2.55a3,3,0,0,0,3,2.72s-3.48,0-3.69,2.93,2.57,1.68,3,5.28c.36,3.22,1.14,8.17,3.83,12.55a2.87,2.87,0,0,0,2.48,1.38A29.87,29.87,0,0,1,173.52,216.84Z" style="fill:#263238"></path><path d="M180.06,202.47a6.36,6.36,0,0,1-.16,4.9c-.94,2-2.06,1.57-3.24-.21-1.06-1.6-1.84-4.59-.19-6.07S179.3,200.53,180.06,202.47Z" style="fill:#ff8b7b"></path><path d="M176.79,188.93c-1.15-2.45-2.94-5.56-5.61-7.19,0,0-3.22,2.26-3.52,2.32-.15-.14,4.3,3.61,5.42,6.43a35.4,35.4,0,0,1,2,10.8l3.81-.89A25.55,25.55,0,0,0,176.79,188.93Z" style="fill:#48A2C3"></path><g style="opacity:0.30000000000000004;isolation:isolate"><path d="M176.79,188.93c-1.15-2.45-2.94-5.56-5.61-7.19,0,0-3.22,2.26-3.52,2.32-.15-.14,4.3,3.61,5.42,6.43a35.4,35.4,0,0,1,2,10.8l3.81-.89A25.55,25.55,0,0,0,176.79,188.93Z"></path></g><path d="M181.32,197.55h0a7.18,7.18,0,1,1-7.89,12c-1.85-1.07-3.44-5.5-1.26-8.8S178,195.38,181.32,197.55Z" style="fill:#48A2C3"></path><path d="M182.22,200c2,1.35,2.19,4.49.5,7s-4.64,3.58-6.62,2.29-1.6-4.53.08-7.08S180.26,198.66,182.22,200Z" style="opacity:0.30000000000000004;isolation:isolate"></path><polygon points="175.21 204.81 183.68 203.77 183.19 204.93 175.76 205.96 175.21 204.81" style="fill:#263238"></polygon><path d="M128,394c6.63-1.09,16.46-2.63,20.83-3,1-.07,2.17-.12,3.5-.16v-34h8.33v34c1.32,0,2.53.09,3.49.16,4.38.33,14.21,1.87,20.84,3a7.9,7.9,0,0,1,6.61,7.8v1.72h-8.07l-1.09-2.42s-15.17-2.63-20.29-3a101.78,101.78,0,0,0-11.32,0c-5.11.38-20.29,3-20.29,3l-1.08,2.42h-8.08V401.8A7.9,7.9,0,0,1,128,394Z" style="fill:#263238"></path><path d="M119.08,409.21a5.7,5.7,0,1,0,5.69-5.69A5.69,5.69,0,0,0,119.08,409.21Z" style="fill:#263238"></path><path d="M121.93,409.21a2.85,2.85,0,1,0,2.84-2.85A2.85,2.85,0,0,0,121.93,409.21Z" style="fill:#fff;opacity:0.5"></path><path d="M182.54,409.21a5.69,5.69,0,1,0,5.69-5.69A5.69,5.69,0,0,0,182.54,409.21Z" style="fill:#263238"></path><path d="M185.38,409.21a2.85,2.85,0,1,0,2.85-2.85A2.86,2.86,0,0,0,185.38,409.21Z" style="fill:#fff;opacity:0.5"></path><rect x="152.34" y="356.88" width="8.33" height="10.24" style="opacity:0.1"></rect><path d="M153.38,329.15h6.24a3.57,3.57,0,0,1,3.57,3.57v29a0,0,0,0,1,0,0H149.82a0,0,0,0,1,0,0v-29A3.57,3.57,0,0,1,153.38,329.15Z" transform="translate(313 690.91) rotate(180)" style="fill:#263238"></path><path d="M153.38,329.15h6.24a3.57,3.57,0,0,1,3.57,3.57v29a0,0,0,0,1,0,0H149.82a0,0,0,0,1,0,0v-29A3.57,3.57,0,0,1,153.38,329.15Z" transform="translate(313 690.91) rotate(180)" style="fill:#fff;opacity:0.30000000000000004"></path><rect x="149.82" y="329.15" width="13.37" height="7.94" style="opacity:0.2"></rect><path d="M111.31,322.38A110.33,110.33,0,0,1,135.7,319c8.47-.21,40.17,0,47.69,0a110.56,110.56,0,0,1,27.22,3.39c5.59,1.43,3.87,9.49-1.18,9.59-.44,0-96.28,0-96.63,0C107.52,332.2,105.6,323.84,111.31,322.38Z" style="fill:#263238"></path><path d="M95.45,253.16a4.76,4.76,0,0,0,4.73-4.23l1.2-10.44a4.77,4.77,0,0,1,4.74-4.22h20.15a4.77,4.77,0,0,1,4.65,3.7l2.63,11.48a4.78,4.78,0,0,0,4.65,3.71h1.56a4.75,4.75,0,0,1,4.73,4.22l7.58,65.71a4.77,4.77,0,0,1-4.74,5.31H103a4.76,4.76,0,0,1-4.73-4.22l-7.58-65.71A4.77,4.77,0,0,1,95.45,253.16Z" style="fill:#263238"></path><path d="M95.45,253.16a4.76,4.76,0,0,0,4.73-4.23l1.2-10.44a4.77,4.77,0,0,1,4.74-4.22h20.15a4.77,4.77,0,0,1,4.65,3.7l2.63,11.48a4.78,4.78,0,0,0,4.65,3.71h1.56a4.75,4.75,0,0,1,4.73,4.22l7.58,65.71a4.77,4.77,0,0,1-4.74,5.31H103a4.76,4.76,0,0,1-4.73-4.22l-7.58-65.71A4.77,4.77,0,0,1,95.45,253.16Z" style="fill:#fff;opacity:0.30000000000000004"></path><path d="M100.18,248.93l1.2-10.44a4.77,4.77,0,0,1,4.74-4.22h12.56a4.75,4.75,0,0,1,4.64,3.7L126,249.45a4.78,4.78,0,0,0,4.65,3.71h1.55a4.76,4.76,0,0,1,4.74,4.22l7.58,65.71a4.77,4.77,0,0,1-4.74,5.31H103a4.76,4.76,0,0,1-4.73-4.22l-7.58-65.71a4.77,4.77,0,0,1,4.74-5.31h0A4.76,4.76,0,0,0,100.18,248.93Z" style="fill:#263238"></path><path d="M100.18,248.93l1.2-10.44a4.77,4.77,0,0,1,4.74-4.22h12.56a4.75,4.75,0,0,1,4.64,3.7L126,249.45a4.78,4.78,0,0,0,4.65,3.71h1.55a4.76,4.76,0,0,1,4.74,4.22l7.58,65.71a4.77,4.77,0,0,1-4.74,5.31H103a4.76,4.76,0,0,1-4.73-4.22l-7.58-65.71a4.77,4.77,0,0,1,4.74-5.31h0A4.76,4.76,0,0,0,100.18,248.93Z" style="fill:#fff;opacity:0.1"></path><path d="M208,331.79a100.14,100.14,0,0,0-49.25,0c-6.09,1.56-8.69-7.85-2.59-9.41a110.7,110.7,0,0,1,54.43,0c6.09,1.55,3.51,11-2.59,9.41Z" style="fill:#fff;opacity:0.30000000000000004"></path><path d="M182.54,328.4h0a2.17,2.17,0,0,0,2.17-2.17V301.29a2.17,2.17,0,0,0-2.17-2.17h0a2.17,2.17,0,0,0-2.17,2.17v24.94A2.17,2.17,0,0,0,182.54,328.4Z" style="fill:#263238"></path><path d="M182.54,328.4h0a2.17,2.17,0,0,0,2.17-2.17V301.29a2.17,2.17,0,0,0-2.17-2.17h0a2.17,2.17,0,0,0-2.17,2.17v24.94A2.17,2.17,0,0,0,182.54,328.4Z" style="fill:#fff;opacity:0.5"></path><path d="M182.54,299.12a2.17,2.17,0,0,1,2.17,2.17v6.46h-4.34v-6.46A2.17,2.17,0,0,1,182.54,299.12Z" style="opacity:0.2"></path><path d="M205.54,304h-46c-4.18,0-4.19-6.51,0-6.51h46c4.18,0,4.19,6.51,0,6.51Z" style="fill:#263238"></path><g style="opacity:0.1"><path d="M205.54,304h-46c-4.18,0-4.19-6.51,0-6.51h46c4.18,0,4.19,6.51,0,6.51Z" style="fill:#fff"></path></g><path d="M205.54,304H167.13c-4.19,0-4.2-6.51,0-6.51h38.41c4.18,0,4.19,6.51,0,6.51Z" style="fill:#263238"></path><g style="opacity:0.30000000000000004"><path d="M205.54,304H167.13c-4.19,0-4.2-6.51,0-6.51h38.41c4.18,0,4.19,6.51,0,6.51Z" style="fill:#fff"></path></g><path d="M153.94,392.49h5.13l3.9,5.67-.81-.07a101.78,101.78,0,0,0-11.32,0l-.81.07Z" style="opacity:0.1"></path><path d="M150.7,409.21a5.7,5.7,0,1,0,5.69-5.69A5.69,5.69,0,0,0,150.7,409.21Z" style="fill:#263238"></path><path d="M153.55,409.21a2.85,2.85,0,1,0,2.84-2.85A2.85,2.85,0,0,0,153.55,409.21Z" style="fill:#fff;opacity:0.5"></path><polygon points="153.94 403.04 159.07 403.04 160.15 391.4 152.85 391.4 153.94 403.04" style="fill:#263238"></polygon><polygon points="153.94 403.04 159.07 403.04 160.15 391.4 152.85 391.4 153.94 403.04" style="fill:#fff;opacity:0.2"></polygon></g></svg>